<svg height="660" viewBox="0 0 495.761 495" width="660" xmlns="http://www.w3.org/2000/svg"><path d="M269.254 43.047l59.73-17.067-59.73-17.066" fill="#cc4b4c"/><path d="M239.387 62.418V17.449C239.414 8.035 247.039.41 256.453.38a16.696 16.696 0 0112.031 5.035 16.689 16.689 0 015.036 12.035v52.735zm34.133 223.574v94.121h-34.133v-96.707M94.32 229.102v77.77H60.188v-80.356m375.464 106.441v-66.27l-34.132 6.114v68.914zm0 0" fill="#cbb292"/><path d="M494.617 348.797c-1.875 4.523-6.656 6.316-10.41 8.875-2.73 1.793-5.547 3.582-8.277 5.375-7.082 4.695-14.164 9.3-21.246 13.996a15960.982 15960.982 0 00-34.477 22.7c-.57.288-1.113.632-1.621 1.023a33.985 33.985 0 00-1.024 11.347l-1.28 2.563c-14.337 28.5-54.016 46.59-85.93 46.59H118.469c-34.645 0-71.082-21.246-83.883-51.286.2-7.78-5.184-14.597-12.8-16.214a37.59 37.59 0 01-14.505-4.18 25.254 25.254 0 01-7-21.504c.086-15.36.172-30.633.172-45.996a24.653 24.653 0 015.719-19.113 24.347 24.347 0 0116.125-3.926c30.805 0 61.527 0 92.332-.086a26.36 26.36 0 0114.762 2.988c7.511 5.035 7.68 15.617 9.218 24.488 3.942 23.602 24.371 40.891 48.297 40.875H315.93a51.356 51.356 0 0035.754-14.503 57.656 57.656 0 0127.222-18.262c29.867-5.547 59.735-11.352 89.602-16.98l16.722-3.247a8.602 8.602 0 017.028 1.82 8.593 8.593 0 013.129 6.544c0 4.437.086 8.62.172 10.496a53.207 53.207 0 01-.942 15.617zm0 0" fill="#804537"/><path d="M417.563 412.113c0 1.535 0 2.817-.086 3.414a104.18 104.18 0 01-3.329 14.25 89.516 89.516 0 01-5.718 13.57l-2.645 5.376c-14.328 28.527-43.508 46.55-75.433 46.59H118.469c-46.282-.11-83.77-37.602-83.883-83.883v-1.45c12.8 30.04 49.238 51.286 83.883 51.286h211.883c31.914 0 71.593-18.09 85.93-46.59zm0 0" fill="#7f5b53"/><path d="M167.781 37.55l168.696 38.403a8.46 8.46 0 016.453 6.535c5.855 27.996 30.976 158.867 1.449 212.266a8.316 8.316 0 01-7.61 4.113l-171.316-5.46a8.53 8.53 0 01-7.969-10.72 506.325 506.325 0 00.11-234.863 8.521 8.521 0 012.25-7.957 8.526 8.526 0 017.937-2.316zM30.55 80.04l90.454 19.855a8.414 8.414 0 016.469 6.562c4.215 21.07 18.047 98.297 1.832 132.711a8.531 8.531 0 01-8.227 4.977l-92.941-5.122a8.38 8.38 0 01-6.344-3.394 8.4 8.4 0 01-1.39-7.059 310.842 310.842 0 00.07-138.59 8.415 8.415 0 012.336-7.71 8.432 8.432 0 017.742-2.23zm355.876 80.538a620.298 620.298 0 01.203 109.84 8.45 8.45 0 002.312 7.27 8.441 8.441 0 007.227 2.44c16.453-2.507 46.934-6.827 69.727-8.132a8.403 8.403 0 006.699-4.05 8.428 8.428 0 00.46-7.821 409.047 409.047 0 00-72.003-105.813 8.442 8.442 0 00-9.528-2.035 8.436 8.436 0 00-5.097 8.301zm0 0" fill="#c9d4df"/><path d="M154.055 409.98a8.536 8.536 0 01-17.07 0c0-4.71 3.824-8.53 8.535-8.53 4.71 0 8.535 3.82 8.535 8.53zm34.133 0a8.534 8.534 0 11-17.068.003 8.534 8.534 0 0117.067-.003zm34.132 0a8.534 8.534 0 11-17.067.003 8.534 8.534 0 0117.067-.003zm34.133 0a8.534 8.534 0 11-17.068.003 8.534 8.534 0 0117.068-.003zm34.133 0a8.533 8.533 0 11-17.066 0c0-4.71 3.82-8.53 8.535-8.53 4.71 0 8.53 3.82 8.53 8.53zm34.133 0a8.533 8.533 0 11-17.067 0c0-4.71 3.82-8.53 8.535-8.53a8.532 8.532 0 018.532 8.53zm0 0" fill="#cbb292"/><path d="M53.445 464.254l-8.363 25.258a8.644 8.644 0 01-8.105 5.8H17.52c-4.711 0-8.536-3.82-8.536-8.53v-34.134a8.536 8.536 0 018.536-8.535h23.636" fill="#804537"/></svg>