<svg xmlns="http://www.w3.org/2000/svg" xlink="http://www.w3.org/1999/xlink" width="0" height="0" style="display:none;"><symbol viewBox="0 0 496.8 496.8" id="bank"><path fill="#ececec" d="M40.4 136.8h416v144h-416z"/><path d="M40.4 136.8h416v40h-416zm0 104h416v40h-416z" fill="#b6c1ce"/><path fill="#8c95a4" d="M72.4 280.8h352v208h-352z"/><path fill="#798699" d="M80.4 296.8h336v24h-336z"/><path fill="#ececec" d="M400.4 312.8h48v160h-48z"/><path d="M400.4 312.8h48v40h-48zm0 120h48v40h-48z" fill="#b6c1ce"/><path fill="#ececec" d="M48.4 312.8h48v160h-48z"/><path d="M48.4 312.8h48v40h-48zm0 120h48v40h-48z" fill="#b6c1ce"/><path fill="#798699" d="M72.4 464.8h352v24h-352z"/><path fill="#d3a06c" d="M488.4 120.8v32H8.4v-32l240-112z"/><path fill="#b27946" d="M8.4 120.8h480v32H8.4z"/><path d="M32.4 328.8h80l8-32h-96zm344-32l8 32h80l8-32zm-344 160l-8 32h96l-8-32zm432 0h-80l-8 32h96z" fill="#d3a06c"/><path fill="#eabd8c" d="M276.4 152.8l28-48-28-48h-56l-28 48 28 48z"/><path fill="#ececec" d="M8.4 264.8h480v32H8.4z"/><path d="M168.4 184.8h64v48h-64zm96 0h64v48h-64zm-192 0h64v48h-64zm288 0h64v48h-64z" fill="#d3a06c"/><path d="M280.4 328.8h-64a48 48 0 00-48 48v112h160v-112a48 48 0 00-48-48z" fill="#eabd8c"/><path fill="#d3a06c" d="M168.4 464.8h160v24h-160z"/><path d="M496.4 160.8v-45L248.4 0 .4 115.7v45.1h32v96H.4v48h17.8l8 32h14.2v112H26.2l-8 32H.4v16h496v-16h-17.7l-8-32h-14.3v-112h14.3l8-32h17.7v-48h-32v-96h32zm-480-32h144v-16h-116l204-95.1 204 95.1h-116v16h144v16h-190l23.3-40-32.7-56h-65.2l-32.6 56 23.3 40h-190v-16zm208.6 16l-23.3-40 23.3-40h46.8l23.4 40-23.4 40H225zm-190.3 160h75.5l-4 16H38.7l-4-16zm335.5 0l8 32h14.2v112h-14.2l-8 32h-33.8v-104a56 56 0 00-56-56h-64a56 56 0 00-56 56v104h-33.7l-8-32h-14.3v-112h14.3l8-32h243.5zm-113.8 32h24c22 0 40 18 40 40v104h-64v-144zm-16 144h-64v-104c0-22 18-40 40-40h24v144zm-184-48h16v-16h-16v-48h16v-16h-16v-16h32v48h-16v16h16v48h-32v-16zm-17.7 32h67.5l4 16H34.7l4-16zm423.5 16h-75.5l4-16h67.5l4 16zm-21.8-128h-16v16h16v48h-16v16h16v16h-32v-48h16v-16h-16v-48h32v16zm17.8-32h-67.5l-4-16h75.5l-4 16zm22.2-32h-464v-16h464v16zm-32-32h-400v-96h400v96z"/><path d="M240.4 176.8h-80v64h80v-64zm-16 48h-48v-32h48v32zm112-48h-80v64h80v-64zm-16 48h-48v-32h48v32zm-176 16v-64h-80v64h80zm-64-48h48v32h-48v-32zm352-16h-80v64h80v-64zm-16 48h-48v-32h48v32z"/></symbol><symbol viewBox="0 0 512 512" id="cityhall"><path fill="#424242" d="M477.9 186.5H34L256 49.9z"/><path d="M436.2 186.5H75.8L247 81a17 17 0 0118 0l171.2 105.4z" fill="#9e9e9e"/><path fill="#424242" d="M503.5 160.9l-25.6 25.6L256 49.9 34.1 186.5 8.5 160.9 256 9.9z"/><path d="M477.9 195a8.5 8.5 0 01-4.5-1.3L256 60 38.6 193.7a8.5 8.5 0 01-10.5-1.2L2.5 166.9a8.5 8.5 0 011.6-13.3l247.5-151a8.5 8.5 0 018.8 0l247.5 151a8.5 8.5 0 011.6 13.3l-25.6 25.6a8.5 8.5 0 01-6 2.5zM256 41.4c1.6 0 3.1.4 4.5 1.3l216 133 13.3-13.2L256 19.8 22.2 162.5l13.2 13.2 216.1-133a8.5 8.5 0 014.5-1.3z"/><path d="M307.2 468h179.2c9.4 0 17 7.7 17 17.1v17H8.6v-17c0-9.4 7.7-17 17.1-17h179.2m-170.7 0V451c.2-9.5 8-17.1 17.4-17h409c9.5-.1 17.2 7.5 17.4 17v17" fill="#37474f"/><path d="M286.6 468h166.8c9.1.4 16.2 8 16 17.1v17H8.4v-17c-.3-9 6.8-16.7 16-17h166.8m-159 0V451c-.1-9.2 7.1-16.8 16.3-17h380.7c9.2.2 16.4 7.8 16.2 17v17" fill="#607d8b"/><path d="M503.5 510.7H8.5a8.5 8.5 0 01-8.5-8.5v-17a25.6 25.6 0 0125.6-25.7h179.2a8.5 8.5 0 010 17H25.6a8.5 8.5 0 00-8.5 8.6v8.6h477.8V485a8.5 8.5 0 00-8.5-8.5H307.2a8.5 8.5 0 010-17h179.2A25.6 25.6 0 01512 485v17a8.5 8.5 0 01-8.5 8.6z"/><path d="M477.9 476.6a8.5 8.5 0 01-8.6-8.5V451a8.7 8.7 0 00-8.8-8.5h-409a8.7 8.7 0 00-8.8 8.5v17a8.5 8.5 0 01-17.1 0v-17a25.8 25.8 0 0126-25.6h408.9a25.8 25.8 0 0125.9 25.6v17a8.5 8.5 0 01-8.5 8.6z"/><path fill="#424242" d="M477.9 186.5l-17.1 34H51.2l-17-34z"/><path d="M460.8 229.1H51.2a8.5 8.5 0 01-7.6-4.7l-17.1-34.1a8.5 8.5 0 017.6-12.4H478a8.5 8.5 0 017.6 12.4l-17 34.1a8.5 8.5 0 01-7.7 4.7zm-404.3-17h399l8.6-17.1H47.9l8.6 17z"/><path d="M51.2 220.6h85.3v17a17 17 0 01-17 17.1H68.3a17 17 0 01-17.1-17v-17.1zm17 179.2h51.3a17 17 0 0117 17V434H51.2v-17a17 17 0 0117-17.1zm68.3-179.2H222v17a17 17 0 01-17.1 17.1h-51.2a17 17 0 01-17-17v-17.1zm17.1 179.2h51.2a17 17 0 0117 17V434h-85.3v-17a17 17 0 0117.1-17.1zm136.5-179.2h85.4v17a17 17 0 01-17.1 17.1h-51.2a17 17 0 01-17-17v-17.1zm17.1 179.2h51.2a17 17 0 0117 17V434h-85.3v-17a17 17 0 0117.1-17.1zm68.3-179.2h85.3v17a17 17 0 01-17 17.1h-51.3a17 17 0 01-17-17v-17.1zm17 179.2h51.2a17 17 0 0117.1 17V434h-85.3v-17a17 17 0 0117-17.1z" fill="#37474f"/><path d="M119.5 263.3H68.3a25.6 25.6 0 01-25.6-25.6v-17.1a8.5 8.5 0 018.5-8.5h85.3a8.5 8.5 0 018.6 8.5v17a25.6 25.6 0 01-25.6 25.7zM59.7 229v8.6a8.5 8.5 0 008.6 8.5h51.2a8.5 8.5 0 008.5-8.5V229H59.7zm76.8 213.4H51.2a8.5 8.5 0 01-8.5-8.6v-17a25.6 25.6 0 0125.6-25.6h51.2a25.6 25.6 0 0125.6 25.6v17a8.5 8.5 0 01-8.6 8.6zm-76.8-17.1H128v-8.5a8.5 8.5 0 00-8.5-8.6H68.3a8.5 8.5 0 00-8.6 8.6v8.5z"/><path d="M68.3 254.7h51.2v145H68.3zm85.3 0h51.2v145h-51.2zm153.6 0h51.2v145h-51.2zm85.3 0h51.2v145h-51.2z" fill="#37474f"/><path d="M68.3 254.7h25.6v145H68.3zm85.3 0h25.6v145h-25.6zm153.6 0h25.6v145h-25.6zm85.3 0h25.6v145h-25.6z" fill="#607d8b"/><path d="M119.5 408.3H68.3a8.5 8.5 0 01-8.6-8.5v-145a8.5 8.5 0 018.6-8.6h51.2a8.5 8.5 0 018.5 8.5v145a8.5 8.5 0 01-8.5 8.6zm-42.7-17h34.1v-128H76.8v128zm128-128h-51.2a25.6 25.6 0 01-25.6-25.6v-17.1a8.5 8.5 0 018.5-8.5H222a8.5 8.5 0 018.5 8.5v17a25.6 25.6 0 01-25.6 25.7zM145.1 229v8.6a8.5 8.5 0 008.5 8.5h51.2a8.5 8.5 0 008.5-8.5V229h-68.2zm76.8 213.4h-85.4a8.5 8.5 0 01-8.5-8.6v-17a25.6 25.6 0 0125.6-25.6h51.2a25.6 25.6 0 0125.6 25.6v17a8.5 8.5 0 01-8.5 8.6zm-76.9-17h68.2v-8.5a8.5 8.5 0 00-8.5-8.6h-51.2a8.5 8.5 0 00-8.5 8.6v8.5z"/><path d="M204.8 408.3h-51.2a8.5 8.5 0 01-8.5-8.5v-145a8.5 8.5 0 018.5-8.6h51.2a8.5 8.5 0 018.5 8.5v145a8.5 8.5 0 01-8.5 8.6zm-42.7-17h34.2v-128H162v128zm196.3-128h-51.2a25.6 25.6 0 01-25.6-25.6v-17.1a8.5 8.5 0 018.5-8.5h85.4a8.5 8.5 0 018.5 8.5v17a25.6 25.6 0 01-25.6 25.7zM298.7 229v8.6a8.5 8.5 0 008.5 8.5h51.2a8.5 8.5 0 008.5-8.5V229h-68.2zm76.8 213.4H290a8.5 8.5 0 01-8.5-8.6v-17a25.6 25.6 0 0125.6-25.6h51.2a25.6 25.6 0 0125.6 25.6v17a8.5 8.5 0 01-8.5 8.6zm-76.8-17.1h68.2v-8.5a8.5 8.5 0 00-8.5-8.6h-51.2a8.5 8.5 0 00-8.5 8.6v8.5z"/><path d="M358.4 408.3h-51.2a8.5 8.5 0 01-8.5-8.5v-145a8.5 8.5 0 018.5-8.6h51.2a8.5 8.5 0 018.5 8.5v145a8.5 8.5 0 01-8.5 8.6zm-42.7-17H350v-128h-34.2v128zm128-128h-51.2a25.6 25.6 0 01-25.6-25.6v-17.1a8.5 8.5 0 018.6-8.5h85.3a8.5 8.5 0 018.5 8.5v17a25.6 25.6 0 01-25.6 25.7zM384 229v8.6a8.5 8.5 0 008.5 8.5h51.2a8.5 8.5 0 008.6-8.5V229H384zm76.8 213.4h-85.3a8.5 8.5 0 01-8.6-8.6v-17a25.6 25.6 0 0125.6-25.6h51.2a25.6 25.6 0 0125.6 25.6v17a8.5 8.5 0 01-8.5 8.6zm-76.8-17h68.3v-8.5a8.5 8.5 0 00-8.6-8.6h-51.2a8.5 8.5 0 00-8.5 8.6v8.5z"/><path d="M443.7 408.3h-51.2a8.5 8.5 0 01-8.5-8.5v-145a8.5 8.5 0 018.5-8.6h51.2a8.5 8.5 0 018.6 8.5v145a8.5 8.5 0 01-8.6 8.6zm-42.6-17h34.1v-128h-34.1v128z"/><circle cx="256" cy="122.5" r="25.6" fill="#ffeb3a"/><path d="M256 156.6a34.1 34.1 0 110-68.3 34.1 34.1 0 010 68.3zm0-51.2a17 17 0 100 34.1 17 17 0 000-34.1z"/></symbol><symbol viewBox="0 0 512 512" id="crew-member"><path fill="#efedee" d="M337.297 364.372H174.702l-30.512 69.867L174.702 512l66.137-13.783L259.478 512h77.819l35.583-67.552z"/><path d="M142.512 364.372s-8.034 3.012-18.867 11.016c-22.42 16.56-56.836 59.531-56.836 136.612h53.617l7.726-6.226 7.726 6.226h38.823V364.372h-32.189z" fill="#f98084"/><path d="M149.4 375.389c10.832-8.005 18.867-11.016 18.867-11.016h-25.755s-8.034 3.012-18.867 11.016c-22.42 16.559-56.836 59.53-56.836 136.611h25.755c0-77.081 34.416-120.052 56.836-136.611z" fill="#dc5a64"/><path d="M383.848 508.606l7.726 3.394h53.617c0-58.747-19.991-97.661-39.425-120.189l-27.61 1.25-3.298-26.177c-3.358-1.756-5.37-2.512-5.37-2.512h-32.19V512h38.824l7.726-3.394z" fill="#f98084"/><path d="M120.426 512v-49.086a7.726 7.726 0 1115.452 0V512h-15.452zm255.695 0v-49.086a7.726 7.726 0 1115.452 0V512h-15.452z" fill="#dc5a64"/><path d="M405.765 391.811c-6.066-7.031-12.078-12.484-17.41-16.422-5.421-4.002-10.138-6.759-13.496-8.504-3.359-1.756-5.37-2.512-5.37-2.512C282.378 470.788 174.702 512 174.702 512h84.776c38.4-22.854 95.755-62.61 146.287-120.189z" fill="#3a484a"/><circle cx="57.237" cy="227.763" r="43.828" fill="#e3b098"/><path d="M474.974 295.29a7.726 7.726 0 01-7.726-7.726v-30.968a7.726 7.726 0 1115.452 0v30.968a7.725 7.725 0 01-7.726 7.726z" fill="#ffce1c"/><g fill="#e3b098"><circle cx="454.763" cy="227.763" r="43.828"/><path d="M440.005 119.794v104.103c-2.435 36.65-19.588 70.124-43.158 97.702-16.567 19.384-35.514 42.506-61.335 49.169-29.675 7.657-50.844-18.643-79.359-18.643s-49.684 26.301-79.359 18.643c-25.821-6.663-44.769-29.786-61.335-49.169-23.571-27.578-40.722-61.053-43.158-97.702V119.794h367.704z"/></g><path d="M356.031 250.297a7.726 7.726 0 01-7.726-7.726v-19.45a7.726 7.726 0 1115.452 0v19.45a7.726 7.726 0 01-7.726 7.726z" fill="#3a484a"/><path d="M369.276 278.884h-26.49a7.726 7.726 0 110-15.452h26.49a7.726 7.726 0 110 15.452z" fill="#f98084"/><path d="M256 277.786c-9.203 0-17.844-3.848-23.709-10.557a7.726 7.726 0 1111.634-10.17c2.93 3.352 7.331 5.275 12.074 5.275 4.743 0 9.144-1.922 12.075-5.275a7.723 7.723 0 0110.902-.731 7.724 7.724 0 01.731 10.902c-5.863 6.709-14.504 10.556-23.707 10.556z" fill="#3a484a"/><path d="M255.848 344.275c26.051 0 45.39 24.028 72.5 17.032 23.59-6.087 40.899-27.211 56.035-44.92 21.533-25.194 37.203-55.776 39.428-89.259v-72.022l30.276 5.802c.442 5.119.679 51.13.679 56.356 0 103.82-88.99 187.982-198.764 187.982S57.236 321.084 57.236 217.264c0-5.226.236-51.237.679-56.356l30.276-5.802v72.022c2.225 33.482 17.895 64.064 39.428 89.259 15.135 17.709 32.445 38.833 56.035 44.92 27.11 6.996 46.449-17.032 72.5-17.032h-.306z" fill="#dc5a64"/><path d="M255.848 146.405c108.137 0 198.917 37.526 198.917 37.526s42.946-21.256 42.946-75.074-57.378-7.51-104.938-45.058S313.228 0 256 0s-89.211 26.25-136.772 63.799S14.29 55.037 14.29 108.857s42.946 75.074 42.946 75.074 90.78-37.526 198.917-37.526h-.305z" fill="#3a484a"/><path d="M47.255 98.555c0-8.225 1.345-14.101 3.786-18.306-21.401-.278-36.751.772-36.751 28.608 0 53.819 42.946 75.074 42.946 75.074s11.678-4.827 31.644-11.019c-7.213-4.098-41.625-26.178-41.625-74.357z" fill="#313d40"/><path d="M275.143 76.652l19.223-19.223c5.245-5.244 5.245-13.746 0-18.99-5.244-5.245-13.747-5.245-18.99 0l-19.223 19.223-19.223-19.223c-5.244-5.245-13.747-5.245-18.99 0-5.244 5.244-5.244 13.746 0 18.99l19.223 19.223-19.223 19.223c-5.244 5.244-5.244 13.746 0 18.99a13.385 13.385 0 009.495 3.933c3.437 0 6.873-1.311 9.495-3.933l19.223-19.223 19.223 19.223a13.387 13.387 0 009.495 3.933c3.437 0 6.873-1.311 9.495-3.933 5.245-5.244 5.245-13.746 0-18.99l-19.223-19.223z" fill="#efedee"/><path d="M264.226 146.486c-9.724 13.801-22.2 26.072-37.366 36.655-20.496 14.304-45.895 25.629-75.488 33.66-23.36 6.34-45.708 9.602-63.107 11.278-14.218 1.369-25.125 1.678-30.578 1.735.363 5.209.943 10.362 1.745 15.445 6.273-.088 17.129-.465 30.929-1.814 17.847-1.746 40.594-5.121 64.692-11.633 31.388-8.481 58.465-20.554 80.48-35.882 19.7-13.717 35.334-30.07 46.749-48.793a492.774 492.774 0 00-18.056-.651z" fill="#313d40"/><path d="M111.86 209.966c0-34.023 100.732-34.023 100.732 0s-22.55 61.603-50.367 61.603-50.365-27.58-50.365-61.603z" fill="#3a484a"/></symbol><symbol viewBox="0 0 511.5 511.5" id="explore"><path d="M269.2 60.7h-27l-5.4-30.5a19.3 19.3 0 1137.9 0z" fill="#ffdaaa"/><path d="M255.7 7.5c-2.4 0-4.8.5-7 1.3 8.3 3.2 13.7 12 12 21.4l-5.5 30.5h14l5.5-30.5c2.1-11.8-7-22.7-19-22.7z" fill="#ff9478"/><path d="M127.3 108.3l-19 19-25.5-17.6a19.3 19.3 0 1126.9-26.9z" fill="#ffdaaa"/><path d="M80.2 80.2a19.2 19.2 0 00-4 5.9 19.3 19.3 0 0123.6 6.6l17.6 25.5 10-10-17.7-25.4a19.3 19.3 0 00-29.5-2.6z" fill="#ff9478"/><path d="M60.7 242.3v26.9l-30.5 5.5a19.3 19.3 0 110-38z" fill="#ffdaaa"/><path d="M7.5 255.7c0 2.5.5 4.9 1.3 7 3.2-8.2 12-13.6 21.4-12l30.5 5.6v-14l-30.5-5.5a19.3 19.3 0 00-22.7 19z" fill="#ff9478"/><path d="M108.3 384.2l19 19-17.6 25.4a19.3 19.3 0 11-26.9-26.8z" fill="#ffdaaa"/><path d="M80.2 431.3a19.2 19.2 0 005.9 4 19.3 19.3 0 016.6-23.6l25.5-17.6-10-10-25.4 17.7a19.3 19.3 0 00-2.6 29.5z" fill="#ff9478"/><path d="M242.3 450.8h26.9l5.5 30.5a19.3 19.3 0 11-38 0z" fill="#ffdaaa"/><path d="M255.7 504c2.5 0 4.9-.5 7-1.3a19.3 19.3 0 01-12-21.4l5.6-30.5h-14l-5.5 30.5a19.3 19.3 0 0019 22.7z" fill="#ff9478"/><path d="M384.2 403.2l19-19 25.4 17.6a19.3 19.3 0 11-26.8 26.8z" fill="#ffdaaa"/><path d="M431.3 431.3a19.2 19.2 0 004-5.9 19.3 19.3 0 01-23.6-6.7l-17.6-25.4-10 9.9 17.7 25.4c6.9 9.9 21 11.2 29.5 2.7z" fill="#ff9478"/><path d="M450.8 269.2v-27l30.5-5.4a19.3 19.3 0 110 37.9z" fill="#ffdaaa"/><path d="M504 255.7c0-2.4-.5-4.8-1.3-7a19.3 19.3 0 01-21.4 12l-30.5-5.5v14l30.5 5.5c11.8 2.1 22.7-7 22.7-19z" fill="#ff9478"/><path d="M403.2 127.3l-19-19 17.6-25.5a19.3 19.3 0 1126.8 26.9z" fill="#ffdaaa"/><path d="M431.3 80.2a19.2 19.2 0 00-5.9-4 19.3 19.3 0 01-6.7 23.6l-25.4 17.6 9.9 10 25.4-17.7c9.9-6.9 11.2-21 2.7-29.5z" fill="#ff9478"/><circle cx="255.7" cy="255.7" fill="#ffdaaa" r="55.1"/><path d="M255.7 200.7h-3.4a48.5 48.5 0 11-51.5 51.6 55.5 55.5 0 00-.1 3.4 55 55 0 1055-55z" fill="#ff7956"/><path d="M255.7 429.8c-96 0-174-78.1-174-174s78-174 174-174 174 78 174 174-78 174-174 174zm0-301.4c-70.6 0-128.1 57.1-128.1 127.3S185 383.1 255.7 383.1 384 325.9 384 255.7s-57.5-127.3-128.2-127.3z" fill="#ffdaaa"/><g fill="#ff9478"><path d="M255.7 81.7h-4.5c88.9 2.4 160.5 75.5 160.5 165 0 91-74 165-165 165a165.2 165.2 0 01-165-160.5v4.5c0 96 78 174 174 174s174-78 174-174-78-174-174-174z"/><circle cx="255.7" cy="255.7" r="21.8"/></g><path d="M255.7 226.5c-1.8 0-3.7.2-5.6.5l3 14.7a14.4 14.4 0 012.6-.2 14.3 14.3 0 11-11 5.2l-11.5-9.6a29.3 29.3 0 00-6.7 18.6 29.3 29.3 0 1029.2-29.2z"/><path d="M501.9 235.2a26.7 26.7 0 00-22-5.8l-36.6 6.6v12.2h-6.2A180.8 180.8 0 00389.2 133l4.5-4.5 8.6 8.6 30.6-21.2a26.7 26.7 0 0011.4-19.6 26.7 26.7 0 00-7.7-21.3 26.7 26.7 0 00-21.3-7.7 26.7 26.7 0 00-19.6 11.4l-21.3 30.6 8.7 8.6-4.5 4.5c-30.6-28.3-71-46.1-115.4-48v-6.1h12.3l6.6-36.7a26.7 26.7 0 00-46.9-21.9c-5.1 6.1-7.2 14.1-5.8 22l6.6 36.6h12.2v6.2a181 181 0 00-38.9 5.8l-.3.1 3.9 14.5h.3a166.5 166.5 0 0142.5-5.6c91.9 0 166.5 74.7 166.5 166.5s-74.6 166.6-166.5 166.6a166.6 166.6 0 01-82.5-311.1l-7.5-13a183.3 183.3 0 00-13.2 8.3 182.4 182.4 0 00-19.6 15.8l-4.5-4.5 8.6-8.6-21.2-30.6a26.7 26.7 0 00-19.6-11.4A26.7 26.7 0 0075 74.9a26.7 26.7 0 00-7.7 21.3 26.7 26.7 0 0011.4 19.6l30.6 21.2 8.6-8.6 4.5 4.5a181.6 181.6 0 00-47.9 115.3h-6.2V236l-36.7-6.6a26.7 26.7 0 00-21.9 5.8A26.7 26.7 0 000 255.7c0 8 3.5 15.5 9.6 20.6a26.7 26.7 0 0022 5.8l36.6-6.6v-12.3h6.2a180.8 180.8 0 0047.9 115.4l-4.5 4.5-8.6-8.7-30.6 21.3a26.7 26.7 0 00-11.4 19.6 26.7 26.7 0 007.7 21.3 26.7 26.7 0 0021.3 7.7 26.7 26.7 0 0019.6-11.4l21.2-30.6-8.6-8.6 4.5-4.5c30.6 28.2 71 46 115.3 47.9v6.2H236l-6.6 36.7a26.7 26.7 0 005.8 21.9 26.7 26.7 0 0020.5 9.6c8 0 15.5-3.5 20.6-9.6a26.7 26.7 0 005.8-22l-6.6-36.6h-12.3v-6.2a180.8 180.8 0 00115.4-47.9l4.5 4.5-8.7 8.6 21.3 30.6a26.7 26.7 0 0019.6 11.4 26.7 26.7 0 0021.3-7.7 26.7 26.7 0 00-3.7-41l-30.6-21.2-8.6 8.7-4.5-4.5c28.2-30.6 46-71 47.9-115.4h6.2v12.3L480 282a26.7 26.7 0 0021.9-5.8 26.7 26.7 0 009.6-20.6 26.7 26.7 0 00-9.6-20.5zm-94-148a11.7 11.7 0 018.7-5c3.5-.4 6.9.8 9.4 3.3a11.7 11.7 0 013.4 9.4 11.7 11.7 0 01-5 8.6l-20.3 14-10.2-10zm-159.3-34l-4.4-24.3a11.7 11.7 0 012.5-9.7 11.7 11.7 0 0118 0 11.7 11.7 0 012.6 9.7L263 53.2zm-141.2 64.4l-20.3-14.1a11.7 11.7 0 01-1.6-18 11.7 11.7 0 019.4-3.4 11.7 11.7 0 018.6 5l14 20.3zM53.2 262.9l-24.3 4.4a11.7 11.7 0 01-9.7-2.5 11.7 11.7 0 010-18 11.7 11.7 0 019.7-2.6l24.3 4.4zm50.3 161.5a11.7 11.7 0 01-8.6 5 11.7 11.7 0 01-9.4-3.4 11.7 11.7 0 01-3.4-9.4 11.7 11.7 0 015-8.6l20.3-14 10.2 10zm163.8 58.2a11.7 11.7 0 01-20.6 9.7 11.7 11.7 0 01-2.5-9.7l4.4-24.3h14.3zM404.1 394l20.3 14a11.7 11.7 0 015 8.7 11.7 11.7 0 01-3.4 9.4 11.8 11.8 0 01-9.4 3.4 11.7 11.7 0 01-8.6-5L394 404zm88.2-129.1a11.7 11.7 0 01-9.7 2.5l-24.3-4.4v-14.3l24.3-4.4a11.7 11.7 0 019.7 2.5 11.7 11.7 0 010 18z"/><path d="M391.4 255.7c0-74.3-60.9-134.8-135.7-134.8-74.8 0-135.6 60.5-135.6 134.8a135.4 135.4 0 00161 132.5 135.7 135.7 0 007.8-1.7l-3.7-14.6a120.4 120.4 0 01-6.9 1.6 121.3 121.3 0 01-15 1.8V318c11.6-1.4 22.3-6 31-13l41 41a124.6 124.6 0 01-6.3 5l-5.7 4.1 8.3 12.4a137.2 137.2 0 006.5-4.6 133.7 133.7 0 0053.3-107zm-15.3-7.5H318a62.3 62.3 0 00-13-31l41-41a119 119 0 0130.2 72zm-112.9-112a120.6 120.6 0 0172 29.5l-40.9 40.8a62.3 62.3 0 00-31-12.9zm-15 0v57.4a62.3 62.3 0 00-31 13l-41-41c19.6-17 44.6-27.8 72-29.4zm-82.6 40l41 41a62.3 62.3 0 00-13 31h-58.3a119 119 0 0130.3-72zm-30.3 87h58.3c1.4 11.7 6 22.4 13 31.1l-41 41a119 119 0 01-30.3-72zm113 112.1a120.6 120.6 0 01-72-29.5L217 305c8.8 7 19.5 11.6 31.1 13v57.4zm7.4-72a47.6 47.6 0 11.2-95.2 47.6 47.6 0 01-.2 95.2zm49.2-9c7-8.7 11.6-19.4 13-31h58.3c-1.7 27-12.4 52-30.3 72z"/><path d="M303.8 381.8a135.6 135.6 0 0014.3-6.4l-6.8-13.3a120.7 120.7 0 01-12.8 5.7zM199.2 99.1L194.1 85a181.6 181.6 0 00-14.5 6l6.3 13.6a166.9 166.9 0 0113.3-5.5z"/></symbol><symbol viewBox="0 0 512 512" id="harbor"><path d="M33.758 195.235a8.44 8.44 0 01-8.44-8.44v-56.264a8.44 8.44 0 018.44-8.44h16.879a8.44 8.44 0 018.44 8.44 8.44 8.44 0 01-8.44 8.44h-8.44v47.824a8.438 8.438 0 01-8.439 8.44zm67.517 0a8.44 8.44 0 01-8.44-8.44v-56.264a8.44 8.44 0 018.44-8.44h16.879a8.44 8.44 0 018.44 8.44 8.44 8.44 0 01-8.44 8.44h-8.44v47.824a8.438 8.438 0 01-8.439 8.44z" fill="#326e7d"/><path fill="#875b51" d="M0 164.29v123.78l256 33.759V164.29z"/><path d="M512 256c-9.219 18.983-28.68 32.07-51.2 32.07l-33.758 111.965L460.8 512H512V256z" fill="#4b8d8f"/><path d="M409.6 256c-9.218 18.982-28.68 32.07-51.2 32.07-22.52 0-41.982-13.088-51.2-32.07-9.218 18.982-28.68 32.07-51.2 32.07-22.52 0-41.982-13.088-51.2-32.07-9.218 18.982-28.68 32.07-51.2 32.07s-41.982-13.088-51.2-32.07c-9.218 18.982-28.68 32.07-51.2 32.07S9.219 274.983 0 256v256h460.8V288.07c-22.52 0-41.982-13.088-51.2-32.07z" fill="#63aba1"/><path d="M256 0v101.275c27.966 0 50.637-22.671 50.637-50.637S283.966 0 256 0z" fill="#fe9528"/><path d="M272.879 50.637C272.879 22.671 265.322 0 256 0c-27.966 0-50.637 22.671-50.637 50.637s22.671 50.637 50.637 50.637c9.322.001 16.879-22.67 16.879-50.637z" fill="#fec14d"/><path d="M162.04 364.026h-16.88c-4.661 0-8.44-3.778-8.44-8.44s3.779-8.44 8.44-8.44h16.879c4.661 0 8.44 3.778 8.44 8.44s-3.779 8.44-8.439 8.44zm-102.4 33.759H42.76c-4.661 0-8.44-3.778-8.44-8.44s3.779-8.44 8.44-8.44h16.88a8.44 8.44 0 110 16.88z" fill="#fff"/><path d="M482.18 366.84h-33.758l-27.075 28.516v33.758c7.466 7.194 16.881 12.378 27.389 14.648l33.444-76.922z" fill="#ffa850"/><path fill="#d9f7ff" d="M482.18 333.081H358.4V119.56z"/><path d="M358.4 111.121a8.44 8.44 0 00-8.44 8.44v268.707h16.879V119.56a8.437 8.437 0 00-8.439-8.439z" fill="#e86c16"/><path d="M234.62 366.84l33.444 76.922c17.264-3.729 31.612-15.292 39.136-30.785 8.107 16.693 24.135 28.824 43.198 31.508h16.003c19.063-2.684 35.092-14.815 43.198-31.508a57.044 57.044 0 0011.747 16.138l27.076-62.274H234.62z" fill="#fecb69"/></symbol><symbol viewBox="0 0 980 888.2" id="heart-100"><path d="M465.587 803.84c-116.014-78.742-220.439-172.385-291.34-261.257-49.526-62.08-87.469-133.421-102.442-192.62-26.537-104.916 5.037-211.478 76.905-259.55 29.155-19.5 57.173-27.409 97.03-27.386 49.1.027 92.046 12.883 132.129 39.553 48.401 32.206 76.303 78.764 80.537 134.391.744 9.77 2.483 19.992 3.865 22.715 3.855 7.595 13.429 14.679 21.606 15.986l7.38 1.18v168.841h189.077c103.991 0 189.076.488 189.076 1.083 0 2.156-16.007 28.554-30.145 49.714-56.886 85.143-146.824 175.353-259.584 260.367-28.014 21.122-66.661 48.521-84.933 60.215-4.967 3.179-5.017 3.156-29.161-13.231z" fill="none"/><path d="M463.662 802.839C377.13 743.513 309.4 687.49 244.555 621.607c-46.417-47.161-75.143-81.692-104.407-125.508-40.417-60.516-63.408-113.73-74.006-171.29-3.432-18.64-4.79-59.636-2.611-78.832 8.714-76.783 46.555-138.251 102.307-166.185 12.773-6.4 34.03-13.068 49.433-15.508 19.028-3.014 54.72-2.037 75.107 2.056 45.502 9.133 86.811 30.334 116.509 59.794 15.724 15.598 21.829 23.417 31.624 40.5 11.262 19.64 20.205 51.983 20.22 73.122.009 13.145 2.317 19.37 10.048 27.101 5.962 5.962 8.012 7.131 15.058 8.586l8.157 1.685v168.418h188.162c103.489 0 188.473.505 188.854 1.121 1.037 1.679-14.966 28.684-31.263 52.757-29.86 44.107-58.534 77.959-108.272 127.827-55.612 55.757-109.426 101.476-176.286 149.766-16.603 11.992-57.517 40.21-62.034 42.783-.827.471-13.198-7.161-27.493-16.961z" fill="none"/><path d="M463.662 802.839C377.13 743.513 309.4 687.49 244.555 621.607c-46.417-47.161-75.143-81.692-104.407-125.508-40.417-60.516-63.408-113.73-74.006-171.29-3.432-18.64-4.79-59.636-2.611-78.832 8.714-76.783 46.555-138.251 102.307-166.185 12.773-6.4 34.03-13.068 49.433-15.508 19.028-3.014 54.72-2.037 75.107 2.056 45.502 9.133 86.811 30.334 116.509 59.794 15.724 15.598 21.829 23.417 31.624 40.5 11.262 19.64 20.205 51.983 20.22 73.122.009 13.145 2.317 19.37 10.048 27.101 5.962 5.962 8.012 7.131 15.058 8.586l8.157 1.685v168.418h188.162c103.489 0 188.473.505 188.854 1.121 1.037 1.679-14.966 28.684-31.263 52.757-29.86 44.107-58.534 77.959-108.272 127.827-55.612 55.757-109.426 101.476-176.286 149.766-16.603 11.992-57.517 40.21-62.034 42.783-.827.471-13.198-7.161-27.493-16.961z" fill="#fff"/><path d="M735 0C628.5 0 535.9 54 490 132.8 444.1 54 351.5 0 245 0 84.2 0 0 138.7 0 275.7c0 319.9 454.9 596.5 474.2 608.1 4.9 2.9 10.3 4.4 15.8 4.4s10.9-1.5 15.8-4.4C525.1 872.2 980 595.6 980 275.7 980 138.7 895.8 0 735 0zM490 821.3c-79.2-51-428.7-291.1-428.7-545.6 0-103.3 57.5-214.4 183.8-214.4 103.1 0 214.4 70.3 214.4 183.8 0 16.9 13.7 30.6 30.6 30.6 16.9 0 30.6-13.7 30.6-30.6 0-113.5 111.3-183.8 214.4-183.8 126.3 0 183.8 111.1 183.8 214.4-.1 254.2-349.8 494.5-428.9 545.6z"/><circle cx="870.401" cy="444.76" r="1.5"/><path d="M471.155 808.247C362.733 735.347 263.18 648.935 194.02 567.69c-68.017-79.9-110.91-158.797-125.816-231.428-10.41-50.723-8.017-99.891 7.066-145.231 24.268-72.946 75.736-118.47 144.264-127.602 13.04-1.738 39.451-1.708 53.335.061 85.115 10.844 154.905 61.789 177.614 129.655 4.752 14.201 6.859 25.42 8.297 44.185 1.11 14.491 1.566 17.092 3.794 21.647 4.996 10.21 15.349 16.689 26.844 16.797 9.67.09 15.312-2.212 22.27-9.092 7.517-7.43 8.737-11.059 9.813-29.17 2.543-42.806 17.718-77.031 47.904-108.04 32.816-33.71 76.645-55.835 128.058-64.642 14.747-2.527 45.096-3.486 59.293-1.875 59.139 6.71 105.194 39.186 134.02 94.503 33.155 63.627 36.416 142.63 9.16 221.982-9.84 28.645-26.033 63.61-29.46 63.61-1.91 0-2.596 2.265-.987 3.26 1.4.865-14.464 28.037-29.323 50.23-57.73 86.222-151.77 179.917-266.937 265.954-31.388 23.448-80.807 57.768-83.184 57.768-.56 0-9.06-5.407-18.89-12.016z" fill="red"/></symbol><symbol viewBox="0 0 980 888.2" id="heart-25"><path d="M735 0C628.5 0 535.9 54 490 132.8 444.1 54 351.5 0 245 0 84.2 0 0 138.7 0 275.7c0 319.9 454.9 596.5 474.2 608.1 4.9 2.9 10.3 4.4 15.8 4.4s10.9-1.5 15.8-4.4C525.1 872.2 980 595.6 980 275.7 980 138.7 895.8 0 735 0zM490 821.3c-79.2-51-428.7-291.1-428.7-545.6 0-103.3 57.5-214.4 183.8-214.4 103.1 0 214.4 70.3 214.4 183.8 0 16.9 13.7 30.6 30.6 30.6 16.9 0 30.6-13.7 30.6-30.6 0-113.5 111.3-183.8 214.4-183.8 126.3 0 183.8 111.1 183.8 214.4-.1 254.2-349.8 494.5-428.9 545.6z"/><path d="M492.877 275.474v169.473" fill="none" stroke="#000"/><circle cx="870.401" cy="444.76" r="1.5"/><path d="M868.902 444.76H494.375m0 0c-.512-.112-.85-.093-1.03-.093" fill="none" stroke="#000"/><path d="M493.903 360.03v-84.188l2.809-.525c12.137-2.273 23.103-14.552 23.868-26.728 1.81-28.814 3.395-38.545 9.054-55.586 17.537-52.803 64.557-96.39 127.447-118.14 35.282-12.203 76.23-16.214 109.477-10.725 54.48 8.994 97.967 41.726 124.585 93.774 25.468 49.797 33.476 110.277 22.537 170.197-5.969 32.694-18.704 69.8-35.392 103.13-4.058 8.102-6.404 11.988-7.348 12.168-.763.146-85.908.388-189.212.538l-187.825.274z" fill="red"/><path d="M465.587 803.84c-116.014-78.742-220.439-172.385-291.34-261.257-49.526-62.08-87.469-133.421-102.442-192.62-26.537-104.916 5.037-211.478 76.905-259.55 29.155-19.5 57.173-27.409 97.03-27.386 49.1.027 92.046 12.883 132.129 39.553 48.401 32.206 76.303 78.764 80.537 134.391.744 9.77 2.483 19.992 3.865 22.715 3.855 7.595 13.429 14.679 21.606 15.986l7.38 1.18v168.841h189.077c103.991 0 189.076.488 189.076 1.083 0 2.156-16.007 28.554-30.145 49.714-56.886 85.143-146.824 175.353-259.584 260.367-28.014 21.122-66.661 48.521-84.933 60.215-4.967 3.179-5.017 3.156-29.161-13.231z" fill="none"/><path d="M463.662 802.839C377.13 743.513 309.4 687.49 244.555 621.607c-46.417-47.161-75.143-81.692-104.407-125.508-40.417-60.516-63.408-113.73-74.006-171.29-3.432-18.64-4.79-59.636-2.611-78.832 8.714-76.783 46.555-138.251 102.307-166.185 12.773-6.4 34.03-13.068 49.433-15.508 19.028-3.014 54.72-2.037 75.107 2.056 45.502 9.133 86.811 30.334 116.509 59.794 15.724 15.598 21.829 23.417 31.624 40.5 11.262 19.64 20.205 51.983 20.22 73.122.009 13.145 2.317 19.37 10.048 27.101 5.962 5.962 8.012 7.131 15.058 8.586l8.157 1.685v168.418h188.162c103.489 0 188.473.505 188.854 1.121 1.037 1.679-14.966 28.684-31.263 52.757-29.86 44.107-58.534 77.959-108.272 127.827-55.612 55.757-109.426 101.476-176.286 149.766-16.603 11.992-57.517 40.21-62.034 42.783-.827.471-13.198-7.161-27.493-16.961z" fill="none"/><path d="M463.662 802.839C377.13 743.513 309.4 687.49 244.555 621.607c-46.417-47.161-75.143-81.692-104.407-125.508-40.417-60.516-63.408-113.73-74.006-171.29-3.432-18.64-4.79-59.636-2.611-78.832 8.714-76.783 46.555-138.251 102.307-166.185 12.773-6.4 34.03-13.068 49.433-15.508 19.028-3.014 54.72-2.037 75.107 2.056 45.502 9.133 86.811 30.334 116.509 59.794 15.724 15.598 21.829 23.417 31.624 40.5 11.262 19.64 20.205 51.983 20.22 73.122.009 13.145 2.317 19.37 10.048 27.101 5.962 5.962 8.012 7.131 15.058 8.586l8.157 1.685v168.418h188.162c103.489 0 188.473.505 188.854 1.121 1.037 1.679-14.966 28.684-31.263 52.757-29.86 44.107-58.534 77.959-108.272 127.827-55.612 55.757-109.426 101.476-176.286 149.766-16.603 11.992-57.517 40.21-62.034 42.783-.827.471-13.198-7.161-27.493-16.961z" fill="#fff"/></symbol><symbol viewBox="0 0 980 888.2" id="heart-50"><path d="M465.587 803.84c-116.014-78.742-220.439-172.385-291.34-261.257-49.526-62.08-87.469-133.421-102.442-192.62-26.537-104.916 5.037-211.478 76.905-259.55 29.155-19.5 57.173-27.409 97.03-27.386 49.1.027 92.046 12.883 132.129 39.553 48.401 32.206 76.303 78.764 80.537 134.391.744 9.77 2.483 19.992 3.865 22.715 3.855 7.595 13.429 14.679 21.606 15.986l7.38 1.18v168.841h189.077c103.991 0 189.076.488 189.076 1.083 0 2.156-16.007 28.554-30.145 49.714-56.886 85.143-146.824 175.353-259.584 260.367-28.014 21.122-66.661 48.521-84.933 60.215-4.967 3.179-5.017 3.156-29.161-13.231z" fill="none"/><path d="M463.662 802.839C377.13 743.513 309.4 687.49 244.555 621.607c-46.417-47.161-75.143-81.692-104.407-125.508-40.417-60.516-63.408-113.73-74.006-171.29-3.432-18.64-4.79-59.636-2.611-78.832 8.714-76.783 46.555-138.251 102.307-166.185 12.773-6.4 34.03-13.068 49.433-15.508 19.028-3.014 54.72-2.037 75.107 2.056 45.502 9.133 86.811 30.334 116.509 59.794 15.724 15.598 21.829 23.417 31.624 40.5 11.262 19.64 20.205 51.983 20.22 73.122.009 13.145 2.317 19.37 10.048 27.101 5.962 5.962 8.012 7.131 15.058 8.586l8.157 1.685v168.418h188.162c103.489 0 188.473.505 188.854 1.121 1.037 1.679-14.966 28.684-31.263 52.757-29.86 44.107-58.534 77.959-108.272 127.827-55.612 55.757-109.426 101.476-176.286 149.766-16.603 11.992-57.517 40.21-62.034 42.783-.827.471-13.198-7.161-27.493-16.961z" fill="none"/><path d="M463.662 802.839C377.13 743.513 309.4 687.49 244.555 621.607c-46.417-47.161-75.143-81.692-104.407-125.508-40.417-60.516-63.408-113.73-74.006-171.29-3.432-18.64-4.79-59.636-2.611-78.832 8.714-76.783 46.555-138.251 102.307-166.185 12.773-6.4 34.03-13.068 49.433-15.508 19.028-3.014 54.72-2.037 75.107 2.056 45.502 9.133 86.811 30.334 116.509 59.794 15.724 15.598 21.829 23.417 31.624 40.5 11.262 19.64 20.205 51.983 20.22 73.122.009 13.145 2.317 19.37 10.048 27.101 5.962 5.962 8.012 7.131 15.058 8.586l8.157 1.685v168.418h188.162c103.489 0 188.473.505 188.854 1.121 1.037 1.679-14.966 28.684-31.263 52.757-29.86 44.107-58.534 77.959-108.272 127.827-55.612 55.757-109.426 101.476-176.286 149.766-16.603 11.992-57.517 40.21-62.034 42.783-.827.471-13.198-7.161-27.493-16.961z" fill="#fff"/><path d="M735 0C628.5 0 535.9 54 490 132.8 444.1 54 351.5 0 245 0 84.2 0 0 138.7 0 275.7c0 319.9 454.9 596.5 474.2 608.1 4.9 2.9 10.3 4.4 15.8 4.4s10.9-1.5 15.8-4.4C525.1 872.2 980 595.6 980 275.7 980 138.7 895.8 0 735 0zM490 821.3c-79.2-51-428.7-291.1-428.7-545.6 0-103.3 57.5-214.4 183.8-214.4 103.1 0 214.4 70.3 214.4 183.8 0 16.9 13.7 30.6 30.6 30.6 16.9 0 30.6-13.7 30.6-30.6 0-113.5 111.3-183.8 214.4-183.8 126.3 0 183.8 111.1 183.8 214.4-.1 254.2-349.8 494.5-428.9 545.6z"/><path d="M492.877 275.474v544.623" fill="none" stroke="#000"/><circle cx="870.401" cy="444.76" r="1.5"/><path d="M494.655 546.152V275.598l4.29-.858c6.364-1.273 14.055-7.172 17.897-13.727 2.828-4.826 3.586-8.364 4.546-21.226 2.151-28.824 6.53-45.523 17.8-67.895 24.932-49.49 76.809-87.746 139.421-102.816 37.812-9.101 75.803-9.087 108.716.04 12.087 3.351 34.009 13.614 44.945 21.041 45.523 30.914 75.728 85.962 84.033 153.146 1.963 15.885 1.685 52.66-.524 69.25-4.177 31.378-14.353 66.725-28.327 98.405-10.7 24.256-14.781 31.928-16.986 31.928-1.242 0-1.867 1.14-1.704 3.108.328 3.965-12.456 25.981-31.026 53.43-29.797 44.046-58.499 77.935-108.261 127.827-46.574 46.695-85.052 80.44-139.702 122.519-28.417 21.879-91.906 66.936-94.319 66.936-.44 0-.8-121.75-.8-270.554z" fill="red"/></symbol><symbol viewBox="0 0 980 888.2" id="heart-75"><path d="M465.587 803.84c-116.014-78.742-220.439-172.385-291.34-261.257-49.526-62.08-87.469-133.421-102.442-192.62-26.537-104.916 5.037-211.478 76.905-259.55 29.155-19.5 57.173-27.409 97.03-27.386 49.1.027 92.046 12.883 132.129 39.553 48.401 32.206 76.303 78.764 80.537 134.391.744 9.77 2.483 19.992 3.865 22.715 3.855 7.595 13.429 14.679 21.606 15.986l7.38 1.18v168.841h189.077c103.991 0 189.076.488 189.076 1.083 0 2.156-16.007 28.554-30.145 49.714-56.886 85.143-146.824 175.353-259.584 260.367-28.014 21.122-66.661 48.521-84.933 60.215-4.967 3.179-5.017 3.156-29.161-13.231z" fill="none"/><path d="M463.662 802.839C377.13 743.513 309.4 687.49 244.555 621.607c-46.417-47.161-75.143-81.692-104.407-125.508-40.417-60.516-63.408-113.73-74.006-171.29-3.432-18.64-4.79-59.636-2.611-78.832 8.714-76.783 46.555-138.251 102.307-166.185 12.773-6.4 34.03-13.068 49.433-15.508 19.028-3.014 54.72-2.037 75.107 2.056 45.502 9.133 86.811 30.334 116.509 59.794 15.724 15.598 21.829 23.417 31.624 40.5 11.262 19.64 20.205 51.983 20.22 73.122.009 13.145 2.317 19.37 10.048 27.101 5.962 5.962 8.012 7.131 15.058 8.586l8.157 1.685v168.418h188.162c103.489 0 188.473.505 188.854 1.121 1.037 1.679-14.966 28.684-31.263 52.757-29.86 44.107-58.534 77.959-108.272 127.827-55.612 55.757-109.426 101.476-176.286 149.766-16.603 11.992-57.517 40.21-62.034 42.783-.827.471-13.198-7.161-27.493-16.961z" fill="none"/><path d="M463.662 802.839C377.13 743.513 309.4 687.49 244.555 621.607c-46.417-47.161-75.143-81.692-104.407-125.508-40.417-60.516-63.408-113.73-74.006-171.29-3.432-18.64-4.79-59.636-2.611-78.832 8.714-76.783 46.555-138.251 102.307-166.185 12.773-6.4 34.03-13.068 49.433-15.508 19.028-3.014 54.72-2.037 75.107 2.056 45.502 9.133 86.811 30.334 116.509 59.794 15.724 15.598 21.829 23.417 31.624 40.5 11.262 19.64 20.205 51.983 20.22 73.122.009 13.145 2.317 19.37 10.048 27.101 5.962 5.962 8.012 7.131 15.058 8.586l8.157 1.685v168.418h188.162c103.489 0 188.473.505 188.854 1.121 1.037 1.679-14.966 28.684-31.263 52.757-29.86 44.107-58.534 77.959-108.272 127.827-55.612 55.757-109.426 101.476-176.286 149.766-16.603 11.992-57.517 40.21-62.034 42.783-.827.471-13.198-7.161-27.493-16.961z" fill="#fff"/><path d="M735 0C628.5 0 535.9 54 490 132.8 444.1 54 351.5 0 245 0 84.2 0 0 138.7 0 275.7c0 319.9 454.9 596.5 474.2 608.1 4.9 2.9 10.3 4.4 15.8 4.4s10.9-1.5 15.8-4.4C525.1 872.2 980 595.6 980 275.7 980 138.7 895.8 0 735 0zM490 821.3c-79.2-51-428.7-291.1-428.7-545.6 0-103.3 57.5-214.4 183.8-214.4 103.1 0 214.4 70.3 214.4 183.8 0 16.9 13.7 30.6 30.6 30.6 16.9 0 30.6-13.7 30.6-30.6 0-113.5 111.3-183.8 214.4-183.8 126.3 0 183.8 111.1 183.8 214.4-.1 254.2-349.8 494.5-428.9 545.6z"/><path d="M492.877 275.474v169.473" fill="none" stroke="#000"/><circle cx="870.401" cy="444.76" r="1.5"/><path d="M492.877 444.947H108.178" fill="none" stroke="#000"/><path d="M471.155 808.247c-99.69-67.03-191.83-145.377-260.226-221.272-39.38-43.7-75.677-93.347-97.136-132.868l-4.468-8.229 192.208-.237 192.208-.238.248-84.66.248-84.662 5.867-1.818c4.776-1.48 6.929-2.879 11.584-7.526 7.517-7.502 8.739-11.142 9.813-29.224 2.543-42.807 17.718-77.031 47.904-108.04 32.816-33.71 76.645-55.835 128.058-64.642 14.747-2.527 45.096-3.486 59.293-1.875 59.139 6.71 105.194 39.186 134.02 94.503 33.155 63.627 36.416 142.63 9.16 221.982-9.84 28.645-26.033 63.61-29.46 63.61-1.91 0-2.596 2.265-.987 3.26 1.4.865-14.464 28.037-29.323 50.23-57.73 86.222-151.77 179.917-266.937 265.954-31.388 23.448-80.807 57.768-83.184 57.768-.56 0-9.06-5.407-18.89-12.016z" fill="red"/></symbol><symbol viewBox="0 0 472 472" id="market"><path d="M100 216h-8a16 16 0 00-16 16v8c0 22 18 40 40 40h8a16 16 0 0016-16v-8c0-22-18-40-40-40z" fill="#33bc00"/><path d="M148 216h-8a16 16 0 00-16 16v8c0 22 18 40 40 40h8a16 16 0 0016-16v-8c0-22-18-40-40-40z" fill="#79d60d"/><path d="M84 264h-8a16 16 0 00-16 16v8c0 22 18 40 40 40h8a16 16 0 0016-16v-8c0-22-18-40-40-40z" fill="#025902"/><path d="M132 264h-8a16 16 0 00-16 16v8c0 22 18 40 40 40h8a16 16 0 0016-16v-8c0-22-18-40-40-40z" fill="#008100"/><path d="M180 264h-8a16 16 0 00-16 16v8c0 22 18 40 40 40h8a16 16 0 0016-16v-8c0-22-18-40-40-40z" fill="#33bc00"/><path fill="#008100" d="M292.4 205.5l8-24 15.2 5-8 24-15.2-5zm32 0l8-24 15.2 5-8 24-15.2-5zm32 0l8-24 15.2 5-8 24-15.2-5z"/><path d="M300 200a24 24 0 00-24 24v40h48v-40a24 24 0 00-24-24z" fill="#f80"/><path d="M332 200a24 24 0 00-24 24v40h48v-40a24 24 0 00-24-24z" fill="#ff6536"/><path d="M364 200a24 24 0 00-24 24v40h48v-40a24 24 0 00-24-24z" fill="#ff421d"/><path d="M260 256h144v64H260v-64z" fill="#ffa900"/><path d="M444 328H28V136h16v176h384V136h16v192z" fill="#763a02"/><path fill="#de0418" d="M212 0h48v112h-48V0zm-48 112V0h-35.6L116 112h48z"/><path fill="#fbbf00" d="M164 0h48v112h-48V0zm-48 112L128.4 0H93L68 112h48zm288 0L379.1 0h-35.5L356 112h48z"/><path fill="#de0418" d="M92.9 0H68L20 96v16h48L92.9 0zM356 112L343.6 0H308v112h48z"/><path d="M260 0h48v112h-48V0z" fill="#fbbf00"/><path d="M404 0h-24.9L404 112h48V96L404 0z" fill="#de0418"/><path d="M20 112v24a24 24 0 1048 0v-24H20z" fill="#ff421d"/><path d="M68 112v24a24 24 0 1048 0v-24H68z" fill="#ffdb0c"/><path d="M116 112v24a24 24 0 1048 0v-24h-48z" fill="#ff421d"/><path d="M164 112v24a24 24 0 1048 0v-24h-48z" fill="#ffdb0c"/><path d="M212 112v24a24 24 0 1048 0v-24h-48z" fill="#ff421d"/><path d="M260 112v24a24 24 0 1048 0v-24h-48z" fill="#ffdb0c"/><path d="M308 112v24a24 24 0 1048 0v-24h-48z" fill="#ff421d"/><path d="M356 112v24a24 24 0 1048 0v-24h-48z" fill="#ffdb0c"/><path d="M404 136a24 24 0 1048 0v-24h-48v24z" fill="#ff421d"/><path d="M12 312h448v160H12V312z" fill="#fc0"/><path d="M284 280h96v16h-96v-16z" fill="#e47700"/><g fill="#33bc00"><path d="M294.3 362.4l24-24 11.4 11.3-24 24-11.4-11.3z"/><path d="M308 368h24v16h-24v-16z"/></g><path d="M283.3 352h-2.6a32.8 32.8 0 00-26.6 13.7l-30.4 42.5c-6.4 9-4.3 21.6 4.7 28a20.1 20.1 0 0011.7 3.8h1a20.3 20.3 0 009-2.1l47.8-24a32.7 32.7 0 0014.6-43.8 32.7 32.7 0 00-29.2-18.1z" fill="#ff6536"/><path d="M196 360h-8a16 16 0 00-16 16v8c0 31 25 56 56 56h8a16 16 0 0016-16v-8c0-31-25-56-56-56z" fill="#79d60d"/></symbol><symbol viewBox="0 0 512 512" id="mood-aggressive"><circle cx="256" cy="256" r="256" fill="#ffd93b"/><path d="M512 256c0 141.44-114.64 256-256 256-80.48 0-152.32-37.12-199.28-95.28 43.92 35.52 99.84 56.72 160.72 56.72 141.36 0 256-114.56 256-256 0-60.88-21.2-116.8-56.72-160.72C474.8 103.68 512 175.52 512 256z" fill="#f4c534"/><ellipse cx="170.528" cy="173.152" rx="86.88" ry="92.336" fill="#fff"/><path d="M190.864 249.328c-24.688-.304-44.736-20.784-44.784-45.744-.048-24.944 19.92-44.928 44.608-44.608 24.688.304 44.736 20.784 44.784 45.744.048 24.944-19.92 44.928-44.608 44.608z" fill="#3e4347"/><path d="M213.472 218.56c-4.544-.464-7.664-7.152-6.992-14.928.688-7.776 4.912-13.712 9.456-13.232 4.544.464 7.68 7.152 6.992 14.928-.672 7.776-4.912 13.696-9.456 13.232z" fill="#5a5f63"/><ellipse transform="rotate(-168.125 352.434 157.387)" cx="352.435" cy="157.388" rx="73.36" ry="77.968" fill="#fff"/><path d="M322.368 216.864c20.448 4.032 40.576-9.408 44.96-30.016s-8.656-40.592-29.104-44.624-40.576 9.408-44.96 30.016c-4.384 20.624 8.656 40.592 29.104 44.624z" fill="#3e4347"/><path d="M307.952 180.144c3.504 1.632 8.656-1.872 11.52-7.808 2.864-5.936 2.352-12.064-1.136-13.696-3.504-1.632-8.656 1.872-11.52 7.808-2.864 5.936-2.368 12.064 1.136 13.696z" fill="#5a5f63"/><path d="M356.416 273.328c-24.368 22.576-57.936 37.008-100.8 37.008-34.16 0-62.288-9.264-84.688-24.352-27.632 16.528-46.688 52.496-46.688 94.24 0 48.848 26.048 89.696 61.472 100.768 24.784-30.944 62.88-51.968 114.56-51.968 24.816 0 46.528 4.816 65.136 13.232 19.248-16.912 32.208-46.88 32.208-81.104 0-39.328-17.072-73.136-41.2-87.824z" fill="#3e4347"/><path d="M293.424 426.752c22.448 0 41.536 5.168 57.456 13.824.88-3.584 1.536-7.248 1.536-11.12 0-27.856-22.592-50.448-50.448-50.448-16.56 0-31.328 7.984-40.512 20.336-6.32-2.864-13.408-4.512-20.784-4.512-27.872 0-50.464 22.736-50.464 50.608 0 10.592 3.472 20.272 9.088 28.368 18.96-27.712 50.32-47.056 94.128-47.056z" fill="#e24b4b"/><g fill="#fff"><path d="M269.52 422.832c-46.368 7.872-85.28 20.24-98.992 51.296 10.432 6.32 22.064 9.952 34.432 9.952 16.24 0 31.2-6.16 43.904-16.784 17.856-14.912 42.608-19.936 65.776-12.768 4.832 1.584 9.808 2.288 14.96 2.288 16.976 0 32.544-8.944 44.512-23.584-23.856-19.184-61.872-17.648-104.592-10.4zM281.712 312.48c34.816-5.904 65.824-14.08 86.848-29.52-11.072-10.96-24.512-17.456-38.976-17.456-10.928 0-21.232 3.584-30.24 10.048-20.416 14.208-48.08 13.92-71.888 4.88-7.072-2.72-14.8-4.16-22.512-4.16-16.944 0-32.592 6.672-45.52 18.016 25.408 28.128 70.736 26.912 122.288 18.192zM323.408 397.424c-.72 3.616-7.408 5.168-15.072 3.728-7.52-1.584-13.136-5.664-12.416-9.28.72-3.616 7.552-5.312 15.072-3.728 7.52 1.424 13.136 5.664 12.416 9.28z"/></g><g fill="#3e4347"><path d="M279.264 91.856c-4.816-17.344 24.192-33.552 40.24-39.616 15.696-6.096 34.368-8.496 56.256-4.896-18.08 5.296-29.92 7.808-50.224 18.4-22.288 11.696-31.92 25.328-46.272 26.112zM247.584 83.856c-16.08-.752-25.936-10.96-40.368-18.16-13.712-7.088-28.768-13.184-46.608-17.504-18.768-4.4-25.024-4.64-43.888-6.976 18.896-4.352 29.408-5.392 45.632-4.288 20.672 1.968 39.376 7.328 52.256 13.968 14.192 6.88 33.088 17.12 32.976 32.96z"/></g></symbol><symbol viewBox="0 0 512 512" id="mood-calm"><circle cx="256" cy="256" r="256" fill="#ffd93b"/><path d="M512 256c0 141.44-114.64 256-256 256-80.48 0-152.32-37.12-199.28-95.28 43.92 35.52 99.84 56.72 160.72 56.72 141.36 0 256-114.56 256-256 0-60.88-21.2-116.8-56.72-160.72C474.8 103.68 512 175.52 512 256z" fill="#f4c534"/><ellipse transform="scale(-1) rotate(31.21 715.433 -595.455)" cx="166.318" cy="199.829" rx="56.146" ry="56.13" fill="#fff"/><ellipse transform="rotate(-148.804 180.87 175.82)" cx="180.871" cy="175.822" rx="28.048" ry="28.08" fill="#3e4347"/><ellipse transform="rotate(-113.778 194.434 165.995)" cx="194.433" cy="165.993" rx="8.016" ry="5.296" fill="#5a5f63"/><ellipse transform="scale(-1) rotate(31.21 715.397 -1237.664)" cx="345.695" cy="199.819" rx="56.146" ry="56.13" fill="#fff"/><ellipse transform="rotate(-148.804 360.25 175.837)" cx="360.252" cy="175.84" rx="28.048" ry="28.08" fill="#3e4347"/><ellipse transform="scale(-1) rotate(66.227 254.508 -573.138)" cx="373.794" cy="165.987" rx="8.016" ry="5.296" fill="#5a5f63"/><path d="M370.56 344.4c0 7.696-6.224 13.92-13.92 13.92H155.36c-7.616 0-13.92-6.224-13.92-13.92s6.304-13.92 13.92-13.92h201.296c7.696.016 13.904 6.224 13.904 13.92z" fill="#3e4347"/></symbol><symbol viewBox="0 0 512 512" id="mood-cheerful"><circle cx="256" cy="256" r="256" fill="#ffd93b"/><path d="M512 256c0 141.44-114.64 256-256 256-80.48 0-152.32-37.12-199.28-95.28 43.92 35.52 99.84 56.72 160.72 56.72 141.36 0 256-114.56 256-256 0-60.88-21.2-116.8-56.72-160.72C474.8 103.68 512 175.52 512 256z" fill="#f4c534"/><path d="M402.352 359.696c-26.784 53.712-82.24 90.72-146.32 90.72-63.936 0-119.248-36.752-146.048-90.176-5.392-10.496 6.736-21.408 16.688-14.944 86.544 56.256 172.832 54.912 258.976-.544 9.968-6.448 21.952 4.448 16.704 14.944z" fill="#3e4347"/><path d="M277.696 192.816c-8.688 59.04 22.592 112.48 69.92 119.456s92.672-35.2 101.36-94.256c8.656-58.88-22.592-112.48-69.92-119.456-47.328-6.96-92.704 35.36-101.36 94.256z" fill="#fff"/><circle cx="352.32" cy="236.192" r="42.832" fill="#3e4347"/><g fill="#fff"><ellipse transform="rotate(-134.999 366.997 221.511)" cx="366.996" cy="221.509" rx="14.016" ry="8.544"/><path d="M234.304 192.816c8.688 59.04-22.592 112.48-69.92 119.456s-92.672-35.2-101.36-94.256c-8.656-58.88 22.592-112.48 69.92-119.456 47.328-6.96 92.704 35.36 101.36 94.256z"/></g><circle cx="159.664" cy="236.192" r="42.832" fill="#3e4347"/><ellipse transform="rotate(-134.999 174.326 221.51)" cx="174.326" cy="221.508" rx="14.016" ry="8.544" fill="#fff"/><path d="M256.032 450.416c29.232 0 56.496-8 80.224-21.488-4.64-6.8-10.048-13.024-16.304-18.368-13.808-11.92-33.28-12.864-50.064-5.648-9.888 4.4-21.504 6.912-34.528 6.912-15.696 0-37.312-4.656-52.416 18.512-.4.608-.656 1.312-1.04 1.936 22.304 11.408 47.376 18.144 74.128 18.144z" fill="#e24b4b"/></symbol><symbol viewBox="0 0 512 512" id="mood-euphoric"><circle cx="256" cy="256" r="256" fill="#ffd93b"/><path d="M512 256c0 141.44-114.64 256-256 256-80.48 0-152.32-37.12-199.28-95.28 43.92 35.52 99.84 56.72 160.72 56.72 141.36 0 256-114.56 256-256 0-60.88-21.2-116.8-56.72-160.72C474.8 103.68 512 175.52 512 256z" fill="#f4c534"/><path d="M378.128 343.712c-14.704 58.736-62.64 106.144-122.144 105.952-59.44.208-107.456-47.216-122.08-105.952-2.576-9.968 4.432-19.52 12.336-17.408 72.448 19.152 147.12 19.152 219.568 0 7.824-2.096 14.896 7.44 12.32 17.408z" fill="#5a5f63"/><path d="M255.984 429.088c-44.832.208-84.976-32.896-101.136-79.696 66.896 15.776 135.424 15.776 202.304 0-16.208 46.816-56.384 79.92-101.168 79.696z" fill="#3e4347"/><path d="M255.984 429.088c21.024.112 40.976-7.2 57.968-19.744-.752-2.592-1.584-5.136-2.592-7.568-8.352-19.92-28.608-25.408-45.488-16.416a21.482 21.482 0 01-9.344 2.656c-3.536.208-6.96-.496-10.096-1.872-18-8.144-38.224 4.288-44.544 26.016 16.096 10.832 34.656 17.024 54.096 16.928z" fill="#e24b4b"/><g fill="#3e4347"><path d="M216.288 258.656c-5.536 0-10.4-4.048-11.248-9.68-1.84-12.096-12.672-21.216-25.168-21.216-12.512 0-23.328 9.12-25.168 21.216-.944 6.224-6.784 10.496-12.992 9.552-6.224-.944-10.496-6.768-9.552-12.992 3.52-23.136 24.032-40.592 47.712-40.592s44.192 17.44 47.712 40.592c.944 6.224-3.328 12.032-9.552 12.992a12.98 12.98 0 01-1.744.128zM368.576 258.656c-5.536 0-10.4-4.048-11.248-9.68-1.84-12.096-12.672-21.216-25.168-21.216-12.512 0-23.328 9.12-25.168 21.216-.944 6.224-6.768 10.496-12.992 9.552s-10.496-6.768-9.552-12.992c3.52-23.136 24.032-40.592 47.712-40.592s44.192 17.44 47.712 40.576c.944 6.224-3.328 12.032-9.552 12.992-.592.096-1.168.144-1.744.144zM110.352 199.904h-.736c-6.304-.032-11.36-5.168-11.328-11.472.032-6.272 5.136-11.328 11.392-11.328h.672a96.486 96.486 0 0084.688-50.144c3.024-5.52 9.952-7.552 15.472-4.512 5.52 3.024 7.536 9.952 4.512 15.472a119.287 119.287 0 01-104.672 61.984zM401.648 199.904a119.236 119.236 0 01-104.672-61.984c-3.024-5.52-1.008-12.448 4.512-15.472s12.448-1.008 15.472 4.512c17.072 31.152 49.648 50.272 85.28 50.144h.064c6.272 0 11.36 5.056 11.392 11.328.032 6.304-5.024 11.44-11.328 11.472h-.72z"/></g><path d="M120.224 325.504c-5.776 14.768-22.432 22.048-37.2 16.272s-22.048-22.432-16.272-37.2 47.424-42.4 47.424-42.4 11.824 48.56 6.048 63.328z" fill="#45cbea"/><path d="M73.664 320.112c-1.168-6.4 1.2-12.112 5.072-12.784 3.792-.576 7.904 4.048 8.896 10.448 1.088 6.304-1.28 12.032-5.152 12.688-3.776.592-7.808-3.952-8.816-10.352z" fill="#fff" opacity=".3"/><path d="M391.776 325.504c5.776 14.768 22.432 22.048 37.2 16.272s22.048-22.432 16.272-37.2-47.424-42.4-47.424-42.4-11.824 48.56-6.048 63.328z" fill="#45cbea"/><path d="M438.336 320.112c1.168-6.4-1.2-12.112-5.072-12.784-3.792-.576-7.904 4.048-8.896 10.448-1.088 6.304 1.28 12.032 5.152 12.688 3.776.592 7.808-3.952 8.816-10.352z" fill="#fff" opacity=".3"/><ellipse transform="scale(-1) rotate(27.008 1642.874 -1201.747)" cx="288.594" cy="394.528" rx="8.912" ry="4.832" fill="#fff" opacity=".2"/></symbol><symbol viewBox="0 0 512 512" id="mood-grumpy"><circle cx="256" cy="256" r="256" fill="#ffd93b"/><g fill="#f4c534"><path d="M510.784 256c0 141.44-114.64 256-256 256-80.48 0-152.32-37.12-199.28-95.28 43.92 35.52 99.84 56.72 160.72 56.72 141.36 0 256-114.56 256-256 0-60.88-21.2-116.8-56.72-160.72 58.08 46.96 95.28 118.8 95.28 199.28z"/><path d="M211.632 196.336H71.664c-4.336 9.568-7.04 20.016-7.04 31.216 0 42.4 34.4 76.96 76.96 76.96s77.12-34.56 77.12-76.96c0-11.2-2.72-21.648-7.072-31.216z"/></g><path d="M92.544 196.336c-5.952 9.184-9.504 20.112-9.504 31.888 0 32.24 26.16 58.544 58.544 58.544s58.704-26.32 58.704-58.544c0-11.776-3.568-22.688-9.552-31.888H92.544z" fill="#fff"/><path d="M140.048 196.336c-4.112 5.008-6.688 11.328-6.688 18.304 0 16.016 12.992 28.992 28.992 28.992s28.992-12.992 28.992-28.992c0-6.992-2.576-13.312-6.688-18.304h-44.608z" fill="#3e4347"/><g fill="#f4c534"><path d="M243.504 192.832c0 5.6-4.48 10.24-10.24 10.24h-183.2c-5.76 0-10.24-4.64-10.24-10.24s4.48-10.24 10.24-10.24h183.2c5.76 0 10.24 4.64 10.24 10.24zM440.304 196.336H300.336c-4.336 9.568-7.04 20.016-7.04 31.216 0 42.4 34.4 76.96 76.96 76.96s77.12-34.56 77.12-76.96c0-11.2-2.72-21.648-7.072-31.216z"/></g><path d="M321.216 196.336c-5.952 9.184-9.504 20.112-9.504 31.888 0 32.24 26.16 58.544 58.544 58.544s58.704-26.32 58.704-58.544c0-11.776-3.568-22.688-9.552-31.888h-98.192z" fill="#fff"/><path d="M368.72 196.336c-4.112 5.008-6.688 11.328-6.688 18.304 0 16.016 12.976 28.992 28.992 28.992s28.992-12.992 28.992-28.992c0-6.992-2.576-13.312-6.688-18.304H368.72z" fill="#3e4347"/><path d="M472.176 192.832c0 5.6-4.48 10.24-10.24 10.24h-183.2c-5.76 0-10.24-4.64-10.24-10.24s4.48-10.24 10.24-10.24h183.2c5.76 0 10.24 4.64 10.24 10.24z" fill="#f4c534"/><g fill="#3e4347"><path d="M362.88 416.192c-4.576-10-14.144-21.456-25.92-28.64-26.016-16.272-47.776-6.576-75.52 6.56-36.72 15.728-70.352 11.264-95.04-5.44-12.048-7.744-21.808-18.08-28.48-31.52 9.584 7.68 21.808 14.624 34.56 19.2 25.728 9.088 52.688 8.496 79.2-4.16 19.808-8.496 60.608-28.688 93.92 4.64 12.368 12.368 18.048 29.312 17.28 39.36zM281.744 140.352c-1.36-6.48 2.8-12.864 9.28-14.224.752-.16 76.576-16.16 115.216-33.488 6.032-2.752 13.136 0 15.856 6.048 2.704 6.048 0 13.136-6.048 15.856-41.008 18.384-116.896 34.4-120.112 35.072-6.416 1.36-12.832-2.72-14.192-9.264zM216.064 149.632c-3.216-.656-79.104-16.688-120.112-35.072-6.048-2.72-8.768-9.808-6.048-15.856 2.72-6.048 9.808-8.784 15.856-6.048 38.672 17.328 114.464 33.328 115.216 33.488 6.48 1.36 10.64 7.712 9.28 14.224-1.36 6.528-7.776 10.608-14.192 9.264z"/></g></symbol><symbol viewBox="0 0 512 512" id="mood-happy"><circle cx="256" cy="256" r="256" fill="#ffd93b"/><path d="M407.68 352.848c-24.528 59.712-83.168 101.68-151.664 101.68S128.88 412.56 104.192 352.848c-2.32-5.552 1.536-12.032 7.552-13.264 96.128-17.904 192.4-17.904 288.368 0 6.016 1.232 9.872 7.712 7.568 13.264z" fill="#3e4347"/><path d="M512 256c0 141.44-114.64 256-256 256-80.48 0-152.32-37.12-199.28-95.28 43.92 35.52 99.84 56.72 160.72 56.72 141.36 0 256-114.56 256-256 0-60.88-21.2-116.8-56.72-160.72C474.8 103.68 512 175.52 512 256z" fill="#f4c534"/><g fill="#fff"><path d="M115.264 339.008c18.208 29.632 75.184 32.816 143.168 32.816 67.088 0 124.192-3.184 143.168-31.584-.512-.192-.928-.544-1.472-.656-94.816-17.696-189.904-17.824-284.864-.576z"/><ellipse cx="356.432" cy="205.264" rx="81.056" ry="81.008"/></g><ellipse cx="356.4" cy="205.264" rx="44.192" ry="44.224" fill="#3e4347"/><g fill="#fff"><ellipse transform="scale(-1) rotate(45.004 454.003 -905.989)" cx="375.333" cy="188.084" rx="11.953" ry="8.064"/><ellipse cx="155.616" cy="205.264" rx="81.056" ry="81.008"/></g><ellipse cx="155.584" cy="205.264" rx="44.192" ry="44.224" fill="#3e4347"/><ellipse transform="scale(-1) rotate(45.004 453.918 -421.252)" cx="174.516" cy="188.049" rx="11.953" ry="8.064" fill="#fff"/></symbol><symbol viewBox="0 0 495.761 495" id="ship"><path d="M269.254 43.047l59.73-17.067-59.73-17.066" fill="#cc4b4c"/><path d="M239.387 62.418V17.449C239.414 8.035 247.039.41 256.453.38a16.696 16.696 0 0112.031 5.035 16.689 16.689 0 015.036 12.035v52.735zm34.133 223.574v94.121h-34.133v-96.707M94.32 229.102v77.77H60.188v-80.356m375.464 106.441v-66.27l-34.132 6.114v68.914zm0 0" fill="#cbb292"/><path d="M494.617 348.797c-1.875 4.523-6.656 6.316-10.41 8.875-2.73 1.793-5.547 3.582-8.277 5.375-7.082 4.695-14.164 9.3-21.246 13.996a15960.982 15960.982 0 00-34.477 22.7c-.57.288-1.113.632-1.621 1.023a33.985 33.985 0 00-1.024 11.347l-1.28 2.563c-14.337 28.5-54.016 46.59-85.93 46.59H118.469c-34.645 0-71.082-21.246-83.883-51.286.2-7.78-5.184-14.597-12.8-16.214a37.59 37.59 0 01-14.505-4.18 25.254 25.254 0 01-7-21.504c.086-15.36.172-30.633.172-45.996a24.653 24.653 0 015.719-19.113 24.347 24.347 0 0116.125-3.926c30.805 0 61.527 0 92.332-.086a26.36 26.36 0 0114.762 2.988c7.511 5.035 7.68 15.617 9.218 24.488 3.942 23.602 24.371 40.891 48.297 40.875H315.93a51.356 51.356 0 0035.754-14.503 57.656 57.656 0 0127.222-18.262c29.867-5.547 59.735-11.352 89.602-16.98l16.722-3.247a8.602 8.602 0 017.028 1.82 8.593 8.593 0 013.129 6.544c0 4.437.086 8.62.172 10.496a53.207 53.207 0 01-.942 15.617zm0 0" fill="#804537"/><path d="M417.563 412.113c0 1.535 0 2.817-.086 3.414a104.18 104.18 0 01-3.329 14.25 89.516 89.516 0 01-5.718 13.57l-2.645 5.376c-14.328 28.527-43.508 46.55-75.433 46.59H118.469c-46.282-.11-83.77-37.602-83.883-83.883v-1.45c12.8 30.04 49.238 51.286 83.883 51.286h211.883c31.914 0 71.593-18.09 85.93-46.59zm0 0" fill="#7f5b53"/><path d="M167.781 37.55l168.696 38.403a8.46 8.46 0 016.453 6.535c5.855 27.996 30.976 158.867 1.449 212.266a8.316 8.316 0 01-7.61 4.113l-171.316-5.46a8.53 8.53 0 01-7.969-10.72 506.325 506.325 0 00.11-234.863 8.521 8.521 0 012.25-7.957 8.526 8.526 0 017.937-2.316zm0 0" fill="#35495e"/><path d="M30.55 80.04l90.454 19.855a8.414 8.414 0 016.469 6.562c4.215 21.07 18.047 98.297 1.832 132.711a8.531 8.531 0 01-8.227 4.977l-92.941-5.122a8.38 8.38 0 01-6.344-3.394 8.4 8.4 0 01-1.39-7.059 310.842 310.842 0 00.07-138.59 8.415 8.415 0 012.336-7.71 8.432 8.432 0 017.742-2.23zm355.876 80.538a620.298 620.298 0 01.203 109.84 8.45 8.45 0 002.312 7.27 8.441 8.441 0 007.227 2.44c16.453-2.507 46.934-6.827 69.727-8.132a8.403 8.403 0 006.699-4.05 8.428 8.428 0 00.46-7.821 409.047 409.047 0 00-72.003-105.813 8.442 8.442 0 00-9.528-2.035 8.436 8.436 0 00-5.097 8.301zm0 0" fill="#547580"/><path d="M43.121 341.715c0 4.71-3.82 8.531-8.535 8.531a8.532 8.532 0 01-8.531-8.531 8.533 8.533 0 1117.066 0zm34.133 0c0 4.71-3.82 8.531-8.535 8.531a8.532 8.532 0 01-8.531-8.531 8.533 8.533 0 1117.066 0zm34.133 0c0 4.71-3.82 8.531-8.535 8.531a8.532 8.532 0 01-8.532-8.531 8.533 8.533 0 1117.067 0zm0 0" fill="#f3d55b"/><path d="M154.055 409.98a8.536 8.536 0 01-17.07 0c0-4.71 3.824-8.53 8.535-8.53 4.71 0 8.535 3.82 8.535 8.53zm34.133 0a8.534 8.534 0 11-17.068.003 8.534 8.534 0 0117.067-.003zm34.132 0a8.534 8.534 0 11-17.067.003 8.534 8.534 0 0117.067-.003zm34.133 0a8.534 8.534 0 11-17.068.003 8.534 8.534 0 0117.068-.003zm34.133 0a8.533 8.533 0 11-17.066 0c0-4.71 3.82-8.53 8.535-8.53 4.71 0 8.53 3.82 8.53 8.53zm34.133 0a8.533 8.533 0 11-17.067 0c0-4.71 3.82-8.53 8.535-8.53a8.532 8.532 0 018.532 8.53zm0 0" fill="#cbb292"/><path d="M53.445 464.254l-8.363 25.258a8.644 8.644 0 01-8.105 5.8H17.52c-4.711 0-8.536-3.82-8.536-8.53v-34.134a8.536 8.536 0 018.536-8.535h23.636" fill="#804537"/><path d="M247.918 203.984v18.262a17.561 17.561 0 01-.168 2.219 17.067 17.067 0 01-15.605 14.738 17.066 17.066 0 01-17.676-12.176 17.526 17.526 0 01-.684-4.78V182.48" fill="#bdc3c7"/><path d="M247.918 203.219v19.027a22.8 22.8 0 00.172 2.477 17.177 17.177 0 0013.398 14.25h.086c2.25.457 4.574.457 6.824 0h.086a17.07 17.07 0 0013.57-16.727v-18.262" fill="#e6e7e8"/><path d="M316.188 182.48v39.766c0 9.426-7.641 17.066-17.067 17.066s-17.066-7.64-17.066-17.066V203.22" fill="#bdc3c7"/><path d="M102.852 136.914a8.114 8.114 0 01-1.707-.172l-42.665-8.531a8.537 8.537 0 01-6.656-10.07 8.537 8.537 0 0110.07-6.657l42.665 8.536a8.533 8.533 0 01-1.707 16.895zm0 0" fill="#35495e"/><path d="M324.719 158.246a37.288 37.288 0 01-3.781 16.387 46.841 46.841 0 01-16.125 18.515 65.008 65.008 0 01-26.547 10.836c-.856.172-1.707.344-2.563.43-3.547.52-7.129.774-10.719.766-4.449 0-8.894-.399-13.277-1.196a65.008 65.008 0 01-26.547-10.836 46.882 46.882 0 01-16.129-18.515 37.338 37.338 0 01-3.777-16.387c0-25.941 26.742-46.934 59.73-46.934 32.993 0 59.735 20.993 59.735 46.934zm0 0" fill="#ecf0f1"/><path d="M247.918 179.582a8.533 8.533 0 01-8.531-8.535V153.98c0-4.71 3.82-8.53 8.531-8.53a8.533 8.533 0 018.535 8.53v17.067a8.534 8.534 0 01-8.535 8.535zm34.137 0a8.534 8.534 0 01-8.535-8.535V153.98c0-4.71 3.82-8.53 8.535-8.53 4.71 0 8.53 3.82 8.53 8.53v17.067a8.533 8.533 0 01-8.53 8.535zm0 0" fill="#606060"/></symbol><symbol viewBox="0 -21 469.3 469" id="shipyard"><path d="M85.3 106.8L0 213.5h469.3L384 106.8zm0 0" fill="#553038"/><path d="M42.7 213.5L128 106.8h213.3l85.4 106.7v170.7h-384zm0 0" fill="#f6b55e"/><path d="M106.7 277.5h42.6v21.3h-42.6zm0-42.7h42.6v21.4h-42.6zm64-21.3h42.6v21.3h-42.6zm-64-21.3h42.6v21.3h-42.6zm0 0" fill="#f8c47e"/><path d="M64 384.2v-21.4h21.3v-21.3H64v-21.3h42.7v-42.7H64v-21.3h21.3v-21.4h21.4v-21.3H85.3v-21.3H128v-85.4L42.7 213.5v170.7zm0 0" fill="#f8c47e"/><path d="M213.3 106.8h128l85.4 106.7v170.7H213.3zm0 0" fill="#f18500"/><path d="M213.3 341.5H256v21.3h-42.7zm21.4-42.7h42.6v21.4h-42.6zm0 0" fill="#f4a234"/><path d="M213.3 192.2h213.4v64H213.3zm0 0" fill="#e66100"/><path d="M256 256.2c11.8 0 21.3 9.5 21.3 21.3v21.3h-42.6v-21.3c0-11.8 9.5-21.3 21.3-21.3zm0 0" fill="#011f48"/><path d="M85.3 106.8l85.4 106.7h298.6L384 106.8zm0 0" fill="#ae403f"/><path d="M384 106.8H149.3v21.4h21.4v42.6h42.6v21.4h21.4v21.3h234.6zm0 0" fill="#840504"/><path d="M128 128.2h21.3v21.3H128zm0 0" fill="#a01f1e"/><path d="M106.7 106.8H128v21.4h-21.3zm0 0" fill="#c16c6c"/><path d="M170.7 170.8h42.6v21.4h-42.6zm0 0" fill="#a01f1e"/><path d="M170.7 106.8h42.6v21.4h-42.6zm-21.4 42.7H192v21.3h-42.7zm0 0" fill="#c16c6c"/><path d="M256 128.2h170.7v298.6H256zm0 0" fill="#f6b55e"/><path d="M384 362.8h21.3v21.4H384zm-42.7-21.3h21.4v21.3h-21.4zm42.7-21.3h42.7v21.3H384zm0-64h42.7v21.3H384zm0 0" fill="#f8c47e"/><path d="M341.3 426.8v-85.3H320v-21.3h42.7v-21.4h-64v-21.3H320v-21.3h42.7v-21.4H320v-42.6h21.3v-64H256v106.6h21.3v21.4H256v85.3h42.7v21.3H256v64zm0 0" fill="#f8c47e"/><path d="M256 213.5h21.3v213.3H256zm0 0" fill="#fad7a8"/><path d="M277.3 128.2h149.4v42.6H277.3zm0 0" fill="#f4a234"/><path d="M213.3 149.5L341.3.2l128 149.3zm0 0" fill="#ae403f"/><path d="M341.3 64.2h21.4v21.3h-21.4zm-42.6 21.3H320v21.3h-21.3zm0 0" fill="#ae403f"/><path d="M341.3 106.8h21.4v21.4h-21.4zm0 0" fill="#a01f1e"/><path d="M320 42.8h42.7v21.4H320zm0 42.7h42.7v21.3H320zm-42.7 21.3H320v21.4h-42.7zm0 0" fill="#c16c6c"/><path d="M234.7 128.2H384v21.3H234.7zm0 0" fill="#a01f1e"/><path d="M362.7 106.8h42.6v21.4h-42.6zM320 64.2h-33.5l-9.2 10.6v10.7H320zm0 0" fill="#c16c6c"/><path d="M298.7 192.2c11.7 0 21.3 9.5 21.3 21.3v21.3h-42.7v-21.3c0-11.8 9.6-21.3 21.4-21.3zm85.3 0c11.8 0 21.3 9.5 21.3 21.3v21.3h-42.6v-21.3c0-11.8 9.5-21.3 21.3-21.3zm-85.3 85.3c11.7 0 21.3 9.6 21.3 21.3v21.4h-42.7v-21.4c0-11.7 9.6-21.3 21.4-21.3zm85.3 0c11.8 0 21.3 9.6 21.3 21.3v21.4h-42.6v-21.4c0-11.7 9.5-21.3 21.3-21.3zm-42.7 85.3a42.7 42.7 0 0142.7 42.7v21.3h-85.3v-21.3a42.7 42.7 0 0142.6-42.7zm-256-106.6c11.8 0 21.4 9.5 21.4 21.3v21.3H64v-21.3c0-11.8 9.6-21.3 21.3-21.3zm0 0" fill="#153156"/><path d="M64 277.5h21.3v21.3H64zm0 0" fill="#011f48"/><path d="M170.7 256.2c11.7 0 21.3 9.5 21.3 21.3v21.3h-42.7v-21.3c0-11.8 9.6-21.3 21.4-21.3zm0 0" fill="#153156"/><path d="M149.3 277.5h21.4v21.3h-21.4zm0 0" fill="#011f48"/><path d="M234.7 277.5H256v21.3h-21.3zm0 0" fill="#001037"/><path d="M64 298.8H42.7v-21.3a42.7 42.7 0 0142.6-42.7v21.4A21.4 21.4 0 0064 277.5zm85.3 0H128v-21.3a42.7 42.7 0 0142.7-42.7v21.4a21.4 21.4 0 00-21.4 21.3zm0 0" fill="#fad7a8"/><path d="M234.7 298.8h-21.4v-21.3a42.7 42.7 0 0142.7-42.7v21.4a21.4 21.4 0 00-21.3 21.3zm0 0" fill="#f4a234"/><path d="M277.3 320.2H256v-21.4a42.7 42.7 0 0142.7-42.6v21.3a21.4 21.4 0 00-21.4 21.3zm85.4 0h-21.4v-21.4a42.7 42.7 0 0142.7-42.6v21.3a21.4 21.4 0 00-21.3 21.3zm-85.4-85.4H256v-21.3a42.7 42.7 0 0142.7-42.7v21.4a21.4 21.4 0 00-21.4 21.3zm85.4 0h-21.4v-21.3a42.7 42.7 0 0142.7-42.7v21.4a21.4 21.4 0 00-21.3 21.3zm0 0" fill="#fad7a8"/><path d="M277.3 213.5h21.4v21.3h-21.4zm85.4 0H384v21.3h-21.3zm-85.4 85.3h21.4v21.4h-21.4zm85.4 0H384v21.4h-21.3zm-42.7 128h-21.3v-21.3a42.7 42.7 0 0142.6-42.7v21.4a21.4 21.4 0 00-21.3 21.3zm0 0" fill="#011f48"/><path d="M298.7 426.8h-21.4v-21.3a64 64 0 0164-64v21.3a42.7 42.7 0 00-42.6 42.7zm0 0" fill="#fad7a8"/><path d="M170.7 298.8h42.6v21.4h-42.6zm-64 21.4h42.6v21.3h-42.6zm64 21.3h42.6v21.3h-42.6zm-64 21.3h42.6v21.4h-42.6zm0 0" fill="#f8c47e"/><path d="M341.3.2v42.6h21.4v21.4H384v21.3h-21.3v21.3h42.6v21.4H384v21.3h85.3zm0 0" fill="#a01f1e"/><path d="M362.7 64.2H384v21.3h-21.3zm0 0" fill="#c16c6c"/><path d="M405.3 405.5h21.4v21.3h-21.4zm0 0" fill="#f8c47e"/></symbol><symbol viewBox="0 0 512 512" id="shop"><style>.st2{fill:#ecf0f1}.st4{fill:#bdc3c7}.st5{fill:#c0392b}.st6{fill:#e74c3c}.st7{fill:#3498db}.st8{fill:#2980b9}.st9{fill:#7f8c8d}</style><path fill="#95a5a6" d="M0 469.1h511.2l-84.9-128.2H84.9L0 469.1"/><path fill="#f1c40f" d="M42.5 85.3h426.3v361.8H42.5z"/><path d="M84.9 234.8h191.9v191.9H84.9zM298.1 256h128.2v191.9H298.1z" class="st2"/><path fill="#f39c12" d="M42.5 192.3h426.3v84.9H42.5z"/><path d="M298.1 234.8h128.2V256H298.1zm-213.2 0h191.9v42.5H84.9z" class="st4"/><path d="M0 171.1v32.2a32.4 32.4 0 0032.2 32.2 32.8 32.8 0 0032.2-32.2v-32.2H0z" class="st5"/><path d="M63.7 171.1v32.2c0 17.3 14.2 32.2 32.2 32.2s32.2-14.9 32.2-32.2v-32.2H63.7z" class="st4"/><path d="M128.2 171.1v32.2c0 17.3 14.2 32.2 32.2 32.2s32.2-14.9 32.2-32.2v-32.2h-64.4z" class="st5"/><path d="M191.9 171.1v32.2a32.4 32.4 0 0032.2 32.2 32.8 32.8 0 0032.2-32.2v-32.2h-64.4z" class="st4"/><path d="M255.6 171.1v32.2a32.4 32.4 0 0032.2 32.2 32.3 32.3 0 0032.2-32.2v-32.2h-64.4z" class="st5"/><path d="M319.3 171.1v32.2c0 17.3 14.2 32.2 32.2 32.2s32.2-14.9 32.2-32.2v-32.2h-64.4z" class="st4"/><path d="M383.8 171.1v32.2a32.4 32.4 0 0032.2 32.2 32.3 32.3 0 0032.2-32.2v-32.2h-64.4z" class="st5"/><path d="M447.5 171.1v32.2c0 17.3 14.2 32.2 32.2 32.2s32.2-14.9 32.2-32.2v-32.2h-64.4z" class="st4"/><path d="M213.1 85.3h42.5v85.8h-63.7z" class="st2"/><path d="M255.6 85.3h42.5l21.2 85.8h-63.7z" class="st6"/><path d="M106.2 85.3h64.5l-42.5 85.8H63.7z" class="st2"/><path d="M170.7 85.3h42.4l-21.2 85.8h-63.7z" class="st6"/><path d="M340.5 85.3h-42.4l21.2 85.8h64.5z" class="st2"/><path d="M405 85.3h-64.5l43.3 85.8h63.7zm-362.5 0h63.7l-42.5 85.8H0z" class="st6"/><path d="M468.7 85.3H405l42.5 85.8h63.7z" class="st2"/><path d="M319.3 277.2h84.9v170.7h-84.9z" class="st7"/><path d="M298.1 340.9h106.2v21.2H298.1z" class="st2"/><path d="M405 256h21.2v21.2H405z" class="st4"/><path d="M319.3 256h84.9v21.2h-84.9z" class="st8"/><path d="M298.1 256h21.2v21.2h-21.2z" class="st4"/><path d="M106.2 256h149.4v149.4H106.2z" class="st7"/><path d="M84.9 319.7h191.9v21.2H84.9z" class="st2"/><path d="M170.7 256h21.2v149.4h-21.2zM21.2 85.3H490l-77.9-42.4h-313L21.2 85.3" class="st2"/><path d="M170.7 256h21.2v21.2h-21.2zM21.2 64.1H490l-77.9-42.5h-313L21.2 64.1" class="st4"/><path d="M21.2 64.1h468.7v21.2H21.2z" class="st9"/><path d="M319.3 384.2h84.9v63.7h-84.9z" class="st8"/><path d="M0 469.1h511.2v21.2H0z" class="st9"/><path d="M106.2 256v21.2h63.7V256h-63.7zm85.7 0v21.2h63.7V256h-63.7zm-85.7 128.2v21.2h63.7v-21.2h-63.7zm85.7 0v21.2h63.7v-21.2h-63.7z" class="st8"/><path d="M42.5 85.3l-10.2 21.2H96l11-21.2H42.5zm106.9 0l-5.5 21.2h63.7l5.5-21.2h-63.7zm106.2 0v21.2h48l-5.5-21.2h-42.5zm84.9 0l11 21.2h63.7L405 85.3h-64.5z" class="st5"/><path d="M106.2 85.3L96 106.6h63.7l11-21.2h-64.5zm106.9 0l-5.5 21.2h48V85.3h-42.5zm85 0l5.5 21.2h48l-11-21.2h-42.5zm106.9 0l11 21.2h63.7l-11-21.2H405z" class="st4"/></symbol><symbol viewBox="0 0 297.877 297.877" id="tavern"><path fill="#a05200" d="M140.301 80.093l-18.073 16.894 18.073 16.221zm45.617 26.824l-14.754 13.889h29.612zm-75.092 1.039l-13.746 12.85h28.064zm-86.525 153.85h17v19h-17zM228.424 146.65l-10.531-9.845h-61.592v61h25.333c4.418 0 7.667 3.582 7.667 8v40h83v-96.486l-.343-.514h-38.071a7.995 7.995 0 01-5.463-2.155zm25.877 67.156a8 8 0 01-8 8h-32a8 8 0 01-8-8v-32a8 8 0 018-8h32a8 8 0 018 8v32zm1 48h17v19h-17zm-148-16v-40c0-4.418 3.915-8 8.333-8h24.667v-61H79.963l-10.531 9.845a8 8 0 01-5.463 2.155H25.342l-1.041.533v96.467h83zm-17-32a8 8 0 01-8 8h-32a8 8 0 01-8-8v-32a8 8 0 018-8h32a8 8 0 018 8v32zm66-134.263v32.967l17.571-16.541zm-66 182.263h17v19h-17zm-33 0h17v19h-17zm165 0h17v19h-17zm-33 0h17v19h-17z"/><path fill="#ffc3aa" d="M156.301 57.641l80.743 75.165h32.54L156.301 27.225zm-95.489 75.165l79.489-74.616V27.775L28.274 132.806z"/><path d="M294.987 134.649L154.391 3.226a8.003 8.003 0 00-10.926 0L2.537 134.961A8.001 8.001 0 008 148.805h.301v148h280v-148h1.557a8 8 0 005.129-14.156zm-22.686 14.67v96.486h-83v-40c0-4.418-3.249-8-7.667-8h-25.333v-61h61.592l10.531 9.845a8 8 0 005.463 2.155h38.071l.343.514zm0 131.487h-17v-19h17v19zm-248-19h17v19h-17v-19zm245.283-129h-32.54l-80.743-75.165V27.225l113.283 105.581zm-241.31 0l112.027-105.03V58.19l-79.489 74.615H28.274zm112.027-52.713v33.115l-18.073-16.221 18.073-16.894zm16-.55l17.571 16.426-17.571 16.541V79.543zm-45.475 28.413l14.317 12.85H97.08l13.746-12.85zm75.092-1.039l14.857 13.889h-29.611l14.754-13.889zM25.342 148.806h38.627c2.028 0 3.981-.77 5.463-2.155l10.531-9.845h60.338v61h-24.667c-4.418 0-8.333 3.582-8.333 8v40h-83v-96.467l1.041-.533zm97.959 97v-32h50v32h-50zm-66 16h17v19h-17v-19zm33 0h17v19h-17v-19zm33 0h17v19h-17v-19zm33 0h17v19h-17v-19zm33 0h17v19h-17v-19zm33 0h17v19h-17v-19z"/><path fill="#ffc3aa" d="M123.301 213.806h50v32h-50zm0 48h17v19h-17zm33 0h17v19h-17z"/><path fill="#ffb929" d="M58.301 189.806h16v16h-16z"/><path d="M90.301 181.806a8 8 0 00-8-8h-32a8 8 0 00-8 8v32a8 8 0 008 8h32a8 8 0 008-8v-32zm-32 8h16v16h-16v-16z"/><path fill="#ffb929" d="M222.301 189.806h16v16h-16z"/><path d="M254.301 181.806a8 8 0 00-8-8h-32a8 8 0 00-8 8v32a8 8 0 008 8h32a8 8 0 008-8v-32zm-16 24h-16v-16h16v16z"/></symbol></svg>