<svg xmlns="http://www.w3.org/2000/svg" xlink="http://www.w3.org/1999/xlink" width="0" height="0" style="display:none;"><symbol viewBox="0 0 496.8 496.8" id="bank"><path fill="#ececec" d="M40.4 136.8h416v144h-416z"/><path d="M40.4 136.8h416v40h-416zm0 104h416v40h-416z" fill="#b6c1ce"/><path fill="#8c95a4" d="M72.4 280.8h352v208h-352z"/><path fill="#798699" d="M80.4 296.8h336v24h-336z"/><path fill="#ececec" d="M400.4 312.8h48v160h-48z"/><path d="M400.4 312.8h48v40h-48zm0 120h48v40h-48z" fill="#b6c1ce"/><path fill="#ececec" d="M48.4 312.8h48v160h-48z"/><path d="M48.4 312.8h48v40h-48zm0 120h48v40h-48z" fill="#b6c1ce"/><path fill="#798699" d="M72.4 464.8h352v24h-352z"/><path fill="#d3a06c" d="M488.4 120.8v32H8.4v-32l240-112z"/><path fill="#b27946" d="M8.4 120.8h480v32H8.4z"/><path d="M32.4 328.8h80l8-32h-96zm344-32l8 32h80l8-32zm-344 160l-8 32h96l-8-32zm432 0h-80l-8 32h96z" fill="#d3a06c"/><path fill="#eabd8c" d="M276.4 152.8l28-48-28-48h-56l-28 48 28 48z"/><path fill="#ececec" d="M8.4 264.8h480v32H8.4z"/><path d="M168.4 184.8h64v48h-64zm96 0h64v48h-64zm-192 0h64v48h-64zm288 0h64v48h-64z" fill="#d3a06c"/><path d="M280.4 328.8h-64a48 48 0 00-48 48v112h160v-112a48 48 0 00-48-48z" fill="#eabd8c"/><path fill="#d3a06c" d="M168.4 464.8h160v24h-160z"/><path d="M496.4 160.8v-45L248.4 0 .4 115.7v45.1h32v96H.4v48h17.8l8 32h14.2v112H26.2l-8 32H.4v16h496v-16h-17.7l-8-32h-14.3v-112h14.3l8-32h17.7v-48h-32v-96h32zm-480-32h144v-16h-116l204-95.1 204 95.1h-116v16h144v16h-190l23.3-40-32.7-56h-65.2l-32.6 56 23.3 40h-190v-16zm208.6 16l-23.3-40 23.3-40h46.8l23.4 40-23.4 40H225zm-190.3 160h75.5l-4 16H38.7l-4-16zm335.5 0l8 32h14.2v112h-14.2l-8 32h-33.8v-104a56 56 0 00-56-56h-64a56 56 0 00-56 56v104h-33.7l-8-32h-14.3v-112h14.3l8-32h243.5zm-113.8 32h24c22 0 40 18 40 40v104h-64v-144zm-16 144h-64v-104c0-22 18-40 40-40h24v144zm-184-48h16v-16h-16v-48h16v-16h-16v-16h32v48h-16v16h16v48h-32v-16zm-17.7 32h67.5l4 16H34.7l4-16zm423.5 16h-75.5l4-16h67.5l4 16zm-21.8-128h-16v16h16v48h-16v16h16v16h-32v-48h16v-16h-16v-48h32v16zm17.8-32h-67.5l-4-16h75.5l-4 16zm22.2-32h-464v-16h464v16zm-32-32h-400v-96h400v96z"/><path d="M240.4 176.8h-80v64h80v-64zm-16 48h-48v-32h48v32zm112-48h-80v64h80v-64zm-16 48h-48v-32h48v32zm-176 16v-64h-80v64h80zm-64-48h48v32h-48v-32zm352-16h-80v64h80v-64zm-16 48h-48v-32h48v32z"/></symbol><symbol viewBox="0 0 512 512" id="cityhall"><path fill="#424242" d="M477.9 186.5H34L256 49.9z"/><path d="M436.2 186.5H75.8L247 81a17 17 0 0118 0l171.2 105.4z" fill="#9e9e9e"/><path fill="#424242" d="M503.5 160.9l-25.6 25.6L256 49.9 34.1 186.5 8.5 160.9 256 9.9z"/><path d="M477.9 195a8.5 8.5 0 01-4.5-1.3L256 60 38.6 193.7a8.5 8.5 0 01-10.5-1.2L2.5 166.9a8.5 8.5 0 011.6-13.3l247.5-151a8.5 8.5 0 018.8 0l247.5 151a8.5 8.5 0 011.6 13.3l-25.6 25.6a8.5 8.5 0 01-6 2.5zM256 41.4c1.6 0 3.1.4 4.5 1.3l216 133 13.3-13.2L256 19.8 22.2 162.5l13.2 13.2 216.1-133a8.5 8.5 0 014.5-1.3z"/><path d="M307.2 468h179.2c9.4 0 17 7.7 17 17.1v17H8.6v-17c0-9.4 7.7-17 17.1-17h179.2m-170.7 0V451c.2-9.5 8-17.1 17.4-17h409c9.5-.1 17.2 7.5 17.4 17v17" fill="#37474f"/><path d="M286.6 468h166.8c9.1.4 16.2 8 16 17.1v17H8.4v-17c-.3-9 6.8-16.7 16-17h166.8m-159 0V451c-.1-9.2 7.1-16.8 16.3-17h380.7c9.2.2 16.4 7.8 16.2 17v17" fill="#607d8b"/><path d="M503.5 510.7H8.5a8.5 8.5 0 01-8.5-8.5v-17a25.6 25.6 0 0125.6-25.7h179.2a8.5 8.5 0 010 17H25.6a8.5 8.5 0 00-8.5 8.6v8.6h477.8V485a8.5 8.5 0 00-8.5-8.5H307.2a8.5 8.5 0 010-17h179.2A25.6 25.6 0 01512 485v17a8.5 8.5 0 01-8.5 8.6z"/><path d="M477.9 476.6a8.5 8.5 0 01-8.6-8.5V451a8.7 8.7 0 00-8.8-8.5h-409a8.7 8.7 0 00-8.8 8.5v17a8.5 8.5 0 01-17.1 0v-17a25.8 25.8 0 0126-25.6h408.9a25.8 25.8 0 0125.9 25.6v17a8.5 8.5 0 01-8.5 8.6z"/><path fill="#424242" d="M477.9 186.5l-17.1 34H51.2l-17-34z"/><path d="M460.8 229.1H51.2a8.5 8.5 0 01-7.6-4.7l-17.1-34.1a8.5 8.5 0 017.6-12.4H478a8.5 8.5 0 017.6 12.4l-17 34.1a8.5 8.5 0 01-7.7 4.7zm-404.3-17h399l8.6-17.1H47.9l8.6 17z"/><path d="M51.2 220.6h85.3v17a17 17 0 01-17 17.1H68.3a17 17 0 01-17.1-17v-17.1zm17 179.2h51.3a17 17 0 0117 17V434H51.2v-17a17 17 0 0117-17.1zm68.3-179.2H222v17a17 17 0 01-17.1 17.1h-51.2a17 17 0 01-17-17v-17.1zm17.1 179.2h51.2a17 17 0 0117 17V434h-85.3v-17a17 17 0 0117.1-17.1zm136.5-179.2h85.4v17a17 17 0 01-17.1 17.1h-51.2a17 17 0 01-17-17v-17.1zm17.1 179.2h51.2a17 17 0 0117 17V434h-85.3v-17a17 17 0 0117.1-17.1zm68.3-179.2h85.3v17a17 17 0 01-17 17.1h-51.3a17 17 0 01-17-17v-17.1zm17 179.2h51.2a17 17 0 0117.1 17V434h-85.3v-17a17 17 0 0117-17.1z" fill="#37474f"/><path d="M119.5 263.3H68.3a25.6 25.6 0 01-25.6-25.6v-17.1a8.5 8.5 0 018.5-8.5h85.3a8.5 8.5 0 018.6 8.5v17a25.6 25.6 0 01-25.6 25.7zM59.7 229v8.6a8.5 8.5 0 008.6 8.5h51.2a8.5 8.5 0 008.5-8.5V229H59.7zm76.8 213.4H51.2a8.5 8.5 0 01-8.5-8.6v-17a25.6 25.6 0 0125.6-25.6h51.2a25.6 25.6 0 0125.6 25.6v17a8.5 8.5 0 01-8.6 8.6zm-76.8-17.1H128v-8.5a8.5 8.5 0 00-8.5-8.6H68.3a8.5 8.5 0 00-8.6 8.6v8.5z"/><path d="M68.3 254.7h51.2v145H68.3zm85.3 0h51.2v145h-51.2zm153.6 0h51.2v145h-51.2zm85.3 0h51.2v145h-51.2z" fill="#37474f"/><path d="M68.3 254.7h25.6v145H68.3zm85.3 0h25.6v145h-25.6zm153.6 0h25.6v145h-25.6zm85.3 0h25.6v145h-25.6z" fill="#607d8b"/><path d="M119.5 408.3H68.3a8.5 8.5 0 01-8.6-8.5v-145a8.5 8.5 0 018.6-8.6h51.2a8.5 8.5 0 018.5 8.5v145a8.5 8.5 0 01-8.5 8.6zm-42.7-17h34.1v-128H76.8v128zm128-128h-51.2a25.6 25.6 0 01-25.6-25.6v-17.1a8.5 8.5 0 018.5-8.5H222a8.5 8.5 0 018.5 8.5v17a25.6 25.6 0 01-25.6 25.7zM145.1 229v8.6a8.5 8.5 0 008.5 8.5h51.2a8.5 8.5 0 008.5-8.5V229h-68.2zm76.8 213.4h-85.4a8.5 8.5 0 01-8.5-8.6v-17a25.6 25.6 0 0125.6-25.6h51.2a25.6 25.6 0 0125.6 25.6v17a8.5 8.5 0 01-8.5 8.6zm-76.9-17h68.2v-8.5a8.5 8.5 0 00-8.5-8.6h-51.2a8.5 8.5 0 00-8.5 8.6v8.5z"/><path d="M204.8 408.3h-51.2a8.5 8.5 0 01-8.5-8.5v-145a8.5 8.5 0 018.5-8.6h51.2a8.5 8.5 0 018.5 8.5v145a8.5 8.5 0 01-8.5 8.6zm-42.7-17h34.2v-128H162v128zm196.3-128h-51.2a25.6 25.6 0 01-25.6-25.6v-17.1a8.5 8.5 0 018.5-8.5h85.4a8.5 8.5 0 018.5 8.5v17a25.6 25.6 0 01-25.6 25.7zM298.7 229v8.6a8.5 8.5 0 008.5 8.5h51.2a8.5 8.5 0 008.5-8.5V229h-68.2zm76.8 213.4H290a8.5 8.5 0 01-8.5-8.6v-17a25.6 25.6 0 0125.6-25.6h51.2a25.6 25.6 0 0125.6 25.6v17a8.5 8.5 0 01-8.5 8.6zm-76.8-17.1h68.2v-8.5a8.5 8.5 0 00-8.5-8.6h-51.2a8.5 8.5 0 00-8.5 8.6v8.5z"/><path d="M358.4 408.3h-51.2a8.5 8.5 0 01-8.5-8.5v-145a8.5 8.5 0 018.5-8.6h51.2a8.5 8.5 0 018.5 8.5v145a8.5 8.5 0 01-8.5 8.6zm-42.7-17H350v-128h-34.2v128zm128-128h-51.2a25.6 25.6 0 01-25.6-25.6v-17.1a8.5 8.5 0 018.6-8.5h85.3a8.5 8.5 0 018.5 8.5v17a25.6 25.6 0 01-25.6 25.7zM384 229v8.6a8.5 8.5 0 008.5 8.5h51.2a8.5 8.5 0 008.6-8.5V229H384zm76.8 213.4h-85.3a8.5 8.5 0 01-8.6-8.6v-17a25.6 25.6 0 0125.6-25.6h51.2a25.6 25.6 0 0125.6 25.6v17a8.5 8.5 0 01-8.5 8.6zm-76.8-17h68.3v-8.5a8.5 8.5 0 00-8.6-8.6h-51.2a8.5 8.5 0 00-8.5 8.6v8.5z"/><path d="M443.7 408.3h-51.2a8.5 8.5 0 01-8.5-8.5v-145a8.5 8.5 0 018.5-8.6h51.2a8.5 8.5 0 018.6 8.5v145a8.5 8.5 0 01-8.6 8.6zm-42.6-17h34.1v-128h-34.1v128z"/><circle cx="256" cy="122.5" r="25.6" fill="#ffeb3a"/><path d="M256 156.6a34.1 34.1 0 110-68.3 34.1 34.1 0 010 68.3zm0-51.2a17 17 0 100 34.1 17 17 0 000-34.1z"/></symbol><symbol viewBox="0 0 511.5 511.5" id="explore"><path d="M269.2 60.7h-27l-5.4-30.5a19.3 19.3 0 1137.9 0z" fill="#ffdaaa"/><path d="M255.7 7.5c-2.4 0-4.8.5-7 1.3 8.3 3.2 13.7 12 12 21.4l-5.5 30.5h14l5.5-30.5c2.1-11.8-7-22.7-19-22.7z" fill="#ff9478"/><path d="M127.3 108.3l-19 19-25.5-17.6a19.3 19.3 0 1126.9-26.9z" fill="#ffdaaa"/><path d="M80.2 80.2a19.2 19.2 0 00-4 5.9 19.3 19.3 0 0123.6 6.6l17.6 25.5 10-10-17.7-25.4a19.3 19.3 0 00-29.5-2.6z" fill="#ff9478"/><path d="M60.7 242.3v26.9l-30.5 5.5a19.3 19.3 0 110-38z" fill="#ffdaaa"/><path d="M7.5 255.7c0 2.5.5 4.9 1.3 7 3.2-8.2 12-13.6 21.4-12l30.5 5.6v-14l-30.5-5.5a19.3 19.3 0 00-22.7 19z" fill="#ff9478"/><path d="M108.3 384.2l19 19-17.6 25.4a19.3 19.3 0 11-26.9-26.8z" fill="#ffdaaa"/><path d="M80.2 431.3a19.2 19.2 0 005.9 4 19.3 19.3 0 016.6-23.6l25.5-17.6-10-10-25.4 17.7a19.3 19.3 0 00-2.6 29.5z" fill="#ff9478"/><path d="M242.3 450.8h26.9l5.5 30.5a19.3 19.3 0 11-38 0z" fill="#ffdaaa"/><path d="M255.7 504c2.5 0 4.9-.5 7-1.3a19.3 19.3 0 01-12-21.4l5.6-30.5h-14l-5.5 30.5a19.3 19.3 0 0019 22.7z" fill="#ff9478"/><path d="M384.2 403.2l19-19 25.4 17.6a19.3 19.3 0 11-26.8 26.8z" fill="#ffdaaa"/><path d="M431.3 431.3a19.2 19.2 0 004-5.9 19.3 19.3 0 01-23.6-6.7l-17.6-25.4-10 9.9 17.7 25.4c6.9 9.9 21 11.2 29.5 2.7z" fill="#ff9478"/><path d="M450.8 269.2v-27l30.5-5.4a19.3 19.3 0 110 37.9z" fill="#ffdaaa"/><path d="M504 255.7c0-2.4-.5-4.8-1.3-7a19.3 19.3 0 01-21.4 12l-30.5-5.5v14l30.5 5.5c11.8 2.1 22.7-7 22.7-19z" fill="#ff9478"/><path d="M403.2 127.3l-19-19 17.6-25.5a19.3 19.3 0 1126.8 26.9z" fill="#ffdaaa"/><path d="M431.3 80.2a19.2 19.2 0 00-5.9-4 19.3 19.3 0 01-6.7 23.6l-25.4 17.6 9.9 10 25.4-17.7c9.9-6.9 11.2-21 2.7-29.5z" fill="#ff9478"/><circle cx="255.7" cy="255.7" fill="#ffdaaa" r="55.1"/><path d="M255.7 200.7h-3.4a48.5 48.5 0 11-51.5 51.6 55.5 55.5 0 00-.1 3.4 55 55 0 1055-55z" fill="#ff7956"/><path d="M255.7 429.8c-96 0-174-78.1-174-174s78-174 174-174 174 78 174 174-78 174-174 174zm0-301.4c-70.6 0-128.1 57.1-128.1 127.3S185 383.1 255.7 383.1 384 325.9 384 255.7s-57.5-127.3-128.2-127.3z" fill="#ffdaaa"/><g fill="#ff9478"><path d="M255.7 81.7h-4.5c88.9 2.4 160.5 75.5 160.5 165 0 91-74 165-165 165a165.2 165.2 0 01-165-160.5v4.5c0 96 78 174 174 174s174-78 174-174-78-174-174-174z"/><circle cx="255.7" cy="255.7" r="21.8"/></g><path d="M255.7 226.5c-1.8 0-3.7.2-5.6.5l3 14.7a14.4 14.4 0 012.6-.2 14.3 14.3 0 11-11 5.2l-11.5-9.6a29.3 29.3 0 00-6.7 18.6 29.3 29.3 0 1029.2-29.2z"/><path d="M501.9 235.2a26.7 26.7 0 00-22-5.8l-36.6 6.6v12.2h-6.2A180.8 180.8 0 00389.2 133l4.5-4.5 8.6 8.6 30.6-21.2a26.7 26.7 0 0011.4-19.6 26.7 26.7 0 00-7.7-21.3 26.7 26.7 0 00-21.3-7.7 26.7 26.7 0 00-19.6 11.4l-21.3 30.6 8.7 8.6-4.5 4.5c-30.6-28.3-71-46.1-115.4-48v-6.1h12.3l6.6-36.7a26.7 26.7 0 00-46.9-21.9c-5.1 6.1-7.2 14.1-5.8 22l6.6 36.6h12.2v6.2a181 181 0 00-38.9 5.8l-.3.1 3.9 14.5h.3a166.5 166.5 0 0142.5-5.6c91.9 0 166.5 74.7 166.5 166.5s-74.6 166.6-166.5 166.6a166.6 166.6 0 01-82.5-311.1l-7.5-13a183.3 183.3 0 00-13.2 8.3 182.4 182.4 0 00-19.6 15.8l-4.5-4.5 8.6-8.6-21.2-30.6a26.7 26.7 0 00-19.6-11.4A26.7 26.7 0 0075 74.9a26.7 26.7 0 00-7.7 21.3 26.7 26.7 0 0011.4 19.6l30.6 21.2 8.6-8.6 4.5 4.5a181.6 181.6 0 00-47.9 115.3h-6.2V236l-36.7-6.6a26.7 26.7 0 00-21.9 5.8A26.7 26.7 0 000 255.7c0 8 3.5 15.5 9.6 20.6a26.7 26.7 0 0022 5.8l36.6-6.6v-12.3h6.2a180.8 180.8 0 0047.9 115.4l-4.5 4.5-8.6-8.7-30.6 21.3a26.7 26.7 0 00-11.4 19.6 26.7 26.7 0 007.7 21.3 26.7 26.7 0 0021.3 7.7 26.7 26.7 0 0019.6-11.4l21.2-30.6-8.6-8.6 4.5-4.5c30.6 28.2 71 46 115.3 47.9v6.2H236l-6.6 36.7a26.7 26.7 0 005.8 21.9 26.7 26.7 0 0020.5 9.6c8 0 15.5-3.5 20.6-9.6a26.7 26.7 0 005.8-22l-6.6-36.6h-12.3v-6.2a180.8 180.8 0 00115.4-47.9l4.5 4.5-8.7 8.6 21.3 30.6a26.7 26.7 0 0019.6 11.4 26.7 26.7 0 0021.3-7.7 26.7 26.7 0 00-3.7-41l-30.6-21.2-8.6 8.7-4.5-4.5c28.2-30.6 46-71 47.9-115.4h6.2v12.3L480 282a26.7 26.7 0 0021.9-5.8 26.7 26.7 0 009.6-20.6 26.7 26.7 0 00-9.6-20.5zm-94-148a11.7 11.7 0 018.7-5c3.5-.4 6.9.8 9.4 3.3a11.7 11.7 0 013.4 9.4 11.7 11.7 0 01-5 8.6l-20.3 14-10.2-10zm-159.3-34l-4.4-24.3a11.7 11.7 0 012.5-9.7 11.7 11.7 0 0118 0 11.7 11.7 0 012.6 9.7L263 53.2zm-141.2 64.4l-20.3-14.1a11.7 11.7 0 01-1.6-18 11.7 11.7 0 019.4-3.4 11.7 11.7 0 018.6 5l14 20.3zM53.2 262.9l-24.3 4.4a11.7 11.7 0 01-9.7-2.5 11.7 11.7 0 010-18 11.7 11.7 0 019.7-2.6l24.3 4.4zm50.3 161.5a11.7 11.7 0 01-8.6 5 11.7 11.7 0 01-9.4-3.4 11.7 11.7 0 01-3.4-9.4 11.7 11.7 0 015-8.6l20.3-14 10.2 10zm163.8 58.2a11.7 11.7 0 01-20.6 9.7 11.7 11.7 0 01-2.5-9.7l4.4-24.3h14.3zM404.1 394l20.3 14a11.7 11.7 0 015 8.7 11.7 11.7 0 01-3.4 9.4 11.8 11.8 0 01-9.4 3.4 11.7 11.7 0 01-8.6-5L394 404zm88.2-129.1a11.7 11.7 0 01-9.7 2.5l-24.3-4.4v-14.3l24.3-4.4a11.7 11.7 0 019.7 2.5 11.7 11.7 0 010 18z"/><path d="M391.4 255.7c0-74.3-60.9-134.8-135.7-134.8-74.8 0-135.6 60.5-135.6 134.8a135.4 135.4 0 00161 132.5 135.7 135.7 0 007.8-1.7l-3.7-14.6a120.4 120.4 0 01-6.9 1.6 121.3 121.3 0 01-15 1.8V318c11.6-1.4 22.3-6 31-13l41 41a124.6 124.6 0 01-6.3 5l-5.7 4.1 8.3 12.4a137.2 137.2 0 006.5-4.6 133.7 133.7 0 0053.3-107zm-15.3-7.5H318a62.3 62.3 0 00-13-31l41-41a119 119 0 0130.2 72zm-112.9-112a120.6 120.6 0 0172 29.5l-40.9 40.8a62.3 62.3 0 00-31-12.9zm-15 0v57.4a62.3 62.3 0 00-31 13l-41-41c19.6-17 44.6-27.8 72-29.4zm-82.6 40l41 41a62.3 62.3 0 00-13 31h-58.3a119 119 0 0130.3-72zm-30.3 87h58.3c1.4 11.7 6 22.4 13 31.1l-41 41a119 119 0 01-30.3-72zm113 112.1a120.6 120.6 0 01-72-29.5L217 305c8.8 7 19.5 11.6 31.1 13v57.4zm7.4-72a47.6 47.6 0 11.2-95.2 47.6 47.6 0 01-.2 95.2zm49.2-9c7-8.7 11.6-19.4 13-31h58.3c-1.7 27-12.4 52-30.3 72z"/><path d="M303.8 381.8a135.6 135.6 0 0014.3-6.4l-6.8-13.3a120.7 120.7 0 01-12.8 5.7zM199.2 99.1L194.1 85a181.6 181.6 0 00-14.5 6l6.3 13.6a166.9 166.9 0 0113.3-5.5z"/></symbol><symbol viewBox="0 0 512 512" id="harbor"><path d="M33.758 195.235a8.44 8.44 0 01-8.44-8.44v-56.264a8.44 8.44 0 018.44-8.44h16.879a8.44 8.44 0 018.44 8.44 8.44 8.44 0 01-8.44 8.44h-8.44v47.824a8.438 8.438 0 01-8.439 8.44zm67.517 0a8.44 8.44 0 01-8.44-8.44v-56.264a8.44 8.44 0 018.44-8.44h16.879a8.44 8.44 0 018.44 8.44 8.44 8.44 0 01-8.44 8.44h-8.44v47.824a8.438 8.438 0 01-8.439 8.44z" fill="#326e7d"/><path fill="#875b51" d="M0 164.29v123.78l256 33.759V164.29z"/><path d="M512 256c-9.219 18.983-28.68 32.07-51.2 32.07l-33.758 111.965L460.8 512H512V256z" fill="#4b8d8f"/><path d="M409.6 256c-9.218 18.982-28.68 32.07-51.2 32.07-22.52 0-41.982-13.088-51.2-32.07-9.218 18.982-28.68 32.07-51.2 32.07-22.52 0-41.982-13.088-51.2-32.07-9.218 18.982-28.68 32.07-51.2 32.07s-41.982-13.088-51.2-32.07c-9.218 18.982-28.68 32.07-51.2 32.07S9.219 274.983 0 256v256h460.8V288.07c-22.52 0-41.982-13.088-51.2-32.07z" fill="#63aba1"/><path d="M256 0v101.275c27.966 0 50.637-22.671 50.637-50.637S283.966 0 256 0z" fill="#fe9528"/><path d="M272.879 50.637C272.879 22.671 265.322 0 256 0c-27.966 0-50.637 22.671-50.637 50.637s22.671 50.637 50.637 50.637c9.322.001 16.879-22.67 16.879-50.637z" fill="#fec14d"/><path d="M162.04 364.026h-16.88c-4.661 0-8.44-3.778-8.44-8.44s3.779-8.44 8.44-8.44h16.879c4.661 0 8.44 3.778 8.44 8.44s-3.779 8.44-8.439 8.44zm-102.4 33.759H42.76c-4.661 0-8.44-3.778-8.44-8.44s3.779-8.44 8.44-8.44h16.88a8.44 8.44 0 110 16.88z" fill="#fff"/><path d="M482.18 366.84h-33.758l-27.075 28.516v33.758c7.466 7.194 16.881 12.378 27.389 14.648l33.444-76.922z" fill="#ffa850"/><path fill="#d9f7ff" d="M482.18 333.081H358.4V119.56z"/><path d="M358.4 111.121a8.44 8.44 0 00-8.44 8.44v268.707h16.879V119.56a8.437 8.437 0 00-8.439-8.439z" fill="#e86c16"/><path d="M234.62 366.84l33.444 76.922c17.264-3.729 31.612-15.292 39.136-30.785 8.107 16.693 24.135 28.824 43.198 31.508h16.003c19.063-2.684 35.092-14.815 43.198-31.508a57.044 57.044 0 0011.747 16.138l27.076-62.274H234.62z" fill="#fecb69"/></symbol><symbol viewBox="0 0 980 888.2" id="heart-100"><path d="M465.587 803.84c-116.014-78.742-220.439-172.385-291.34-261.257-49.526-62.08-87.469-133.421-102.442-192.62-26.537-104.916 5.037-211.478 76.905-259.55 29.155-19.5 57.173-27.409 97.03-27.386 49.1.027 92.046 12.883 132.129 39.553 48.401 32.206 76.303 78.764 80.537 134.391.744 9.77 2.483 19.992 3.865 22.715 3.855 7.595 13.429 14.679 21.606 15.986l7.38 1.18v168.841h189.077c103.991 0 189.076.488 189.076 1.083 0 2.156-16.007 28.554-30.145 49.714-56.886 85.143-146.824 175.353-259.584 260.367-28.014 21.122-66.661 48.521-84.933 60.215-4.967 3.179-5.017 3.156-29.161-13.231z" fill="none"/><path d="M463.662 802.839C377.13 743.513 309.4 687.49 244.555 621.607c-46.417-47.161-75.143-81.692-104.407-125.508-40.417-60.516-63.408-113.73-74.006-171.29-3.432-18.64-4.79-59.636-2.611-78.832 8.714-76.783 46.555-138.251 102.307-166.185 12.773-6.4 34.03-13.068 49.433-15.508 19.028-3.014 54.72-2.037 75.107 2.056 45.502 9.133 86.811 30.334 116.509 59.794 15.724 15.598 21.829 23.417 31.624 40.5 11.262 19.64 20.205 51.983 20.22 73.122.009 13.145 2.317 19.37 10.048 27.101 5.962 5.962 8.012 7.131 15.058 8.586l8.157 1.685v168.418h188.162c103.489 0 188.473.505 188.854 1.121 1.037 1.679-14.966 28.684-31.263 52.757-29.86 44.107-58.534 77.959-108.272 127.827-55.612 55.757-109.426 101.476-176.286 149.766-16.603 11.992-57.517 40.21-62.034 42.783-.827.471-13.198-7.161-27.493-16.961z" fill="none"/><path d="M463.662 802.839C377.13 743.513 309.4 687.49 244.555 621.607c-46.417-47.161-75.143-81.692-104.407-125.508-40.417-60.516-63.408-113.73-74.006-171.29-3.432-18.64-4.79-59.636-2.611-78.832 8.714-76.783 46.555-138.251 102.307-166.185 12.773-6.4 34.03-13.068 49.433-15.508 19.028-3.014 54.72-2.037 75.107 2.056 45.502 9.133 86.811 30.334 116.509 59.794 15.724 15.598 21.829 23.417 31.624 40.5 11.262 19.64 20.205 51.983 20.22 73.122.009 13.145 2.317 19.37 10.048 27.101 5.962 5.962 8.012 7.131 15.058 8.586l8.157 1.685v168.418h188.162c103.489 0 188.473.505 188.854 1.121 1.037 1.679-14.966 28.684-31.263 52.757-29.86 44.107-58.534 77.959-108.272 127.827-55.612 55.757-109.426 101.476-176.286 149.766-16.603 11.992-57.517 40.21-62.034 42.783-.827.471-13.198-7.161-27.493-16.961z" fill="#fff"/><path d="M735 0C628.5 0 535.9 54 490 132.8 444.1 54 351.5 0 245 0 84.2 0 0 138.7 0 275.7c0 319.9 454.9 596.5 474.2 608.1 4.9 2.9 10.3 4.4 15.8 4.4s10.9-1.5 15.8-4.4C525.1 872.2 980 595.6 980 275.7 980 138.7 895.8 0 735 0zM490 821.3c-79.2-51-428.7-291.1-428.7-545.6 0-103.3 57.5-214.4 183.8-214.4 103.1 0 214.4 70.3 214.4 183.8 0 16.9 13.7 30.6 30.6 30.6 16.9 0 30.6-13.7 30.6-30.6 0-113.5 111.3-183.8 214.4-183.8 126.3 0 183.8 111.1 183.8 214.4-.1 254.2-349.8 494.5-428.9 545.6z"/><circle cx="870.401" cy="444.76" r="1.5"/><path d="M471.155 808.247C362.733 735.347 263.18 648.935 194.02 567.69c-68.017-79.9-110.91-158.797-125.816-231.428-10.41-50.723-8.017-99.891 7.066-145.231 24.268-72.946 75.736-118.47 144.264-127.602 13.04-1.738 39.451-1.708 53.335.061 85.115 10.844 154.905 61.789 177.614 129.655 4.752 14.201 6.859 25.42 8.297 44.185 1.11 14.491 1.566 17.092 3.794 21.647 4.996 10.21 15.349 16.689 26.844 16.797 9.67.09 15.312-2.212 22.27-9.092 7.517-7.43 8.737-11.059 9.813-29.17 2.543-42.806 17.718-77.031 47.904-108.04 32.816-33.71 76.645-55.835 128.058-64.642 14.747-2.527 45.096-3.486 59.293-1.875 59.139 6.71 105.194 39.186 134.02 94.503 33.155 63.627 36.416 142.63 9.16 221.982-9.84 28.645-26.033 63.61-29.46 63.61-1.91 0-2.596 2.265-.987 3.26 1.4.865-14.464 28.037-29.323 50.23-57.73 86.222-151.77 179.917-266.937 265.954-31.388 23.448-80.807 57.768-83.184 57.768-.56 0-9.06-5.407-18.89-12.016z" fill="red"/></symbol><symbol viewBox="0 0 980 888.2" id="heart-25"><path d="M735 0C628.5 0 535.9 54 490 132.8 444.1 54 351.5 0 245 0 84.2 0 0 138.7 0 275.7c0 319.9 454.9 596.5 474.2 608.1 4.9 2.9 10.3 4.4 15.8 4.4s10.9-1.5 15.8-4.4C525.1 872.2 980 595.6 980 275.7 980 138.7 895.8 0 735 0zM490 821.3c-79.2-51-428.7-291.1-428.7-545.6 0-103.3 57.5-214.4 183.8-214.4 103.1 0 214.4 70.3 214.4 183.8 0 16.9 13.7 30.6 30.6 30.6 16.9 0 30.6-13.7 30.6-30.6 0-113.5 111.3-183.8 214.4-183.8 126.3 0 183.8 111.1 183.8 214.4-.1 254.2-349.8 494.5-428.9 545.6z"/><path d="M492.877 275.474v169.473" fill="none" stroke="#000"/><circle cx="870.401" cy="444.76" r="1.5"/><path d="M868.902 444.76H494.375m0 0c-.512-.112-.85-.093-1.03-.093" fill="none" stroke="#000"/><path d="M493.903 360.03v-84.188l2.809-.525c12.137-2.273 23.103-14.552 23.868-26.728 1.81-28.814 3.395-38.545 9.054-55.586 17.537-52.803 64.557-96.39 127.447-118.14 35.282-12.203 76.23-16.214 109.477-10.725 54.48 8.994 97.967 41.726 124.585 93.774 25.468 49.797 33.476 110.277 22.537 170.197-5.969 32.694-18.704 69.8-35.392 103.13-4.058 8.102-6.404 11.988-7.348 12.168-.763.146-85.908.388-189.212.538l-187.825.274z" fill="red"/><path d="M465.587 803.84c-116.014-78.742-220.439-172.385-291.34-261.257-49.526-62.08-87.469-133.421-102.442-192.62-26.537-104.916 5.037-211.478 76.905-259.55 29.155-19.5 57.173-27.409 97.03-27.386 49.1.027 92.046 12.883 132.129 39.553 48.401 32.206 76.303 78.764 80.537 134.391.744 9.77 2.483 19.992 3.865 22.715 3.855 7.595 13.429 14.679 21.606 15.986l7.38 1.18v168.841h189.077c103.991 0 189.076.488 189.076 1.083 0 2.156-16.007 28.554-30.145 49.714-56.886 85.143-146.824 175.353-259.584 260.367-28.014 21.122-66.661 48.521-84.933 60.215-4.967 3.179-5.017 3.156-29.161-13.231z" fill="none"/><path d="M463.662 802.839C377.13 743.513 309.4 687.49 244.555 621.607c-46.417-47.161-75.143-81.692-104.407-125.508-40.417-60.516-63.408-113.73-74.006-171.29-3.432-18.64-4.79-59.636-2.611-78.832 8.714-76.783 46.555-138.251 102.307-166.185 12.773-6.4 34.03-13.068 49.433-15.508 19.028-3.014 54.72-2.037 75.107 2.056 45.502 9.133 86.811 30.334 116.509 59.794 15.724 15.598 21.829 23.417 31.624 40.5 11.262 19.64 20.205 51.983 20.22 73.122.009 13.145 2.317 19.37 10.048 27.101 5.962 5.962 8.012 7.131 15.058 8.586l8.157 1.685v168.418h188.162c103.489 0 188.473.505 188.854 1.121 1.037 1.679-14.966 28.684-31.263 52.757-29.86 44.107-58.534 77.959-108.272 127.827-55.612 55.757-109.426 101.476-176.286 149.766-16.603 11.992-57.517 40.21-62.034 42.783-.827.471-13.198-7.161-27.493-16.961z" fill="none"/><path d="M463.662 802.839C377.13 743.513 309.4 687.49 244.555 621.607c-46.417-47.161-75.143-81.692-104.407-125.508-40.417-60.516-63.408-113.73-74.006-171.29-3.432-18.64-4.79-59.636-2.611-78.832 8.714-76.783 46.555-138.251 102.307-166.185 12.773-6.4 34.03-13.068 49.433-15.508 19.028-3.014 54.72-2.037 75.107 2.056 45.502 9.133 86.811 30.334 116.509 59.794 15.724 15.598 21.829 23.417 31.624 40.5 11.262 19.64 20.205 51.983 20.22 73.122.009 13.145 2.317 19.37 10.048 27.101 5.962 5.962 8.012 7.131 15.058 8.586l8.157 1.685v168.418h188.162c103.489 0 188.473.505 188.854 1.121 1.037 1.679-14.966 28.684-31.263 52.757-29.86 44.107-58.534 77.959-108.272 127.827-55.612 55.757-109.426 101.476-176.286 149.766-16.603 11.992-57.517 40.21-62.034 42.783-.827.471-13.198-7.161-27.493-16.961z" fill="#fff"/></symbol><symbol viewBox="0 0 980 888.2" id="heart-50"><path d="M465.587 803.84c-116.014-78.742-220.439-172.385-291.34-261.257-49.526-62.08-87.469-133.421-102.442-192.62-26.537-104.916 5.037-211.478 76.905-259.55 29.155-19.5 57.173-27.409 97.03-27.386 49.1.027 92.046 12.883 132.129 39.553 48.401 32.206 76.303 78.764 80.537 134.391.744 9.77 2.483 19.992 3.865 22.715 3.855 7.595 13.429 14.679 21.606 15.986l7.38 1.18v168.841h189.077c103.991 0 189.076.488 189.076 1.083 0 2.156-16.007 28.554-30.145 49.714-56.886 85.143-146.824 175.353-259.584 260.367-28.014 21.122-66.661 48.521-84.933 60.215-4.967 3.179-5.017 3.156-29.161-13.231z" fill="none"/><path d="M463.662 802.839C377.13 743.513 309.4 687.49 244.555 621.607c-46.417-47.161-75.143-81.692-104.407-125.508-40.417-60.516-63.408-113.73-74.006-171.29-3.432-18.64-4.79-59.636-2.611-78.832 8.714-76.783 46.555-138.251 102.307-166.185 12.773-6.4 34.03-13.068 49.433-15.508 19.028-3.014 54.72-2.037 75.107 2.056 45.502 9.133 86.811 30.334 116.509 59.794 15.724 15.598 21.829 23.417 31.624 40.5 11.262 19.64 20.205 51.983 20.22 73.122.009 13.145 2.317 19.37 10.048 27.101 5.962 5.962 8.012 7.131 15.058 8.586l8.157 1.685v168.418h188.162c103.489 0 188.473.505 188.854 1.121 1.037 1.679-14.966 28.684-31.263 52.757-29.86 44.107-58.534 77.959-108.272 127.827-55.612 55.757-109.426 101.476-176.286 149.766-16.603 11.992-57.517 40.21-62.034 42.783-.827.471-13.198-7.161-27.493-16.961z" fill="none"/><path d="M463.662 802.839C377.13 743.513 309.4 687.49 244.555 621.607c-46.417-47.161-75.143-81.692-104.407-125.508-40.417-60.516-63.408-113.73-74.006-171.29-3.432-18.64-4.79-59.636-2.611-78.832 8.714-76.783 46.555-138.251 102.307-166.185 12.773-6.4 34.03-13.068 49.433-15.508 19.028-3.014 54.72-2.037 75.107 2.056 45.502 9.133 86.811 30.334 116.509 59.794 15.724 15.598 21.829 23.417 31.624 40.5 11.262 19.64 20.205 51.983 20.22 73.122.009 13.145 2.317 19.37 10.048 27.101 5.962 5.962 8.012 7.131 15.058 8.586l8.157 1.685v168.418h188.162c103.489 0 188.473.505 188.854 1.121 1.037 1.679-14.966 28.684-31.263 52.757-29.86 44.107-58.534 77.959-108.272 127.827-55.612 55.757-109.426 101.476-176.286 149.766-16.603 11.992-57.517 40.21-62.034 42.783-.827.471-13.198-7.161-27.493-16.961z" fill="#fff"/><path d="M735 0C628.5 0 535.9 54 490 132.8 444.1 54 351.5 0 245 0 84.2 0 0 138.7 0 275.7c0 319.9 454.9 596.5 474.2 608.1 4.9 2.9 10.3 4.4 15.8 4.4s10.9-1.5 15.8-4.4C525.1 872.2 980 595.6 980 275.7 980 138.7 895.8 0 735 0zM490 821.3c-79.2-51-428.7-291.1-428.7-545.6 0-103.3 57.5-214.4 183.8-214.4 103.1 0 214.4 70.3 214.4 183.8 0 16.9 13.7 30.6 30.6 30.6 16.9 0 30.6-13.7 30.6-30.6 0-113.5 111.3-183.8 214.4-183.8 126.3 0 183.8 111.1 183.8 214.4-.1 254.2-349.8 494.5-428.9 545.6z"/><path d="M492.877 275.474v544.623" fill="none" stroke="#000"/><circle cx="870.401" cy="444.76" r="1.5"/><path d="M494.655 546.152V275.598l4.29-.858c6.364-1.273 14.055-7.172 17.897-13.727 2.828-4.826 3.586-8.364 4.546-21.226 2.151-28.824 6.53-45.523 17.8-67.895 24.932-49.49 76.809-87.746 139.421-102.816 37.812-9.101 75.803-9.087 108.716.04 12.087 3.351 34.009 13.614 44.945 21.041 45.523 30.914 75.728 85.962 84.033 153.146 1.963 15.885 1.685 52.66-.524 69.25-4.177 31.378-14.353 66.725-28.327 98.405-10.7 24.256-14.781 31.928-16.986 31.928-1.242 0-1.867 1.14-1.704 3.108.328 3.965-12.456 25.981-31.026 53.43-29.797 44.046-58.499 77.935-108.261 127.827-46.574 46.695-85.052 80.44-139.702 122.519-28.417 21.879-91.906 66.936-94.319 66.936-.44 0-.8-121.75-.8-270.554z" fill="red"/></symbol><symbol viewBox="0 0 980 888.2" id="heart-75"><path d="M465.587 803.84c-116.014-78.742-220.439-172.385-291.34-261.257-49.526-62.08-87.469-133.421-102.442-192.62-26.537-104.916 5.037-211.478 76.905-259.55 29.155-19.5 57.173-27.409 97.03-27.386 49.1.027 92.046 12.883 132.129 39.553 48.401 32.206 76.303 78.764 80.537 134.391.744 9.77 2.483 19.992 3.865 22.715 3.855 7.595 13.429 14.679 21.606 15.986l7.38 1.18v168.841h189.077c103.991 0 189.076.488 189.076 1.083 0 2.156-16.007 28.554-30.145 49.714-56.886 85.143-146.824 175.353-259.584 260.367-28.014 21.122-66.661 48.521-84.933 60.215-4.967 3.179-5.017 3.156-29.161-13.231z" fill="none"/><path d="M463.662 802.839C377.13 743.513 309.4 687.49 244.555 621.607c-46.417-47.161-75.143-81.692-104.407-125.508-40.417-60.516-63.408-113.73-74.006-171.29-3.432-18.64-4.79-59.636-2.611-78.832 8.714-76.783 46.555-138.251 102.307-166.185 12.773-6.4 34.03-13.068 49.433-15.508 19.028-3.014 54.72-2.037 75.107 2.056 45.502 9.133 86.811 30.334 116.509 59.794 15.724 15.598 21.829 23.417 31.624 40.5 11.262 19.64 20.205 51.983 20.22 73.122.009 13.145 2.317 19.37 10.048 27.101 5.962 5.962 8.012 7.131 15.058 8.586l8.157 1.685v168.418h188.162c103.489 0 188.473.505 188.854 1.121 1.037 1.679-14.966 28.684-31.263 52.757-29.86 44.107-58.534 77.959-108.272 127.827-55.612 55.757-109.426 101.476-176.286 149.766-16.603 11.992-57.517 40.21-62.034 42.783-.827.471-13.198-7.161-27.493-16.961z" fill="none"/><path d="M463.662 802.839C377.13 743.513 309.4 687.49 244.555 621.607c-46.417-47.161-75.143-81.692-104.407-125.508-40.417-60.516-63.408-113.73-74.006-171.29-3.432-18.64-4.79-59.636-2.611-78.832 8.714-76.783 46.555-138.251 102.307-166.185 12.773-6.4 34.03-13.068 49.433-15.508 19.028-3.014 54.72-2.037 75.107 2.056 45.502 9.133 86.811 30.334 116.509 59.794 15.724 15.598 21.829 23.417 31.624 40.5 11.262 19.64 20.205 51.983 20.22 73.122.009 13.145 2.317 19.37 10.048 27.101 5.962 5.962 8.012 7.131 15.058 8.586l8.157 1.685v168.418h188.162c103.489 0 188.473.505 188.854 1.121 1.037 1.679-14.966 28.684-31.263 52.757-29.86 44.107-58.534 77.959-108.272 127.827-55.612 55.757-109.426 101.476-176.286 149.766-16.603 11.992-57.517 40.21-62.034 42.783-.827.471-13.198-7.161-27.493-16.961z" fill="#fff"/><path d="M735 0C628.5 0 535.9 54 490 132.8 444.1 54 351.5 0 245 0 84.2 0 0 138.7 0 275.7c0 319.9 454.9 596.5 474.2 608.1 4.9 2.9 10.3 4.4 15.8 4.4s10.9-1.5 15.8-4.4C525.1 872.2 980 595.6 980 275.7 980 138.7 895.8 0 735 0zM490 821.3c-79.2-51-428.7-291.1-428.7-545.6 0-103.3 57.5-214.4 183.8-214.4 103.1 0 214.4 70.3 214.4 183.8 0 16.9 13.7 30.6 30.6 30.6 16.9 0 30.6-13.7 30.6-30.6 0-113.5 111.3-183.8 214.4-183.8 126.3 0 183.8 111.1 183.8 214.4-.1 254.2-349.8 494.5-428.9 545.6z"/><path d="M492.877 275.474v169.473" fill="none" stroke="#000"/><circle cx="870.401" cy="444.76" r="1.5"/><path d="M492.877 444.947H108.178" fill="none" stroke="#000"/><path d="M471.155 808.247c-99.69-67.03-191.83-145.377-260.226-221.272-39.38-43.7-75.677-93.347-97.136-132.868l-4.468-8.229 192.208-.237 192.208-.238.248-84.66.248-84.662 5.867-1.818c4.776-1.48 6.929-2.879 11.584-7.526 7.517-7.502 8.739-11.142 9.813-29.224 2.543-42.807 17.718-77.031 47.904-108.04 32.816-33.71 76.645-55.835 128.058-64.642 14.747-2.527 45.096-3.486 59.293-1.875 59.139 6.71 105.194 39.186 134.02 94.503 33.155 63.627 36.416 142.63 9.16 221.982-9.84 28.645-26.033 63.61-29.46 63.61-1.91 0-2.596 2.265-.987 3.26 1.4.865-14.464 28.037-29.323 50.23-57.73 86.222-151.77 179.917-266.937 265.954-31.388 23.448-80.807 57.768-83.184 57.768-.56 0-9.06-5.407-18.89-12.016z" fill="red"/></symbol><symbol viewBox="0 0 472 472" id="market"><path d="M100 216h-8a16 16 0 00-16 16v8c0 22 18 40 40 40h8a16 16 0 0016-16v-8c0-22-18-40-40-40z" fill="#33bc00"/><path d="M148 216h-8a16 16 0 00-16 16v8c0 22 18 40 40 40h8a16 16 0 0016-16v-8c0-22-18-40-40-40z" fill="#79d60d"/><path d="M84 264h-8a16 16 0 00-16 16v8c0 22 18 40 40 40h8a16 16 0 0016-16v-8c0-22-18-40-40-40z" fill="#025902"/><path d="M132 264h-8a16 16 0 00-16 16v8c0 22 18 40 40 40h8a16 16 0 0016-16v-8c0-22-18-40-40-40z" fill="#008100"/><path d="M180 264h-8a16 16 0 00-16 16v8c0 22 18 40 40 40h8a16 16 0 0016-16v-8c0-22-18-40-40-40z" fill="#33bc00"/><path fill="#008100" d="M292.4 205.5l8-24 15.2 5-8 24-15.2-5zm32 0l8-24 15.2 5-8 24-15.2-5zm32 0l8-24 15.2 5-8 24-15.2-5z"/><path d="M300 200a24 24 0 00-24 24v40h48v-40a24 24 0 00-24-24z" fill="#f80"/><path d="M332 200a24 24 0 00-24 24v40h48v-40a24 24 0 00-24-24z" fill="#ff6536"/><path d="M364 200a24 24 0 00-24 24v40h48v-40a24 24 0 00-24-24z" fill="#ff421d"/><path d="M260 256h144v64H260v-64z" fill="#ffa900"/><path d="M444 328H28V136h16v176h384V136h16v192z" fill="#763a02"/><path fill="#de0418" d="M212 0h48v112h-48V0zm-48 112V0h-35.6L116 112h48z"/><path fill="#fbbf00" d="M164 0h48v112h-48V0zm-48 112L128.4 0H93L68 112h48zm288 0L379.1 0h-35.5L356 112h48z"/><path fill="#de0418" d="M92.9 0H68L20 96v16h48L92.9 0zM356 112L343.6 0H308v112h48z"/><path d="M260 0h48v112h-48V0z" fill="#fbbf00"/><path d="M404 0h-24.9L404 112h48V96L404 0z" fill="#de0418"/><path d="M20 112v24a24 24 0 1048 0v-24H20z" fill="#ff421d"/><path d="M68 112v24a24 24 0 1048 0v-24H68z" fill="#ffdb0c"/><path d="M116 112v24a24 24 0 1048 0v-24h-48z" fill="#ff421d"/><path d="M164 112v24a24 24 0 1048 0v-24h-48z" fill="#ffdb0c"/><path d="M212 112v24a24 24 0 1048 0v-24h-48z" fill="#ff421d"/><path d="M260 112v24a24 24 0 1048 0v-24h-48z" fill="#ffdb0c"/><path d="M308 112v24a24 24 0 1048 0v-24h-48z" fill="#ff421d"/><path d="M356 112v24a24 24 0 1048 0v-24h-48z" fill="#ffdb0c"/><path d="M404 136a24 24 0 1048 0v-24h-48v24z" fill="#ff421d"/><path d="M12 312h448v160H12V312z" fill="#fc0"/><path d="M284 280h96v16h-96v-16z" fill="#e47700"/><g fill="#33bc00"><path d="M294.3 362.4l24-24 11.4 11.3-24 24-11.4-11.3z"/><path d="M308 368h24v16h-24v-16z"/></g><path d="M283.3 352h-2.6a32.8 32.8 0 00-26.6 13.7l-30.4 42.5c-6.4 9-4.3 21.6 4.7 28a20.1 20.1 0 0011.7 3.8h1a20.3 20.3 0 009-2.1l47.8-24a32.7 32.7 0 0014.6-43.8 32.7 32.7 0 00-29.2-18.1z" fill="#ff6536"/><path d="M196 360h-8a16 16 0 00-16 16v8c0 31 25 56 56 56h8a16 16 0 0016-16v-8c0-31-25-56-56-56z" fill="#79d60d"/></symbol><symbol viewBox="0 0 300 300" id="ship"><circle cx="57.946" cy="66" fill="#4c241d" r="4"/><circle cx="127.946" cy="136" fill="#e7d1c4" r="74"/><g fill="#4c241d"><circle cx="81.946" cy="106" r="4"/><circle cx="37.946" cy="134" r="4"/><circle cx="249.946" cy="58" r="4"/><circle cx="85.946" cy="70" r="4"/><path d="M186.307 186a4 4 0 01-4-4V42a4 4 0 018 0v140a4 4 0 01-4 4z"/></g><path d="M194.104 54H177.37c24.679 0 44.685 22.458 44.685 50.162 0 27.703-20.006 50.162-44.685 50.162h16.734c24.213 0 43.842-22.459 43.842-50.162S218.317 54 194.104 54z" fill="#6b4f5b"/><path d="M194.104 158.324H177.37a4 4 0 010-8c22.434 0 40.686-20.709 40.686-46.162S199.804 58 177.37 58a4 4 0 010-8h16.734c26.381 0 47.842 24.297 47.842 54.162s-21.461 54.162-47.842 54.162zm11.272-98.443c12.502 9.812 20.68 26.004 20.68 44.281s-8.178 34.469-20.68 44.281c16.498-5.646 28.57-23.361 28.57-44.281s-12.072-38.635-28.57-44.281z" fill="#4c241d"/><path d="M222.055 104.162C222.055 76.458 202.049 54 177.37 54h-17.874c24.679 0 44.685 22.458 44.685 50.162 0 27.703-20.006 50.162-44.685 50.162h17.874c24.679 0 44.685-22.458 44.685-50.162z" fill="#e66353"/><path d="M177.37 158.324h-17.875a4 4 0 010-8c22.434 0 40.686-20.709 40.686-46.162S181.929 58 159.495 58a4 4 0 010-8h17.875c26.846 0 48.686 24.297 48.686 54.162s-21.84 54.162-48.686 54.162zm9.246-99.121c12.998 9.734 21.564 26.256 21.564 44.959s-8.566 35.225-21.564 44.959c17.994-4.762 31.439-23.113 31.439-44.959s-13.445-40.197-31.439-44.959z" fill="#4c241d"/><path d="M37.946 185.869v36.417C37.946 242.01 53.882 258 73.541 258h139.198c21.119 0 37.621-18.296 35.519-39.38l-4.378-67.925a7.872 7.872 0 015.324-8.25c4.11-1.375 8.552.854 9.922 4.978l1.983 5.968s8.724-47.321-26.78-40.305l-1.286 3.87a13.967 13.967 0 01-8.187 8.62c-2.723 1.06-4.413 3.779-3.781 6.64 0 0 5.599 25.612 4.476 31.205-1.854 9.232-6.752 13.582-16.129 14.03L173.946 182l-20 36h-84c-14.323.684-25.858-10.562-29.797-24.396z" fill="#bf7e68"/><path d="M212.739 262H73.54c-21.832 0-39.594-17.816-39.594-39.715v-36.416a3.999 3.999 0 013.447-3.961c1.969-.285 3.852.947 4.4 2.865l2.203 7.734c3.074 10.801 12.469 22.109 25.758 21.496l81.839-.003 18.857-33.943a3.994 3.994 0 012.988-2.023l35.477-4.549c7.844-.389 11.203-3.322 12.715-10.85.592-2.945-1.855-17.639-4.463-29.564-1.033-4.688 1.59-9.41 6.238-11.221a9.96 9.96 0 005.844-6.154l1.283-3.869a4 4 0 013.021-2.664c10.154-2.018 18.184-.184 23.865 5.426 12.471 12.312 7.826 38.422 7.623 39.527a4 4 0 01-3.656 3.266c-1.834.104-3.5-.998-4.074-2.729l-1.982-5.969a3.833 3.833 0 00-1.934-2.238 3.782 3.782 0 00-2.922-.207 3.846 3.846 0 00-2.613 4.061l4.389 68.062c1.104 11.059-2.582 22.258-10.123 30.59-7.508 8.292-18.219 13.048-29.387 13.048zM41.946 206.861v15.424C41.946 239.773 56.12 254 73.54 254h139.199a31.701 31.701 0 0023.455-10.418 31.94 31.94 0 008.082-24.566l-4.389-68.062c-.543-5.42 2.762-10.535 8.049-12.301a11.747 11.747 0 019.035.637c.363.182.715.381 1.053.594-.219-7.172-1.701-15.143-6.234-19.611-3.346-3.297-8.084-4.494-14.424-3.639l-.525 1.584a17.922 17.922 0 01-10.533 11.086c-.789.309-1.541 1.082-1.326 2.053 1.357 6.207 5.688 26.9 4.492 32.854-2.223 11.066-8.719 16.703-19.859 17.238l-33.152 4.262-19.02 34.234a3.997 3.997 0 01-3.496 2.057h-84c-10.972.512-21.345-5.359-28.001-15.141z" fill="#4c241d"/><circle cx="219.946" cy="204" fill="#ffce56" r="10"/><path d="M219.946 218c-7.719 0-14-6.281-14-14s6.281-14 14-14 14 6.281 14 14-6.281 14-14 14zm0-20c-3.309 0-6 2.691-6 6s2.691 6 6 6 6-2.691 6-6-2.691-6-6-6z" fill="#4c241d"/><circle cx="187.946" cy="204" fill="#ffce56" r="10"/><path d="M187.946 218c-7.719 0-14-6.281-14-14s6.281-14 14-14 14 6.281 14 14-6.281 14-14 14zm0-20c-3.309 0-6 2.691-6 6s2.691 6 6 6 6-2.691 6-6-2.691-6-6-6z" fill="#4c241d"/><path d="M97.946 218h-32l8-48h16z" fill="#6b4f5b"/><path d="M97.946 222h-32a4.005 4.005 0 01-3.053-1.414 4.003 4.003 0 01-.893-3.244l8-48A3.999 3.999 0 0173.945 166h16a3.999 3.999 0 013.945 3.342l8 48A3.998 3.998 0 0197.946 222zm-27.277-8h22.555l-6.666-40h-9.223zm59.277 8a4 4 0 01-4-4v-80a4 4 0 018 0v80a4 4 0 01-4 4z" fill="#4c241d"/><path d="M141.946 138h-24l-4-32h32z" fill="#bf7e68"/><path d="M141.946 142h-24a4 4 0 01-3.969-3.504l-4-32a3.994 3.994 0 01.971-3.143 3.997 3.997 0 012.998-1.354h32c1.146 0 2.24.492 2.998 1.354a3.996 3.996 0 01.971 3.143l-4 32a4 4 0 01-3.969 3.504zm-20.469-8h16.938l3-24h-22.938z" fill="#4c241d"/><path d="M129.946 110a4 4 0 01-4-4V54a4 4 0 018 0v52a4 4 0 01-4 4z" fill="#4c241d"/><path d="M142.101 76.162c0-10.031-7.244-18.162-16.179-18.162h-6.472c8.935 0 8.935 36.324 0 36.324h6.472c8.935 0 16.179-8.131 16.179-18.162z" fill="#e66353"/><path d="M125.921 98.324h-6.471a4 4 0 010-8c.68-.58 2.701-5.592 2.701-14.162 0-8.295-1.895-13.258-2.951-14.17a3.975 3.975 0 01-.863-.148c-1.809-.352-3.062-1.939-3.062-3.887 0-2.209 1.967-3.957 4.176-3.957h6.471c11.127 0 20.18 9.941 20.18 22.162s-9.054 22.162-20.181 22.162zm2.277-36.076c1.373 4.029 1.953 9.047 1.953 13.914s-.58 9.885-1.953 13.914c5.631-1.244 9.902-7.01 9.902-13.914s-4.271-12.67-9.902-13.914z" fill="#4c241d"/><path d="M91.946 170h-20a6 6 0 110-12h20a6 6 0 110 12z" fill="#6b4f5b"/><path d="M91.946 174h-20c-5.514 0-10-4.486-10-10s4.486-10 10-10h20c5.514 0 10 4.486 10 10s-4.486 10-10 10zm-20-12a2 2 0 000 4h20a2 2 0 000-4zm26 32h68v8h-68z" fill="#4c241d"/><path d="M109.946 198h8v20h-8zm32 0h8v20h-8z" fill="#4c241d"/></symbol><symbol viewBox="0 -21 469.3 469" id="shipyard"><path d="M85.3 106.8L0 213.5h469.3L384 106.8zm0 0" fill="#553038"/><path d="M42.7 213.5L128 106.8h213.3l85.4 106.7v170.7h-384zm0 0" fill="#f6b55e"/><path d="M106.7 277.5h42.6v21.3h-42.6zm0-42.7h42.6v21.4h-42.6zm64-21.3h42.6v21.3h-42.6zm-64-21.3h42.6v21.3h-42.6zm0 0" fill="#f8c47e"/><path d="M64 384.2v-21.4h21.3v-21.3H64v-21.3h42.7v-42.7H64v-21.3h21.3v-21.4h21.4v-21.3H85.3v-21.3H128v-85.4L42.7 213.5v170.7zm0 0" fill="#f8c47e"/><path d="M213.3 106.8h128l85.4 106.7v170.7H213.3zm0 0" fill="#f18500"/><path d="M213.3 341.5H256v21.3h-42.7zm21.4-42.7h42.6v21.4h-42.6zm0 0" fill="#f4a234"/><path d="M213.3 192.2h213.4v64H213.3zm0 0" fill="#e66100"/><path d="M256 256.2c11.8 0 21.3 9.5 21.3 21.3v21.3h-42.6v-21.3c0-11.8 9.5-21.3 21.3-21.3zm0 0" fill="#011f48"/><path d="M85.3 106.8l85.4 106.7h298.6L384 106.8zm0 0" fill="#ae403f"/><path d="M384 106.8H149.3v21.4h21.4v42.6h42.6v21.4h21.4v21.3h234.6zm0 0" fill="#840504"/><path d="M128 128.2h21.3v21.3H128zm0 0" fill="#a01f1e"/><path d="M106.7 106.8H128v21.4h-21.3zm0 0" fill="#c16c6c"/><path d="M170.7 170.8h42.6v21.4h-42.6zm0 0" fill="#a01f1e"/><path d="M170.7 106.8h42.6v21.4h-42.6zm-21.4 42.7H192v21.3h-42.7zm0 0" fill="#c16c6c"/><path d="M256 128.2h170.7v298.6H256zm0 0" fill="#f6b55e"/><path d="M384 362.8h21.3v21.4H384zm-42.7-21.3h21.4v21.3h-21.4zm42.7-21.3h42.7v21.3H384zm0-64h42.7v21.3H384zm0 0" fill="#f8c47e"/><path d="M341.3 426.8v-85.3H320v-21.3h42.7v-21.4h-64v-21.3H320v-21.3h42.7v-21.4H320v-42.6h21.3v-64H256v106.6h21.3v21.4H256v85.3h42.7v21.3H256v64zm0 0" fill="#f8c47e"/><path d="M256 213.5h21.3v213.3H256zm0 0" fill="#fad7a8"/><path d="M277.3 128.2h149.4v42.6H277.3zm0 0" fill="#f4a234"/><path d="M213.3 149.5L341.3.2l128 149.3zm0 0" fill="#ae403f"/><path d="M341.3 64.2h21.4v21.3h-21.4zm-42.6 21.3H320v21.3h-21.3zm0 0" fill="#ae403f"/><path d="M341.3 106.8h21.4v21.4h-21.4zm0 0" fill="#a01f1e"/><path d="M320 42.8h42.7v21.4H320zm0 42.7h42.7v21.3H320zm-42.7 21.3H320v21.4h-42.7zm0 0" fill="#c16c6c"/><path d="M234.7 128.2H384v21.3H234.7zm0 0" fill="#a01f1e"/><path d="M362.7 106.8h42.6v21.4h-42.6zM320 64.2h-33.5l-9.2 10.6v10.7H320zm0 0" fill="#c16c6c"/><path d="M298.7 192.2c11.7 0 21.3 9.5 21.3 21.3v21.3h-42.7v-21.3c0-11.8 9.6-21.3 21.4-21.3zm85.3 0c11.8 0 21.3 9.5 21.3 21.3v21.3h-42.6v-21.3c0-11.8 9.5-21.3 21.3-21.3zm-85.3 85.3c11.7 0 21.3 9.6 21.3 21.3v21.4h-42.7v-21.4c0-11.7 9.6-21.3 21.4-21.3zm85.3 0c11.8 0 21.3 9.6 21.3 21.3v21.4h-42.6v-21.4c0-11.7 9.5-21.3 21.3-21.3zm-42.7 85.3a42.7 42.7 0 0142.7 42.7v21.3h-85.3v-21.3a42.7 42.7 0 0142.6-42.7zm-256-106.6c11.8 0 21.4 9.5 21.4 21.3v21.3H64v-21.3c0-11.8 9.6-21.3 21.3-21.3zm0 0" fill="#153156"/><path d="M64 277.5h21.3v21.3H64zm0 0" fill="#011f48"/><path d="M170.7 256.2c11.7 0 21.3 9.5 21.3 21.3v21.3h-42.7v-21.3c0-11.8 9.6-21.3 21.4-21.3zm0 0" fill="#153156"/><path d="M149.3 277.5h21.4v21.3h-21.4zm0 0" fill="#011f48"/><path d="M234.7 277.5H256v21.3h-21.3zm0 0" fill="#001037"/><path d="M64 298.8H42.7v-21.3a42.7 42.7 0 0142.6-42.7v21.4A21.4 21.4 0 0064 277.5zm85.3 0H128v-21.3a42.7 42.7 0 0142.7-42.7v21.4a21.4 21.4 0 00-21.4 21.3zm0 0" fill="#fad7a8"/><path d="M234.7 298.8h-21.4v-21.3a42.7 42.7 0 0142.7-42.7v21.4a21.4 21.4 0 00-21.3 21.3zm0 0" fill="#f4a234"/><path d="M277.3 320.2H256v-21.4a42.7 42.7 0 0142.7-42.6v21.3a21.4 21.4 0 00-21.4 21.3zm85.4 0h-21.4v-21.4a42.7 42.7 0 0142.7-42.6v21.3a21.4 21.4 0 00-21.3 21.3zm-85.4-85.4H256v-21.3a42.7 42.7 0 0142.7-42.7v21.4a21.4 21.4 0 00-21.4 21.3zm85.4 0h-21.4v-21.3a42.7 42.7 0 0142.7-42.7v21.4a21.4 21.4 0 00-21.3 21.3zm0 0" fill="#fad7a8"/><path d="M277.3 213.5h21.4v21.3h-21.4zm85.4 0H384v21.3h-21.3zm-85.4 85.3h21.4v21.4h-21.4zm85.4 0H384v21.4h-21.3zm-42.7 128h-21.3v-21.3a42.7 42.7 0 0142.6-42.7v21.4a21.4 21.4 0 00-21.3 21.3zm0 0" fill="#011f48"/><path d="M298.7 426.8h-21.4v-21.3a64 64 0 0164-64v21.3a42.7 42.7 0 00-42.6 42.7zm0 0" fill="#fad7a8"/><path d="M170.7 298.8h42.6v21.4h-42.6zm-64 21.4h42.6v21.3h-42.6zm64 21.3h42.6v21.3h-42.6zm-64 21.3h42.6v21.4h-42.6zm0 0" fill="#f8c47e"/><path d="M341.3.2v42.6h21.4v21.4H384v21.3h-21.3v21.3h42.6v21.4H384v21.3h85.3zm0 0" fill="#a01f1e"/><path d="M362.7 64.2H384v21.3h-21.3zm0 0" fill="#c16c6c"/><path d="M405.3 405.5h21.4v21.3h-21.4zm0 0" fill="#f8c47e"/></symbol><symbol viewBox="0 0 512 512" id="shop"><style>.st2{fill:#ecf0f1}.st4{fill:#bdc3c7}.st5{fill:#c0392b}.st6{fill:#e74c3c}.st7{fill:#3498db}.st8{fill:#2980b9}.st9{fill:#7f8c8d}</style><path fill="#95a5a6" d="M0 469.1h511.2l-84.9-128.2H84.9L0 469.1"/><path fill="#f1c40f" d="M42.5 85.3h426.3v361.8H42.5z"/><path d="M84.9 234.8h191.9v191.9H84.9zM298.1 256h128.2v191.9H298.1z" class="st2"/><path fill="#f39c12" d="M42.5 192.3h426.3v84.9H42.5z"/><path d="M298.1 234.8h128.2V256H298.1zm-213.2 0h191.9v42.5H84.9z" class="st4"/><path d="M0 171.1v32.2a32.4 32.4 0 0032.2 32.2 32.8 32.8 0 0032.2-32.2v-32.2H0z" class="st5"/><path d="M63.7 171.1v32.2c0 17.3 14.2 32.2 32.2 32.2s32.2-14.9 32.2-32.2v-32.2H63.7z" class="st4"/><path d="M128.2 171.1v32.2c0 17.3 14.2 32.2 32.2 32.2s32.2-14.9 32.2-32.2v-32.2h-64.4z" class="st5"/><path d="M191.9 171.1v32.2a32.4 32.4 0 0032.2 32.2 32.8 32.8 0 0032.2-32.2v-32.2h-64.4z" class="st4"/><path d="M255.6 171.1v32.2a32.4 32.4 0 0032.2 32.2 32.3 32.3 0 0032.2-32.2v-32.2h-64.4z" class="st5"/><path d="M319.3 171.1v32.2c0 17.3 14.2 32.2 32.2 32.2s32.2-14.9 32.2-32.2v-32.2h-64.4z" class="st4"/><path d="M383.8 171.1v32.2a32.4 32.4 0 0032.2 32.2 32.3 32.3 0 0032.2-32.2v-32.2h-64.4z" class="st5"/><path d="M447.5 171.1v32.2c0 17.3 14.2 32.2 32.2 32.2s32.2-14.9 32.2-32.2v-32.2h-64.4z" class="st4"/><path d="M213.1 85.3h42.5v85.8h-63.7z" class="st2"/><path d="M255.6 85.3h42.5l21.2 85.8h-63.7z" class="st6"/><path d="M106.2 85.3h64.5l-42.5 85.8H63.7z" class="st2"/><path d="M170.7 85.3h42.4l-21.2 85.8h-63.7z" class="st6"/><path d="M340.5 85.3h-42.4l21.2 85.8h64.5z" class="st2"/><path d="M405 85.3h-64.5l43.3 85.8h63.7zm-362.5 0h63.7l-42.5 85.8H0z" class="st6"/><path d="M468.7 85.3H405l42.5 85.8h63.7z" class="st2"/><path d="M319.3 277.2h84.9v170.7h-84.9z" class="st7"/><path d="M298.1 340.9h106.2v21.2H298.1z" class="st2"/><path d="M405 256h21.2v21.2H405z" class="st4"/><path d="M319.3 256h84.9v21.2h-84.9z" class="st8"/><path d="M298.1 256h21.2v21.2h-21.2z" class="st4"/><path d="M106.2 256h149.4v149.4H106.2z" class="st7"/><path d="M84.9 319.7h191.9v21.2H84.9z" class="st2"/><path d="M170.7 256h21.2v149.4h-21.2zM21.2 85.3H490l-77.9-42.4h-313L21.2 85.3" class="st2"/><path d="M170.7 256h21.2v21.2h-21.2zM21.2 64.1H490l-77.9-42.5h-313L21.2 64.1" class="st4"/><path d="M21.2 64.1h468.7v21.2H21.2z" class="st9"/><path d="M319.3 384.2h84.9v63.7h-84.9z" class="st8"/><path d="M0 469.1h511.2v21.2H0z" class="st9"/><path d="M106.2 256v21.2h63.7V256h-63.7zm85.7 0v21.2h63.7V256h-63.7zm-85.7 128.2v21.2h63.7v-21.2h-63.7zm85.7 0v21.2h63.7v-21.2h-63.7z" class="st8"/><path d="M42.5 85.3l-10.2 21.2H96l11-21.2H42.5zm106.9 0l-5.5 21.2h63.7l5.5-21.2h-63.7zm106.2 0v21.2h48l-5.5-21.2h-42.5zm84.9 0l11 21.2h63.7L405 85.3h-64.5z" class="st5"/><path d="M106.2 85.3L96 106.6h63.7l11-21.2h-64.5zm106.9 0l-5.5 21.2h48V85.3h-42.5zm85 0l5.5 21.2h48l-11-21.2h-42.5zm106.9 0l11 21.2h63.7l-11-21.2H405z" class="st4"/></symbol><symbol viewBox="0 0 297.877 297.877" id="tavern"><path fill="#a05200" d="M140.301 80.093l-18.073 16.894 18.073 16.221zm45.617 26.824l-14.754 13.889h29.612zm-75.092 1.039l-13.746 12.85h28.064zm-86.525 153.85h17v19h-17zM228.424 146.65l-10.531-9.845h-61.592v61h25.333c4.418 0 7.667 3.582 7.667 8v40h83v-96.486l-.343-.514h-38.071a7.995 7.995 0 01-5.463-2.155zm25.877 67.156a8 8 0 01-8 8h-32a8 8 0 01-8-8v-32a8 8 0 018-8h32a8 8 0 018 8v32zm1 48h17v19h-17zm-148-16v-40c0-4.418 3.915-8 8.333-8h24.667v-61H79.963l-10.531 9.845a8 8 0 01-5.463 2.155H25.342l-1.041.533v96.467h83zm-17-32a8 8 0 01-8 8h-32a8 8 0 01-8-8v-32a8 8 0 018-8h32a8 8 0 018 8v32zm66-134.263v32.967l17.571-16.541zm-66 182.263h17v19h-17zm-33 0h17v19h-17zm165 0h17v19h-17zm-33 0h17v19h-17z"/><path fill="#ffc3aa" d="M156.301 57.641l80.743 75.165h32.54L156.301 27.225zm-95.489 75.165l79.489-74.616V27.775L28.274 132.806z"/><path d="M294.987 134.649L154.391 3.226a8.003 8.003 0 00-10.926 0L2.537 134.961A8.001 8.001 0 008 148.805h.301v148h280v-148h1.557a8 8 0 005.129-14.156zm-22.686 14.67v96.486h-83v-40c0-4.418-3.249-8-7.667-8h-25.333v-61h61.592l10.531 9.845a8 8 0 005.463 2.155h38.071l.343.514zm0 131.487h-17v-19h17v19zm-248-19h17v19h-17v-19zm245.283-129h-32.54l-80.743-75.165V27.225l113.283 105.581zm-241.31 0l112.027-105.03V58.19l-79.489 74.615H28.274zm112.027-52.713v33.115l-18.073-16.221 18.073-16.894zm16-.55l17.571 16.426-17.571 16.541V79.543zm-45.475 28.413l14.317 12.85H97.08l13.746-12.85zm75.092-1.039l14.857 13.889h-29.611l14.754-13.889zM25.342 148.806h38.627c2.028 0 3.981-.77 5.463-2.155l10.531-9.845h60.338v61h-24.667c-4.418 0-8.333 3.582-8.333 8v40h-83v-96.467l1.041-.533zm97.959 97v-32h50v32h-50zm-66 16h17v19h-17v-19zm33 0h17v19h-17v-19zm33 0h17v19h-17v-19zm33 0h17v19h-17v-19zm33 0h17v19h-17v-19zm33 0h17v19h-17v-19z"/><path fill="#ffc3aa" d="M123.301 213.806h50v32h-50zm0 48h17v19h-17zm33 0h17v19h-17z"/><path fill="#ffb929" d="M58.301 189.806h16v16h-16z"/><path d="M90.301 181.806a8 8 0 00-8-8h-32a8 8 0 00-8 8v32a8 8 0 008 8h32a8 8 0 008-8v-32zm-32 8h16v16h-16v-16z"/><path fill="#ffb929" d="M222.301 189.806h16v16h-16z"/><path d="M254.301 181.806a8 8 0 00-8-8h-32a8 8 0 00-8 8v32a8 8 0 008 8h32a8 8 0 008-8v-32zm-16 24h-16v-16h16v16z"/></symbol></svg>