<svg xmlns="http://www.w3.org/2000/svg" class="header-panel__logotype" viewBox="0 0 208 71">
  <defs/>
  <g class="logo-weather" id="weather-sunset" fill-opacity="0">
    <ellipse cx="48.3" cy="71.4" fill="#fc0" rx="40.5" ry="40.4"/>
  </g>
  <g class="logo-weather" id="weather-cloudy" fill-opacity="0" transform="translate(14 30) scale(1.14394)">
    <path fill="#f0f5f7" d="M9-4a12 12 0 0124-4 9 9 0 010 17H9A7 7 0 019-4zm0 0"/>
    <path fill="#dde9ed" d="M41 1c0 3-2 6-5 7a8 8 0 00-7-12 12 12 0 00-18-6 12 12 0 0122 2c4 0 8 4 8 9zm0 0"/>
    <path fill="#c4e1e8" d="M64 11a14 14 0 00-27-4 10 10 0 001 19h26a8 8 0 000-15zm0 0"/>
    <path fill="#a4d5dd" d="M71 19c0 4-3 7-7 7h-1l1-3c0-4-3-8-7-8A14 14 0 0040 3a14 14 0 0124 8c4 1 7 4 7 8zm0 0"/>
    <path fill="#f6cb43" d="M60 4a17 17 0 11-33 0 17 17 0 0133 0zm0 0"/>
    <path fill="#fab03c" d="M43 20a16 16 0 01-3-32A16 16 0 0059 7c-1 7-8 13-16 13zm0 0"/>
    <path fill="#f8e98e" d="M69 5h-4a1 1 0 010-2h4a1 1 0 110 2zM62-6a1 1 0 010-2l3-2a1 1 0 111 2l-3 2zm-8-8v-1l-1-1 2-3a1 1 0 112 1l-2 3zm-11-3l-1-1v-4a1 1 0 112 0v4zm-11 3l-1-1-1-3a1 1 0 011-1l2 3a1 1 0 01-1 2zm0 0"/>
    <path fill="#c4e1e8" d="M36 11a14 14 0 00-26-4 10 10 0 000 19h26a8 8 0 000-15zm0 0"/>
    <path fill="#a4d5dd" d="M43 19c0 4-3 7-7 7h-1l1-3c0-4-3-8-7-8A14 14 0 0013 3a14 14 0 0123 8c4 1 7 4 7 8zm0 0"/>
    <path fill="#f0f5f7" d="M58 24a14 14 0 00-26-4 10 10 0 000 19h26a8 8 0 000-15zm0 0"/>
    <path fill="#dde9ed" d="M65 32c0 4-3 7-7 7h-1l1-3c0-4-3-8-7-8a14 14 0 00-16-12 14 14 0 0123 8c4 0 7 4 7 8zm0 0"/>
    <path fill="#f0f5f7" d="M55 24l-1-1-1-2a1 1 0 112-1l1 2a1 1 0 01-1 2zm-3-5l-1-1a9 9 0 00-7-2 2 2 0 110-3c4 0 7 2 9 4a1 1 0 01-1 2zm-41 9a10 10 0 0119-2 7 7 0 010 13H12a6 6 0 01-1-11zm0 0"/>
    <path fill="#dde9ed" d="M37 32c0 4-3 7-7 7a7 7 0 00-4-11 10 10 0 00-11-7 10 10 0 0115 5c4 0 7 3 7 6zm0 0"/>
  </g>
  <g class="logo-weather" id="weather-rainy" fill-opacity="0" transform="matrix(0.15942413,0,0,0.15942413,17.968424,0.37243734)">
    <path style="fill:#a0ecff" d="M 8,375 A 8,8 0 0 1 2,362 L 136,228 a 8,8 0 0 1 11,10 L 13,373 Z m 0,0 m 16,-50 a 8,8 0 0 1 -5,-13 l 17,-17 a 8,8 0 0 1 11,11 l -18,17 z m 0,0 m 34,77 a 8,8 0 0 1 -6,-13 l 17,-17 a 8,8 0 0 1 11,11 l -17,17 z m 0,0 m 294,-27 a 8,8 0 0 1 -5,-13 L 481,228 a 8,8 0 0 1 11,10 L 357,373 Z m 0,0"/>
    <path style="fill:#a0ecff" d="m 308,359 a 8,8 0 0 1 -6,-13 l 60,-60 a 8,8 0 0 1 11,11 l -60,59 c -1,2 -3,3 -5,3 z m 0,0 m -45,44 a 8,8 0 0 1 -5,-13 l 19,-19 a 8,8 0 1 1 11,11 l -19,19 z m 0,0 m 21,-95 a 8,8 0 0 1 -5,-13 l 59,-59 a 8,8 0 0 1 10,11 l -58,59 z m 0,0"/>
    <path style="fill:#6d6d6d" d="m 445,124 a 131,131 0 0 0 -254,-38 89,89 0 0 0 1,177 h 250 a 70,70 0 0 0 3,-139 z m 0,0"/>
    <path style="fill:#565656" d="m 512,193 c 0,39 -31,70 -70,70 h -5 A 70,70 0 0 0 378,161 131,131 0 0 0 219,41 131,131 0 0 1 445,124 c 37,1 67,32 67,69 z m 0,0"/>
    <path style="fill:#6d6d6d" d="m 410,116 c -3,0 -6,-2 -7,-6 l -5,-15 a 8,8 0 1 1 14,-6 l 5,18 a 8,8 0 0 1 -7,9 z m 0,0 M 385,71 c -2,0 -4,-1 -5,-3 a 91,91 0 0 0 -66,-28 8,8 0 0 1 0,-15 c 29,0 56,12 77,33 a 8,8 0 0 1 -6,13 z m 0,0"/>
    <path style="fill:#a09d9c" d="m 84,163 a 94,94 0 0 1 182,-27 63.501968,63.501968 0 0 1 -1,127 H 86 A 50.009999,50.009999 0 0 1 84,163 Z m 0,0"/>
    <path style="fill:#82807f" d="m 328,200 c 0,34 -27,62 -62,63 A 63,63 0 0 0 220,157 94,94 0 0 0 118,97 93,93 0 0 1 266,136 c 34,1 62,29 62,64 z m 0,0"/>
    <path style="fill:#a0ecff" d="m 328,403 a 8,8 0 0 1 0,-15 8,8 0 0 1 0,15 z m 0,0 m 91,-51 a 8,8 0 0 1 0,-16 8,8 0 0 1 0,16 z m 0,0 M 39,421 a 8,8 0 0 1 0,-15 8,8 0 1 1 0,15 z m 0,0"/>
  </g>
  <g class="logo-weather" id="weather-sunny" fill-opacity="0" transform="matrix(0.52,0,0,0.52,30,0)">
    <circle style="fill:#fedb41" cx="64" cy="64" r="39.200001" id="circle846"/>
    <path d="M 95,66 A 2,2 0 0 1 93,64 30,30 0 0 0 64,35 2,2 0 0 1 64,31 33,33 0 0 1 97,64 2,2 0 0 1 95,66 Z M 64,17 a 47,47 0 0 1 9,1 V 16 C 73,8 64,2 64,2 64,2 55,8 55,16 l 1,2 a 47,47 0 0 1 8,-1 z m 0,94 a 47,47 0 0 0 9,-1 v 2 c 0,8 -9,14 -9,14 0,0 -9,-6 -9,-14 l 1,-2 a 47,47 0 0 0 8,1 z M 97,31 a 47,47 0 0 1 6,6 l 1,-1 c 6,-5 4,-16 4,-16 0,0 -11,-2 -16,4 l -1,1 a 47,47 0 0 1 6,6 z M 31,97 a 47,47 0 0 0 6,6 l -1,1 c -5,6 -16,4 -16,4 0,0 -2,-11 4,-16 l 1,-1 a 47,47 0 0 0 6,6 z m 80,-33 a 47,47 0 0 1 -1,9 h 2 c 8,0 14,-9 14,-9 0,0 -6,-9 -14,-9 l -2,1 a 47,47 0 0 1 1,8 z m -94,0 a 47,47 0 0 0 1,9 H 16 C 8,73 2,64 2,64 2,64 8,55 16,55 l 2,1 a 47,47 0 0 0 -1,8 z m 80,33 a 47,47 0 0 1 -6,6 l 1,1 c 5,6 16,4 16,4 0,0 2,-11 -4,-16 l -1,-1 a 47,47 0 0 1 -6,6 z M 31,31 a 47,47 0 0 0 -6,6 l -1,-1 c -6,-5 -4,-16 -4,-16 0,0 11,-2 16,4 l 1,1 a 47,47 0 0 0 -6,6 z" fill="#fea832"/>
  </g>
  <g class="logo-weather" id="weather-night" fill-opacity="0" transform="matrix(0.11766083,0,0,0.11766083,32.763497,10.70916)">
    <path fill="#ffdc52" fill-rule="evenodd" d="M427 50c92 92 96 240 9 335-76 55-173 80-172 82A244 244 0 0137 334c-9-18-5-21 10-10A221 221 0 00356 15c-11-15-8-19 10-10 22 11 43 26 61 45z" clip-rule="evenodd"/>
    <path fill="#eff6ff" fill-rule="evenodd" d="M194 148a54 54 0 00-54 62 31 31 0 007 62h101a46 46 0 10-5-93c-9-19-28-31-49-31zM364 353c21 0 39 13 46 31a40 40 0 0126 1c13 6 22 17 24 31a48 48 0 010 96H312a49 49 0 01-29-88l-1-10a37 37 0 0139-37c9-14 25-24 43-24z" clip-rule="evenodd"/>
    <path fill="#ffd21e" fill-rule="evenodd" d="M282 13l15 30 30 15c4 2 4 4 0 6l-30 15-15 31c-2 4-4 4-6 0l-15-31-31-15c-4-2-4-4 0-6l31-15 15-30c2-4 4-4 6 0zM58 74l16 30 30 15c4 3 4 4 0 6l-30 16-16 30c-2 4-3 4-5 0l-16-30-30-16c-4-2-4-3 0-6l30-15 16-30c2-4 3-4 5 0z" clip-rule="evenodd"/>
    <path fill="#ffc831" fill-rule="evenodd" d="M436 385A244 244 0 00366 5c-18-9-21-5-10 10 11 14 34 29 44 45 70 108 81 199 2 310l8 14a40 40 0 0126 1z" clip-rule="evenodd"/>
    <path fill="#d9eeff" fill-rule="evenodd" d="M508 464c0-26-21-48-48-48a40 40 0 00-50-32 50 50 0 00-46-31c-16 0-29 7-39 18 42 12 73 47 73 89 0 19-6 37-17 52h79c27 0 48-21 48-48zM248 272a46 46 0 10-5-93 54 54 0 00-66-29 79 79 0 0114 121z" clip-rule="evenodd"/>
  </g>
  <g>
    <path d="M32 70v-5l1-3 1-5-2-3-2-3h1l2 3a53 53 0 00-2-9 23 23 0 00-2-4l-2-1h-2l4-1h9v-5l-6 3-3 1 3-6 5-13v-2l2-1 5-1v-1-1h-1v-1l1-3V6l1 8 1 2a20 20 0 016 0l-1 1 2 1c2 0 2 0 2-2l-1-2 1-2-1-2h-2l-1-1h1V8l-1-1c-1 0-1 0 0 0l3-1 1 4 1 3v1l-1 2v2l1-1 3 1h2l1 2 1 3 1 2a61 61 0 013 12c1 0 0 1 0 0l-6-2c-2 0-2 0 0 1 1 2 1 2-1 1a26 26 0 00-5-2v3h2a89 89 0 0110 1h3l-1 2-1 2c-1 1-1 2 3 5l4 4h-1l-1 2-3 9-3 2c-7-1-7-1-7 1v3a5 5 0 01-1 2H46l-14-1zm14-13h1v-1l-1 1c0 1 0 1 0 0s0-1 0 0zm-2-10l-2 1-2 1c0 3 0 4 2 5l1 1h-1v1l2 1a55 55 0 000-10zm7 9v-1l-1-3 2-1c2 1 2 0 0-1h-2v2h-1-1l1 1v2h-1l1 1c0 1 0 1 0 0zm-4-4l1-3h-2l-1 4 1 2zm-10-1c1 1 1 1 1-1s0-1-2 0l-1 1h2zm36 0h-1l-3-3c-2-3-2-3-3-2v1c1 0 1 0 0 0l-1 1 1 2 4 2a1456 1456 0 013 0zm-11 0c1-3 1-3-1-3-3-1-3-1-4 1l-1 2h6zm4-1c-2-2-2-1-3 1l2 1c3 0 3 0 1-2zM40 39c-1-1-1-1 2-1l2-1h-2v-1h1l1-2v-1h-4l-1 3 1 3c1 0 1 0 0 0zm-1-1v-1h1l1-2c2-1 2-1 0 0h-2l2-1 2-1-1 2-1 1c1 0 0 0 0 0l-1 1h-1zm15-1l-1-2v1a47 47 0 01-1 2h1l1-1zm-8 1l-1-2v2h1zm6-2v-1l-6 1 1 1 2 1c3 0 3 0 3-2zM24 49l-1-1h2c1-1 1-1 0 0l-2 1zM38 6l1-1V4h1l-1-1h-1 1l3-1h2v2l-1 2h-5z"/>
    <path fill="#524d31" d="M33 71l-1-4 1-1v-3-1-2-9l-4-10-2-1h-1a183 183 0 0012-1v-1-1c1-1 1 0 1 2h1l2 1 1 1-1-1h0l2-1h-1c-3 0-4-1-1-1l2-1h-1a74 74 0 004-11 31 31 0 01-4 7s0 1 0 0h-1a27 27 0 00-11 4l-2 1 1-2a122 122 0 007-19l3-1 5-1c0-2 0-2 0 0l2 1 3-1 1 1v1h-1l2 1c3 0 3 0 3-2 0-1 0-1 0 0 0 2 0 2 3 2h3v1h-1c-1 0-1 0 0 0l1 1c-1 0-1 0 0 0h1l-1 1c-1-1-1 0 0 0h0-1l1 1 2 1h-1l-1-1 1 1c2 1 2 1 0 1a10 10 0 00-2-1l2 1 3 2 2 10c1 1 1 1-2 1l-4-2c-2 0-2 0-1 1 1 2 1 2-1 0-3-1-4-2-4 0l-1 2 12 1h4l-1 2-2 2v1a8 8 0 01-1 2 16 16 0 00-1 2l-1 2-1 1 5 1 5-1 1 1h-2l-1 1h1v1c2 0 2 0 0 0v1h-1c-2 0-2 0 0 0l2 1-2 1c-1-1-1-1 0 0 2 0 2 1 0 1-1-1-1-1 0 0h1l-3 6-5 1-5-1v1l1 2c-1 5 1 4-14 4H33zm25-6v-1l-1 1-1 1v1a9 9 0 011-2zm-15 1h-5c-3 0-3 0 0 0zm8-9v-5c-1-1-1-1 1-1h1v-1h-1l-2-1-1 1v-1h-2c-2 1-2 1-2 4l1 3v1h3c2-1 2-1 2 1v2zm-7-5v-5l-4 1v4l2 2h-1v1l1 1 2 1v-5zm-9 0h2c2 0 1 0 1-1 0-2 0-2-1-1a11 11 0 00-2 1v1zm27-2l1-1-5-2-1 2-1 2h2l4-1zM52 37l1-2h-5c-2 1-2 1-1 2l3 1 2-1zm2 1l-1-3-1 3h2zm-8 0l-1-2v1l1 1zm8-28h-2l-1-1V7c-1 0-1 0 0 0l2-1c2 0 2 0 2 2v2zM37 6h1l1-1V4 3l4-1 1 1v3h-7z"/>
    <path d="M33 71v-3 1l3 1h1v-1l-1-1-4-1c0-2 1-2 2-1h11l5-1a20 20 0 00-5 0H34c-1 0-1 0 0 0h1v-1h1l-1-1-2-1h1l3 1 12-1 1-1-6 1h-9v-1h-1v-1c-1 0-1 0 0 0h1l1 1v-1h-1l1-1 4 1-2-1a7 7 0 01-3-1l-1-3v-1l-1-1s0-1 0 0v-3l-1-1-3-8-2-1h11c1 0 1 0 0 0l1-1c2 0 2 1 3 2a18 18 0 012 5v1l-4 1a11 11 0 000 3l1 3 1 1h-1l1 1h1v1h1l1-5v-3a16 16 0 010 9l-1 1 1-1h1l1-1 1 1c0 1 0 0 0 0h-1 2c0-1 0-1 0 0h-1l3-1v5c0 3 0 2 1-1l-1-8 1-1c1 0 2 0 2-2l-1-1v1l-2-1c-2 0-2 0 0-1l3-1h-2l-6 2-1-2-1-3 5-1 2-1h-4l-3 1 3-1 3-1c-1 0-1 0 0 0 2 0 1-1-2-1h-1l3-1h1a17 17 0 002-4h-5l-3 2v1-1h-2v-1l1-1v-1c0 1 1 0 0 0l3-4v-3l1-4a64 64 0 01-3 7c-1 3-1 3-3 3l-4 1h-2l-1 1-3 1-2 2a102 102 0 014-10c1 0 1 0 0 0l1-3c1 1 1 0 0 0l2-3v-2-1l1-2a42 42 0 008-1h5v1h-1a5 5 0 00-2 0l3 1 4-1 3 1h-5l1 1c1 0 1 0 0 0v1h1l-1 1a198 198 0 019 2l-4-1h-1a25 25 0 015 2 53 53 0 00-7-2l4 2 4 1a25 25 0 012 8l1 3v1h-1l-3-1-1-1h-1a27 27 0 01-3 0h-1-1c-1-1-1 0-2 2 0 1 0 2 2 2h7l6 1-1 1v1l-1 2-1 1h-1l1 1-1 1-1 1v1h-1v0l-5-2-1-1-1 5c-1 0-1 0 0 0v1h5l1-2c1-1 1 0 1 1l6 1h-1l-4 1h5-2c2 0 2 1 0 1h-1l4 1h2l-7-1v1h4l3 1h-3l-3-1 3 1 3 1a45 45 0 00-6-1l3 1 3 2-2 3h-1v2l-3 1-12-1c-1 1-1 1 1 1s2 0 1 1l-1 3 1-2 1-1h1c-1-1 0-1 1-1h0v2l-1 1 1 1 1 1h-1l-1-1v1l1 1H33zm22-3v-1 4zM35 53h3v-1-2h-1v1h-1v-1l-1 2v1l-1 1zm5-3l-1 1c0 1 0 1 0 0zm14-13v-2h-1l-1 4h2v-2zm-11 6l5-1-2 1h-3zm-1-3h2-2zm17-3l-1-1 2 1c2 2 1 2-1 0zm-6-26V9h-1V8l-1-1c-1 0-1 0 0 0a4 4 0 012 0h1V6l1 2c0 2 0 2-2 2zM38 6l1-1 1-1h0l-1-1 4-1 1 2c0 2 0 2-2 2h-1-3z"/>
  </g>
  <g>
    <text x="101" y="52" class="header-panel__logotype__text" font-family="Montaga" font-size="24" font-weight="700">
      <tspan>Lost Seas</tspan>
    </text>
  </g>
</svg>
