<svg xmlns="http://www.w3.org/2000/svg" viewBox="0 0 208 71" class="header-panel__logotype" alt="Lost Seas">
   <ellipse cx="48.3" cy="71.4" fill="#fc0" rx="40.5" ry="40.4"/>
   <path fill="#646358" d="M32.3 70.2c-.4-1-.2-4.3.2-5l.5-3.4c.1-1.7.3-3.8.5-4.7.2-1.6.2-1.6-1.5-3.5-1-1-1.8-2.2-2-2.6-.1-.3 0-.2.5.4 1.3 1.6 2.4 2.8 2.6 2.7a53 53 0 00-2.5-9.3 23 23 0 00-1.7-3.3c-.7-1.1-.9-1.2-2.3-1.2-1 0-1.6-.1-1.6-.3 0-.3 2.2-.7 3.5-.7 3.7.2 8.8 0 9.2-.4.5-.5.9-5 .4-5-.8 0-4 1.5-6.4 2.9l-2.6 1.5 2.9-6.5c2.7-6.1 4.3-10.2 5.2-13.2.3-1.2.3-1.4-.1-1.7-.5-.3-.5-.3 2-.4 4.2-.3 5-.5 5.3-1.3v-1.4c-.2-.3-.3-.8-.3-1 .1-.8-.2-.8-1 0-.4.2-.3 0 .2-.5.8-.9.9-1.2.9-3.7V6.1c.3.2.6 5.1.6 7.6 0 2.3 0 2.3 1 2.2a20 20 0 016.5-.2c.1.2 0 .2-.3 0-.5 0-.5 0-.4.7.1.7 0 .9-.5 1l1.5.2c2.1 0 2.1 0 2.1-1.5 0-.9-.1-1.7-.3-2-.3-.2-.3-.3 0-.5.2-.1.3-1 .3-1.8 0-1.4 0-1.6-.9-2-.4-.1-1.4-.2-2-.1-.7 0-1.2 0-1.2-.2l.4-.2c.3 0 .5-.2.5-.5v-.7c0-.2-.2-.4-.6-.6-.7-.4-.7-.4.3-.7l2.5-.5C55 6.1 55 6.1 55 9.8c0 3.2.1 3.6.6 3.6s.5 0 0 .4c-.4.2-.6.7-.6 2 0 1 .2 1.8.4 1.8l.3-.3c0-.2.2-.2.5.1.5.6 3.5.7 3.2.2h.7c.6.3.9.6.8.8 0 .3.3 1 .8 1.8.8 1.2 1.3 2.2 1.5 2.8l.7 1.6a60.9 60.9 0 013.6 12.2c0 .6-.1.7-.5.5-1-.4-5.3-1.7-6.5-1.9-1.1-.2-1.1-.2 0 1 1.7 1.6 1.6 1.8-.3.8a26 26 0 00-4.8-2.3c-.3 0-.7 1.5-.7 2.7 0 .8.1.8 2.2.8a89.3 89.3 0 0110.5.5c2 .2 3.3.3 2.8.4-.9 0-1.2.3-1.6 1.3l-1 2c-1 1.5-.8 1.9 2.9 5.6 2 2 3.8 3.7 4 3.7.3 0 .2.1-.3.2-.6.2-.8.5-1 2.3-.5 2.8-2 6.2-3.5 8.7-1.3 2-1.3 2-3.2 1.7-7-.7-6.7-.8-6.7 1.3l-.1 2.8a5 5 0 01-.5 1.6c-.4.9-.4.9-13.5.9-13 0-13 0-13.4-1.2zm14-13.4c.1.5.2.6.4.2.2-.4.3-.4.3-.1 0 .2.2.3.4.2.6-.4.3-1-.7-1-.8 0-1 0-1 .8.1.9.1.9.4 0 .2-.6.2-.6.3-.1zM44 47.1l-1.9.4c-1.5.4-1.7.6-1.9 1.5-.6 3-.1 4.2 2 5 .6.3 1 .6 1 .8 0 .3 0 .3-1 0-1.6-.6-1.3.2.2.9.8.3 1.5.8 1.5 1a54.6 54.6 0 00.1-9.6zm6.6 9.2c.5 0 .6-.2.6-1 0-1.4-.5-3.2-1-3.5-.3-.2.3-.3 1.4-.3 2.3 0 2.4-.5.2-1.6-1.7-1-1.9-.9-1.9.3 0 .4-.1.6-.2.6-.2-.1-.2.2-.2.8.2.9.1 1-.5.8-.4-.1-.7 0-.7.1 0 .2.3.3.5.3.5 0 .5.2.4 1-.2.6-.2 1.2-.2 1.4 0 .2-.4.4-.8.3h-.1c.3.2.5.4.5.7 0 .4.2.5.8.3zm-3.8-4.2c.6-1.7 1-3.1.8-3.1l-1.2.4c-1 .5-1 .6-1 3.3 0 1.5.1 2.7.2 2.6zm-9.8-.6c1.2.5 1.3.5 1.3-1s-.2-1.5-2-.2c-1.4 1-2 2-.8 1.2.5-.3.8-.3 1.5 0zm36 0l-.5-.4c-.3-.1-.5-.3-.4-.5.1-.1-1-1.5-2.7-3-2.8-3-2.8-3-3.2-2-.3.7-.3.9.2 1.3.6.5.6.5-.1.1-.8-.4-.8-.4-1.3.7-.4.7-.4.8 1.3 2.3 1.5 1.3 1.9 1.5 3.5 1.6a1455.7 1455.7 0 013.2 0zm-11.4-.8c1.6-2.6 1.7-2.2-.5-3-3.3-1-3.6-1-4.2 1.3l-.6 2.2c0 .2 1 .3 2.4.3 2.2 0 2.4 0 2.9-.8zm4.5-.6c-1.8-1.6-1.8-1.5-3 .5-.4 1-.4 1 2 1 2.6 0 2.6 0 1-1.5zM40 38.5c-.9-.4-.8-.4 1.6-.4 2.4 0 2.5 0 2.5-.9 0-.5-.2-.7-.4-.6-1.7.7-1.7.7-1.3 0 .3-.5.3-.7 0-.9-.3 0-.2-.1.1-.2.3 0 .9-.6 1.3-1.3.6-1.3.6-1.8-.1-1.4-.3.2-.7.3-1 .2-.3 0-1.4 0-2.3.3-1.7.3-1.7.3-1.7 3s0 2.7 1.2 2.7c1.1 0 1.1 0 .2-.5zm-.8-1c.2-.4.3-.7.2-.8-.2-.1 0-.2.2-.2.3 0 1-.6 1.7-1.3 1.4-1.4 1.4-1.6-.4-.6l-1.5.6c-.2 0 .5-.5 1.6-1l2-.8-.8 1.3c-.6.6-1 1.1-.8 1.2.1 0 0 .1-.1 0-.2 0-.4 0-.5.2l-1 1c-.6.5-.8.6-.6.3zm14.4-.3l-.2-1.8c-.2-.6-.3-.5-.5.3a47 47 0 01-.4 1.9c-.2.7 0 .8.5.8.6 0 .7-.2.6-1.2zm-7.3.8c0-.6-.8-2.1-1-2-.3.2-.4 1.6 0 1.9.2.2 1 .3 1 0zm5.8-1.6c.5-1.5.5-1.5-.2-1.5-1.3 0-5.1.6-5.4.9 0 .1 0 .7.2 1.3.4 1 .4 1 2.6 1 2.2-.2 2.2-.2 2.8-1.7zM23.5 48.6c-.5-.3-.7-.6-.5-.6.3 0 .7.1 1 .3.4.2.7 0 1.2-.6.7-.8.7-.8.2.4-.6 1.4-.6 1.3-1.9.5zM37.8 6c.4-.4 1-1 1-1.3.1-.3.4-.5.5-.5.2 0 .4-.2.4-.5s-.3-.4-.8-.3c-.5.1-.8 0-.8-.1 0-.2.6-.5 1.3-.6l3-.6c.9-.2 1.7-.4 1.8-.3.2 0 .3 1 .3 2 0 2 0 2-1.2 2l-3.3.4c-2.9.7-3.2.6-2.2-.2z"/>
   <path fill="#524d31" d="M32.5 70.8c-.3-1.2-.5-3.3-.3-3.3s.3-.5.3-1.2c.1-2 .5-3.6.8-3.4.2.1.2 0 0-.4-.4-.6-.4-1.1 0-2.8.5-3 .4-4-.7-8.4-1.2-5-2.6-8.6-3.8-10.1-1-1-1.2-1.2-2.1-1.1-.6 0-1.1 0-1.1-.2a182.6 182.6 0 0012.4-.7l.2-1.3c0-.6.2-1.2.3-1.3.2-.2.3.7.2 2 0 .7 0 .8 1.1.7 1-.2 1.3 0 2 1 .4.6.8 1 .8.8 0-.3-.2-.5-.4-.7-.3-.1-.2-.3.4-.4.8-.3.8-.3-.1-.3-1.7 0-.9-.6 1.1-.7 2-.2 2-.2-.4-.2-3.3-.2-4.4-.7-1.4-.7 2.3 0 2.4 0 2.4-.9 0-.8 0-.8-1.6-.2a74.3 74.3 0 004.6-11 31 31 0 01-3.7 7.1c-.4.4-.6.5-.5.3.2-.3 0-.4-.8-.4a27 27 0 00-11 4l-2 1 .8-1.8c2.7-5.3 7.4-17.2 7.4-18.6 0-.3-.1-.6-.4-.7-.2-.1 1-.3 2.5-.4 5-.4 5-.4 5-1.9.2-1.3.2-1.3.2 0 .1 1.4.1 1.4 2.3 1.2l3.3-.3c1.2-.2 1.2-.2 1.2.8 0 .9 0 1-1 1-.5 0-.9 0-.9.2s1.1.2 2.5.2c2.5 0 2.5 0 2.6-1.6.2-1.5.2-1.5.3.1 0 1.7 0 1.7 3.2 1.7 2 0 3 .1 2.6.3-.3.2-.3.4-.2.4l-.6.3c-1 .2-1 .2 0 .3 1.2 0 1.7.5.9.7-.5.2-.4.2.1.2.4 0 .8.2 1 .4 0 .2-.3.2-1 .1-1-.1-1 0 .2.2.7.2 1.2.5 1.2.6 0 .2-.5.2-1 0l-1.6-.3c-.2 0 .2.3 1 .5 1.7.5 2.2.7 2.2 1.1 0 .2-.3.2-.8 0-.4-.2-1-.3-1.3-.3-.3 0 .1.3 1 .6 2.4.8 2.2 1.4-.2.6a9.7 9.7 0 00-2.2-.5c-.2 0 .7.4 2 .8 2.3.7 2.4.8 3 2.1.7 2.2 2.6 8.6 2.8 10 .3 1.4.3 1.4-2.4.5-1.5-.5-3.4-1-4.3-1.1-1.6-.3-1.6-.3-.3 1 1.2 1.3 1.2 1.3-1.5 0-3.2-1.8-4-1.9-4.2-.5l-.2 1.7c0 .8 0 .8 11.5 1.3 2.7.2 4.6.3 4 .4-.6 0-1 .4-1.3 1.3l-1.1 2c-.3.5-.6 1-.6 1.4a8 8 0 01-1.1 2.2 16 16 0 00-1.2 2l-1 1.6-.8 1.5c0 .1 2.5.3 5.4.4 5 .2 5.2.2 4.8-.4-.5-.6-.5-.6.2 0 .3.3.9.5 1.2.5 1.5 0 0 .5-2.3.7-2.4.2-2.4.2-.7.3 2.1 0 2.5.5.7.7-1.2.2-1.2.2 0 .2 1.5 0 1.6.7.1.7-1 0-1 .1-.1.2.5.1.9.3.9.5s-.8.3-2 .2c-2-.2-2-.2-.2.1 1.2.3 1.8.5 1.8.8 0 .4-.3.4-1.2.3-1.2-.2-1.2-.2-.1.2 1.4.4 1.3 1-.2.8-1.2-.2-1.2-.2-.1.2.5.2 1 .4 1 .6 0 .5-2.5 5.1-3.2 6-.6.7-.6.7-4.7.3-2.3-.3-4.5-.4-5-.3-1 .2-1 .2-.1.3 1 0 1 0 .7 2.5-.4 4.7 1 4.3-14 4.3-12.1 0-13 0-13.2-.6zm25-5.9c.5-.5.5-.6 0-.6-.3 0-.5.1-.5.3l-.6 1.6c-.4.8-.7 1.8-.7 2.3 0 .5.2 0 .6-1a9 9 0 011.2-2.6zm-14.1 1.2c3.5-.5 3.9-.5-5 .1-3 .3-3 .3-.6.3zm8-9.1c0-2.2-.3-3.9-.6-4.5-.5-1-.5-1 1-1 1.4 0 1.6 0 1.7-.8.1-.4 0-.8-.1-.8-.2 0-.3.2-.3.3 0 .2-.6 0-1.3-.5-1.4-.8-2.4-1-2-.4 0 .2 0 .3-.4.3-.3 0-.4-.2-.3-.5.2-.6-1-.6-2.5 0-1.2.6-1.2.6-1.2 3.6 0 2.1.2 3 .4 3 .3 0 .3 0 0 .4-.6.6-.4 1.5.3 1.4l.6-.2.6-.2 1.3-.3c2.8-.6 2.6-.8 2.6 1.6 0 1.1 0 2 .2 2zm-7.1-4.7c0-2.7-.1-5-.2-5.1-.4-.4-3.5.5-3.7 1-.5 1-.7 3.4-.4 4.2.2.4 1 1 1.8 1.4 2 1 1.8 1.5-.4.7-.3-.1-.4 0-.4.3s.5.6 1.2.9c.7.2 1.4.7 1.5 1 .5 1.4.6.2.6-4.4zm-9-.7c.5-.5.6-.5 1.7 0 1.5.7 1.4.8 1.4-1 0-1.7 0-1.7-1.3-1a11 11 0 00-2.1 1.7c-1 1-.7 1.2.3.3zM62 50.1l1-1.6c0-.2-3.2-1.3-4.6-1.6-1.1-.2-1.1-.2-1.7 1.8l-.7 2.4c-.1.3.4.4 2.4.4 2.6 0 2.6 0 3.6-1.4zM52 36.6l.7-1.6c0-.2-2.5 0-4.4.2-2.2.4-2.2.4-1.7 1.9.4 1 .7 1.1 3.1 1.1 1.8 0 1.8 0 2.4-1.6zm1.7 1.4c.2-1.6 0-3.1-.3-3.1s-1 2.3-1 3.2c0 .4 1.3.4 1.3-.1zm-7.4-.2c0-.7-.6-2-1-2-.1 0-.3.5-.3 1.2 0 .9.1 1 .7 1 .3 0 .6 0 .6-.2zM54 9.9l-2-.3c-.7 0-1-.1-.8-.3.9-.4.7-1.6-.2-1.8-.7-.2-.8-.3-.3-.5.3-.2 1.4-.5 2.5-.6C55 6.2 55 6.2 55 8.2v2zM37.3 6.4c.1-.2.5-.5 1-.6.4-.2.7-.5.5-.8 0-.3.1-.6.5-.8.8-.5.6-1-.4-1-.6 0 1.7-.7 4.2-1.2 1-.1 1 0 1 .6l.3 2c0 .8 0 1.1-.3 1-.3-.1-1.9.1-3.6.5-3.7.7-3.5.7-3.2.3z"/>
   <path fill="#24241a" d="M32.6 70.6c-.3-1-.3-2.5.1-2.2.2 0 .2.3 0 .4-.2.4 1 .8 3 1.1 1.2.2 1.7.1 1.7-.1s-.2-.4-.4-.4c-.3 0-.4-.1-.3-.4 0-.3-.2-.5-1-.7-1.5-.3-3.4-1.2-3.4-1.6 0-1.2.4-1.4 1.4-.8 1.2.8 4.5.9 10.8.3 5-.4 5.7-.6 5.1-1a20 20 0 00-4.5.3c-5.7.6-10.6.6-11.4 0-.6-.6-.6-.6.1-.2 1 .4 2.1.4 1.9 0-.1-.2 0-.3.2-.3.3 0 .3-.1 0-.3-.4-.2-.7-.2-1 0-.4.4-.4.3 0-.3.3-.5.5-.6.8-.3.3.1.5.2.5 0l-1.6-1c-1.3-.6-1.6-.9-1.6-1.5 0-.8 0-.8.9.1.5.6 1.5 1 2.6 1.3 1.9.4 3.6.3 12.4-1.1.6-.1 1-.3.8-.4-.1-.2-2.7 0-5.6.5-5.9.9-8.2.8-9.5-.3-.8-.6-.8-.6-.1-.3.5.3.9.3 1.3 0 .5-.3.5-.3 0-.2-.3.1-.8 0-1-.2-.3-.3-.6-.4-.6-.3-.1 0-.4-.1-.6-.5-.4-.5-.4-.5 0-.1.4.3.6.3 1 0 .3-.3.3-.3.1 0v.4l.9.1c.3.1.5 0 .4-.2h-.6c-.2.1-.2 0 0-.3.3-.3.3-.6.2-.7l.7.1c1 .4 4 .7 4 .4 0-.2-1-.4-2.2-.6a7.1 7.1 0 01-3.4-1.2c-1.1-.9-1.2-1-1-2.6 0-1.1 0-1.6-.2-1.4-.2.3-.2.1-.1-.6 0-.5 0-1-.1-.8-.4.2-.8-2.4-.5-2.8.2-.2.1-.3 0-.2-.3.1-.5-.2-.6-.8-.4-1.8-2-5.8-3-7.4-.8-1.2-1.2-1.5-2-1.6l3.5-.2 6-.1c.8 0 1.2 0 1.1.3 0 .2.2.3.5.2.4-.2.4-.2 0-.5-.2-.1.2-.2 1.2-.2 1.6.1 1.6.2 2.7 1.9a18 18 0 012.1 5.2c.2.4 0 .5-.8.5-1 0-3 .7-3.3 1.3a11 11 0 00-.4 2.4c-.1 2-.1 2 1.6 3 1.5 1 1.5 1 .6.9-.8-.2-1-.1-1 .3 0 .2.1.5.3.5l1 .7.4.3c-.1-.3 0-.4.2-.3.3 0 .4.3.4.6 0 .2.3.5.6.5.5 0 .6-.3.6-4.8 0-4.7 0-4.8.5-3.4a16 16 0 01-.5 8.7c-.4 1-.5 1.4-.2 1.2.3-.2.6-.7.7-1 .2-.6.2-.6.7 0 .2.2.3.3.2.1-.1-.3 0-.4.5-.4.3 0 .8 0 1-.2.4-.1.6 0 .6.2s-.2.3-.4.2c-.2 0-.4.2-.5.6-.1.6-.1.6.4 0 .3-.2.7-.4.8-.3.2 0 .5-.1.7-.4.4-.5.4-.5-.1-.1-.5.3-.6.3-.6 0 0-.7 2.5-1.4 2.7-.8.1.3.1.8-.3 5.4-.2 3.2.4 2 .8-1.6.4-3 .2-6.4-.5-8-.4-1-.4-1 1.2-1s1.6 0 1.6-1.5c0-1-.2-1.4-.4-1.3-.1.1-.3.5-.3.8 0 .5-.1.5-1.9-.3-2-.8-2-.8-.4-1.3l3-.8c.9-.1 1.6-.3 1.6-.5 0-.4-.4-.4-3.2.3l-6.1 2c-.4.3-.7-.2-1.1-2l-.7-2.7c-.2-.3 3.4-1.7 4.3-1.7.5 0 2-.7 1.9-.9l-3.3.7-3.4.8c-.9 0 .6-.6 2.8-1.1 4-1 3.9-.9 3.2-1.2-.6-.2-.5-.2.3-.2 1.8 0 .5-.4-2.5-.7-3-.3-3-.3-.2-.2 2.2 0 2.7 0 2.5-.4-.3-.3-.2-.4.4-.4.5 0 1-.1 1.1-.4a17 17 0 001.4-3.8c0-.2-1.9 0-4.8.4-3 .6-3 .6-2.8 2 0 1 0 1.2-.4 1.2-.5 0-.5-.2-.3-1.2.3-1.2.2-1.2-1.4-.6-.5.3-.5.2 0-.7.3-.5.7-.9.8-.8.1 0 .2-.1 0-.4-.1-.4 0-.5.3-.3.2.2.3.1.2 0-.3-.6 1.7-4.7 2.1-4.4.2 0 .2 0 .1-.2s.2-1.6.8-3.1c.5-1.6.9-3 .8-3.3a64.2 64.2 0 01-3 6.5c-1.4 2.9-1.4 2.9-3 3-1 0-2.7.4-3.9.7-1.2.4-2.3.6-2.5.4-.2 0-.3 0-.2.2.2.2 0 .4-.3.5-.3 0-1.7.8-3.1 1.6l-2.6 1.5A102 102 0 0134 28c-.1-.4 0-.5.2-.3.3.2.4.1.2-.1-.3-.6.5-2.4.9-2.1.2.1.2 0 0-.2-.2-.5.9-3.6 1.3-3.3.2 0 .2 0 0-.2-.2-.4.2-2 .5-1.8 0 0 .2-.2.2-.6.1-1.8.3-2.7.6-2.7a41.5 41.5 0 008.4-.9l3.3-.1c1.3-.2 1.4 0 1.4.5 0 .3.2.7.4.9.1 0-.4.2-1.2.1a5 5 0 00-2 .3c-.6.3 0 .4 3 .4 2.6 0 3.5 0 3.5-.4 0-.3 0-.3.3 0 .1.2 1.2.4 2.8.5 1.5 0 2.7.2 2.7.3 0 .1-2 .2-4.3.1-2.5 0-3.7 0-3 .1.8.2 1.1.3.9.4-.4 0-.3.1.1.3.6.3.6.3 0 .3-.5 0-.7.1-.6.3l1 .2c.8-.2.8-.1.3.1-.4.2-.5.3-.4.4a197.6 197.6 0 018.5 2l-3.5-.6c-5-1.2-5.9-.9-1 .3a25 25 0 014.7 1.5c.2.3.2.3-.3.2a53 53 0 00-7-1.8c-.7 0 .2.4 4.6 1.7 1.6.5 3 1 3.3 1.3a25.3 25.3 0 012.4 7.7c.4-.2 1.1 3.2.8 3.7 0 .2 0 .3.2.3s.3.1.3.3c0 .1-.8 0-1.8-.5l-3-1c-.7 0-1.2-.2-1.1-.4 0 0-.4-.2-1-.2a27 27 0 01-2.6-.2c-.7 0-1.3 0-1.2.1.1.2-.2.1-.6 0-1.1-.6-1.5-.2-1.7 1.8-.2 1.8 0 2 1.8 2 .5 0 3.5 0 6.8.2 6 .2 6 .2 5.6 1.1-.1.6-.4.9-.6.8-.2-.2-.3-.1-.1.1.1.2-.1.8-.5 1.4-.4.5-.7 1.2-.8 1.5 0 .8-.5 1.6-.8 1.5-.1-.1-.4 0-.5.2-.1.2 0 .3.2.1.5-.3.4.1-.4 1.3-.4.8-.8 1-1.2 1-.4-.2-.4-.2-.1.1.4.4.2 1.4-.2 1.1-.2 0-.3 0-.2.3.1.2 0 .6-.1.7-.4.2-.4 0-.5-1.3 0-.7-3-2-4.7-2-.4 0-1-.3-1.2-.5-.4-.3-.4-.3-.1.1.5.7-.7 5-1.3 4.6-.2-.2-.2 0 0 .3.3.3.6.5.7.4l2.6.1c1.6.1 2.4.1 2.4-.1l.6-1.2c.7-1 1.2-.6 1 .6-.3.8-.3.8 5.7.7 3.3 0 6.1 0 6.2.2.2.2-.7.3-6.5.2-3.3 0-4.5 0-3.8.3.5.1 2.7.3 4.8.3 2.2 0 4 .2 4 .3 0 0-1.8.2-4 .1-2.1 0-3.2 0-2.3.1 2 .2 1.6.7-.4.6-1.5-.1-1.5-.1-.2.2l3.8.5c1.3.1 2.5.3 2.7.5 0 .2-.3.3-1 .1-1.7-.3-6.3-.8-7.3-.8-.8 0-.8 0 0 .3l4 .7 3.7.6c.8.5-.2.4-3-.2l-3.2-.4c-1.3 0 .2.5 3.3 1 1.6.4 3 .8 3 1a45.1 45.1 0 00-6.2-1c-.4 0 .7.4 2.4.9 2.3.6 3.2 1 3.1 1.3-.2 1.2-1.6 3.8-2 3.7l-.4.1c-.2.3-.1.3 0 .2.7-.4.5.3-.4 1.3s-.9 1-2.8.7c-2.9-.4-10.7-.7-11.9-.3-.8.3-.7.3.9.3 1.8 0 1.8 0 1.2 1.5-.4.8-.7 2.2-.8 3.1-.2 1.9 0 1.5 1-1.8.3-1 .6-1.7.8-1.6l.3-.1c-.2-.8 0-1 1.1-1 .6 0 1.1 0 1.1.3 0 .1-.1.3-.4.3-.2 0-.2 0 0 .3.6.3.3 1-.4 1-.3 0-.4.1-.3.3.1.2 0 .3-.1.3-.2 0-.5.3-.6.7-.3.6-.2.8.6 1.3.5.3 1 .6 1 .8 0 0-.5 0-1-.4-.5-.3-.9-.4-1-.2-.3.2 0 .4.5.5.5.1.8.4.7.8 0 .5-1.1.5-13 .6-12.9 0-12.9 0-13.2-.7zm22.6-2.1c.5-2.4.5-3-.1-2-.4.6-.9 4.8-.6 4.5zM35 52c.7-.7 1-.7 1.6-.4.5.2.8.4.7.6h.5c.5 0 .6-.4.6-1.6 0-1.5 0-1.6-.8-1.5-.4 0-.7.1-.7.3 0 .2-.1.4-.4.4-.2.1-.3 0-.2-.1.1-.2 0-.5-.1-.6-.2 0-.3.1-.2.4.1.7-.4 1.4-.9 1.2-.2-.1-.2 0-.1 0 0 .3-.1.7-.4 1-.6.5-.9 1.1-.6 1.1zm4.7-3.3c0-1-.8 0-.9 1 0 1.3 0 1.3.4.4zM54 36.3c0-1.4-.2-2-.5-1.8l-.4-.1c.1-.6 0-.8-.3-.6-.2.1-.2.3 0 .6.3.4.1 1.9-.5 3.5-.2.4 1 .8 1.6.6.1-.1.2-1 .1-2.2zm-10.7 5.8c.2-.3 4.4-1.1 5.2-1.1.3 0-.6.3-2.1.6-3 .7-3.4.7-3.1.5zm-1.4-2.8c.1-.2 1.4-.2 2.8-.2 2.5.1 2.5.1-.3.3-1.5 0-2.7 0-2.5-.1zm17.1-3c-1.7-1-1.8-1-.8-1 .7.2 1.6.7 2.1 1.2 1.2 1.2 1 1.2-1.3-.2zM53.4 9.6l-.6-.2-.6-.1c-.4-.2-.6-.6-.5-1 .2-.4 0-.7-.5-.9-.8-.3-.8-.3.1-.5a4 4 0 012.2 0c.9 0 1.2 0 .9-.2-.4-.2-.4-.3 0-.3.5 0 .6.3.6 1.8 0 1.8-.3 2.1-1.6 1.4zM38.2 5.9c.5-.3.8-.7.7-1-.2-.5.5-.8 1.4-.6.4 0 .6 0 .5-.2a.4.4 0 00-.5 0c-.2 0-.3-.1-.3-.4 0-.3-.3-.5-.7-.5-.7 0 0-.2 4-1.2.9-.2.9-.2.9 1.6 0 2 .1 1.9-2.7 2l-.9.2c0 .2-.9.4-1.7.5-1.6.1-1.6.1-.7-.4z"/>
   <text x="101" y="52" class="header-panel__logotype__text" font-family="Montaga" font-size="24" font-weight="700">
      <tspan>Lost Seas</tspan>
   </text>
</svg>
