<svg xmlns="http://www.w3.org/2000/svg" viewBox="0 0 2133.3 674">
  <defs/>
  <path d="M0 624c0-48 .1-50 2.5-50 1.4 0 5.1-1 8.3-2.1 17.2-6.3 34.9-7.4 62.3-4 18 2.4 65.9 6.6 106.2 9.5 15.4 1 34.3 2.5 42 3.2 7.7.8 26.6 2 42 2.8 15.4.7 38.2 2 50.7 2.7 12.5.7 55.7 1.3 96 1.3 73.4 0 102-1 157.3-6 11.8-1.1 31-2.6 42.7-3.4l40-2.7 67.3-4c26.8-1.5 54.1-3.3 60.7-4 6.6-.7 46.8-2 89.4-2.9 83-1.7 152.2-.3 182.6 3.7 31.4 4.1 59.2 7.5 71.6 8.6 7.1.6 14.6 2 16.7 3 2 1.1 12.1 3.3 22.4 5a1680 1680 0 00144.7 18.8c22.2 1.7 90.9 5 127.6 5.9l33.7.8v-4.4c0-10.7 9.4-22 20.7-25.2 6.7-1.8 10.7-1.1 15.7 2.8 4.5 3.6 5.1 12.3 1 14.6-3.5 1.8-9.9 1.7-11.8-.3-2.3-2.2-2-3.8.4-2.8 4 1.5 8.6-.8 8.6-4.1 0-3.6-2.2-4.8-8.8-4.8-10.6 0-17.3 8-13.2 15.8a9.2 9.2 0 005.7 5l5.3 1.2c4 1.3 19.7-2.7 34.5-8.7 34.8-14 59.3-28.5 59.2-35 0-.9-2.2-5-4.7-8.9-6-9.5-6.3-16.6-.9-21.8 2-2 4.4-3.6 5.2-3.6 1.4 0 6.8-6 11.5-12.6 1.3-1.9 5.1-4.8 8.5-6.3a78.3 78.3 0 0025-23c4.7-7.8 6.9-24 4-28.4-2-3.1-2.4-3.2-17-2.5a237 237 0 00-22.3 2c-4 .6-12.7 2-19.3 2.8a108 108 0 00-36.9 10.5c-14 6.4-17.7 7.7-13.1 4.5 14-9.8 26.5-20.3 38-31.8 13.3-13 30-32.8 30-35.2 0-.7 1.4-4.4 3.2-8.3 7.4-16 13.2-52.9 10.4-65.2-.9-3.7-1.6-9.8-1.6-13.6 0-12.4-8.7-43.4-17.2-61.6-2.8-5.8-5.9-12.7-6.9-15.3-1-2.6-2.8-6.1-4.1-7.8a11.8 11.8 0 01-2.5-5.6c0-1.3-.4-2.6-1-2.8-.5-.3-2.5-3.5-4.3-7.1-1.8-3.7-5.9-10.2-9-14.6a49.8 49.8 0 01-5.7-9.2c0-.6-2.6-4.7-5.9-9-3.2-4.2-6.8-9.4-7.9-11.5-1-2-4.5-6.4-7.7-9.7-6.4-6.6-9.8-12-7.6-12 .8 0 7 5.5 13.9 12.3a873.8 873.8 0 0018 17.8c1.2 1.4 3.6 3.7 5.4 5 1.7 1.5 6.2 5.3 9.8 8.6 3.7 3.3 9 7.4 11.6 9 2.7 1.8 7.6 5.7 11 8.9 3.3 3.1 7.4 6.7 9 8l3.1 2.2-3 .1c-1.7 0-3 .6-3 1.3 0 2.1 31.7 33.4 33.8 33.4 5.5 0 2.5-8.2-5.1-14-5.5-4.2-5.7-4.9-1.7-6.7 2.3-1 3.2-2.7 3.7-7.3.4-3.3 1.5-7.3 2.4-8.9.8-1.6 1.6-5.8 1.6-9.3a429.9 429.9 0 00-7.5-57.1c-.4-2.2-.1-5.5.6-7.3 1.3-3.3 1.4-3.3 1.4-.3.1 1.6.7 4 1.4 5.3.7 1.3 2.2 8 3.4 15 2.2 12.7 3 16.5 6.6 34.3 1.9 9.2 7.4 20.3 10 20.3.8 0 2.3 2.3 3.5 5 1.8 4.3 1.8 6.2.5 12.6-.9 4.2-2.7 8.7-4.1 10-1.4 1.2-2.5 3-2.5 4 0 2.7 3.8 9.7 8.3 15.3 2.2 2.7 3.7 6 3.5 7.3-.5 2.3-.7 2.2-3.6-.6-1.7-1.7-3.6-2.9-4.2-2.7-2.1.8 6.3 12.7 16.2 23.1 9.1 9.7 14 12.7 12.2 7.7-1.2-3.6 11.4 9.2 13.7 13.8 1 2.3 6.6 9 12.3 15l14.1 14.9c2.4 2.6 4.9 4 6.7 3.7 2.4-.3 3-1.9 4.4-9.7.8-5.2 1.3-15.7 1-23.4-.4-7.7-.9-20.3-1.1-28-.7-18.8-5.5-46.8-10.9-63.5-4.5-14.1-22-51.1-25.5-54-1-.8-1.8-2-1.8-2.8 0-2-8-17.3-10.6-20.3a84 84 0 01-6.7-10.7c-2.6-4.8-8.6-12-14.9-18-10.1-9.8-11.8-12-9.1-12 2 0 24.1 15 33.5 22.8 9.4 7.8 14 9.7 23.7 9.4 11-.3 22.5-2.1 28.3-4.6a33.6 33.6 0 0020-31.6c-.7-18.9-2.7-23-19.8-41.2a93.8 93.8 0 01-9.7-11.3c0-1.2 6.5 2.9 10.2 6.4 1.6 1.5 6 5.2 9.8 8.1l11.7 9.5c14.7 12.3 65.4 41.2 70.6 40.3 3.4-.7 7-14.6 9.6-37.8.7-5.9 2.5-17.3 4-25.3 1.5-8.1 3.3-20.1 4-26.7 2.5-22.2 4.6-32 6.8-32 1.2 0 1.8 1 1.6 2.7-2 13-1.9 15.2 1.2 21.5a86 86 0 0015.4 22.1c1.5 1.3 4.4 5 6.3 8 1.8 3.1 7.1 9.4 11.8 14 7.5 7.3 8.7 9.3 12 19.3 1.9 6 3.8 12.7 4.2 14.6 1 5 10.9 14.4 23.9 22.9 6 4 13.6 9.7 16.9 12.8l6 5.6-7.3-.8c-4-.5-8.7-1.2-10.4-1.6-3.8-1-3.8.5-.3 18.1 3.9 19.3 2 21.2-6.7 7.1a218.1 218.1 0 00-33.7-37.2c-11.9-11-13.9-14.2-16.3-27.1-3.1-16.6-6-22-17.5-32-13-11.5-14.2-11.4-15.4 1.3-.6 5.5-1.9 14-3 18.7a159 159 0 00-3.8 37.3c1 3.6 9.5 19.1 15 27.4l5.5 8.2c3.7 5.6 22.4 28 34 40.4 11.1 12.1 11.5 12.7 8.1 13.1-3.8.5-4.1 1.5-3.6 10a98.2 98.2 0 01-15.7 49c-3.4 5.4-3.6 8.3-1 10.5 2.8 2.4 5.8 1 14.3-7 22.5-21 36.9-49.6 35.5-70.9a44.5 44.5 0 00-3-13.8c-1.2-2.4-2-4.7-1.6-5 .3-.4 4.1 2.2 8.4 5.8 14.6 12 25.2 19 30 19.3 4.1.3 4.7-.1 7.4-5.6 1.7-3.3 4-9.3 5-13.4a2559.2 2559.2 0 0114.4-48.6c1.5-5.2 3.2-10.4 4-11.7 1.3-2.7 3.7-1.9 3.7 1.3 0 2.6 2.6 8.5 13.5 30.5 4.3 8.8 8.4 19 9 22.6l2.6 14c.8 4 2 12.4 2.9 18.6.8 6.2 2.1 14.2 2.9 17.7 1.5 7 .7 9.3-2 6.2-2-2-8.9-21.3-8.9-24.5 0-3-8.9-28.6-12-34.7-1.5-2.9-2.7-6-2.7-7 0-3.3-6.7-13.6-9.5-14.4-4.8-1.5-6.5 1.6-6.5 12 0 8.6-.3 10-3.7 13.7-6.5 7.3-11.5 30.9-8.7 41.3 2.2 8.5 2.2 9.5-.3 6-2.8-4-4.6-3.8-4.6.5 0 7 6.5 12.4 6.8 5.5 0-2 .3-2.3.8-1l4 9c1.7 3.8 3 7.6 3 8.5 0 2.8 8.3 14.7 10 14.1.7-.2 1.7-3 2.1-6.3 1-7.1 2-5.1 3.8 7.4.7 5.1 1.6 10.5 2 12a544.2 544.2 0 005.1 36c1.4 8.8 3.4 22.9 4.4 31.3 2.5 21 5.8 42.3 7.6 48.5 1.8 5.9 3.9 7.2 8.4 5.1 3-1.4 16-10.5 24-17 14-11.2 28.5-20.9 30.3-20.2.8.2-6.9 7.6-17 16.4-27.7 23.8-35.9 31.8-35 34.2a45 45 0 0010.3 8.3c13.1 8.7 13.7 9.9 12.3 23.1a61.9 61.9 0 01-28 45.5 71.4 71.4 0 01-30.5 12h-5l7.3-2.6c16.9-6.1 25.1-11.7 29.4-20 3.3-6.6 3.3-12-.1-18.6-4-8-12-12-12-6.2 0 2.7-6.4 8-21.3 17.6a261.7 261.7 0 00-35.3 25.9c-2.6 2.8-2.6 3-.3 4.3 2.3 1.2 2.3 1.5.2 3.8-1.6 1.8-2 3.6-1.3 6.2.5 2 1.7 8.7 2.7 14.8 1 6.1 2.8 12.7 4 14.5 2 3.2 2 3.5-.6 5.3-4 2.8-3.5 4 1.8 5 2.6.5 8.7 3 13.7 5.5 10.3 5.2 11.8 5.5 13 2.4.7-2 1.1-1.9 3.8.6a38 38 0 015.4 7l2.5 4.2-6-1c-4.6-.6-6.2-.3-7.7 1.5-1.6 2-1.4 2.7 2.5 6 7.6 6.9 18.2 5 30-5.2 3.5-3 7-5.5 7.6-5.5.7 0 1.9 1.3 2.7 3 .9 1.6 3.1 4.6 5 6.6 3 3.2 4.5 3.7 11 3.7a21 21 0 0010-2c1.9-1.3 4.8-1.6 10.6-1.1 4.4.4 16.1-.3 26-1.5 15-1.8 19.6-3 27.7-6.7l9.6-4.6V674H0v-50zm1629.7-42l17-10.5c1-.6 1.5-1.7 1-2.2-1.6-1.7-27 11.4-34.7 17.8-2.2 1.9-2 4.2.4 4.2.7 0 8-4.1 16.3-9.3zm305 .7c2-2.6.4-7.4-2.7-7.4-3 0-4.8 4.8-2.6 7.4.9 1.1 2 2 2.6 2 .6 0 1.7-.9 2.6-2zm-38.4-7.4c5.7-1.6 6.7-4 1.6-4-4.6 0-15.1 2.8-16 4.2-1 1.6 8.3 1.5 14.4-.2zm-132.8-8.4c5-4.2 11.7-7.6 15-7.6 1.6 0 5.8 1.2 9.5 2.6 7.3 2.8 8.3 2.1 3.5-2.4-9-8.5-22.8-5.5-37.8 8.3-3.1 2.8-5.3 5.7-5 6.3 1 1.5 9.5-2.7 14.8-7.2zm181.2.7c-1-3.8-5.8-8.5-8-7.8-.8.2-1.5 2.6-1.8 5.2-.3 3.7.3 5.2 2.6 6.8 4.3 3 8.4.6 7.2-4.2zm-53.4.4c3-1 8-2.6 11-3.3 12.9-3.3 2.2-5.5-11.9-2.5-9 1.9-14.4 4.6-14.4 7.3 0 1.7 1 2 5 1.2 2.8-.4 7.4-1.7 10.3-2.7zm-158-3.3c0-1.6-9.6-6.7-12.6-6.7-5.1 0-1 4.4 6 6.4 6.2 1.8 6.6 1.8 6.6.3zm138.7-1.5c5.5-1.5 12.4-3.6 15.3-4.5 3-1 8.3-2.2 12-2.7 8.2-1.1 12.7-2.8 12.7-4.8 0-3.4-36 3.1-49 8.9-4.6 2-8.3 4.2-8.3 4.8 0 1.9 6.9 1.2 17.3-1.7zm-18-4.7c17.8-6.7 36-11.2 45.3-11.2 8.8 0 17.5-5.6 13-8.4-1-.7-26.4 3.3-37 5.8-12.6 3-34 11-34 12.7 0 3.5 5.2 4 12.7 1.1zm96-1.8c.8-1.4-7.7-10.7-9.8-10.7-.7 0-2 1-2.9 2-1.4 1.7-1.2 2.6.8 5a33 33 0 003.9 4c2 1.4 7 1.2 8-.3zm-243.3-5.7c0-1-2.3-3.1-5-4.9l-14.4-9.4c-10-6.6-18.2-10.7-21.4-10.7-5.5 0-24.3 14.6-22.5 17.4.8 1.3 4.2-.4 15-7.8l8.4-5.8 3.8 2.4 14 9.6c14 9.7 22 13 22 9.2zm137.4-.4c4-1.2 8.4-3 9.9-3.8 5.1-3.3 27.8-9.5 47.2-13 4-.6 8.4-1.9 9.9-2.7 4.7-2.5-.9-4.2-11-3.2-20.2 2-59.3 13.2-67.7 19.3-7.3 5.3-1 7 11.7 3.4zm-234-5.2c2.5-2.6 5.7-4.7 7.2-4.7 3.1 0 3.5-.8 4.7-9.8.5-3.5 1.7-6.7 2.6-7 1-.5 4.4 1 7.5 3.3 6.3 4.6 7.9 5 7.9 2.2 0-4.8-18.4-15.4-27-15.4-7.8 0-15 4.4-13.7 8.4 1.8 6 1.4 6.6-4.9 8.8-11 3.8-15.6 9.8-11.4 15 3.2 4.1 7 5.2 14.9 4.6 7-.5 8.4-1.1 12.3-5.4zm212.9 1.4l10.7-4.7c3.4-1.5 6.7-2.8 7.3-2.8a162.7 162.7 0 0131.7-10.5 182 182 0 0024.5-6.2c1.4-1.5-3.3-3.2-8.5-3.2-3 0-10.8 1.1-17.4 2.5-7 1.5-12.5 2-13.2 1.4-1.5-1.4 1.1-10 5.5-18.5 1.7-3.2 3-7 3-8.4 0-1.4.7-3.8 1.5-5.2.8-1.5 1.2-3.4.9-4.3-.3-.8-1.4 0-2.4 2l-5.9 10.6c-2.2 4-5 10.8-6.4 15.2-1.4 4.4-3.5 9-4.6 10.2a42.6 42.6 0 01-11.5 5.8c-9.2 3.4-21.2 9-24.4 11.5-2.2 1.8-.6 6.5 2.3 6.5a23 23 0 006.9-2zm129-5.4c0-2.4-1.5-4.4-5.4-7-5-3.2-5.6-3.3-7.5-1.4-3 3-1.5 5.7 4.5 8.9 6.7 3.5 8.4 3.4 8.4-.5zm-213.3-3.3c0-.7-2.9-2.3-6.4-3.6-3.4-1.3-9.5-4-13.4-6.1-7.8-4-10.9-4.6-10.9-2 0 2.4 21.2 12.8 26.3 12.9 2.4 0 4.4-.5 4.4-1.2zm75.6-2.3c4-5.3-1.8-7.4-8.6-3.2-2.4 1.5-4.4 3.7-4.4 4.9 0 1.8 1 2 5.7 1.4 3-.4 6.3-1.8 7.3-3zm-35.4-.5c-3.7-3-12.2-3.6-12.2-.9 0 3 1.4 3.6 8.5 3.6h6.8l-3.1-2.7zm-28.8-2.7c1-1.8.7-2.2-3.8-3.3-2.8-.7-3.6-.4-3.6 1.1 0 1.8 1.6 2.8 5.6 3.4.5.1 1.3-.4 1.8-1.2zm47-.7a62.9 62.9 0 0018.4-10c2.1-2.4 2.1-2.6-.7-2.6a76 76 0 00-25 10.3c-1.8 2.2-1.2 4.4 1 4.4.8 0 3.7-1 6.3-2zm154.9-3.5c0-2.5-4.2-6.4-6.9-6.4-3.7 0-3 3.6 1.2 5.9 4.5 2.4 5.7 2.6 5.7.5zm-188.6-1.2c1.5-2.4-2.6-5.4-8.5-6.1-6-.8-7 .5-3.2 3.9 4.2 3.6 10.1 4.8 11.7 2.2zm68.6-10.7c1.5-4 3.3-8.2 4-9.5 1.7-3 1.7-7.7 0-7.7-2.8 0-10.7 20.7-10.7 28.4 0 2.7 3.8-3.7 6.7-11.2zm-31.6 3.8c13.5-6.2 23.6-12.4 23.6-14.5 0-2-6.9.4-23.3 8.2-8.8 4.2-17.4 8-19 8.6-1.7.5-3 1.8-3 3 0 3.2 7 1.5 21.7-5.3zm-152.4 4.4c0-3.2-16.2-13.6-18.2-11.7-1.2 1.3 4.2 7.2 9.5 10.5 4.3 2.7 8.7 3.3 8.7 1.2zm197.9-12c1.3-3.3 2.9-6.7 3.5-7.4.6-.8 1.5-4.1 2-7.4l.8-5.9-2.7 3.3c-5.4 6.7-13.1 26.6-11.1 28.6 1 1 5-4.8 7.5-11.2zm-149.6 7.3c-7.9-5.6-21.6-9.5-21.6-6.2 0 3 12.6 8 20.6 8.1 4 .1 4 0 1-2zm47.4-3.6c2.3-2.2 2-8.4-.4-10.4-1.6-1.4-2.3-1-4 3.1-2.9 7 0 11.7 4.4 7.3zm-74.4-.9c0-3.5-20.6-14.8-22.9-12.5-1 1-.4 2 1.8 3.3l9.8 6.1c6.5 4.1 11.3 5.4 11.3 3.1zm210.6-.6c2.5-.9 4.8-2.4 5.2-3.4.5-1.5-.7-1.7-6.3-1-8.5 1.1-10.4 1.9-11.3 4.3-1 2.4 5.8 2.4 12.4.1zm-112.3-1.7c1.2-3.2-1.4-4.8-4.3-2.6-2.3 1.7-2.4 2.2-.6 3.4 2.8 1.8 4 1.7 4.9-.8zm13.8-4.8c1.7-4 .8-7.7-2.3-8.7-2.6-.9-5.8 3.7-5.8 8.3 0 7.1 5.2 7.4 8.1.4zm-52.3 1.3c1.8-1.8 2.1-9.9.4-11-2.2-1.3-9 8.9-7.5 11.3 1.1 1.8 5.1 1.7 7-.3zm34.5-5.9a240 240 0 007.4-5.7c3-2.7 12.5-54.4 10.3-56.6-1.5-1.6-4 2.8-13 23.2-14.9 33.6-15.7 35.8-15.1 42.3.2 2.9 3.7 1.8 10.4-3.2zm-47.2-2c3.2-4.3 2.3-10.5-1.6-10.5-3.8 0-8.5 11.2-5.9 13.9 1.7 1.6 4.7.2 7.5-3.4zm164.3.2c0-2.3-4.5-3.2-7.2-1.5-1 .7-1.4 1.9-.9 2.8 1.4 2.2 8 1.1 8-1.3zm-202-2.7c0-1.6-1.5-9.5-3.4-17.7-3.7-16.7-6.6-20.9-16.5-23.6-11.2-3-16.1 2.7-16.1 18.4 0 13 1.4 14.7 18.2 21 14.3 5.3 17.8 5.6 17.8 1.9zm117.2-3.3c3.6-4.2 5.6-10 3.3-10-3.4 0-11.2 9.1-11.2 13.2 0 3 3.8 1.4 7.9-3.2zm-94.3-2.4c2.5-5 2-9-1-9-2.6 0-6 5.4-6 9.5 0 7 3.6 6.7 7-.5zm179-1.8c.4-1.2.2-2.9-.6-3.6-1.7-1.8-6 2.2-4.7 4.3 1.3 2.2 4.3 1.8 5.3-.7zm-51.1-5.6c2.6-2.2 2.8-2.9 1.3-4.7-3.2-4-14.8-2-14.8 2.5 0 1 2 2.5 4.3 3.2 6 1.7 5.7 1.7 9.2-1zm-43-4c.4-4.7 2.2-5.6 3.2-1.5 1 3.7 2.5 3.3 10.2-2.7 9.8-7.8 10.6-9.6 11.3-24.5.7-14.8-.7-20.5-5.2-21.6-7.7-2-9.8 1.1-13 19.4l-1.7 10-.4-9c-.2-5-1-9-1.6-9-.7 0-1.3.2-1.3.4l-1.4 8.3a221.4 221.4 0 00-4.2 33c.8 3.9 3.6 1.9 4-2.8zm149.2 2.4c.2-1.2-1.2-3.7-3.2-5.7-3.5-3.5-3.5-3.6-1-6.3 2-2.4 2.1-3 .4-4-1-.7-4-1.2-6.6-1.2-2.7 0-6-1-7.4-2-3.7-2.9-5.9-2.5-5.9 1 0 4.1 1.5 6 6.8 8.7 2.5 1.2 6 4.5 7.8 7.3 3.4 5.3 8.3 6.4 9.1 2.2zm30.7-1.9c14.1-7.4 35.6-21.5 36-23.7.8-4.1-7.2-2.8-17.6 3-16.1 8.9-32.6 24-26 24 .7 0 4.1-1.5 7.6-3.3zm-205-13.7c10.8-22.5 11.9-25 12.8-29.7.9-4.3.8-4.5-1.4-2.7a214 214 0 00-20.3 42.3c-.8 4.5-.7 4.9 1.1 3.4 1.2-1 4.6-7 7.7-13.3zm-13.6 5.2a285 285 0 0018.9-39.6c0-5.2-4 .1-12 16.2-9.2 18.3-12 24.4-12 26.1 0 2.3 2.6 1 5.1-2.7zm116 1c4.2-1.6 3.3-5.7-1.4-6.3-8.7-1-19.2 4.8-14.3 7.9 2 1.2 10.4.3 15.7-1.7zm-128.4.4c.8-.5 2.5-3.5 3.7-6.6 1.2-3.2 5.5-12.1 9.6-20 4-7.8 7-14.3 6.8-14.6-.2-.2-2.1.4-4.1 1.5-2.5 1.3-4.7 1.5-6.8.8-2.3-1-3.6-.5-5.7 1.8-4.6 4.8-16.4 29.2-15 30.6 1.7 1.7 5-1 7.7-6.3a76.4 76.4 0 0112.6-18.1c1.5 0 1.4 2 0 5-11.8 22.8-14 29.6-8.8 26zm110.6-8.8c5.1-1.8 16.5-5.2 25.3-7.5 16.9-4.4 22-6.8 22-10 0-5.3-26.8-.1-45.1 8.7a53 53 0 01-9.9 4c-2.8 0-8 4.9-7 6.5 1.3 2.2 4.3 1.9 14.7-1.7zm54-.2c2.6-1.3 3.6-2.7 3.1-4-1.5-4-20.4-1.6-20.4 2.7 0 5 8.9 5.7 17.4 1.3zm-177.4-7.4c2.3-4.5 5.7-10.4 7.5-13 3.1-4.6 4.5-11.8 2-10.3-4.2 2.6-18.2 27.8-16.8 30 1.7 2.8 3.3 1.3 7.3-6.7zm-14.7 3.6c1.3-1.6 1-2.5-1.1-4.7-5-5-8.6-2.3-6 4.5 1 2.6 5 2.7 7.1.2zm111.9-8.4a5 5 0 013-3.8c1.7-.5 2.5-2 2.5-4.7 0-3.2-.5-3.9-3.2-3.9-1.7 0-4.5 1-6.1 2.4-2.6 2-2.9 3.2-2 8 .7 4.3 1.5 5.6 3.1 5.3 1.2-.2 2.4-1.7 2.7-3.3zm102.9-3c-4.3-3.3-7.2-4-9.6-2.5-2.8 1.8 2.4 5.1 8.2 5h4.7l-3.3-2.5zm41.8-19.3c.2-13.7-.9-20.8-3.1-20.8-1.2 0-2.7 38.3-1.5 39.5.3.3 1.4-.8 2.5-2.3 1.4-2 2-6.7 2.1-16.4zm-128.6 9.2c4.1-4.7 5.3-8.6 2.7-8.6-2.7 0-9.2 4-10.6 6.6-4 7.6 1.6 9.1 7.9 2zm-143-11.9c9.3-9.6 16-19 14.6-20.4-1-1-26.8 24-29 28-2 3.6-.2 5.3 3.2 3 1.6-1 6.7-5.8 11.2-10.6zm324.4-26.2c0-2.9-.8-10.4-1.9-16.9l-4.7-31c-4.2-27.8-4.6-29.7-6.2-30.2-1.6-.6-4.5 5.2-4.5 9s-3.6 13.6-10.1 27.2c-3.2 6.8-5.9 12.7-5.9 13.1 0 .4 3.9 3.5 8.7 6.9 4.7 3.4 9.5 8 10.7 10.1 1.8 3.6 1.8 4.2-.2 7.3-2 3.2-2 3.5.3 6.1 3.5 3.9 10 6.5 12.2 4.9.9-.8 1.6-3.7 1.6-6.5zm-300.8-4.6c3.3-3.2 6.2-15.3 3.7-15.3-2.6 0-9.5 11.9-9.5 16.2 0 1.9 3.6 1.3 5.8-.9zm263.7-32.1c4.5-4 2.3-18-5-31.8-7.4-13.7-23.2-28.5-23.2-21.6 0 1 .9 2.9 2 4.3 1 1.4 2 4.1 2 6 0 1.8-1 4.4-2 5.9-3 3.7-2.5 6.2 2.2 12.5 2.5 3.5 4.4 7.9 4.8 11.3.8 7 2.2 9 9 12.6 6.5 3.5 7.2 3.5 10.2.8zm-50.5-47.5l6.2-7.7c6.9-7.8 6.6-8-12.3-10.6-12.3-1.6-23.6-1.8-23.6-.3 0 2.8 22.8 21.6 26.2 21.6.8 0 2.4-1.3 3.5-3zm-56.6-46.5c.7-6.3-5.3-16.8-23-40.5-8.2-10.9-9.9-12.6-12-12.6-1.9 0-15.4 14.7-15.4 16.8 0 5 43 41 47.9 40.2 1.1-.2 2.3-2 2.5-4zm-60-53.8c.1-6-.2-14.3-.7-18.7l-1-8-10.7-6.4c-14.1-8.6-40.5-21.2-53.4-25.5-8-2.7-25-6.1-31-6.1-7.7 0-6 2.2 11.7 15.6 72.3 54.5 80.6 60.5 82.7 60 1.5-.2 2-2.7 2.3-11zm152.6 6.1c-.6-4.6-5.2-10.4-9.2-11.4-4.4-1.1-5.3-.2-3.5 3.6 4.4 9.4 13.5 15 12.7 7.8zm-109.2-62.5a74.6 74.6 0 00-14.4-20.2c-2-1.6-2.5-1.6-4.3.2-1.8 1.8-1.8 2.5.2 6.4 3 5.6 14.6 17.3 17.3 17.3 1.6 0 1.9-.8 1.2-3.7zm-25.6-25c.8-3 .5-4.8-1.3-7.1a123.9 123.9 0 00-27.9-17.6c-3-1.5-6-3.3-6.4-4-.5-.7-1.4-1-2.1-.5-.7.4 2.7 4.5 7.7 9s12.8 12 17.4 16.7c4.7 4.6 9.2 8.2 10 7.9.9-.3 2-2.3 2.6-4.5zM1966.4 513c1-.4 2.1-.3 2.6 0 .4.5-.4.9-1.8.8-1.5 0-1.8-.4-.8-.8zm18.7-1.3c1-.4 2.1-.4 2.5 0 .5.5-.3.8-1.7.8-1.6-.1-1.9-.4-.8-.8z"/>
</svg>
