<svg xmlns="http://www.w3.org/2000/svg" viewBox="0 0 564.2 55.5">
  <path fill="#00000020" d="M239 55.4c-.8-.2-2-.7-2.8-1.3l-1.8-1c-.7 0-3.7-2.8-4.7-4.4-.7-1.2-1-2.6-1-5.2 0-3 .3-4 1.7-6.2a41 41 0 012.5-3.7c1.4-1.6 5.6-4.6 7.8-5.5 1.7-.7 2.8-1.7 2.3-2.2-.6-.6-10.6-4.4-13.6-5.2-2-.5-6.4-1-10.3-1.2-6.7-.2-6.9-.2-9.3 1.2-2.8 1.5-3.5 2.8-2.6 5 .6 1.3 1.7 2.1 3.7 2.8a45 45 0 01-14.9-.1c-.2 0-.6-.6-.8-1.3-1-2.4 1.5-6.7 4.8-8.3a34 34 0 0111.5-2.9c4.3-.3 5.8-.7 5.8-1.3 0-1-11.8-1-16.1 0-6 1.3-8.8 2.4-11 4.3-1.8 1.7-2 2.2-1.9 4 0 1 .5 2.7.9 3.5.4.8.6 1.6.4 1.8-.4.4-14.4.3-15-.1-.4-.2-.6-1.4-.5-2.6.1-2.5 3-7.5 4.5-8.1l2.3-1.3a55.2 55.2 0 0126.2-5c4.7 0 8.4 0 8.2-.2a49.9 49.9 0 00-19.4-2.3c-12.4 0-21 2.8-26.4 8.5-3.1 3.2-4.3 6.2-3.3 8.3 1.1 2.5.4 3-4.7 2.8-5-.1-5-.2-4.2-3.6.9-3-3.7-4.9-6-2.5-.9.8-1 1.4-.8 2.7l.5 2.4c0 .6-12.5.7-75.6.9-59 0-73 .3-75.4-.2-.4-.1 0-.4 0-.5 0-.2-.4-.7.1-.8 2-.4 9-.1 29.6-.2l40.4-.4a875.4 875.4 0 0045.3-1.7c1.6 0 4.5-.3 6.4-.6l6.3-1a106.3 106.3 0 0032.6-11.8c.4 0 1.8-.4 3-1a40 40 0 0111.5-3.7c.8 0 1.5-.2 1.7-.5.1-.2 1.5-.6 3-.8 1.6-.1 3.6-.4 4.7-.6 2-.4 15.7-.4 19.5 0a98.3 98.3 0 0139.4 15.9c3 1.8 5.7 3.4 6 3.4 1.8 0 11.6-8.2 11.6-9.6 0-.3.3-1.3.8-2.3 1.5-3.2-.6-7.8-4.2-9-.9-.3-1.6-1-1.6-1.3 0-.6 1.4-.8 7.4-1h7.4l.8 1.7c.9 1.9 1 6.3 0 8.3-.3.7-2 2.7-3.6 4.5-4 4-5 4.9-10.3 7.6-1.7 1-3 1.9-3 2.1 0 1.1 11.1-4 14.7-6.8 1-.7 2-1.5 2.4-1.6 1.1-.5 5-5.4 5.8-7.3 1-2.5.7-5.1-1-6.4-1.8-1.6-.6-2 5.5-2.4 5.2-.2 5.7-.2 6.6.8 1 1.2 1.4 4.6.7 7.3-.8 2.7-6 7.6-10.5 9.8-2.2 1-4.9 2.5-6 3.2-2.5 1.5-2.3 1.4-6.4 2.8-3.7 1.2-12.5 4.9-13 5.4-.6.4 4.9-.7 7.5-1.5a780.7 780.7 0 0114.1-4.6l2.3-.8c.3 0 3-1.2 6-2.6a26 26 0 0011.1-9c2-2.8 2-6.2.3-8-2-2.3-1.6-2.5 4.7-2.5 5.4 0 5.8 0 6.4 1.1.7 1.4.3 5-1 8.9-1.3 4.2-6.8 9.3-12.8 12.1-5 2.3-7.3 3-17.2 5.3a67.8 67.8 0 00-13.7 3.7c-.3.5 1.8 2 4 3a81.3 81.3 0 0012.2 5c.5 0 2.3-1 3.8-2.1 2.7-2 7-4.6 11.4-7a199.4 199.4 0 0113.2-7.7l6.9-3.9c.7-.5 1.9-1 2.6-1.3.7-.2 4.1-1.7 7.5-3.4a96.4 96.4 0 0120-7.4c1.5-.5 3.3-1 3.9-1a106 106 0 0132.8-1.2c.6.3 2 .7 3 .8a50.4 50.4 0 0111.4 3c3.4 1 8.7 3 12.2 4.8a19 19 0 003.6 1.5c.3 0 1.9.7 3.5 1.6 1.6.8 4.2 2 5.7 2.4l4.6 1.6c1.9.8 6.4 1.8 9.2 2l3.7.8c1.2.3 3.9.7 6 .9l5.3.7c.8.3 7 .5 13.6.6a4095 4095 0 0044.3.7c20.7.3 46.6.7 55 1l3.5.1c.7.2 0 .5 0 .8 0 .3.8.8 0 1-2 .3-9.7 0-35.4 0-33.5.2-87.2-.3-105.4-.8-11.6-.3-12.5-.4-12.5-1.3 0-.5.3-1 .5-1.3 1-.6.6-3.3-.6-4.2-1.4-1-2.9-1-4.8-.1-2 1-2.3 2.3-.7 4 2.2 2.3 1.8 2.7-2.4 2.7-5.7 0-6.2-.2-6.2-2.8 0-2.8-1.8-6.4-3.9-7.8a32.2 32.2 0 00-14.3-8 33.4 33.4 0 00-12.2-1.8c-4.6-.1-8.6 0-10.8.5l-3.4.6 7.4.3c11.9.5 20.6 3 26 7.6 2.4 2.2 5.7 7.3 6.2 9.8.3 1.4.2 1.6-.9 1.6l-7 .2h-5.9l.2-2.7c.1-2.9-.6-4.9-2.6-7.5-2-2.6-8-5.5-12.4-6-5.7-.8-17-.1-23.5 1.3-3.9.9-1.6 1.3 2.7.5 12.2-2.2 19-1.3 24.7 3 3.4 2.6 6.9 9 5.9 10.8-.4.6-1.6.8-5 .9-2.6 0-4.8.2-5 .3-.3.2-1 .1-1.8 0-1.2-.4-1.3-.5-.7-1.3 3-3.5 2-7.4-2.4-9.5a31.3 31.3 0 00-16.2-1.3c-1.9.4-4 .7-4.9.7-1.5 0-5.9 1.1-10.1 2.5-6.4 2-7.5 2.5-9.5 3.4a543 543 0 01-11.9 5.3A132 132 0 00283 41c-.2.3.2.6.9.7.6.2 2.7.7 4.6 1 5.4 1.3 6.2 1.4 12.6 1.5 5 0 7.1-.2 11.3-1.3 5.5-1.4 7.5-2.5 10.3-5.5 2.1-2.4 2.4-3.4 1.7-5.6-.9-2.7-2.7-4.1-5.9-4.4l-2.7-.3 1.3-1c.6-.5 1.5-1 1.8-1 .4 0 2.3-.7 4.2-1.6 2-.9 4.7-2 6-2.3 3-.8 4.4-.2 6.2 2.3a23 23 0 013 8.2c-1.3 6.7-7.2 12.3-15.1 14.5a58 58 0 01-31.6.8c-.3-.2-1.9-.5-3.5-.7-1.7-.3-4.4-.8-6-1.3L279 44l-3.3 1.6-7.2 3.8c-3.8 2-12 5-14.8 5.5-2.1.4-13.3.7-14.8.4zm12-4.6c4.2-.5 11.4-2.9 17.4-5.7 3.6-1.7 4.5-2.5 3.8-3.2-.8-.8-16-8.3-16.9-8.3-1 0-9.8 3.3-13.7 5.2-3 1.5-6.4 4.8-6.4 6.4 0 5 5.6 6.9 15.8 5.6zm-5.8-17.5c.8-.4 1.9-.7 2.5-.7.6 0 1.4-.4 1.8-.8.3-.5 1-.8 1.6-.8.6 0 1-.3 1-.6 0-.6.2-.7-3 .5-3.3 1.2-7 3.2-6 3.2.5 0 1.4-.3 2.1-.8zm-3-2c1.8-.8 3-2 2.2-2a12 12 0 00-4.4 2.3c0 .6 0 .5 2.2-.4zm4.4-2.4c.1-.3 0-.4-.5-.2-1 .3-1.1.7-.4.7.3 0 .7-.2.9-.5zm4.8-2c1.6-.7 2.8-1.6 2.8-1.8 0-.5-3.5 1-5.3 2.3-2 1.3-.6 1 2.5-.5zm-29.3-11.6a2 2 0 00-1.3 0c-.3.2 0 .3.7.3s1-.1.6-.3zm129-7c-.5 0-1.2.1-1.5.4-.3.3 0 .4 1 .2s1.2-.4.5-.5z"/>
</svg>
