<svg xmlns="http://www.w3.org/2000/svg" viewBox="0 0 350 310">
  <path fill="#ff9d4d" d="M86 232H7v70h335v-70h-79"/>
  <path fill="#fcc595" d="M175 69l-81 70v128h161V139zm0 0"/>
  <path fill="#d38a5a" d="M152 203h45v64h-45zm0 0"/>
  <path fill="#ff5046" d="M268 150l-93-81-94 81v-44l94-81 93 81zm0 0"/>
  <path fill="#db9970" d="M94 139l-13 11v-44l45-39-19-17-81 69v113h68zm0 0"/>
  <path fill="#ff5046" d="M126 67l26-22-45-39-94 81v44l94-81zm0 0M243 6l-45 39 25 22 20-17 93 81V87zm0 0"/>
  <path fill="#db9970" d="M268 106v44l-13-11v93h68V119l-80-69-20 17zm0 0"/>
  <path d="M342 224h-12v-89l2 2 4 2 3-1c2-2 4-4 4-7V87c0-3-1-5-3-7L247 0c-3-2-6-2-8 0l-41 35-19-16c-3-2-6-2-8 0l-19 16-41-35c-3-2-6-2-8 0L9 80l-2 7v44c0 3 1 5 3 7a6 6 0 007-1l2-2v89H7c-4 0-7 4-7 8v70c0 4 3 8 7 8h335c4 0 7-4 7-8v-70c0-4-3-8-7-8zm-26-100v100h-54v-70l2 2a2 2 0 000 1h7c2-2 4-4 4-7v-44c0-3-1-5-3-7l-37-32 8-7zM190 259h-31v-48h31zm7-64h-45c-3 0-6 4-6 8v56h-45V143l74-64 73 64v116h-44v-56c0-4-3-8-7-8zm46-179l86 75v24l-82-71a6 6 0 00-8 0l-16 13-14-12zm-68 19l86 75v24l-82-71-1-1a6 6 0 00-7 1l-83 71v-24zM20 91l87-75 33 29-14 12-15-13c-3-2-6-2-8 0l-83 71zm13 33l74-64 8 7-38 32-2 5v46a8 8 0 003 7l3 1 4-2 2-2v70H33zm54 116v19H14v-19zm249 54H14v-19h264c3 0 6-3 6-8 0-4-3-8-6-8h-16v-19h74zm0 0"/>
 </svg>
