<svg xmlns="http://www.w3.org/2000/svg" viewBox="0 -32 71 71">
  <defs/>
  <path fill="#f0f5f7" d="M9-4a12 12 0 0124-4 8 8 0 010 17H9A6 6 0 019-4zm0 0"/>
  <path fill="#dde9ed" d="M41 1c0 3-2 6-5 7a8 8 0 00-7-12 12 12 0 00-18-6 12 12 0 0122 2c4 0 8 4 8 9zm0 0"/>
  <path fill="#c4e1e8" d="M64 11a14 14 0 00-27-4 9 9 0 001 19h26a7 7 0 000-15zm0 0"/>
  <path fill="#a4d5dd" d="M71 19c0 4-3 7-7 7h-1l1-3c0-4-3-8-7-8A14 14 0 0040 3a14 14 0 0124 8c4 1 7 4 7 8zm0 0"/>
  <path fill="#f6cb43" d="M60 4a16 16 0 11-33 0 16 16 0 0133 0zm0 0"/>
  <path fill="#fab03c" d="M43 20a16 16 0 01-3-32A16 16 0 0059 7c-1 7-8 13-16 13zm0 0"/>
  <path fill="#f8e98e" d="M69 5h-4a1 1 0 010-2h4a1 1 0 110 2zM62-6a1 1 0 010-2l3-2a1 1 0 111 2l-3 2zm-8-8v-1l-1-1 2-3a1 1 0 112 1l-2 3-1 1zm-11-3l-1-1v-4a1 1 0 112 0v4l-1 1zm-11 3l-1-1-1-3a1 1 0 011-1l2 3a1 1 0 01-1 2zm0 0"/>
  <path fill="#c4e1e8" d="M36 11a14 14 0 00-26-4 9 9 0 000 19h26a7 7 0 000-15zm0 0"/>
  <path fill="#a4d5dd" d="M43 19c0 4-3 7-7 7h-1l1-3c0-4-3-8-7-8A14 14 0 0013 3a14 14 0 0123 8c4 1 7 4 7 8zm0 0"/>
  <path fill="#f0f5f7" d="M58 24a14 14 0 00-26-4 9 9 0 000 19h26a7 7 0 000-15zm0 0"/>
  <path fill="#dde9ed" d="M65 32c0 4-3 7-7 7h-1l1-3c0-4-3-8-7-8a14 14 0 00-16-12 14 14 0 0123 8c4 0 7 4 7 8zm0 0"/>
  <path fill="#f0f5f7" d="M55 24l-1-1-1-2a1 1 0 112-1l1 2a1 1 0 01-1 2zm-3-5l-1-1a9 9 0 00-7-2 1 1 0 110-3c4 0 7 2 9 4a1 1 0 01-1 2zm-41 9a10 10 0 0119-2 7 7 0 010 13H12a5 5 0 01-1-11zm0 0"/>
  <path fill="#dde9ed" d="M37 32c0 4-3 7-7 7a7 7 0 00-4-11 10 10 0 00-11-7 10 10 0 0115 5c4 0 7 3 7 6zm0 0"/>
</svg>
