<svg xmlns="http://www.w3.org/2000/svg" viewBox="0 0 128 128">
  <defs/>
  <circle cx="64" cy="64" r="39.2" fill="#fedb41"/>
  <g fill="#fea832">
    <path d="M95 66a2 2 0 01-2-2 30 30 0 00-29-29 2 2 0 010-4 33 33 0 0133 33 2 2 0 01-2 2zM64 17a47 47 0 019 1v-2c0-8-9-14-9-14s-9 6-9 14l1 2a47 47 0 018-1zM64 111a47 47 0 009-1v2c0 8-9 14-9 14s-9-6-9-14l1-2a47 47 0 008 1zM97 31a47 47 0 016 6l1-1c6-5 4-16 4-16s-11-2-16 4l-1 1a47 47 0 016 6zM31 97a47 47 0 006 6l-1 1c-5 6-16 4-16 4s-2-11 4-16l1-1a47 47 0 006 6zM111 64a47 47 0 01-1 9h2c8 0 14-9 14-9s-6-9-14-9l-2 1a47 47 0 011 8zM17 64a47 47 0 001 9h-2c-8 0-14-9-14-9s6-9 14-9l2 1a47 47 0 00-1 8zM97 97a47 47 0 01-6 6l1 1c5 6 16 4 16 4s2-11-4-16l-1-1a47 47 0 01-6 6zM31 31a47 47 0 00-6 6l-1-1c-6-5-4-16-4-16s11-2 16 4l1 1a47 47 0 00-6 6z"/>
  </g>
</svg>
