<svg xmlns="http://www.w3.org/2000/svg" viewBox="1 -35 512 511">
  <defs/>
  <path fill="#a0ecff" d="M8 375a8 8 0 01-6-13l134-134a8 8 0 0111 10L13 373l-5 2zm0 0M24 325a8 8 0 01-5-13l17-17a8 8 0 0111 11l-18 17-5 2zm0 0M58 402a8 8 0 01-6-13l17-17a8 8 0 0111 11l-17 17-5 2zm0 0M352 375a8 8 0 01-5-13l134-134a8 8 0 0111 10L357 373l-5 2zm0 0"/>
  <path fill="#a0ecff" d="M308 359a8 8 0 01-6-13l60-60a8 8 0 0111 11l-60 59c-1 2-3 3-5 3zm0 0M263 403a8 8 0 01-5-13l19-19a8 8 0 1111 11l-19 19-6 2zm0 0M284 308a8 8 0 01-5-13l59-59a8 8 0 0110 11l-58 59-6 2zm0 0"/>
  <path fill="#6d6d6d" d="M445 124a131 131 0 00-254-38 89 89 0 001 177h250a70 70 0 003-139zm0 0"/>
  <path fill="#565656" d="M512 193c0 39-31 70-70 70h-5a70 70 0 00-59-102A131 131 0 00219 41a131 131 0 01226 83c37 1 67 32 67 69zm0 0"/>
  <path fill="#6d6d6d" d="M410 116c-3 0-6-2-7-6l-5-15a8 8 0 1114-6l5 18a8 8 0 01-7 9zm0 0M385 71c-2 0-4-1-5-3a91 91 0 00-66-28 8 8 0 010-15c29 0 56 12 77 33a8 8 0 01-6 13zm0 0"/>
  <path fill="#a09d9c" d="M84 163a94 94 0 01182-27 63 63 0 01-1 127H86a50 50 0 01-2-100zm0 0"/>
  <path fill="#82807f" d="M328 200c0 34-27 62-62 63a63 63 0 00-46-106 94 94 0 00-102-60 93 93 0 01148 39c34 1 62 29 62 64zm0 0"/>
  <path fill="#a0ecff" d="M328 403a8 8 0 010-15 8 8 0 010 15zm0 0M419 352a8 8 0 010-16 8 8 0 010 16zm0 0M39 421a8 8 0 010-15 8 8 0 110 15zm0 0"/>
</svg>
