<svg xmlns="http://www.w3.org/2000/svg" viewBox="0 0 512 512">
  <defs/>
  <path fill="#fde588" fill-rule="evenodd" d="M427 50c92 92 96 240 9 335-76 55-173 80-172 82A244 244 0 0137 334c-9-18-5-21 10-10A221 221 0 00356 15c-11-15-8-19 10-10 22 11 43 26 61 45z" clip-rule="evenodd"/>
  <path fill="#eff6ff" fill-rule="evenodd" d="M194 148a54 54 0 00-54 62 31 31 0 007 62h101a46 46 0 10-5-93c-9-19-28-31-49-31zM364 353c21 0 39 13 46 31a40 40 0 0126 1c13 6 22 17 24 31a48 48 0 010 96H312a49 49 0 01-29-88l-1-10a37 37 0 0139-37c9-14 25-24 43-24z" clip-rule="evenodd"/>
  <path fill="#fde588" fill-rule="evenodd" d="M282 13l15 30 30 15c4 2 4 4 0 6l-30 15-15 31c-2 4-4 4-6 0l-15-31-31-15c-4-2-4-4 0-6l31-15 15-30c2-4 4-4 6 0zM58 74l16 30 30 15c4 3 4 4 0 6l-30 16-16 30c-2 4-3 4-5 0l-16-30-30-16c-4-2-4-3 0-6l30-15 16-30c2-4 3-4 5 0z" clip-rule="evenodd"/>
  <path fill="#fdd76f" fill-rule="evenodd" d="M436 385A244 244 0 00366 5c-18-9-21-5-10 10 11 14 34 29 44 45 70 108 81 199 2 310l8 14a40 40 0 0126 1z" clip-rule="evenodd"/>
  <path fill="#d9eeff" fill-rule="evenodd" d="M508 464c0-26-21-48-48-48a40 40 0 00-50-32 50 50 0 00-46-31c-16 0-29 7-39 18 42 12 73 47 73 89 0 19-6 37-17 52h79c27 0 48-21 48-48zM248 272a46 46 0 10-5-93 54 54 0 00-66-29 79 79 0 0114 121z" clip-rule="evenodd"/>
</svg>
