<svg xmlns="http://www.w3.org/2000/svg" viewBox="0 0 496.8 496.8"><path fill="#ececec" d="M40.4 136.8h416v144h-416z"/><path d="M40.4 136.8h416v40h-416zm0 104h416v40h-416z" fill="#b6c1ce"/><path fill="#8c95a4" d="M72.4 280.8h352v208h-352z"/><path fill="#798699" d="M80.4 296.8h336v24h-336z"/><path fill="#ececec" d="M400.4 312.8h48v160h-48z"/><path d="M400.4 312.8h48v40h-48zm0 120h48v40h-48z" fill="#b6c1ce"/><path fill="#ececec" d="M48.4 312.8h48v160h-48z"/><path d="M48.4 312.8h48v40h-48zm0 120h48v40h-48z" fill="#b6c1ce"/><path fill="#798699" d="M72.4 464.8h352v24h-352z"/><path fill="#d3a06c" d="M488.4 120.8v32H8.4v-32l240-112z"/><path fill="#b27946" d="M8.4 120.8h480v32H8.4z"/><path d="M32.4 328.8h80l8-32h-96zm344-32l8 32h80l8-32zm-344 160l-8 32h96l-8-32zm432 0h-80l-8 32h96z" fill="#d3a06c"/><path fill="#eabd8c" d="M276.4 152.8l28-48-28-48h-56l-28 48 28 48z"/><path fill="#ececec" d="M8.4 264.8h480v32H8.4z"/><path d="M168.4 184.8h64v48h-64zm96 0h64v48h-64zm-192 0h64v48h-64zm288 0h64v48h-64z" fill="#d3a06c"/><path d="M280.4 328.8h-64a48 48 0 00-48 48v112h160v-112a48 48 0 00-48-48z" fill="#eabd8c"/><path fill="#d3a06c" d="M168.4 464.8h160v24h-160z"/><path d="M496.4 160.8v-45L248.4 0 .4 115.7v45.1h32v96H.4v48h17.8l8 32h14.2v112H26.2l-8 32H.4v16h496v-16h-17.7l-8-32h-14.3v-112h14.3l8-32h17.7v-48h-32v-96h32zm-480-32h144v-16h-116l204-95.1 204 95.1h-116v16h144v16h-190l23.3-40-32.7-56h-65.2l-32.6 56 23.3 40h-190v-16zm208.6 16l-23.3-40 23.3-40h46.8l23.4 40-23.4 40H225zm-190.3 160h75.5l-4 16H38.7l-4-16zm335.5 0l8 32h14.2v112h-14.2l-8 32h-33.8v-104a56 56 0 00-56-56h-64a56 56 0 00-56 56v104h-33.7l-8-32h-14.3v-112h14.3l8-32h243.5zm-113.8 32h24c22 0 40 18 40 40v104h-64v-144zm-16 144h-64v-104c0-22 18-40 40-40h24v144zm-184-48h16v-16h-16v-48h16v-16h-16v-16h32v48h-16v16h16v48h-32v-16zm-17.7 32h67.5l4 16H34.7l4-16zm423.5 16h-75.5l4-16h67.5l4 16zm-21.8-128h-16v16h16v48h-16v16h16v16h-32v-48h16v-16h-16v-48h32v16zm17.8-32h-67.5l-4-16h75.5l-4 16zm22.2-32h-464v-16h464v16zm-32-32h-400v-96h400v96z"/><path d="M240.4 176.8h-80v64h80v-64zm-16 48h-48v-32h48v32zm112-48h-80v64h80v-64zm-16 48h-48v-32h48v32zm-176 16v-64h-80v64h80zm-64-48h48v32h-48v-32zm352-16h-80v64h80v-64zm-16 48h-48v-32h48v32z"/></svg>