<svg height="512" viewBox="0 0 128 128" width="512" xmlns="http://www.w3.org/2000/svg"><path d="M86.12 64c0 7.95-.25 15.1-.65 21.4-.27 4.42-.62 8.43-.99 12a164.606 164.606 0 01-3.29 21.1H11.43a164.606 164.606 0 01-3.29-21.1c-.37-3.57-.72-7.58-.99-12-.4-6.3-.65-13.45-.65-21.4s.25-15.1.65-21.4c.27-4.42.62-8.43.99-12a165.442 165.442 0 013.3-21.1h69.75a164.606 164.606 0 013.29 21.1c.37 3.57.72 7.58.99 12 .4 6.3.65 13.45.65 21.4z" fill="#f4a86c"/><path d="M24.116 118.5S20.977 99 20.977 64s3.139-54.5 3.139-54.5H68.5S71.643 29 71.643 64 68.5 118.5 68.5 118.5z" fill="#d78759"/><path d="M38.717 118.5S37.643 99 37.643 64s1.074-54.5 1.074-54.5H53.9S54.977 29 54.977 64 53.9 118.5 53.9 118.5z" fill="#f4a86c"/><g fill="#663325"><rect height="6" rx="3" width="79.615" x="6.502" y="6.5"/><path d="M85.47 42.6H7.15c.27-4.42.62-8.43.99-12h76.34c.37 3.57.72 7.58.99 12zm0 42.8c-.27 4.42-.62 8.43-.99 12H8.14c-.37-3.57-.72-7.58-.99-12z"/><rect height="6" rx="3" width="79.615" x="6.502" y="115.5"/></g><circle cx="81.692" cy="81.692" fill="#4f2217" r="39.808"/><path d="M61.41 54.66v54.06a33.765 33.765 0 010-54.06z" fill="#f4a86c"/><path d="M55.41 88.75A1.75 1.75 0 0153.66 87v-7.809a1.75 1.75 0 013.5 0V87a1.75 1.75 0 01-1.75 1.75zm19.52-40.19v66.26a33.618 33.618 0 01-13.52-6.1V54.66a33.618 33.618 0 0113.52-6.1z" fill="#d78759"/><path d="M88.45 48.56v66.26a33.941 33.941 0 01-13.52 0V48.56a33.941 33.941 0 0113.52 0z" fill="#f4a86c"/><path d="M101.98 54.67v54.04a33.542 33.542 0 01-13.53 6.11V48.56a33.542 33.542 0 0113.53 6.11z" fill="#d78759"/><path d="M115.5 81.69a33.75 33.75 0 01-13.52 27.02V54.67a33.75 33.75 0 0113.52 27.02z" fill="#f4a86c"/><circle cx="101.98" cy="90.688" fill="#eaeaf0" r="4.5"/></svg>