<svg xmlns="http://www.w3.org/2000/svg" xmlns:xlink="http://www.w3.org/1999/xlink" viewBox="0 0 502 502"><linearGradient id="a"><stop stop-color="#f4d952" offset="0"/><stop stop-color="#f9edaf" offset="1"/></linearGradient><linearGradient y2="286.14" y1="505.255" xlink:href="#a" x2="103.125" x1="103.125" gradientUnits="userSpaceOnUse" id="c"/><linearGradient id="b"><stop stop-color="#ac6c58" offset="0"/><stop stop-color="#da9b8c" offset="1"/></linearGradient><linearGradient y2="333.884" y1="333.884" xlink:href="#b" x2="27.451" x1="213.666" gradientUnits="userSpaceOnUse" id="d"/><linearGradient y2="268.169" y1="268.169" xlink:href="#b" x2="123.161" x1="383.36" gradientUnits="userSpaceOnUse" id="e"/><linearGradient y2="134.533" y1="326.708" x2="320.426" x1="320.426" gradientUnits="userSpaceOnUse" id="f"><stop stop-color="#4e5660" offset="0"/><stop stop-color="#64768d" offset="1"/></linearGradient><linearGradient y2="120.92" y1="120.92" xlink:href="#a" x2="498.321" x1="253.55" gradientUnits="userSpaceOnUse" id="g"/><linearGradient y2="31.367" y1="201.485" x2="382.949" x1="382.949" gradientUnits="userSpaceOnUse" id="h"><stop stop-color="#74d2e8" offset="0"/><stop stop-color="#baeaf5" offset="1"/></linearGradient><path fill="url(#c)" d="M173.637 328.363c-41.561-41.561-106.821-43.683-145.764-4.74s-36.82 104.203 4.74 145.764 106.821 43.683 145.764 4.74 36.821-104.203-4.74-145.764z"/><path fill="url(#d)" d="M185.861 209.23L65.604 329.487c-29.522 29.522-29.522 77.387 0 106.909 29.522 29.522 77.387 29.522 106.909 0L292.77 316.139z"/><path fill="url(#e)" d="M210.541 132.422l-79.519 79.519c-43.917 43.917-43.917 115.12 0 159.037s115.12 43.917 159.037 0l79.519-79.519z"/><path fill="url(#f)" d="M380.691 308.497c-42.281 42.281-118.46 34.653-170.15-17.037s-59.318-127.869-17.037-170.15l93.983-93.983 187.188 187.188z"/><path fill="url(#g)" d="M457.637 44.363c51.69 51.69 59.318 127.869 17.038 170.15-42.281 42.281-118.46 34.653-170.15-17.038-51.69-51.69-59.318-127.869-17.038-170.15 42.28-42.28 118.459-34.652 170.15 17.038z"/><path fill="url(#h)" d="M433.165 68.835c33.906 33.906 38.909 83.875 11.175 111.608-27.734 27.734-77.702 22.73-111.608-11.176s-38.909-83.875-11.176-111.608c27.735-27.734 77.704-22.73 111.609 11.176z"/><path fill="#dff7fa" d="M426.747 117.846c-3.87 0-7.555-2.26-9.187-6.04-2.572-5.961-6.317-11.423-11.13-16.236a53.787 53.787 0 00-10.283-8.067c-4.733-2.847-6.262-8.991-3.415-13.724 2.848-4.733 8.991-6.261 13.724-3.415a73.857 73.857 0 0114.116 11.063c6.608 6.608 11.773 14.162 15.352 22.454 2.189 5.071-.148 10.956-5.219 13.144a9.977 9.977 0 01-3.958.821zm-77.826-29.077a9.983 9.983 0 01-7.895-3.854c-3.395-4.357-2.615-10.64 1.741-14.035 4.213-3.282 8.98-5.813 14.171-7.52 5.245-1.723 10.898 1.127 12.624 6.373 1.727 5.247-1.128 10.898-6.374 12.625-3 .987-5.734 2.433-8.128 4.298a9.957 9.957 0 01-6.139 2.113z"/></svg>