<svg height="512" viewBox="0 0 58 58" width="512" xmlns="http://www.w3.org/2000/svg"><g transform="translate(0 -1)" fill="none"><path d="M41 33.18V42a3 3 0 01-3 3H28c0-1.47-1.58-3.67-2-5z" fill="#2c2f38"/><path d="M8.363 19.51a1 1 0 01-.9-.556l-.947-1.91a6.026 6.026 0 01.374-6.01l.385-.584a1 1 0 011.67 1.1l-.389.59a4.023 4.023 0 00-.248 4.016l.947 1.909a1 1 0 01-.895 1.445z" fill="#ca8152"/><circle cx="43" cy="54" fill="#393f4a" r="5"/><path d="M44 55a1 1 0 01-1-1 1 1 0 010-2 2 2 0 012 2 1 1 0 01-1 1z" fill="#fff"/><circle cx="53" cy="54" fill="#393f4a" r="5"/><path d="M54 55a1 1 0 01-1-1 1 1 0 010-2 2 2 0 012 2 1 1 0 01-1 1z" fill="#fff"/><circle cx="53" cy="44" fill="#393f4a" r="5"/><path d="M54 45a1 1 0 01-1-1 1 1 0 010-2 2 2 0 012 2 1 1 0 01-1 1z" fill="#fff"/><path d="M2 46c0-6.627 5.373-12 12-12s12 5.373 12 12zm49.46-18.66L41 33.18l-3.78 2.1L31 24l-3.49-12.25 14.32-5.01L48 16z" fill="#393f4a"/><path d="M31.95 38.22v.01l-4.6 2.56C25.57 35.11 20.26 33 14 33c-5.32 0-9.95.97-12.32 5.35-.14-.28-.28-.56-.41-.86a14.4 14.4 0 018.37-19.5l12.19-4.26L29 24z" fill="#393f4a"/><path d="M4.105 31a1 1 0 01-.99-1.151 11.347 11.347 0 017.4-9.024 1 1 0 01.669 1.885 9.347 9.347 0 00-6.087 7.441 1 1 0 01-.992.849z" fill="#fff"/><path d="M56.27 30.54a3 3 0 01-3.99-1.45l-.82-1.75-9.63-20.6-.68-1.47a3.002 3.002 0 015.44-2.54l11.13 23.82a3 3 0 01-1.45 3.99z" fill="#464f5d"/><path d="M21.83 13.73l-.01-.02m5.69-1.96l-.01-.02" fill="#a46a43"/><circle cx="16" cy="20" fill="#fff" r="1"/><path d="M16 34.2v8.57c-.53-.48-3.47-.48-4 0V34.2a10.1 10.1 0 014 0zM25 45c0 .672-.067 1.342-.2 2h-8.57c.48-.53.48-3.47 0-4h8.57c.133.658.2 1.328.2 2zm-9 2.23v8.57a10.1 10.1 0 01-4 0v-8.57c.53.48 3.47.48 4 0zM11.77 47H3.2a10.1 10.1 0 010-4h8.57c-.48.53-.48 3.47 0 4z" fill="#603e26"/><path d="M37.22 35.28l-5.27 2.94-10.12-24.49 5.68-1.98z" fill="#a4a4a3"/><path d="M27.35 40.79c-2.203-6.975-9.407-11.077-16.53-9.412C3.697 33.042-.942 39.912.174 47.14c1.116 7.23 7.611 12.38 14.905 11.818C22.372 58.4 28.003 52.315 28 45c0-1.428-.22-2.848-.65-4.21zM23.8 47A10.1 10.1 0 114 43a10.1 10.1 0 0119.8 4z" fill="#805333"/><path d="M17 45a2.965 2.965 0 01-1 2.23 2.982 2.982 0 01-4.23-.23 2.982 2.982 0 01.23-4.23 2.982 2.982 0 014.23.23c.497.547.772 1.26.77 2z" fill="#a4a4a3"/></g></svg>