<svg height="512" viewBox="0 0 512.045 512.045" width="512" xmlns="http://www.w3.org/2000/svg"><path d="M321.473 380.838c1.057 5.531-2.659 10.843-8.217 11.747L83.759 429.912c-6.9 1.208-13.542-3.415-14.76-10.273L7.731 74.731c-1.219-6.864 3.434-13.47 10.34-14.679l221.896-38.84c6.9-1.208 13.542 3.415 14.76 10.273z" fill="#efedef"/><path d="M264.934 338.603c1.017 5.475-2.635 10.727-8.122 11.679l-142.53 24.737c-4.437.788-8.801-2.742-9.696-7.845l-44.98-256.319c-.894-5.094 1.999-9.905 6.428-10.692l142.487-25.309c4.437-.788 8.801 2.742 9.696 7.845l13.937 79.417z" fill="#dc4955"/><path d="M360.795 490.185l-210.351-80.154c-6.551-2.496-9.851-9.864-7.334-16.374l126.44-326.97c2.513-6.498 9.919-9.775 16.458-7.284l210.351 80.154c6.551 2.496 9.851 9.864 7.334 16.374l-126.439 326.97c-2.514 6.498-9.92 9.776-16.459 7.284z" fill="#f9f8f9"/><path d="M277.34 199.906c16.262-8.493 33.036-2.327 35.493-1.38 21.536 8.304 27.511 30.004 28.096 32.281 2.234-1.314 23.904-13.58 46.186-3.279 3.782 1.749 17.337 8.657 23.069 24.034 6.331 16.985-1.09 33.012-4.23 39.792-21.205 45.792-97.663 48.162-106.568 48.351-5.165-4.889-58.696-56.819-45.359-105.745 2.151-7.893 6.953-25.51 23.313-34.054z" fill="#dc4955"/><path d="M510.289 143.214c-2.205-4.951-6.204-8.739-11.261-10.666l-210.35-80.152c-7.778-2.966-16.291-.803-21.765 4.804l-4.801-27.026c-1.943-10.937-12.458-18.269-23.437-16.35L93.744 39.192a7.5 7.5 0 002.586 14.776L241.26 28.6c2.806-.488 5.592 1.432 6.083 4.197l8.584 48.323-20.892 54.027-9.431-53.744c-1.338-8.624-9.731-15.602-18.395-13.933L64.722 92.779c-8.504 1.512-14.113 10.202-12.503 19.372l44.98 256.32c1.348 8.626 9.71 15.597 18.395 13.933l25.585-4.544-5.063 13.093c-2.897 7.215-1.02 15.937 4.488 21.396l-58.138 10.176c-2.808.488-5.591-1.432-6.083-4.197L15.116 73.419c-.54-2.714 1.517-5.565 4.249-5.979l40.966-7.171a7.5 7.5 0 10-2.586-14.776L16.78 52.664C6.063 54.305-1.772 65.406.347 76.042L61.614 420.95c1.892 11.001 12.716 18.307 23.437 16.35l79.413-13.9 193.66 73.792c10.131 3.944 22.129-1.131 26.124-11.586l102.43-264.882a7.5 7.5 0 00-13.99-5.41l-102.43 264.882c-1.017 2.63-4.126 4-6.792 2.979l-210.351-80.153c-2.599-.923-4.059-4.106-3.009-6.66l9.578-24.769a7.493 7.493 0 00.602-1.557l43.818-113.312a7.5 7.5 0 00-13.99-5.41L147.505 361.5l-34.457 6.12c-.273-.107-.891-.693-1.075-1.742l-44.98-256.32c-.187-1.062.204-1.83.429-2.023l142.333-25.281c.273.107.891.693 1.075 1.742l13.73 78.241-21.299 55.079a7.5 7.5 0 004.29 9.7c3.764 1.485 8.209-.389 9.7-4.29L269.84 86.731a7.496 7.496 0 001.373-3.55l5.332-13.789c1.017-2.631 4.127-3.997 6.792-2.979l210.351 80.153c2.599.924 4.059 4.105 3.01 6.66l-10.862 28.089a7.5 7.5 0 0013.99 5.41l10.862-28.089c1.938-5.014 1.797-10.49-.399-15.422z"/><path d="M390.262 220.72c-17.926-8.288-35.132-4.198-45.1-.24-4.06-9.054-12.667-22.41-29.631-28.951-5.176-1.996-23.477-7.771-41.663 1.729v.001c-19.264 10.061-24.739 30.15-27.078 38.729-14.375 52.735 41.07 107.135 47.439 113.164a7.5 7.5 0 005.156 2.054l.159-.002c14.977-.316 90.824-4.348 113.215-52.698 3.248-7.014 11.876-25.645 4.452-45.562-6.407-17.189-20.98-25.464-26.949-28.224zm8.886 67.482c-17.536 37.867-80.548 43.162-96.822 43.898-11.179-11.145-52.157-55.471-41.063-96.168 1.978-7.255 6.092-22.35 19.55-29.379 12.933-6.753 26.694-2.042 29.322-1.028 17.856 6.885 23.002 25.096 23.531 27.149 1.08 4.717 6.962 7.159 11.064 4.599 2.054-1.207 20.608-11.549 39.237-2.938 4.284 1.98 14.728 7.88 19.189 19.847 5.238 14.054-1.007 27.538-4.008 34.02z"/></svg>