<svg xmlns="http://www.w3.org/2000/svg" viewBox="0 0 512 512"><path fill="#424242" d="M477.9 186.5H34L256 49.9z"/><path d="M436.2 186.5H75.8L247 81a17 17 0 0118 0l171.2 105.4z" fill="#9e9e9e"/><path fill="#424242" d="M503.5 160.9l-25.6 25.6L256 49.9 34.1 186.5 8.5 160.9 256 9.9z"/><path d="M477.9 195a8.5 8.5 0 01-4.5-1.3L256 60 38.6 193.7a8.5 8.5 0 01-10.5-1.2L2.5 166.9a8.5 8.5 0 011.6-13.3l247.5-151a8.5 8.5 0 018.8 0l247.5 151a8.5 8.5 0 011.6 13.3l-25.6 25.6a8.5 8.5 0 01-6 2.5zM256 41.4c1.6 0 3.1.4 4.5 1.3l216 133 13.3-13.2L256 19.8 22.2 162.5l13.2 13.2 216.1-133a8.5 8.5 0 014.5-1.3z"/><path d="M307.2 468h179.2c9.4 0 17 7.7 17 17.1v17H8.6v-17c0-9.4 7.7-17 17.1-17h179.2m-170.7 0V451c.2-9.5 8-17.1 17.4-17h409c9.5-.1 17.2 7.5 17.4 17v17" fill="#37474f"/><path d="M286.6 468h166.8c9.1.4 16.2 8 16 17.1v17H8.4v-17c-.3-9 6.8-16.7 16-17h166.8m-159 0V451c-.1-9.2 7.1-16.8 16.3-17h380.7c9.2.2 16.4 7.8 16.2 17v17" fill="#607d8b"/><path d="M503.5 510.7H8.5a8.5 8.5 0 01-8.5-8.5v-17a25.6 25.6 0 0125.6-25.7h179.2a8.5 8.5 0 010 17H25.6a8.5 8.5 0 00-8.5 8.6v8.6h477.8V485a8.5 8.5 0 00-8.5-8.5H307.2a8.5 8.5 0 010-17h179.2A25.6 25.6 0 01512 485v17a8.5 8.5 0 01-8.5 8.6z"/><path d="M477.9 476.6a8.5 8.5 0 01-8.6-8.5V451a8.7 8.7 0 00-8.8-8.5h-409a8.7 8.7 0 00-8.8 8.5v17a8.5 8.5 0 01-17.1 0v-17a25.8 25.8 0 0126-25.6h408.9a25.8 25.8 0 0125.9 25.6v17a8.5 8.5 0 01-8.5 8.6z"/><path fill="#424242" d="M477.9 186.5l-17.1 34H51.2l-17-34z"/><path d="M460.8 229.1H51.2a8.5 8.5 0 01-7.6-4.7l-17.1-34.1a8.5 8.5 0 017.6-12.4H478a8.5 8.5 0 017.6 12.4l-17 34.1a8.5 8.5 0 01-7.7 4.7zm-404.3-17h399l8.6-17.1H47.9l8.6 17z"/><path d="M51.2 220.6h85.3v17a17 17 0 01-17 17.1H68.3a17 17 0 01-17.1-17v-17.1zm17 179.2h51.3a17 17 0 0117 17V434H51.2v-17a17 17 0 0117-17.1zm68.3-179.2H222v17a17 17 0 01-17.1 17.1h-51.2a17 17 0 01-17-17v-17.1zm17.1 179.2h51.2a17 17 0 0117 17V434h-85.3v-17a17 17 0 0117.1-17.1zm136.5-179.2h85.4v17a17 17 0 01-17.1 17.1h-51.2a17 17 0 01-17-17v-17.1zm17.1 179.2h51.2a17 17 0 0117 17V434h-85.3v-17a17 17 0 0117.1-17.1zm68.3-179.2h85.3v17a17 17 0 01-17 17.1h-51.3a17 17 0 01-17-17v-17.1zm17 179.2h51.2a17 17 0 0117.1 17V434h-85.3v-17a17 17 0 0117-17.1z" fill="#37474f"/><path d="M119.5 263.3H68.3a25.6 25.6 0 01-25.6-25.6v-17.1a8.5 8.5 0 018.5-8.5h85.3a8.5 8.5 0 018.6 8.5v17a25.6 25.6 0 01-25.6 25.7zM59.7 229v8.6a8.5 8.5 0 008.6 8.5h51.2a8.5 8.5 0 008.5-8.5V229H59.7zm76.8 213.4H51.2a8.5 8.5 0 01-8.5-8.6v-17a25.6 25.6 0 0125.6-25.6h51.2a25.6 25.6 0 0125.6 25.6v17a8.5 8.5 0 01-8.6 8.6zm-76.8-17.1H128v-8.5a8.5 8.5 0 00-8.5-8.6H68.3a8.5 8.5 0 00-8.6 8.6v8.5z"/><path d="M68.3 254.7h51.2v145H68.3zm85.3 0h51.2v145h-51.2zm153.6 0h51.2v145h-51.2zm85.3 0h51.2v145h-51.2z" fill="#37474f"/><path d="M68.3 254.7h25.6v145H68.3zm85.3 0h25.6v145h-25.6zm153.6 0h25.6v145h-25.6zm85.3 0h25.6v145h-25.6z" fill="#607d8b"/><path d="M119.5 408.3H68.3a8.5 8.5 0 01-8.6-8.5v-145a8.5 8.5 0 018.6-8.6h51.2a8.5 8.5 0 018.5 8.5v145a8.5 8.5 0 01-8.5 8.6zm-42.7-17h34.1v-128H76.8v128zm128-128h-51.2a25.6 25.6 0 01-25.6-25.6v-17.1a8.5 8.5 0 018.5-8.5H222a8.5 8.5 0 018.5 8.5v17a25.6 25.6 0 01-25.6 25.7zM145.1 229v8.6a8.5 8.5 0 008.5 8.5h51.2a8.5 8.5 0 008.5-8.5V229h-68.2zm76.8 213.4h-85.4a8.5 8.5 0 01-8.5-8.6v-17a25.6 25.6 0 0125.6-25.6h51.2a25.6 25.6 0 0125.6 25.6v17a8.5 8.5 0 01-8.5 8.6zm-76.9-17h68.2v-8.5a8.5 8.5 0 00-8.5-8.6h-51.2a8.5 8.5 0 00-8.5 8.6v8.5z"/><path d="M204.8 408.3h-51.2a8.5 8.5 0 01-8.5-8.5v-145a8.5 8.5 0 018.5-8.6h51.2a8.5 8.5 0 018.5 8.5v145a8.5 8.5 0 01-8.5 8.6zm-42.7-17h34.2v-128H162v128zm196.3-128h-51.2a25.6 25.6 0 01-25.6-25.6v-17.1a8.5 8.5 0 018.5-8.5h85.4a8.5 8.5 0 018.5 8.5v17a25.6 25.6 0 01-25.6 25.7zM298.7 229v8.6a8.5 8.5 0 008.5 8.5h51.2a8.5 8.5 0 008.5-8.5V229h-68.2zm76.8 213.4H290a8.5 8.5 0 01-8.5-8.6v-17a25.6 25.6 0 0125.6-25.6h51.2a25.6 25.6 0 0125.6 25.6v17a8.5 8.5 0 01-8.5 8.6zm-76.8-17.1h68.2v-8.5a8.5 8.5 0 00-8.5-8.6h-51.2a8.5 8.5 0 00-8.5 8.6v8.5z"/><path d="M358.4 408.3h-51.2a8.5 8.5 0 01-8.5-8.5v-145a8.5 8.5 0 018.5-8.6h51.2a8.5 8.5 0 018.5 8.5v145a8.5 8.5 0 01-8.5 8.6zm-42.7-17H350v-128h-34.2v128zm128-128h-51.2a25.6 25.6 0 01-25.6-25.6v-17.1a8.5 8.5 0 018.6-8.5h85.3a8.5 8.5 0 018.5 8.5v17a25.6 25.6 0 01-25.6 25.7zM384 229v8.6a8.5 8.5 0 008.5 8.5h51.2a8.5 8.5 0 008.6-8.5V229H384zm76.8 213.4h-85.3a8.5 8.5 0 01-8.6-8.6v-17a25.6 25.6 0 0125.6-25.6h51.2a25.6 25.6 0 0125.6 25.6v17a8.5 8.5 0 01-8.5 8.6zm-76.8-17h68.3v-8.5a8.5 8.5 0 00-8.6-8.6h-51.2a8.5 8.5 0 00-8.5 8.6v8.5z"/><path d="M443.7 408.3h-51.2a8.5 8.5 0 01-8.5-8.5v-145a8.5 8.5 0 018.5-8.6h51.2a8.5 8.5 0 018.6 8.5v145a8.5 8.5 0 01-8.6 8.6zm-42.6-17h34.1v-128h-34.1v128z"/><circle cx="256" cy="122.5" r="25.6" fill="#ffeb3a"/><path d="M256 156.6a34.1 34.1 0 110-68.3 34.1 34.1 0 010 68.3zm0-51.2a17 17 0 100 34.1 17 17 0 000-34.1z"/></svg>