<svg xmlns="http://www.w3.org/2000/svg" viewBox="0 0 512 512"><circle cx="256" cy="256" r="248.5" fill="#ee8700"/><circle cx="256" cy="256" r="184" fill="#fff5cc"/><path d="M437.02 74.98C388.667 26.629 324.38 0 256 0S123.333 26.629 74.98 74.98C26.629 123.332 0 187.62 0 256s26.629 132.668 74.98 181.02C123.333 485.371 187.62 512 256 512s132.667-26.629 181.02-74.98C485.371 388.668 512 324.38 512 256s-26.629-132.668-74.98-181.02zM256 497c-110.163 0-203.3-74.298-231.932-175.417h27.554v-15H20.34A241.083 241.083 0 0115 256C15 123.112 123.112 15 256 15c124.39 0 227.072 94.728 239.695 215.833H479v15h17.788c.141 3.372.212 6.761.212 10.167 0 132.888-108.112 241-241 241z"/><path d="M300.052 34.293a226.111 226.111 0 00-15.311-2.481l-1.888 14.881a210.83 210.83 0 0114.29 2.315l2.909-14.715zm25.033 6.464a226.29 226.29 0 00-14.936-4.227l-3.583 14.566a210.109 210.109 0 0113.937 3.943l4.582-14.282zm137.857 173.847l14.712-2.926c-7.514-37.778-24.796-73.279-49.979-102.665-24.953-29.116-57.042-51.547-92.802-64.865l-5.235 14.057c68.081 25.357 119.16 85.285 133.304 156.399z" fill="#fff"/><path d="M447.5 256c0-105.594-85.907-191.5-191.5-191.5S64.5 150.406 64.5 256 150.407 447.5 256 447.5 447.5 361.594 447.5 256zm-368 0c0-24.663 5.085-48.161 14.261-69.5h27.063v-15h-19.75c29.995-54.775 88.195-92 154.926-92 97.322 0 176.5 79.178 176.5 176.5S353.322 432.5 256 432.5 79.5 353.322 79.5 256z"/><path d="M179.126 276.333h-10.215L157.173 256l11.739-20.333h10.215v-15h-75v15h9.198v40.666h-9.198v15h75l-.001-15zm-27.534 0h-6.158l3.079-5.333 3.079 5.333zm-23.268-.366v-39.934L139.852 256l-11.528 19.967zM148.512 241l-3.079-5.333h6.158L148.512 241zm184.362-5.333h8.833v40.666h-8.833v15h75v-15h-8.833v-40.666h8.833v-15h-75v15zm23.833 0h6.167v40.666h-6.167v-40.666zm27.333 40.666h-6.167v-40.666h6.167v40.666zM305.667 152h-10.274v-40.667h10.274v-15h-99.333v15h11.291l11.74 20.334L217.625 152h-11.292v15h99.333l.001-15zm-25.275 0h-7.18v-40.667h7.18V152zm-22.18-.367l-11.528-19.966 11.528-19.966v39.932zm-23.267-40.3h6.159l-3.08 5.334-3.079-5.334zm3.08 35.334l3.079 5.333h-6.158l3.079-5.333zm55.475 254h-7.985V360h7.985v-15h-75v15h7.055l11.975 40.667H218.5v15h75v-15zm-22.985 0h-12.932L269.558 360h.957v40.667zM253.922 360l-6.366 21.617L241.191 360h12.731zm47.441-159.971l-33.682 33.683A25.014 25.014 0 00256 230.833c-13.877 0-25.167 11.29-25.167 25.167 0 13.877 11.29 25.167 25.167 25.167 13.877 0 25.167-11.29 25.167-25.167 0-4.213-1.041-8.188-2.879-11.681l33.682-33.682-10.607-10.608zM256 266.167c-5.606 0-10.167-4.561-10.167-10.167s4.561-10.167 10.167-10.167 10.167 4.561 10.167 10.167-4.561 10.167-10.167 10.167zm-30.141-29.7l-46.83-46.83 10.606-10.607 46.83 46.831z"/></svg>