<svg xmlns="http://www.w3.org/2000/svg" viewBox="0 0 511.999 511.999"><g fill="#66686d"><path d="M162.188 12.578l-6.329 43.924.019 65.429.006 38.935-.001 16.144.01 22.802.005 16.13-.001 38.917.019 65.752 6.277 43.613 42.47.005 6.287-43.628.008-65.709.01-38.952.004-16.133V177l.001-16.144.006-38.961.008-65.384-.003-.009-6.324-43.919-42.472-.005zm44.624 175.968c.003 12.913-10.474 23.394-23.391 23.388-12.913.003-23.391-10.464-23.383-23.38-.007-12.923 10.464-23.391 23.387-23.397 12.916.004 23.384 10.475 23.387 23.389z"/><path d="M292.73 49.066l-35.523 26.581-46.229 46.249-27.559 27.572-11.397 11.39-16.141 16.152-11.393 11.4-27.521 27.525-46.481 46.503-26.396 35.276 30.03 30.026 35.288-26.399 46.488-46.484 27.525-27.516 11.402-11.403 16.148-16.133 11.403-11.403 27.555-27.548 46.236-46.23.009-.003 26.585-35.529-30.029-30.026zm-85.918 139.48c.003 12.913-10.474 23.394-23.391 23.388-12.913.003-23.391-10.464-23.383-23.38-.007-12.923 10.464-23.391 23.387-23.397 12.916.004 23.384 10.475 23.387 23.389z"/><path d="M315.327 160.836l-65.396.018-38.958.003-16.153.003-22.795-.003-16.14.009-38.923.012-65.747.006-43.609 6.286-.005 42.47 43.628 6.287 65.741.007 38.929.007 16.121-.002h22.805l16.144.001 38.961.006 65.384.008.013.006 43.919-6.324.005-42.47-43.924-6.33zm-131.905 51.097c-12.913.003-23.391-10.464-23.383-23.38-.007-12.923 10.464-23.391 23.387-23.397 12.916.006 23.384 10.477 23.388 23.391.002 12.912-10.476 23.392-23.392 23.386z"/><path d="M296.181 262.185l-46.252-46.239-27.554-27.543L210.972 177l-16.152-16.141-11.4-11.393-27.54-27.536-46.487-46.466-35.278-26.396-30.026 30.03 26.398 35.288 46.475 46.491 27.529 27.531 11.403 11.403 16.126 16.128 11.403 11.403 27.536 27.549 46.246 46.251.003.009 35.529 26.585 30.026-30.03-26.582-35.521zm-136.143-73.632c-.007-12.923 10.464-23.391 23.387-23.397 12.916.006 23.384 10.477 23.388 23.391.003 12.913-10.474 23.394-23.391 23.388-12.914.001-23.391-10.466-23.384-23.382z"/></g><path d="M229.828 61.923a6.535 6.535 0 00-.406-.142C159.598 36.445 82.373 72.345 56.794 142.149c-25.63 69.935 10.291 147.404 80.226 173.034a133.812 133.812 0 0014.924 4.512c65.708 15.867 134.295-19.75 158.11-84.738 25.63-69.926-10.291-147.404-80.226-173.034zm-24.444 134.68a23.269 23.269 0 01-8.243 10.899c-6.083 4.4-14.184 5.799-21.767 3.011-12.126-4.441-18.361-17.874-13.91-30 4.441-12.136 17.874-18.361 30.01-13.92a23.304 23.304 0 0113.748 13.504c1.997 5.12 2.2 10.95.162 16.506z" fill="#484b54"/><path d="M310.054 234.957c-23.815 64.988-92.402 100.604-158.11 84.738 18.939-37.573 33.69-75.552 45.197-112.193a23.269 23.269 0 008.243-10.899 23.234 23.234 0 00-.162-16.505c11.892-42.997 19.425-83.45 24.201-118.316.132.041.274.091.406.142 69.934 25.629 105.855 103.107 80.225 173.033z" fill="#66686d"/><path d="M214.397 104.038c-9.804-3.589-19.831-5.373-29.706-5.515-37.168-.517-72.267 22.183-85.782 59.057-15.38 41.953 2.433 87.972 40.088 109.283a90.358 90.358 0 0013.454 6.215c46.678 17.104 98.384-6.874 115.488-53.552s-6.864-98.384-53.542-115.488zm-9.013 92.565c-4.441 12.126-17.884 18.361-30.01 13.91a23.272 23.272 0 01-12.704-11.163c-2.92-5.627-3.569-12.42-1.206-18.837a23.241 23.241 0 019.469-11.73c5.921-3.741 13.454-4.785 20.541-2.19 12.126 4.451 18.351 17.884 13.91 30.01z" fill="#92949b"/><g fill="#66686d"><path d="M372.566 154.624l-21.058 39.064-22.497 61.439-13.393 36.559-5.556 15.157-7.837 21.413-5.546 15.147-13.393 36.539-22.609 61.744-9.115 43.109 39.875 14.62 20.916-38.8 22.619-61.693 13.413-36.57 5.556-15.147 7.847-21.413 5.556-15.157 13.413-36.58 22.508-61.389v-.01l9.175-43.413-39.874-14.619zm-18.655 180.577c-4.441 12.126-17.884 18.361-30.01 13.91-12.126-4.441-18.361-17.874-13.91-30 4.441-12.136 17.874-18.361 30.01-13.92 12.126 4.451 18.351 17.885 13.91 30.01z"/><path d="M482.579 233.806l-42.501 12.734-59.32 27.516-35.363 16.404-14.62 6.773-20.713 9.611-14.62 6.783L260.13 330l-59.645 27.668-36.924 24.038 17.864 38.526 42.217-12.643 59.645-27.648 35.312-16.364 14.63-6.783 20.713-9.591 14.63-6.783 35.353-16.384 59.32-27.496h.01l37.188-24.211-17.864-38.523zM353.911 335.201c-4.441 12.126-17.884 18.361-30.01 13.91-12.126-4.441-18.361-17.874-13.91-30 4.441-12.136 17.874-18.361 30.01-13.92 12.126 4.451 18.351 17.885 13.91 30.01z"/><path d="M465.333 346.526l-61.409-22.487-36.58-13.403-15.167-5.556-21.402-7.847-15.157-5.546-36.549-13.383-61.733-22.619-43.109-9.104-14.62 39.875 38.8 20.916L260.13 330l36.549 13.403 15.137 5.546 21.413 7.847 15.157 5.556 36.58 13.413 61.389 22.508.01.01 43.413 9.175 14.62-39.875-39.065-21.057zm-141.432 2.585c-12.126-4.441-18.361-17.874-13.91-30 4.441-12.136 17.874-18.361 30.01-13.92 12.126 4.451 18.351 17.884 13.91 30.01-4.441 12.126-17.884 18.361-30.01 13.91z"/><path d="M412.481 435.096l-27.516-59.331-16.394-35.343-6.783-14.63-9.611-20.713-6.783-14.62-16.384-35.333-27.658-59.625-24.038-36.924-38.526 17.864 12.643 42.217 27.638 59.645 16.374 35.323 6.783 14.63 9.591 20.693 6.783 14.63 16.374 35.343 27.506 59.341v.01l24.211 37.188 38.526-17.864-12.736-42.501zm-102.49-115.985c4.441-12.136 17.874-18.361 30.01-13.92 12.126 4.451 18.351 17.884 13.91 30.01-4.441 12.126-17.884 18.361-30.01 13.91-12.126-4.44-18.361-17.874-13.91-30z"/></g><path d="M378.355 200.521a6.535 6.535 0 00-.406-.142c-69.824-25.336-147.049 10.564-172.628 80.368-25.63 69.935 10.291 147.404 80.226 173.034a133.812 133.812 0 0014.924 4.512c65.708 15.867 134.295-19.75 158.11-84.738 25.63-69.925-10.29-147.404-80.226-173.034zm-24.444 134.68a23.269 23.269 0 01-8.243 10.899c-6.083 4.4-14.184 5.799-21.767 3.011-12.126-4.441-18.361-17.874-13.91-30 4.441-12.136 17.874-18.361 30.01-13.92a23.303 23.303 0 0113.748 13.505 23.234 23.234 0 01.162 16.505z" fill="#484b54"/><path d="M458.581 373.555c-23.815 64.988-92.402 100.604-158.11 84.738 18.939-37.573 33.69-75.552 45.198-112.193a23.269 23.269 0 008.243-10.899 23.234 23.234 0 00-.162-16.505c11.892-42.997 19.425-83.45 24.201-118.316.132.041.274.091.406.142 69.934 25.629 105.854 103.108 80.224 173.033z" fill="#66686d"/><path d="M362.924 242.637c-9.804-3.589-19.831-5.373-29.706-5.515-37.168-.517-72.267 22.183-85.782 59.057-15.38 41.953 2.433 87.972 40.088 109.283a90.358 90.358 0 0013.454 6.215c46.678 17.104 98.384-6.874 115.488-53.552 17.103-46.678-6.864-98.385-53.542-115.488zm-9.013 92.564c-4.441 12.126-17.884 18.361-30.01 13.91a23.272 23.272 0 01-12.704-11.163c-2.92-5.627-3.569-12.42-1.206-18.837a23.241 23.241 0 019.469-11.73c5.921-3.741 13.454-4.785 20.541-2.19 12.126 4.451 18.351 17.885 13.91 30.01z" fill="#92949b"/><path d="M255.384 148.371a7.6 7.6 0 0010.349 2.924 7.605 7.605 0 002.925-10.348c-17.257-30.851-49.915-50.017-85.23-50.017-10.595 0-21.016 1.689-30.977 5.02a7.604 7.604 0 004.822 14.422 82.304 82.304 0 0126.154-4.235c29.814 0 57.386 16.183 71.957 42.234zM140.04 118.469a7.602 7.602 0 002.451-10.47 7.603 7.603 0 00-10.47-2.451c-28.938 17.957-46.215 48.987-46.215 83.004 0 36.671 20.256 69.921 52.861 86.777a7.602 7.602 0 0010.247-3.262 7.604 7.604 0 00-3.263-10.246c-27.533-14.233-44.637-42.307-44.637-73.268 0-28.722 14.589-54.92 39.026-70.084zm12.392 70.084c0 17.089 13.903 30.992 30.992 30.992s30.992-13.903 30.992-30.992-13.903-30.992-30.992-30.992-30.992 13.902-30.992 30.992zm46.777 0c0 8.704-7.081 15.785-15.785 15.785s-15.785-7.081-15.785-15.785 7.081-15.785 15.785-15.785 15.785 7.081 15.785 15.785z" fill="#1a1a1a"/><path d="M162.188 364.217a7.605 7.605 0 006.442-8.611l-3.715-25.778c3.847.497 7.741.85 11.683 1.036a7.605 7.605 0 00.718-15.191c-67.937-3.21-121.155-59.049-121.155-127.123 0-29.43 10.28-58.128 28.946-80.808 18.419-22.38 44.096-37.931 72.297-43.79 17.031-3.525 34.994-3.527 52.033-.001 15.573 3.232 30.246 9.307 43.612 18.056 14.752 9.665 27.137 22.029 36.811 36.749 8.778 13.357 14.88 28.049 18.137 43.663a127.976 127.976 0 011.743 10.561c.508 4.169 4.317 7.133 8.469 6.627a7.605 7.605 0 006.627-8.47c-.051-.42-.113-.839-.167-1.259l17.599 2.534a7.607 7.607 0 008.61-6.443 7.605 7.605 0 00-6.443-8.61l-22.752-3.275a140.97 140.97 0 00-16.251-39.126l23.423-31.307a7.603 7.603 0 00-.711-9.932l-30.028-30.028a7.606 7.606 0 00-9.933-.712l-31.35 23.456a141.083 141.083 0 00-39.062-16.175l-5.583-38.761a7.604 7.604 0 00-7.526-6.52h-42.466a7.604 7.604 0 00-7.526 6.52l-5.583 38.759a142.137 142.137 0 00-39.041 16.191L78.671 42.98a7.603 7.603 0 00-9.932.712L38.71 73.72a7.603 7.603 0 00-.712 9.932l23.433 31.32a142.894 142.894 0 00-16.223 39.102L6.52 159.648A7.604 7.604 0 000 167.174v42.466a7.604 7.604 0 006.52 7.526l38.544 5.552a141.7 141.7 0 0016.217 39.324L38 293.162a7.603 7.603 0 00.712 9.932l30.028 30.028a7.59 7.59 0 005.378 2.227 7.578 7.578 0 004.553-1.516l31.063-23.242a141.503 141.503 0 0039.392 16.296l4.451 30.886a7.606 7.606 0 008.611 6.444zm129.83-305.115l20.713 20.713-16.366 21.874a141.835 141.835 0 00-26.245-26.203l21.898-16.384zm-93.946-38.913l3.904 27.105a145.108 145.108 0 00-37.101-.001l3.904-27.104h29.293zM54.121 79.815l20.713-20.713 21.921 16.4a142.834 142.834 0 00-23.392 22.575c-.98 1.19-1.932 2.401-2.87 3.62L54.121 79.815zM15.208 203.053v-29.292l26.984-3.888a141.929 141.929 0 00-1.238 18.677c0 6.227.406 12.361 1.177 18.381l-26.923-3.878zm59.626 114.658l-20.713-20.713 16.209-21.667a142.69 142.69 0 0026.14 26.192l-21.636 16.188z" fill="#1a1a1a"/><path d="M398.944 266.527a7.605 7.605 0 00-.365-10.748c-9.552-8.924-20.668-15.747-33.038-20.281-50.542-18.52-106.725 7.528-125.247 58.067-18.521 50.539 7.528 106.725 58.067 125.246 11.047 4.048 22.357 5.967 33.491 5.967 39.805-.002 77.283-24.54 91.757-64.034 10.484-28.61 7.178-59.825-9.07-85.641a7.605 7.605 0 00-12.872 8.099c13.72 21.8 16.514 48.155 7.663 72.308-15.637 42.667-63.07 64.656-105.735 49.022-42.667-15.636-64.657-63.068-49.022-105.735 15.635-42.666 63.066-64.659 105.735-49.022 10.45 3.829 19.834 9.588 27.89 17.115a7.601 7.601 0 0010.746-.363z" fill="#1a1a1a"/><path d="M342.616 298.055c-7.776-2.849-16.192-2.5-23.701.982-7.511 3.483-13.216 9.68-16.064 17.453-2.849 7.773-2.5 16.19.982 23.701 3.483 7.511 9.681 13.216 17.453 16.063a30.824 30.824 0 0010.632 1.894c12.638 0 24.536-7.791 29.132-20.33 5.881-16.044-2.389-33.883-18.434-39.763zm4.157 34.532c-2.995 8.174-12.078 12.383-20.254 9.39a15.684 15.684 0 01-8.889-8.182 15.678 15.678 0 01-.5-12.071 15.683 15.683 0 018.181-8.889 15.753 15.753 0 016.631-1.472c1.833 0 3.669.323 5.44.972 8.172 2.994 12.386 12.079 9.391 20.252z" fill="#1a1a1a"/><path d="M508.002 360.887l-34.389-18.534a141.665 141.665 0 00-1.83-42.288l32.812-21.366a7.605 7.605 0 002.75-9.57l-17.862-38.527a7.604 7.604 0 00-9.081-4.086l-37.56 11.252a141.66 141.66 0 00-31.062-28.625l8.099-38.333a7.603 7.603 0 00-4.823-8.711l-39.874-14.612a7.601 7.601 0 00-9.311 3.532l-18.565 34.446a140.694 140.694 0 00-42.28 1.736l-21.343-32.774a7.605 7.605 0 00-9.57-2.749l-38.527 17.862a7.604 7.604 0 00-4.086 9.081l11.208 37.416a140.678 140.678 0 00-28.744 31.171l-38.172-8.063a7.602 7.602 0 00-8.711 4.824l-14.613 39.873a7.604 7.604 0 003.532 9.31l34.285 18.478a141.757 141.757 0 001.696 42.496l-32.575 21.213a7.604 7.604 0 00-2.749 9.57l17.862 38.527a7.605 7.605 0 009.081 4.086l37.244-11.157a144.282 144.282 0 006.11 7.132 7.605 7.605 0 0011.214-10.273c-32.294-35.25-42.146-85.007-25.709-129.857 11.697-31.917 35.122-57.368 65.961-71.666 30.839-14.297 65.4-15.731 97.317-4.034 65.886 24.145 99.846 97.392 75.701 163.279-24.145 65.886-97.389 99.847-163.28 75.7-12.904-4.729-24.847-11.424-35.496-19.899a7.605 7.605 0 00-9.47 11.9 141.702 141.702 0 008.962 6.568l-8.03 38.014a7.603 7.603 0 004.823 8.711l39.873 14.613a7.603 7.603 0 009.31-3.533l18.439-34.211c5.091.553 10.175.824 15.234.824 9.214 0 18.342-.907 27.264-2.654l21.249 32.634a7.604 7.604 0 009.57 2.748l38.527-17.862a7.602 7.602 0 004.086-9.081l-11.19-37.351a141.62 141.62 0 0028.744-31.233l38.151 8.06a7.605 7.605 0 008.712-4.823l14.613-39.873a7.597 7.597 0 00-3.527-9.311zM211.496 403.29l-25.948 7.773-12.32-26.575 22.689-14.775a142.159 142.159 0 0015.579 33.577zm-13.313-125.156a144.04 144.04 0 00-5.206 17.668l-23.959-12.913 10.079-27.504 26.653 5.63a144.234 144.234 0 00-7.567 17.119zm73.842-80.232a144.783 144.783 0 00-16.229 8.827l-7.837-26.163 26.575-12.321 14.92 22.912a144.724 144.724 0 00-17.429 6.745zm91.121-9.774l12.985-24.095 27.505 10.079-5.66 26.791a143.17 143.17 0 00-17.003-7.517 144.782 144.782 0 00-17.827-5.258zm-75.274 301.876l-27.504-10.08 5.6-26.509a143.882 143.882 0 0016.961 7.508 143.277 143.277 0 0017.792 5.241l-12.849 23.84zm128.174-16.532l-26.575 12.32-14.834-22.781a143.672 143.672 0 0033.6-15.604l7.809 26.065zm62.41-230.497l12.32 26.575-22.962 14.951a143.716 143.716 0 00-15.634-33.655l26.276-7.871zm6.453 155.678l-26.642-5.629a143.272 143.272 0 007.454-16.847 143.044 143.044 0 005.276-17.958l23.993 12.931-10.081 27.503z" fill="#1a1a1a"/></svg>