<svg xmlns="http://www.w3.org/2000/svg" viewBox="0 0 512 512"><path d="M439.7 445.783c-7.383 3.606-19.535 6.759-31.592-2.29 0 0-19.215 39.662-52.364 13.907 0 0-22.996 39.662-62.143 9.787 0 0-12.877 19.058-37.602 19.058s-37.602-19.058-37.602-19.058c-39.147 29.875-62.143-9.787-62.143-9.787-33.149 25.755-52.364-13.907-52.364-13.907-12.056 9.049-24.207 5.896-31.592 2.29-5.074 18.136-6.987 40.007-3.366 66.217h56.748l7.726-6.862 7.726 6.862h229.73l7.726-6.862 7.726 6.862h56.747c3.626-26.21 1.712-48.081-3.361-66.217z" fill="#5f5f5f"/><path d="M467.167 258.26c19.25 37.23-8.262 41.35 0 70.883 8.262 29.532 5.35 80.11-53.632 70.617h-78.21v-95.341l95.464-61.124 36.378 14.965zm-422.333 0c-19.25 37.23 8.262 41.35 0 70.883s-5.35 80.11 53.632 70.617h78.211v-95.341l-95.464-61.124-36.379 14.965z" fill="#3a484a"/><path d="M414.977 399.089a124.86 124.86 0 00-22.131-20.333c-12.08-8.673-21.483-12.151-21.483-12.151H140.639s-9.405 3.478-21.483 12.151a124.792 124.792 0 00-22.131 20.333v22.732L256 459.594l158.977-44.641-1.441-15.193a8.66 8.66 0 011.441-.671z" fill="#e3b098"/><path d="M141.135 512v-61.909a7.725 7.725 0 00-7.726-7.726 7.725 7.725 0 00-7.726 7.726V512h15.452zm229.73 0v-61.909a7.725 7.725 0 017.726-7.726 7.725 7.725 0 017.726 7.726V512h-15.452z" fill="#3d3d3d"/><path d="M444.172 434.536a131.614 131.614 0 00-19.648-32.822c-2.67-3.268-7.344-4.081-10.989-1.953-17.896 10.444-74.556 39.096-157.535 39.096S116.362 410.204 98.465 399.76c-3.645-2.127-8.319-1.315-10.989 1.953a131.626 131.626 0 00-19.648 32.822c-1.729 4.155-.014 8.991 4.003 11.018 7.331 3.696 19.747 7.181 32.059-2.06 0 0 19.215 39.662 52.364 13.907 0 0 22.996 39.662 62.143 9.787 0 0 12.877 19.058 37.602 19.058s37.602-19.058 37.602-19.058c39.147 29.875 62.143-9.787 62.143-9.787 33.149 25.755 52.364-13.907 52.364-13.907 12.313 9.242 24.728 5.757 32.059 2.06 4.018-2.026 5.732-6.863 4.005-11.017z" fill="#050505"/><path d="M446.402 204.781c.251 3.945.384 7.92.384 11.927 0 103.931-85.417 188.183-190.786 188.183S65.214 320.64 65.214 216.709c0-4.006.133-7.983.384-11.927v-32.226h381.189l-.385 32.225z" fill="#fbc4ac"/><path d="M366.218 258.692a7.725 7.725 0 01-7.726-7.726v-21.431a7.725 7.725 0 017.726-7.726 7.725 7.725 0 017.726 7.726v21.431a7.725 7.725 0 01-7.726 7.726z" fill="#3a484a"/><path d="M380.813 290.192h-29.189a7.725 7.725 0 01-7.726-7.726 7.725 7.725 0 017.726-7.726h29.189a7.726 7.726 0 110 15.452z" fill="#f98084"/><path d="M145.782 258.692a7.725 7.725 0 01-7.726-7.726v-21.431a7.725 7.725 0 017.726-7.726 7.725 7.725 0 017.726 7.726v21.431a7.726 7.726 0 01-7.726 7.726z" fill="#3a484a"/><path d="M160.377 290.192h-29.188a7.725 7.725 0 01-7.726-7.726 7.725 7.725 0 017.726-7.726h29.188a7.727 7.727 0 010 15.452z" fill="#f98084"/><path d="M256 288.981c-9.912 0-19.218-4.142-25.53-11.364-2.809-3.213-2.481-8.094.732-10.902s8.094-2.481 10.901.732c3.378 3.864 8.442 6.08 13.896 6.08 5.454 0 10.519-2.216 13.897-6.081a7.724 7.724 0 0110.902-.731 7.725 7.725 0 01.731 10.902c-6.311 7.222-15.617 11.364-25.529 11.364z" fill="#3a484a"/><path d="M36.991 204.781H475.01C468.72 90.815 372.897 0 256 0S43.279 90.815 36.991 204.781z" fill="#fd6f71"/><path d="M281.755 1.497A223.025 223.025 0 00256 0C139.103 0 43.279 90.815 36.991 204.782H88.5C94.319 99.308 176.83 13.677 281.755 1.497z" fill="#e34b4c"/><path d="M65.214 216.709c0-4.006.133-7.983.384-11.926V186.72c-.129-.001-.255-.009-.384-.009-21.361 0-38.678 17.316-38.678 38.677 0 21.362 17.316 38.678 38.678 38.678 2.032 0 4.026-.159 5.973-.46-3.899-14.993-5.973-30.706-5.973-46.897zm381.572-30c-.057 0-.112.004-.169.004l-.215 18.069c.25 3.945.384 7.92.384 11.926 0 16.191-2.075 31.904-5.973 46.896 1.947.302 3.941.46 5.973.46 21.361 0 38.678-17.316 38.678-38.678.001-21.361-17.317-38.677-38.678-38.677z" fill="#e3b098"/></svg>