<svg xmlns="http://www.w3.org/2000/svg" viewBox="0 0 512 512"><path fill="#efedee" d="M337.297 364.372H174.702l-30.512 69.867L174.702 512l66.137-13.783L259.478 512h77.819l35.583-67.552z"/><path d="M142.512 364.372s-8.034 3.012-18.867 11.016c-22.42 16.56-56.836 59.531-56.836 136.612h53.617l7.726-6.226 7.726 6.226h38.823V364.372h-32.189z" fill="#f98084"/><path d="M149.4 375.389c10.832-8.005 18.867-11.016 18.867-11.016h-25.755s-8.034 3.012-18.867 11.016c-22.42 16.559-56.836 59.53-56.836 136.611h25.755c0-77.081 34.416-120.052 56.836-136.611z" fill="#dc5a64"/><path d="M383.848 508.606l7.726 3.394h53.617c0-58.747-19.991-97.661-39.425-120.189l-27.61 1.25-3.298-26.177c-3.358-1.756-5.37-2.512-5.37-2.512h-32.19V512h38.824l7.726-3.394z" fill="#f98084"/><path d="M120.426 512v-49.086a7.726 7.726 0 1115.452 0V512h-15.452zm255.695 0v-49.086a7.726 7.726 0 1115.452 0V512h-15.452z" fill="#dc5a64"/><path d="M405.765 391.811c-6.066-7.031-12.078-12.484-17.41-16.422-5.421-4.002-10.138-6.759-13.496-8.504-3.359-1.756-5.37-2.512-5.37-2.512C282.378 470.788 174.702 512 174.702 512h84.776c38.4-22.854 95.755-62.61 146.287-120.189z" fill="#3a484a"/><circle cx="57.237" cy="227.763" r="43.828" fill="#e3b098"/><path d="M474.974 295.29a7.726 7.726 0 01-7.726-7.726v-30.968a7.726 7.726 0 1115.452 0v30.968a7.725 7.725 0 01-7.726 7.726z" fill="#ffce1c"/><g fill="#e3b098"><circle cx="454.763" cy="227.763" r="43.828"/><path d="M440.005 119.794v104.103c-2.435 36.65-19.588 70.124-43.158 97.702-16.567 19.384-35.514 42.506-61.335 49.169-29.675 7.657-50.844-18.643-79.359-18.643s-49.684 26.301-79.359 18.643c-25.821-6.663-44.769-29.786-61.335-49.169-23.571-27.578-40.722-61.053-43.158-97.702V119.794h367.704z"/></g><path d="M356.031 250.297a7.726 7.726 0 01-7.726-7.726v-19.45a7.726 7.726 0 1115.452 0v19.45a7.726 7.726 0 01-7.726 7.726z" fill="#3a484a"/><path d="M369.276 278.884h-26.49a7.726 7.726 0 110-15.452h26.49a7.726 7.726 0 110 15.452z" fill="#f98084"/><path d="M256 277.786c-9.203 0-17.844-3.848-23.709-10.557a7.726 7.726 0 1111.634-10.17c2.93 3.352 7.331 5.275 12.074 5.275 4.743 0 9.144-1.922 12.075-5.275a7.723 7.723 0 0110.902-.731 7.724 7.724 0 01.731 10.902c-5.863 6.709-14.504 10.556-23.707 10.556z" fill="#3a484a"/><path d="M255.848 344.275c26.051 0 45.39 24.028 72.5 17.032 23.59-6.087 40.899-27.211 56.035-44.92 21.533-25.194 37.203-55.776 39.428-89.259v-72.022l30.276 5.802c.442 5.119.679 51.13.679 56.356 0 103.82-88.99 187.982-198.764 187.982S57.236 321.084 57.236 217.264c0-5.226.236-51.237.679-56.356l30.276-5.802v72.022c2.225 33.482 17.895 64.064 39.428 89.259 15.135 17.709 32.445 38.833 56.035 44.92 27.11 6.996 46.449-17.032 72.5-17.032h-.306z" fill="#dc5a64"/><path d="M255.848 146.405c108.137 0 198.917 37.526 198.917 37.526s42.946-21.256 42.946-75.074-57.378-7.51-104.938-45.058S313.228 0 256 0s-89.211 26.25-136.772 63.799S14.29 55.037 14.29 108.857s42.946 75.074 42.946 75.074 90.78-37.526 198.917-37.526h-.305z" fill="#3a484a"/><path d="M47.255 98.555c0-8.225 1.345-14.101 3.786-18.306-21.401-.278-36.751.772-36.751 28.608 0 53.819 42.946 75.074 42.946 75.074s11.678-4.827 31.644-11.019c-7.213-4.098-41.625-26.178-41.625-74.357z" fill="#313d40"/><path d="M275.143 76.652l19.223-19.223c5.245-5.244 5.245-13.746 0-18.99-5.244-5.245-13.747-5.245-18.99 0l-19.223 19.223-19.223-19.223c-5.244-5.245-13.747-5.245-18.99 0-5.244 5.244-5.244 13.746 0 18.99l19.223 19.223-19.223 19.223c-5.244 5.244-5.244 13.746 0 18.99a13.385 13.385 0 009.495 3.933c3.437 0 6.873-1.311 9.495-3.933l19.223-19.223 19.223 19.223a13.387 13.387 0 009.495 3.933c3.437 0 6.873-1.311 9.495-3.933 5.245-5.244 5.245-13.746 0-18.99l-19.223-19.223z" fill="#efedee"/><path d="M264.226 146.486c-9.724 13.801-22.2 26.072-37.366 36.655-20.496 14.304-45.895 25.629-75.488 33.66-23.36 6.34-45.708 9.602-63.107 11.278-14.218 1.369-25.125 1.678-30.578 1.735.363 5.209.943 10.362 1.745 15.445 6.273-.088 17.129-.465 30.929-1.814 17.847-1.746 40.594-5.121 64.692-11.633 31.388-8.481 58.465-20.554 80.48-35.882 19.7-13.717 35.334-30.07 46.749-48.793a492.774 492.774 0 00-18.056-.651z" fill="#313d40"/><path d="M111.86 209.966c0-34.023 100.732-34.023 100.732 0s-22.55 61.603-50.367 61.603-50.365-27.58-50.365-61.603z" fill="#3a484a"/></svg>