<svg height="512" viewBox="0 0 512.029 512.029" width="512" xmlns="http://www.w3.org/2000/svg"><path d="M361.011 101.202l-144.29-87.828c-6.401-3.896-13.62-5.844-20.84-5.844s-14.439 1.948-20.84 5.844l-144.29 87.828a40.082 40.082 0 00-19.241 34.237v178.963a40.08 40.08 0 0019.295 34.27l144.29 87.517A40.05 40.05 0 00195.881 442a40.05 40.05 0 0020.786-5.811l144.29-87.517a40.081 40.081 0 0019.295-34.27V135.439a40.08 40.08 0 00-19.241-34.237z" fill="#ff8086"/><path d="M30.805 348.671a40.081 40.081 0 01-19.295-34.27V135.439c0-6.97 1.815-13.687 5.109-19.574L195.88 224.742V442a40.05 40.05 0 01-20.786-5.811z" fill="#db4655"/><path d="M260.035 231.981h208.419c17.709 0 32.064 14.356 32.064 32.064v208.419c0 17.709-14.356 32.064-32.064 32.064H260.035c-17.709 0-32.064-14.356-32.064-32.064V264.046c-.001-17.709 14.355-32.065 32.064-32.065z" fill="#eceaec"/><ellipse cx="99.713" cy="280.078" fill="#ff9a9f" rx="14.963" ry="26.448" transform="rotate(-23.07 99.55 279.763)"/><ellipse cx="196.073" cy="111.405" fill="#fff" rx="26.402" ry="16.654"/><ellipse cx="278.087" cy="111.405" fill="#fff" rx="26.402" ry="16.654"/><ellipse cx="114.059" cy="111.405" fill="#fff" rx="26.402" ry="16.654"/><g fill="#e5646e"><circle cx="364.245" cy="368.255" r="24.048"/><circle cx="292.099" cy="296.11" r="24.048"/><circle cx="436.39" cy="440.4" r="24.048"/></g><path d="M468.455 224.481h-208.42c-21.816 0-39.564 17.749-39.564 39.564V425.11l-7.693 4.667a32.64 32.64 0 01-9.396 3.842V228.965L371.6 126.933a32.246 32.246 0 011.153 8.505v64.475a7.5 7.5 0 0015 0v-64.475c0-16.494-8.752-32.067-22.841-40.644L220.621 6.966c-15.26-9.288-34.219-9.289-49.479 0L26.852 94.795c-14.089 8.576-22.842 24.15-22.842 40.644v178.962c0 16.524 8.777 32.113 22.905 40.683l144.291 87.518c7.61 4.616 16.143 6.924 24.675 6.924 8.501 0 17-2.294 24.589-6.876v29.815c0 21.816 17.749 39.564 39.564 39.564h208.419c21.816 0 39.564-17.749 39.564-39.564v-208.42c.002-21.816-17.747-39.564-39.562-39.564zM34.695 342.259c-9.675-5.868-15.685-16.542-15.685-27.857V135.439c0-2.901.401-5.758 1.153-8.505l19.555 11.861a7.498 7.498 0 0010.302-2.523 7.5 7.5 0 00-2.523-10.302l-20.163-12.23a32.287 32.287 0 017.317-6.131l144.29-87.829c10.449-6.36 23.432-6.36 33.881 0l144.291 87.829a32.283 32.283 0 017.317 6.131L195.881 215.97 74.679 142.456a7.5 7.5 0 00-7.779 12.825l121.481 73.683v204.653a32.64 32.64 0 01-9.396-3.842zm458.324 130.206c0 13.545-11.02 24.564-24.564 24.564h-208.42c-13.545 0-24.564-11.02-24.564-24.564v-208.42c0-13.545 11.02-24.564 24.564-24.564h208.419c13.545 0 24.564 11.02 24.564 24.564v208.42z"/><path d="M103.462 250.612c-6.466-3.733-13.309-4.063-18.773-.909-6.167 3.561-9.705 11.007-9.705 20.428 0 15.309 9.215 32.621 20.978 39.412 3.523 2.034 7.159 3.058 10.623 3.058 2.892 0 5.664-.714 8.15-2.149 6.168-3.561 9.705-11.007 9.705-20.428 0-15.308-9.214-32.62-20.978-39.412zm3.773 46.85c-.668.384-2.149.028-3.773-.909-7.18-4.146-13.478-16.492-13.478-26.422 0-4.876 1.442-6.998 2.205-7.438.179-.103.416-.153.698-.153.773 0 1.886.375 3.075 1.062 7.18 4.146 13.478 16.493 13.478 26.422 0 4.876-1.442 6.997-2.205 7.438zm88.838-161.903c19.011 0 33.903-10.61 33.903-24.154s-14.892-24.154-33.903-24.154-33.902 10.61-33.902 24.154c-.001 13.544 14.891 24.154 33.902 24.154zm0-33.308c11.539 0 18.903 5.421 18.903 9.154s-7.364 9.154-18.903 9.154-18.902-5.422-18.902-9.154 7.363-9.154 18.902-9.154zm82.014 33.308c19.011 0 33.902-10.61 33.902-24.154s-14.892-24.154-33.902-24.154-33.902 10.61-33.902 24.154 14.892 24.154 33.902 24.154zm0-33.308c11.539 0 18.902 5.421 18.902 9.154s-7.364 9.154-18.902 9.154-18.902-5.422-18.902-9.154 7.364-9.154 18.902-9.154zm-164.028 33.308c19.011 0 33.902-10.61 33.902-24.154s-14.892-24.154-33.902-24.154-33.902 10.61-33.902 24.154c-.001 13.544 14.891 24.154 33.902 24.154zm0-33.308c11.539 0 18.902 5.421 18.902 9.154s-7.364 9.154-18.902 9.154-18.902-5.422-18.902-9.154 7.363-9.154 18.902-9.154zm250.186 234.455c-17.396 0-31.548 14.152-31.548 31.548s14.152 31.549 31.548 31.549 31.548-14.153 31.548-31.549-14.152-31.548-31.548-31.548zm0 48.098c-9.125 0-16.548-7.424-16.548-16.549s7.423-16.548 16.548-16.548 16.548 7.423 16.548 16.548-7.423 16.549-16.548 16.549zM292.1 264.561c-17.396 0-31.548 14.152-31.548 31.548s14.152 31.548 31.548 31.548 31.548-14.152 31.548-31.548-14.152-31.548-31.548-31.548zm0 48.097c-9.125 0-16.548-7.423-16.548-16.548s7.423-16.548 16.548-16.548 16.548 7.423 16.548 16.548-7.423 16.548-16.548 16.548zm144.29 96.194c-17.396 0-31.548 14.152-31.548 31.548s14.152 31.548 31.548 31.548 31.549-14.152 31.549-31.548-14.153-31.548-31.549-31.548zm0 48.097c-9.125 0-16.548-7.423-16.548-16.548s7.423-16.548 16.548-16.548 16.549 7.423 16.549 16.548-7.424 16.548-16.549 16.548z"/></svg>