<svg viewBox="0 0 512 512" xmlns="http://www.w3.org/2000/svg"><path d="M127.465 32.955h257.07V512h-257.07z" fill="#eb966d"/><path d="M365.954 32.955h18.581V512h-18.581z" fill="#e8834d"/><path d="M99.662 0a5.15 5.15 0 00-5.151 5.151v501.698A5.15 5.15 0 0099.662 512h27.803V32.955h257.07V512h27.803a5.15 5.15 0 005.151-5.151V5.151A5.15 5.15 0 00412.338 0z" fill="#a95118"/><path d="M108.884 512h18.581V32.955h-13.419a5.161 5.161 0 00-5.161 5.161V512zM398.909 0v512h13.429a5.15 5.15 0 005.151-5.151V5.151A5.15 5.15 0 00412.338 0z" fill="#994916"/><path d="M336.365 246.735h-165.88V80.102a5.15 5.15 0 015.151-5.151h160.729a5.15 5.15 0 015.151 5.151v161.482a5.15 5.15 0 01-5.151 5.151z" fill="#d56723"/><path d="M322.935 74.951v171.784h13.429a5.15 5.15 0 005.151-5.151V80.102a5.15 5.15 0 00-5.151-5.151z" fill="#b6591e"/><path d="M336.365 470.004h-160.73a5.15 5.15 0 01-5.151-5.151V303.371a5.15 5.15 0 015.151-5.151h160.729a5.15 5.15 0 015.151 5.151v161.482a5.15 5.15 0 01-5.15 5.151z" fill="#d56723"/><path d="M322.935 298.219v171.785h13.429a5.15 5.15 0 005.151-5.151V303.371a5.15 5.15 0 00-5.151-5.151h-13.429z" fill="#b6591e"/><path d="M366.318 271.994c0-7.822-6.364-14.186-14.186-14.186-5.06 0-9.498 2.672-12.01 6.671H322.19a7.515 7.515 0 100 15.03h17.932c2.512 3.999 6.949 6.671 12.01 6.671 7.822 0 14.186-6.364 14.186-14.186z" fill="#994916"/></svg>