<svg xmlns="http://www.w3.org/2000/svg" viewBox="0 0 64 64"><path fill="#ccd1d9" d="M50 16c1.1 0 2 .9 2 2 0 .55-.22 1.05-.59 1.41-.36.37-.86.59-1.41.59H34c-1.1 0-2-.9-2-2 0-.55.22-1.05.59-1.41.36-.37.86-.59 1.41-.59h14z"/><path fill="#a0d468" d="M54 10l-6 6h-3l3-9.75 3.02.38A3.4 3.4 0 0154 10z"/><path fill="#a0d468" d="M49 3l-1 3.25L45 16h-6l-3.24-9.72L35 4l5-1 2 3 3-4zM35.76 6.28L39 16h-3l-6-6a3.4 3.4 0 012.98-3.37l2.77-.35z"/><path fill="#b4dd7f" d="M41.78 46L40 42H22.2c-.13-.9-.2-1.82-.2-2.76 0-6.38 3.25-12.33 8.61-15.78L36 20h12l5.39 3.46c2.68 1.72 4.83 4.08 6.31 6.79 1.49 2.72 2.3 5.8 2.3 8.99 0 8.59-5.77 15.83-13.65 18.06L46 52h-2v-1z"/><path fill="#fcd770" d="M22 52l-4 9-4-9zm.2-10H40l1.78 4L44 51v1H24v-1l-4-9zM50 61v1H34v-1l-4-9h16l2.35 5.3z"/><path fill="#ffc729" d="M24 51v1H8v-1l4-9h8zm10 10v1H18v-1l4-9h8zm-16 1H2v-1l4-9h8l4 9z"/><path d="M63 39.241a19.678 19.678 0 00-9.074-16.62l-2.846-1.83A2.999 2.999 0 0053 18a2.994 2.994 0 00-2.624-2.962L55 10.414V10a4.405 4.405 0 00-3.853-4.364l-1.842-.23.96-3.119L44.598.87l-2.551 3.4-1.587-2.382-6.768 1.354.733 2.198-1.574.196A4.405 4.405 0 0029 10v.414l4.624 4.624A2.994 2.994 0 0031 18c0 1.273.8 2.356 1.921 2.791l-2.846 1.83A19.676 19.676 0 0021 39.241c0 .588.035 1.175.086 1.759h-9.735L7 50.788V51H5.351L1 60.788V63h50v-2.212l-1.284-2.889C57.589 55.165 63 47.66 63 39.241zM50.899 7.62a2.403 2.403 0 012.069 1.996L47.586 15h-1.232l2.355-7.654zm-11.36-3.508l2.413 3.618 3.449-4.6 2.333.583L44.261 15H39.72L36.307 4.759zM33.101 7.62l1.97-.246L37.613 15h-1.199l-5.383-5.384a2.403 2.403 0 012.07-1.996zM34 17h16a1 1 0 010 2H34a1 1 0 010-2zm8.905 34H25v-.212L21.539 43h17.812zm-30.256-8h6.7l3.556 8H9.095zM18 58.538L15.539 53h4.923zM6.649 53h6.701l3.556 8H3.095zm16 0h6.7l3.556 8h-13.81zM35 61v-.212L31.539 53h13.812l3.555 8zm13.9-4.936L46.649 51H45v-.212l-1.697-3.819C45.916 46.809 48 44.653 48 42c0-2.757-2.243-5-5-5h-2c-1.654 0-3-1.346-3-3s1.346-3 3-3h5v3h2v-5h-5v-2h-2v2c-2.757 0-5 2.243-5 5s2.243 5 5 5h2c1.654 0 3 1.346 3 3s-1.346 3-3 3h-.573l-1.778-4H23.097A18.082 18.082 0 0123 39.241a17.686 17.686 0 018.156-14.938L36.293 21h11.413l5.137 3.303A17.684 17.684 0 0161 39.241c0 7.624-4.938 14.413-12.1 16.823z"/><path d="M25.002 38.984l2 .031a13.723 13.723 0 014.838-10.253l-1.293-1.525a15.724 15.724 0 00-5.545 11.747zm6.954-12.813l1.117 1.658 1.531-.988-1.082-1.682zm23.989 18.336l1.846.77a15.85 15.85 0 00.686-2.02l-1.934-.514a13.51 13.51 0 01-.598 1.764zm-4.541 5.807l1.191 1.605a16.024 16.024 0 001.624-1.384l-1.396-1.432a13.69 13.69 0 01-1.419 1.211zm7.595-11.272h-2l.001.199c0 .561-.034 1.124-.103 1.674l1.984.246c.079-.632.119-1.277.119-1.92zm-4.933 8.676l1.576 1.23a16 16 0 001.197-1.762l-1.725-1.014a14.124 14.124 0 01-1.048 1.546z"/></svg>