<svg height="512" viewBox="0 0 511.5 511.5" width="512" xmlns="http://www.w3.org/2000/svg"><path d="M269.2 60.7h-27l-5.4-30.5a19.3 19.3 0 1137.9 0z" fill="#ffdaaa"/><path d="M255.7 7.5c-2.4 0-4.8.5-7 1.3 8.3 3.2 13.7 12 12 21.4l-5.5 30.5h14l5.5-30.5c2.1-11.8-7-22.7-19-22.7z" fill="#ff9478"/><path d="M127.3 108.3l-19 19-25.5-17.6a19.3 19.3 0 1126.9-26.9z" fill="#ffdaaa"/><path d="M80.2 80.2a19.2 19.2 0 00-4 5.9 19.3 19.3 0 0123.6 6.6l17.6 25.5 10-10-17.7-25.4a19.3 19.3 0 00-29.5-2.6z" fill="#ff9478"/><path d="M60.7 242.3v26.9l-30.5 5.5a19.3 19.3 0 110-38z" fill="#ffdaaa"/><path d="M7.5 255.7c0 2.5.5 4.9 1.3 7 3.2-8.2 12-13.6 21.4-12l30.5 5.6v-14l-30.5-5.5a19.3 19.3 0 00-22.7 19z" fill="#ff9478"/><path d="M108.3 384.2l19 19-17.6 25.4a19.3 19.3 0 11-26.9-26.8z" fill="#ffdaaa"/><path d="M80.2 431.3a19.2 19.2 0 005.9 4 19.3 19.3 0 016.6-23.6l25.5-17.6-10-10-25.4 17.7a19.3 19.3 0 00-2.6 29.5z" fill="#ff9478"/><path d="M242.3 450.8h26.9l5.5 30.5a19.3 19.3 0 11-38 0z" fill="#ffdaaa"/><path d="M255.7 504c2.5 0 4.9-.5 7-1.3a19.3 19.3 0 01-12-21.4l5.6-30.5h-14l-5.5 30.5a19.3 19.3 0 0019 22.7z" fill="#ff9478"/><path d="M384.2 403.2l19-19 25.4 17.6a19.3 19.3 0 11-26.8 26.8z" fill="#ffdaaa"/><path d="M431.3 431.3a19.2 19.2 0 004-5.9 19.3 19.3 0 01-23.6-6.7l-17.6-25.4-10 9.9 17.7 25.4c6.9 9.9 21 11.2 29.5 2.7z" fill="#ff9478"/><path d="M450.8 269.2v-27l30.5-5.4a19.3 19.3 0 110 37.9z" fill="#ffdaaa"/><path d="M504 255.7c0-2.4-.5-4.8-1.3-7a19.3 19.3 0 01-21.4 12l-30.5-5.5v14l30.5 5.5c11.8 2.1 22.7-7 22.7-19z" fill="#ff9478"/><path d="M403.2 127.3l-19-19 17.6-25.5a19.3 19.3 0 1126.8 26.9z" fill="#ffdaaa"/><path d="M431.3 80.2a19.2 19.2 0 00-5.9-4 19.3 19.3 0 01-6.7 23.6l-25.4 17.6 9.9 10 25.4-17.7c9.9-6.9 11.2-21 2.7-29.5z" fill="#ff9478"/><circle cx="255.7" cy="255.7" fill="#ffdaaa" r="55.1"/><path d="M255.7 200.7h-3.4a48.5 48.5 0 11-51.5 51.6 55.5 55.5 0 00-.1 3.4 55 55 0 1055-55z" fill="#ff7956"/><path d="M255.7 429.8c-96 0-174-78.1-174-174s78-174 174-174 174 78 174 174-78 174-174 174zm0-301.4c-70.6 0-128.1 57.1-128.1 127.3S185 383.1 255.7 383.1 384 325.9 384 255.7s-57.5-127.3-128.2-127.3z" fill="#ffdaaa"/><g fill="#ff9478"><path d="M255.7 81.7h-4.5c88.9 2.4 160.5 75.5 160.5 165 0 91-74 165-165 165a165.2 165.2 0 01-165-160.5v4.5c0 96 78 174 174 174s174-78 174-174-78-174-174-174z"/><circle cx="255.7" cy="255.7" r="21.8"/></g><path d="M255.7 226.5c-1.8 0-3.7.2-5.6.5l3 14.7a14.4 14.4 0 012.6-.2 14.3 14.3 0 11-11 5.2l-11.5-9.6a29.3 29.3 0 00-6.7 18.6 29.3 29.3 0 1029.2-29.2z"/><path d="M501.9 235.2a26.7 26.7 0 00-22-5.8l-36.6 6.6v12.2h-6.2A180.8 180.8 0 00389.2 133l4.5-4.5 8.6 8.6 30.6-21.2a26.7 26.7 0 0011.4-19.6 26.7 26.7 0 00-7.7-21.3 26.7 26.7 0 00-21.3-7.7 26.7 26.7 0 00-19.6 11.4l-21.3 30.6 8.7 8.6-4.5 4.5c-30.6-28.3-71-46.1-115.4-48v-6.1h12.3l6.6-36.7a26.7 26.7 0 00-46.9-21.9c-5.1 6.1-7.2 14.1-5.8 22l6.6 36.6h12.2v6.2a181 181 0 00-38.9 5.8l-.3.1 3.9 14.5h.3a166.5 166.5 0 0142.5-5.6c91.9 0 166.5 74.7 166.5 166.5s-74.6 166.6-166.5 166.6a166.6 166.6 0 01-82.5-311.1l-7.5-13a183.3 183.3 0 00-13.2 8.3 182.4 182.4 0 00-19.6 15.8l-4.5-4.5 8.6-8.6-21.2-30.6a26.7 26.7 0 00-19.6-11.4A26.7 26.7 0 0075 74.9a26.7 26.7 0 00-7.7 21.3 26.7 26.7 0 0011.4 19.6l30.6 21.2 8.6-8.6 4.5 4.5a181.6 181.6 0 00-47.9 115.3h-6.2V236l-36.7-6.6a26.7 26.7 0 00-21.9 5.8A26.7 26.7 0 000 255.7c0 8 3.5 15.5 9.6 20.6a26.7 26.7 0 0022 5.8l36.6-6.6v-12.3h6.2a180.8 180.8 0 0047.9 115.4l-4.5 4.5-8.6-8.7-30.6 21.3a26.7 26.7 0 00-11.4 19.6 26.7 26.7 0 007.7 21.3 26.7 26.7 0 0021.3 7.7 26.7 26.7 0 0019.6-11.4l21.2-30.6-8.6-8.6 4.5-4.5c30.6 28.2 71 46 115.3 47.9v6.2H236l-6.6 36.7a26.7 26.7 0 005.8 21.9 26.7 26.7 0 0020.5 9.6c8 0 15.5-3.5 20.6-9.6a26.7 26.7 0 005.8-22l-6.6-36.6h-12.3v-6.2a180.8 180.8 0 00115.4-47.9l4.5 4.5-8.7 8.6 21.3 30.6a26.7 26.7 0 0019.6 11.4 26.7 26.7 0 0021.3-7.7 26.7 26.7 0 00-3.7-41l-30.6-21.2-8.6 8.7-4.5-4.5c28.2-30.6 46-71 47.9-115.4h6.2v12.3L480 282a26.7 26.7 0 0021.9-5.8 26.7 26.7 0 009.6-20.6 26.7 26.7 0 00-9.6-20.5zm-94-148a11.7 11.7 0 018.7-5c3.5-.4 6.9.8 9.4 3.3a11.7 11.7 0 013.4 9.4 11.7 11.7 0 01-5 8.6l-20.3 14-10.2-10zm-159.3-34l-4.4-24.3a11.7 11.7 0 012.5-9.7 11.7 11.7 0 0118 0 11.7 11.7 0 012.6 9.7L263 53.2zm-141.2 64.4l-20.3-14.1a11.7 11.7 0 01-1.6-18 11.7 11.7 0 019.4-3.4 11.7 11.7 0 018.6 5l14 20.3zM53.2 262.9l-24.3 4.4a11.7 11.7 0 01-9.7-2.5 11.7 11.7 0 010-18 11.7 11.7 0 019.7-2.6l24.3 4.4zm50.3 161.5a11.7 11.7 0 01-8.6 5 11.7 11.7 0 01-9.4-3.4 11.7 11.7 0 01-3.4-9.4 11.7 11.7 0 015-8.6l20.3-14 10.2 10zm163.8 58.2a11.7 11.7 0 01-20.6 9.7 11.7 11.7 0 01-2.5-9.7l4.4-24.3h14.3zM404.1 394l20.3 14a11.7 11.7 0 015 8.7 11.7 11.7 0 01-3.4 9.4 11.8 11.8 0 01-9.4 3.4 11.7 11.7 0 01-8.6-5L394 404zm88.2-129.1a11.7 11.7 0 01-9.7 2.5l-24.3-4.4v-14.3l24.3-4.4a11.7 11.7 0 019.7 2.5 11.7 11.7 0 010 18z"/><path d="M391.4 255.7c0-74.3-60.9-134.8-135.7-134.8-74.8 0-135.6 60.5-135.6 134.8a135.4 135.4 0 00161 132.5 135.7 135.7 0 007.8-1.7l-3.7-14.6a120.4 120.4 0 01-6.9 1.6 121.3 121.3 0 01-15 1.8V318c11.6-1.4 22.3-6 31-13l41 41a124.6 124.6 0 01-6.3 5l-5.7 4.1 8.3 12.4a137.2 137.2 0 006.5-4.6 133.7 133.7 0 0053.3-107zm-15.3-7.5H318a62.3 62.3 0 00-13-31l41-41a119 119 0 0130.2 72zm-112.9-112a120.6 120.6 0 0172 29.5l-40.9 40.8a62.3 62.3 0 00-31-12.9zm-15 0v57.4a62.3 62.3 0 00-31 13l-41-41c19.6-17 44.6-27.8 72-29.4zm-82.6 40l41 41a62.3 62.3 0 00-13 31h-58.3a119 119 0 0130.3-72zm-30.3 87h58.3c1.4 11.7 6 22.4 13 31.1l-41 41a119 119 0 01-30.3-72zm113 112.1a120.6 120.6 0 01-72-29.5L217 305c8.8 7 19.5 11.6 31.1 13v57.4zm7.4-72a47.6 47.6 0 11.2-95.2 47.6 47.6 0 01-.2 95.2zm49.2-9c7-8.7 11.6-19.4 13-31h58.3c-1.7 27-12.4 52-30.3 72z"/><path d="M303.8 381.8a135.6 135.6 0 0014.3-6.4l-6.8-13.3a120.7 120.7 0 01-12.8 5.7zM199.2 99.1L194.1 85a181.6 181.6 0 00-14.5 6l6.3 13.6a166.9 166.9 0 0113.3-5.5z"/></svg>