<svg xmlns="http://www.w3.org/2000/svg" version="1.0" viewBox="0 0 744 496"><path font-size="12" fill-rule="evenodd" d="M0 0h744.094v496.063H0z"/><path d="M308.735 182.521c3-9 0-25 1-35 1-6 5-12 8-18 2-6 5-14 12-16-2 6-3 6-5 11l-3 11c-2 5-5 7-6 12-2 7-1 24-1 32 0 2 0 5-2 7-3 4-12 1-11 11 0 1 0 3 1 4 4 9 20 12 28 16 8 5 6 10 14 15 8 6 29 6 39 5 3-1 8-1 11-3 8-3 9-11 17-16 6-3 19-5 25-14 1-1 2-3 2-4 3-11-10-7-13-14-2-5 1-21 2-26l3 3v9l1 10c11-2 10-15 11-24 2-24 2-39-15-58-10-10-23-18-37-20h-9l-7-1-8 1c-13 1-22 1-33 7-8 4-13 9-19 16-15 16-18 36-15 57 1 8 3 17 9 22zm33-30c14-1 24 9 19 23-4 9-13 16-23 18-9 1-13-5-13-13 0-13 2-24 17-28zm56 0c12 0 18 10 19 21 0 3 1 6 1 8-1 7-8 12-15 13-11 0-24-17-23-27 2-9 10-13 18-15zm-18 61l-11-2-9 3c-1-7 2-17 5-24 1-2 3-6 5-7 4-1 5 4 5 6 2 8 5 16 5 24z" fill="#fff" stroke="#000"/><path d="M418.735 229.521c-3 1-7 1-10 3-10 7-5 24-14 35-4 5-13 7-20 7-13 0-29-1-35-14-5-9 2-18-9-29-2-1-5-4-7-4-3 0-2 4-2 6l1 20c0 15 4 15 11 24 4 6 7 12 14 15 9 3 19 3 28 2 7 0 11 1 18-3s19-20 21-28l1-14c2-10 3-8 3-20zm183-104c-15 21-31.265 38.794-49 60l-24 27c-20 19-70 56-93 71-13 9-27 16-41 22l-18.26 8.84c3 3 8.58 4.64 13.63 7 3 0 13.63-5.84 16.63-7.84l32-18c6-4 12-9 19-10-3 7-10 11-17 15l-19 11s-19.95 11.37-22.68 13.26c5.47 2.16 13.68 4.64 18.89 6.74 5 0 11.79-5 15.79-7 11-6 25-15 36-23l18-12c14-11 28-23 41-36 10-9 20-18 28-29 11-13 18-28 26-43 9-14 12-23 17-38 1-5 4-13 2-18z" fill="#fff" stroke="#000"/><path d="M142.735 120.521c-3 11 1 24 5 34 9 24 24 45 39 65 9 13 24 29 35 40l12 10 26 23c21 16 60 40 84 51l32 14 13 5c15 6 30 10 46 13 9 2 19 5 28 5-3-11-9-10-18-13l-33-13c-46-19-97-38-133-74 7 0 12 6 17 10 7 5 16 11 24 16 22 13 72 36 97 45 10 4 27 11 37 11 8 1 19-4 25-8-4-4-8-3-14-4l-31-9c-27-7-53-17-78-30l-14-6-19-12-23-15-24-19-41-32-38-39-19-22-20-22-15-24z" fill="#fff" stroke="#000"/><path d="M463.735 367.521c2 4 6 10 6 15 0 11-13 21-23 20-4-1-13-6-16 0-1 2-1 4 0 5 0 4 5 6 9 8 11 3 23-1 32-7 7-4 12-11 14-19l2-13c1-4 5-5 10-12 6-8 12-22 20-28 3-2 6-3 10-4-2-3-4-5-6-8-2-1-4-3-6-3-3-1-7-1-10 1-14 7-11 20-19 30-6 8-13 12-23 15z" fill="#fff" stroke="#000"/><path d="M495.735 380.521c7 3 13 2 20 2l15 1c7 0 9-4 12-10 1-2 2-6 0-8s-6-2-9-2l-17 1c-3 0-8 0-11 1-5 3-9 10-10 15zm54 14c-5-2-8-4-11-8-1 1-2 1-3 2-1 5 12 17 14 6z" fill="#fff" stroke="#000"/><path d="M542.735 360.521l8 5c-2 4-7 12-6 17 1 10 15 10 21 4 7-8 7-20-3-26-6-3-13-2-20 0zm-359 28l1 1c8-2 13-5 14-13-6 1-12 7-15 12zm7-37c-3-2-6-3-10-3-3 0-6 0-9 1-10 4-11 20-3 27 4 4 14 6 18 1 4-4 3-9 1-14-1-3-3-7-1-9 1-2 3-2 4-3z" fill="#fff" stroke="#000"/><path d="M189.735 355.521c1 3 6 15 8 17 3 2 6 2 9 2l18-1h13c0-3 0-6-1-8-3-8-14-12-22-12l-9 1c-6 0-11-1-16 1z" fill="#fff" stroke="#000"/><path d="M208.735 323.521c19 5 19 21 27 32 3 4 11 10 12 14 1 3 0 4 1 11 2 9 8 18 16 23 9 6 17 10 28 7 6-2 12-6 9-13s-14 0-21-2c-7-3-15-13-15-21l4-14c-11-4-24-13-29-24-3-7-3-17-8-22-9-7-21-1-24 9z" fill="#fff" stroke="#000"/><path d="M256.735 346.521c3 4 5 5 9 7 14 8 23 2 37-1l29-9c-3.84-2.58-12.42-7.95-16-10l-19 5-40 8zm14 29c26 0 50-8 75-14 0 0 11-5.206 14.676-5.206-3.47-2.529-17.622-7.638-19.836-9.634-3 .89-14.84 4.84-18.84 5.84l-25 7-12 3c-7 3-12 4-14 13zm77-115c0 2.5.25 5.535 1.25 7.035s4.755 1.64 5.75.965c.808-.82-.75-4.75-1.625-5.875s-2.375-1.625-5.375-2.125zm8 1l1 5c0 1 1 3 2 4 4 2 6-8 3-9-2-1-4 0-6 0zm12 1c-3 2-3.087 5.721-1.962 7.596 1.125 1.875 3.462 1.904 4.962 1.404 1-.5 2.5-3 2.625-5.25s-1.125-4.25-5.625-3.75zm-11-13c2.703 1.395 7.174-.087 7.174-.087l-.174-5.913c-1-4-4-5-6-3-1 2-1 7-1 9zm15-10c-1 0-4.133-.523-5.133.477-1.954 1.96-2.867 8.523.133 10.523 1.872.477 5 .913 6-3.087v-2.913s-.041-3.256-1-5zm10 32c.913.395 2-1 3-2 7-7-7.564-12.61-5-2 0 0 .954 3.826 2 4zm-28.262-33c-1-.349-2.738 0-3.738 0-7.78 3.523 2 17 5 8v-3s-.564-4.65-1.262-5zm22.262 1s-1.698 10.128-1 11c1.308.697 5.343.523 6.826-.523 0-3 .184-6.503-.42-8.334-.602-1.832-1.906-1.643-5.406-2.143zm9.564-1.174l-.564 5.174c0 3 .65 8.826 4.65 5.826.5-.5 1.852-6.448 1.298-9.162-1.03-1.454-2.912-1.6-5.384-1.838z" fill="#fff" stroke="#000"/></svg>