<svg xmlns="http://www.w3.org/2000/svg" viewBox="0 0 512 503.153"><path d="M40.372 477.531c-3.652-7.355-5.048-15.689-4.46-23.69.835-11.36-4.006-22.333-11.96-27.105-5.6-3.36-10.424-9.124-13.466-16.939-6.505-16.71-2.174-37.641 9.895-47.82 13.79-11.631 32.056-5.71 40.14 12.613 1.226 2.779 2.11 5.686 2.737 8.64l62.44-46.813 21.27 48.203-62.441 46.813a37.673 37.673 0 014.353 7.429c8.084 18.322 2.825 41.88-11.822 51.567-12.82 8.478-28.876 2.833-36.686-12.898z" fill="#c9ad80"/><path d="M125.7 336.418L63.259 383.23c-.626-2.954-1.51-5.861-2.737-8.64-8.084-18.32-26.35-24.244-40.14-12.613 0 0 15.208 74.07 65.58 36.305l50.372-37.763z" fill="#e6d8b3"/><path d="M152.2 359.332c-2.68-.942-4.817-3.218-6.103-6.133-4.833 3.623-21.108-3.166-21.108-3.166s-7.347 24.5-13.712 29.271c6.417 14.542 17.08 25.901 30.458 30.605 10.714 3.768 21.743-4.5 24.633-18.466 2.89-13.966-3.453-28.344-14.167-32.11z" fill="#ad712c"/><path d="M145.1 343.24c2.89-13.967-3.453-28.343-14.167-32.11-10.714-3.767-21.743 4.5-24.633 18.467-3.608 17.438-1.438 35.164 4.978 49.707l34.82-26.104c-1.286-2.914-1.721-6.467-.998-9.96z" fill="#c98a2e"/><path d="M260.698 84.86c31.424-58.556 88.696-88.165 144.682-68.482 71.31 25.07 113.687 121.113 94.452 214.065-15.102 72.977-63.536 122.617-118.167 128.576l-234.696 25.602c-16.085-5.654-25.607-27.236-21.27-48.203z" fill="#ad712c"/><path d="M260.698 84.86l-70.58 131.518c-21.69 40.418 2.605 95.478 40.314 91.364l108.802-11.87c54.632-5.96 103.066-55.6 118.167-128.577 4.819-23.289 5.77-46.771 3.367-69.283-4.157-38.943-25.831-71.1-54.927-81.473l-.46-.163c-55.986-19.682-113.26 9.927-144.683 68.484z" fill="#c98a2e"/><path d="M384.022 121.889C398.06 54.593 340.687 1.03 296.165 39.703c-13.735 11.93-25.82 27.179-35.467 45.157l-25.552 47.614c-16.634 30.995-4.485 74.068 23.572 83.723.423.146.848.288 1.273.428 53.368 17.437 108.3-23.742 123.579-92.64.156-.7.306-1.398.452-2.096z" opacity=".3" fill="#f6d445"/></svg>