<svg xmlns="http://www.w3.org/2000/svg" viewBox="0 0 512.001 512.001"><path fill="#b29a7e" d="M195.396 416.712h49.181v58.194h-49.181z"/><path fill="#a58868" d="M219.986 416.712h24.591v58.194h-24.591z"/><path fill="#bfa993" d="M379.826 465.893H60.149l-12.295 36.886h344.268z"/><path fill="#b29a7e" d="M379.826 465.893h-49.181l12.295 36.886h49.182z"/><path d="M393.869 9.22l-26.082 26.082c81.627 81.627 81.627 213.971 0 295.598s-213.971 81.627-295.598 0l-26.082 26.082c96.032 96.032 251.731 96.032 347.763 0 96.031-96.031 96.031-251.73-.001-347.762z" fill="#bfa993"/><path d="M393.869 9.22l-19.417 19.417c35.254 43.565 53.419 96.363 54.495 149.449.08 3.343.08 6.687 0 10.03-1.242 61.25-25.224 122.125-71.964 168.866-43.322 43.321-98.788 67.093-155.438 71.327 68.929 5.153 139.614-18.617 192.324-71.327 96.032-96.031 96.032-251.73 0-347.762z" fill="#b29a7e"/><path d="M341.705 70.606a9.223 9.223 0 01-6.52-15.742l26.082-26.082c3.601-3.6 9.44-3.6 13.04 0a9.223 9.223 0 010 13.042l-26.082 26.082a9.194 9.194 0 01-6.52 2.7zM72.189 340.122a9.223 9.223 0 01-6.52-15.742l26.082-26.082c3.601-3.6 9.44-3.6 13.04 0a9.223 9.223 0 010 13.042l-26.082 26.082a9.194 9.194 0 01-6.52 2.7z" fill="#797781"/><circle cx="219.986" cy="183.101" r="172.134" fill="#f8f8f9"/><path d="M219.988 10.967a172.74 172.74 0 00-36.886 3.975c77.34 16.888 135.248 85.755 135.248 168.159S260.442 334.373 183.102 351.26a172.675 172.675 0 0036.886 3.975c95.067 0 172.134-77.067 172.134-172.134S315.055 10.967 219.988 10.967z" fill="#ededed"/><path d="M104.972 55.044c20.714-18.616 45.968-32.275 73.901-39.121L231.65 68.7c-21.437 12.825-43.197 29.601-63.752 49.268l-62.926-62.924zm62.409 242.448c3.408-1.364 6.86-2.889 10.333-4.517l-67.599-67.599c-1.629 3.473-3.154 6.925-4.517 10.333-11.511 28.778-11.806 51.592-.807 62.59 10.999 10.999 33.813 10.706 62.59-.807zm-61.795-102.729c12.825-21.437 29.6-43.197 49.268-63.753L91.93 68.085c-18.618 20.714-32.275 45.968-39.121 73.9l52.777 52.778zm166.493 53.471c-20.555 19.668-42.315 36.443-63.752 49.268l52.777 52.777c27.932-6.846 53.187-20.505 73.901-39.121l-62.926-62.924zm79.423-110.888c-2.275 5.685-4.9 11.459-7.838 17.287l47.415 47.416a174.062 174.062 0 001.043-18.946c0-36.526-11.387-70.388-30.79-98.249 1.404 14.762-1.853 32.549-9.83 52.492zm-17.113 34.093c-12.825 21.437-29.6 43.197-49.268 63.753l62.925 62.925c18.618-20.714 32.275-45.968 39.121-73.9l-52.778-52.778zm-75.359 63.748l-91.128-91.128c-19.872 20.804-36.545 42.779-48.837 64.185l75.779 75.778c21.407-12.291 43.383-28.964 64.186-48.835zM248.457 59.426c5.828-2.94 11.602-5.565 17.287-7.838 19.94-7.977 37.727-11.235 52.49-9.831-27.861-19.402-61.722-30.789-98.247-30.789-6.403 0-12.723.361-18.945 1.043l47.415 47.415zm24.136 9.285c-3.408 1.364-6.86 2.889-10.333 4.517l67.601 67.601c1.629-3.473 3.154-6.925 4.517-10.333 11.511-28.778 11.806-51.592.807-62.59-5.364-5.364-13.543-8.045-23.85-8.045-10.827 0-24 2.952-38.742 8.85zM88.472 228.858c2.275-5.685 4.9-11.459 7.838-17.287l-47.416-47.416a174.062 174.062 0 00-1.043 18.946c0 36.526 11.387 70.388 30.789 98.249-1.402-14.764 1.857-32.55 9.832-52.492zm103.046 77.92c-5.828 2.94-11.602 5.565-17.287 7.839-16.945 6.778-32.344 10.158-45.647 10.158a72.14 72.14 0 01-6.847-.33c27.862 19.404 61.724 30.791 98.25 30.791 6.403 0 12.723-.361 18.945-1.043l-47.414-47.415zm-10.574-175.761l91.128 91.128c19.872-20.804 36.545-42.78 48.837-64.185L245.13 82.182c-21.406 12.29-43.381 28.964-64.186 48.835z" fill="#b4d8f1"/><path d="M274.259 68.078a172.277 172.277 0 0130.315 47.463l25.288 25.288c1.629-3.473 3.154-6.925 4.517-10.333 11.511-28.778 11.806-51.592.807-62.59-5.364-5.364-13.543-8.045-23.85-8.045-10.415 0-23.015 2.761-37.077 8.217zm69.404 86.554l47.415 47.416a174.062 174.062 0 001.043-18.946c0-36.526-11.387-70.388-30.79-98.249 1.404 14.764-1.853 32.551-9.83 52.492-2.273 5.686-4.899 11.459-7.838 17.287zm-22.754 3.328l-5.233-5.233a171.287 171.287 0 011.628 11.301 269.568 269.568 0 003.605-6.068zm13.48 13.479c-4.946 8.269-10.487 16.584-16.548 24.861a171.053 171.053 0 01-14.481 57.131l44.685 44.685c18.617-20.714 32.275-45.968 39.121-73.9l-52.777-52.777zm-112.112 166.1a170.909 170.909 0 01-39.128 13.712c.579.127 1.156.255 1.736.376.829.172 1.655.349 2.489.509 1.666.32 3.341.615 5.023.887.771.124 1.547.234 2.321.347 1.21.178 2.422.345 3.641.499.732.092 1.462.186 2.196.268 1.837.207 3.681.392 5.535.54.452.037.909.06 1.361.092a174.826 174.826 0 006.502.349c2.004.07 4.013.118 6.033.118 6.403 0 12.723-.361 18.945-1.043l-16.654-16.654zm-8.485-312.78a172.257 172.257 0 0146.249 29.226 208.445 208.445 0 015.704-2.399c19.94-7.977 37.727-11.235 52.49-9.831-27.861-19.402-61.722-30.789-98.247-30.789-6.403 0-12.723.361-18.945 1.043l12.749 12.75zm121.212 286.4l-40.541-40.54a173.01 173.01 0 01-55.516 57.506l22.156 22.156c27.933-6.847 53.187-20.504 73.901-39.122z" fill="#98c8ed"/><path d="M388.574 462.976a9.22 9.22 0 00-8.748-6.305H253.8v-20.667c55.33-7.281 106.467-32.378 146.59-72.5 48.188-48.186 74.725-112.256 74.725-180.402S448.577 50.886 400.389 2.7c-3.6-3.6-9.439-3.6-13.04 0l-45.872 45.871c-32.178-29.086-74.8-46.825-121.488-46.825-49.538 0-94.492 19.972-127.255 52.277a9.135 9.135 0 00-.982.841c-.31.31-.584.642-.841.984-32.307 32.762-52.279 77.717-52.279 127.253a9.221 9.221 0 0018.442 0c0-3.502.124-6.975.343-10.423l38.894 38.894c-2.939 5.828-5.565 11.602-7.838 17.286-5.179 12.946-8.362 24.98-9.582 35.875a162.983 162.983 0 01-16.965-42.004c-1.234-4.941-6.247-7.945-11.181-6.711-4.941 1.234-7.945 6.241-6.711 11.183 7.41 29.657 21.852 56.026 41.281 77.534l-45.729 45.727a9.22 9.22 0 000 13.042c40.123 40.122 91.259 65.219 146.59 72.5v20.667H60.152a9.22 9.22 0 00-8.748 6.305l-12.295 36.886A9.223 9.223 0 0047.859 512h344.268a9.22 9.22 0 008.748-12.138l-12.301-36.886zM253.308 342.583a9.148 9.148 0 00-.717-.815l-44.264-44.265c21.437-12.825 43.198-29.601 63.753-49.268l56.339 56.339c-20.914 18.689-46.66 32.072-75.111 38.009zm-22.898 3.089c-3.448.219-6.921.343-10.423.343-29.494 0-57.447-7.86-81.611-21.814 10.889-1.222 22.92-4.409 35.854-9.583 5.685-2.275 11.459-4.9 17.286-7.838l38.894 38.892zM187.384 24.434l44.264 44.264c-21.437 12.825-43.198 29.601-63.753 49.268l-56.338-56.338c20.913-18.689 46.661-32.072 75.112-38.01.221.283.456.558.715.816zm146.69 42.494c.692.68 1.378 1.365 2.058 2.057 9.99 11.358 9.405 33.615-1.753 61.511-1.364 3.407-2.888 6.858-4.517 10.332l-67.599-67.599c3.473-1.628 6.925-3.154 10.333-4.517 14.742-5.898 27.915-8.85 38.74-8.85 9.638-.001 17.383 2.374 22.738 7.066zm-13.165 91.032c-12.292 21.406-28.965 43.381-48.837 64.185l-91.128-91.128c20.804-19.872 42.779-36.545 64.185-48.837l75.78 75.78zm-61.879 77.227c-20.804 19.872-42.78 36.545-64.185 48.837l-75.778-75.779c12.292-21.406 28.965-43.381 48.837-64.185l91.126 91.127zm82.43 56.346l-56.339-56.339c19.669-20.556 36.443-42.317 49.268-63.753l44.265 44.265c.259.259.534.494.815.717-5.937 28.45-19.32 54.196-38.009 75.11zm41.097-98.009l-38.894-38.894c2.939-5.828 5.565-11.601 7.838-17.286 5.143-12.857 8.32-24.816 9.558-35.65 13.884 23.966 21.84 51.773 21.84 81.407.001 3.502-.123 6.975-.342 10.423zM301.392 42.029c-10.835 1.238-22.793 4.415-35.648 9.558-5.685 2.275-11.459 4.9-17.286 7.838l-38.894-38.892c3.448-.219 6.921-.343 10.423-.343 29.632-.001 57.441 7.956 81.405 21.839zM61.321 150.499a9.458 9.458 0 00-.815-.717c5.937-28.451 19.321-54.198 38.008-75.112l56.339 56.339c-19.669 20.556-36.443 42.317-49.268 63.753l-44.264-44.263zm116.393 142.477c-3.473 1.628-6.925 3.154-10.333 4.517-28.777 11.512-51.591 11.806-62.59.805-10.999-10.998-10.704-33.812.807-62.59 1.364-3.407 2.888-6.858 4.517-10.332l67.599 67.6zM72.323 343.807c40.374 37.171 92.456 57.536 147.665 57.536 58.294 0 113.099-22.702 154.319-63.921 69.257-69.257 83.864-177.029 35.522-262.082a9.221 9.221 0 00-12.574-3.46 9.222 9.222 0 00-3.461 12.574c44.253 77.86 30.877 176.522-32.528 239.928-37.737 37.737-87.91 58.521-141.279 58.521-50.283 0-97.724-18.455-134.605-52.152l12.976-12.976c32.455 29.291 75.337 46.685 121.63 46.685 100 0 181.355-81.355 181.355-181.355 0-46.689-17.738-89.31-46.825-121.488l39.228-39.228c40.651 43.866 62.926 100.579 62.926 160.717 0 63.221-24.619 122.658-69.323 167.36-44.703 44.704-104.141 69.324-167.361 69.324a240.44 240.44 0 01-23.454-1.151c-.12-.015-.241-.027-.363-.038-51.194-5.083-98.875-26.501-136.899-61.738l13.051-13.056zm132.296 93.95c5.098.301 10.22.471 15.369.471 5.149 0 10.271-.17 15.369-.471v18.914h-30.738v-18.914zm-143.971 55.8l6.148-18.443H373.18l6.148 18.443H60.648z"/></svg>