<svg height="512pt" viewBox="0 -34 512 511" width="512pt" xmlns="http://www.w3.org/2000/svg"><path d="M446.363 112.105C418.43 80.5 388.343 55.2 356.855 36.844 315.488 12.727 271.508.5 226.133.5 180.39.5 136.078 12.922 94.422 37.422 61.059 57.039 29.293 84.457 0 118.914l22.879 19.453C83.715 66.813 152.098 30.535 226.133 30.535c73.5 0 141.46 35.785 201.996 106.363l4.496 5.243H512v-30.036zm0 0"/><path d="M368.84 136.113c-39.485-39.922-86.7-61.027-136.547-61.027-49.848 0-97.063 21.102-136.547 61.027-29.34 29.668-44.125 59.223-44.738 60.469l-3.328 6.73 3.39 6.704c.614 1.218 15.426 30.172 44.797 59.214 12.113 11.98 24.957 22.22 38.38 30.665v136.12h30.03V338.86c12.766 25.059 30.297 46.903 51.786 64.29 32.714 26.476 72.257 40.468 114.351 40.468h59.969c40.953 0 74.273-33.32 74.273-74.277v-68.246h-57.89c-12.598 0-24.438 4.902-33.344 13.804-8.906 8.907-13.809 20.747-13.809 33.344 0 26 21.153 47.153 47.164 47.153l-.011-30.032c-9.442 0-17.121-7.68-17.121-17.12a17 17 0 015.015-12.106 17.01 17.01 0 0112.106-5.012h27.859v38.215c0 24.394-19.848 44.242-44.242 44.242h-59.969c-60.367 0-112.758-34.36-140.129-89.727a177.477 177.477 0 0042.008 5.032c49.785 0 96.957-20.63 136.426-59.657 20.308-20.082 33.652-40.117 40.16-50.972H512v-30.035H408.98c-6.484-11.07-19.816-31.559-40.14-52.11zM232.293 257.93c-30.895 0-55.941-25.047-55.941-55.942 0-30.898 25.046-55.941 55.941-55.941s55.941 25.043 55.941 55.941c0 30.895-25.046 55.942-55.941 55.942zm0 0"/></svg>