<svg viewBox="0 0 512 512" xmlns="http://www.w3.org/2000/svg"><path d="M448 488l-28.507-118.781A105.944 105.944 0 00316.475 288h-120.95a105.944 105.944 0 00-103.018 81.219L64 488z" fill="#58646f"/><path d="M271.122 312h-30.244a88.878 88.878 0 01-67.478-31.037 88.876 88.876 0 01-21.4-57.841V136A104 104 0 01256 32a104 104 0 01104 104v87.122a88.876 88.876 0 01-21.4 57.841A88.878 88.878 0 01271.122 312z" fill="#f5be9a"/><path d="M288 352l8 72h-80l8-72 32-40z" fill="#ccdce4"/><path d="M256 24h92a60 60 0 0160 60v68a16 16 0 0116 16v24l-8 16h8v24a32 32 0 01-32 32 32 32 0 01-32-32v-96h-40a64 64 0 01-64-64zm0 0h-92a60 60 0 00-60 60v68a16 16 0 00-16 16v24l8 16h-8v24a32 32 0 0032 32 32 32 0 0032-32v-96h40a64 64 0 0064-64z" fill="#f8c46a"/><path d="M152 400h16v88h-16zm192 0h16v88h-16zm-32-240h-40a16.019 16.019 0 00-16 16v32h-8a8 8 0 000 16h8a16.019 16.019 0 0016-16v-32h40a8 8 0 000-16zm-80 0h-32a8 8 0 000 16h32a8 8 0 000-16zm32 112h-16a8 8 0 000 16h16a8 8 0 000-16z"/><circle cx="216" cy="192" r="8"/><circle cx="296" cy="192" r="8"/><path d="M427.27 367.354a113.911 113.911 0 00-80.827-83.341 96.859 96.859 0 0015.086-26.142A39.975 39.975 0 00432 232v-8a24 24 0 00-11.2-20.286A39.851 39.851 0 00432 176v-8a24.039 24.039 0 00-16-22.624V84a68.077 68.077 0 00-68-68H164a68.077 68.077 0 00-68 68v61.376A24.039 24.039 0 0080 168v8a39.851 39.851 0 0011.2 27.714A24 24 0 0080 224v8a39.975 39.975 0 0070.471 25.871 96.859 96.859 0 0015.086 26.142 113.912 113.912 0 00-80.827 83.34l-28.509 118.78 15.558 3.734 28.51-118.781a97.936 97.936 0 0178.446-73.641 96.983 96.983 0 008.511 6.359l28.515 49.9-7.712 69.41A8 8 0 00216 432h16v56h16v-56h16v56h16v-56h16a8 8 0 007.951-8.884l-7.712-69.41 28.515-49.9a96.983 96.983 0 008.511-6.359 97.936 97.936 0 0178.446 73.642l28.51 118.78 15.558-3.734zM416 232a24 24 0 01-48 0v-24.022a39.8 39.8 0 0017.569 7.5A23.891 23.891 0 00384 224v16h16v-16a8 8 0 0116 0zM400 84v61.376A24.039 24.039 0 00384 168v16h16v-16a8 8 0 0116 0v8a24 24 0 01-48 0v-33.376A24.039 24.039 0 00384 120v-16a24 24 0 00-48 0v8h16v-8a8 8 0 0116 0v16a8.009 8.009 0 01-8 8h-39.733A56.33 56.33 0 01264 71.733V32h84a52.059 52.059 0 0152 52zM96 168a8 8 0 0116 0v16h16v-16a24.039 24.039 0 00-16-22.624V84a52.059 52.059 0 0152-52h84v39.733A56.33 56.33 0 01191.733 128H152a8.009 8.009 0 01-8-8v-16a8 8 0 0116 0v8h16v-8a24 24 0 00-48 0v16a24.039 24.039 0 0016 22.624V176a24 24 0 01-48 0zm48 64a24 24 0 01-48 0v-8a8 8 0 0116 0v16h16v-16a23.891 23.891 0 00-1.569-8.524 39.8 39.8 0 0017.569-7.5zm81.106 105.812l-12.6-22.05a96.918 96.918 0 0026.866 4.218zm6.589 17.375L248 334.806V416h-23.062zM264 416v-81.194l16.305 20.381L287.062 416zm22.894-78.188l-14.266-17.832a96.918 96.918 0 0026.866-4.218zM271.122 304h-30.244A80.878 80.878 0 01160 223.122V144h31.733A72.325 72.325 0 00256 104.718 72.325 72.325 0 00320.267 144H352v79.122A80.878 80.878 0 01271.122 304z"/></svg>