<svg height="640" viewBox="0 0 480 480" width="640" xmlns="http://www.w3.org/2000/svg"><path d="M320 24v.7C320 42 306 56 288.7 56H240v-.7C240 38 254 24 271.3 24zm0 0" fill="#cfdfe8"/><path d="M448 208c-50 0-54-40-104-40-50.1 0-54 32-104 32s-46-32-96-32-54 40-104 40a55.5 55.5 0 01-32-8v272h464V199c-7.5 3-12.3 9-24 9zm0 0" fill="#87cee9"/><path d="M416.3 376H64L8 472h464zm0 0" fill="#ad6327"/><path d="M416.3 376L352 280H128l-64 96zm0 0" fill="#d3843d"/><path d="M64 304h32v72H64zm0 0" fill="#b5554e"/><path d="M80 272a16 16 0 0116 16v16H64v-16a16 16 0 0116-16zm0 0" fill="#d3843d"/><path d="M384 304h32v72h-32zm0 0" fill="#b5554e"/><path d="M400 272a16 16 0 0116 16v16h-32v-16a16 16 0 0116-16zm0 0" fill="#d3843d"/><path d="M128 232h32v48h-32zm0 0" fill="#b5554e"/><path d="M144 200a16 16 0 0116 16v16h-32v-16a16 16 0 0116-16zm0 0" fill="#d3843d"/><path d="M320 232h32v48h-32zm0 0" fill="#b5554e"/><path d="M336 200a16 16 0 0116 16v16h-32v-16a16 16 0 0116-16zm0 0" fill="#d3843d"/><path d="M344 140a28 28 0 01-28.2 28H189.6a49 49 0 01-46.5-34l-6.7-20.6a7 7 0 016.6-9.4h194a7 7 0 015 2 7 7 0 012 5zm0 0" fill="#2d75bb"/><path d="M240 112a8 8 0 01-8-8V8a8 8 0 0116 0v96a8 8 0 01-8 8zm0 0" fill="#995f5b"/><path d="M480 472V199a8 8 0 00-11-7.4 55.7 55.7 0 00-7.6 4A23.6 23.6 0 01448 200c-22.4 0-34-8.5-47.3-18.4a87.6 87.6 0 00-54.9-21.5 35.7 35.7 0 006.2-20V111a15 15 0 00-15-15h-89V64h40.7A39.5 39.5 0 00328 24a8 8 0 00-8-8h-48.7a39 39 0 00-23.3 7.8V8a8 8 0 00-16 0v88h-89a15 15 0 00-12.1 6.2 15.2 15.2 0 00-2.1 13.6l6.7 20.7a57.7 57.7 0 0015.1 23.8c-2.1-.1-4.3-.3-6.7-.3a86.7 86.7 0 00-56.7 21.6C73.9 191.5 62.4 200 40 200a47.5 47.5 0 01-28.1-7 8 8 0 00-8 .1A8 8 0 000 200v272a8 8 0 00.5 2.7l.6 1.3c.3.6.7 1.1 1.2 1.6a7.9 7.9 0 002.3 1.5l.6.3a7.8 7.8 0 002.8.6h464a7.9 7.9 0 002.8-.6 5.6 5.6 0 00.6-.2 7.7 7.7 0 002.2-1.5l.1-.1a8.1 8.1 0 001.2-1.6l.6-1.3a7.9 7.9 0 00.5-2.7zM271.3 32h39.5a23.3 23.3 0 01-22.1 16h-39.5a23.3 23.3 0 0122.1-16zM144 112h192v28c0 11.1-9.1 20-20.2 20H189.6a41 41 0 01-38.9-28.5zm145.8 64l-2 1.1A82.7 82.7 0 01240 192a64.8 64.8 0 01-43.5-14.6l-2-1.4zM40 216a86.7 86.7 0 0056.7-21.6c13.4-9.9 24.9-18.4 47.2-18.4a64.8 64.8 0 0143.5 14.6A80.8 80.8 0 00240 208a98.5 98.5 0 0056-17.1 82.7 82.7 0 0148-14.9c22.4 0 34 8.5 47.3 18.4A87 87 0 00448 216a35.4 35.4 0 0016-3.6v229.8l-40-69V288a24 24 0 00-48 0v13.4l-16-23.8V216a24 24 0 00-48 0v56H168v-56a24 24 0 00-48 0v61.6l-16 24V288a24 24 0 00-48 0v85.8l-40 68.6V212.6a70.2 70.2 0 0024 3.4zm64 152v-37.6l28.3-42.4h215.4l28.3 42.2V368zm-16-72H72v-8a8 8 0 0116 0zm-16 16h16v56H72zm64-72h16v32h-16zm16-16h-16v-8a8 8 0 0116 0zm192 0h-16v-8a8 8 0 0116 0zm-16 16h16v32h-16zm80 56h-16v-8a8 8 0 0116 0zm-16 16h16v56h-16zM22 464l46.6-80h343.1l46.4 80zm0 0"/></svg>