<svg xmlns="http://www.w3.org/2000/svg" viewBox="0 0 512 512"><path d="M33.758 195.235a8.44 8.44 0 01-8.44-8.44v-56.264a8.44 8.44 0 018.44-8.44h16.879a8.44 8.44 0 018.44 8.44 8.44 8.44 0 01-8.44 8.44h-8.44v47.824a8.438 8.438 0 01-8.439 8.44zm67.517 0a8.44 8.44 0 01-8.44-8.44v-56.264a8.44 8.44 0 018.44-8.44h16.879a8.44 8.44 0 018.44 8.44 8.44 8.44 0 01-8.44 8.44h-8.44v47.824a8.438 8.438 0 01-8.439 8.44z" fill="#326e7d"/><path fill="#875b51" d="M0 164.29v123.78l256 33.759V164.29z"/><path d="M512 256c-9.219 18.983-28.68 32.07-51.2 32.07l-33.758 111.965L460.8 512H512V256z" fill="#4b8d8f"/><path d="M409.6 256c-9.218 18.982-28.68 32.07-51.2 32.07-22.52 0-41.982-13.088-51.2-32.07-9.218 18.982-28.68 32.07-51.2 32.07-22.52 0-41.982-13.088-51.2-32.07-9.218 18.982-28.68 32.07-51.2 32.07s-41.982-13.088-51.2-32.07c-9.218 18.982-28.68 32.07-51.2 32.07S9.219 274.983 0 256v256h460.8V288.07c-22.52 0-41.982-13.088-51.2-32.07z" fill="#63aba1"/><path d="M256 0v101.275c27.966 0 50.637-22.671 50.637-50.637S283.966 0 256 0z" fill="#fe9528"/><path d="M272.879 50.637C272.879 22.671 265.322 0 256 0c-27.966 0-50.637 22.671-50.637 50.637s22.671 50.637 50.637 50.637c9.322.001 16.879-22.67 16.879-50.637z" fill="#fec14d"/><path d="M162.04 364.026h-16.88c-4.661 0-8.44-3.778-8.44-8.44s3.779-8.44 8.44-8.44h16.879c4.661 0 8.44 3.778 8.44 8.44s-3.779 8.44-8.439 8.44zm-102.4 33.759H42.76c-4.661 0-8.44-3.778-8.44-8.44s3.779-8.44 8.44-8.44h16.88a8.44 8.44 0 110 16.88z" fill="#fff"/><path d="M482.18 366.84h-33.758l-27.075 28.516v33.758c7.466 7.194 16.881 12.378 27.389 14.648l33.444-76.922z" fill="#ffa850"/><path fill="#d9f7ff" d="M482.18 333.081H358.4V119.56z"/><path d="M358.4 111.121a8.44 8.44 0 00-8.44 8.44v268.707h16.879V119.56a8.437 8.437 0 00-8.439-8.439z" fill="#e86c16"/><path d="M234.62 366.84l33.444 76.922c17.264-3.729 31.612-15.292 39.136-30.785 8.107 16.693 24.135 28.824 43.198 31.508h16.003c19.063-2.684 35.092-14.815 43.198-31.508a57.044 57.044 0 0011.747 16.138l27.076-62.274H234.62z" fill="#fecb69"/></svg>