<svg xmlns="http://www.w3.org/2000/svg" viewBox="0 0 512 512"><path fill="#3c435a" d="M465 229c-15 0-30-5-42-14l31-21a31 31 0 0148 26l-5 8-4 1h-28z"/><path fill="#ffd87d" d="M423 215c12 9 27 14 42 14 28 0 28 1 32-1l-25 41h-1c-2 0-63 9-110-62l-12-16c-15-21-33-32-54-42a87 87 0 00-78 0c-5 3-29 11-49 35l-19 30c-21 34-57 55-97 55H42l-1 1-27-42 6 1h27c25 0 48-13 62-35l10-17c24-41 58-55 63-58 43-22 105-22 148 0 26 13 48 33 63 58 8 12 13 26 30 38z"/><path fill="#3c435a" d="M472 269l-44 71c-4 6-10 9-17 9H101c-7 0-13-3-17-9l-43-70 1-1h10c40 0 76-21 97-55l19-30c20-24 44-32 49-35a86 86 0 0178 0c21 10 39 21 54 42l12 16c26 39 62 62 104 62h7z"/><path fill="#f26b5c" d="M90 349h332v60H90z"/><path fill="#ffd87d" d="M296 209v20h-20v20h-40v-20h-20v-20a40 40 0 0180 0z"/><path fill="#3c435a" d="M89 215c-12 9-27 14-42 14H20l-6-1-3-6v-2a31 31 0 0147-26l31 21z"/><path d="M471 179c-8 0-16 3-23 7l-25 17-11-14c-6-8-24-52-77-79a190 190 0 00-158 0c-28 14-51 35-67 62-8 13-11 22-21 31l-25-17a41 41 0 00-63 31v8c1 4 3 7 6 9l69 111 4 6v58c0 6 4 10 10 10h332c5 0 10-4 10-10v-58l4-6 69-110c18-14 1-56-34-56zm-12 24c4-2 8-4 12-4 10 0 20 9 21 19l-1 1h-26c-8 0-16-1-23-4l17-12zm-418-4c4 0 8 2 12 4l17 12c-7 3-15 4-23 4H21c0-11 9-20 20-20zm371 200H100v-40h312v40zm7-64c-1 3-5 4-8 4H101c-3 0-7-1-8-4l-35-56c41-2 78-24 99-59l11-17c19-32 46-41 53-45 37-18 67-2 77 4l5 2c16 8 30 21 40 37a10 10 0 0017-10c-12-20-29-35-49-45-11-6-21-12-38-15a95 95 0 00-62 10c-5 2-38 14-61 51l-10 17c-18 31-52 50-88 50h-6l-13-20h14c17 0 34-5 48-16 19-13 24-29 32-41 14-23 35-42 59-54 41-21 99-20 140 0 47 24 62 63 69 71 15 25 41 40 70 40h13l-12 20h-1c-17 0-34-4-49-13a10 10 0 00-10 18c15 8 31 13 48 15l-35 56z"/><path d="M256 159c-28 0-50 23-50 50v20c0 6 4 10 10 10h10v10c0 6 4 10 10 10h40c5 0 10-4 10-10v-10h10c5 0 10-4 10-10v-20c0-27-22-50-50-50zm30 60h-10c-6 0-10 5-10 10v10h-20v-10c0-5-5-10-10-10h-10v-10a30 30 0 0160 0v10z"/></svg>