<svg viewBox="0 0 512 512" xmlns="http://www.w3.org/2000/svg"><path d="M128.821 118.933h5.333v21.333h-5.333z" fill="#5a5a6e"/><path d="M179.487 265.6h-32a8.002 8.002 0 01-5.657-2.343l-8-8a8 8 0 1111.314-11.313l5.656 5.657h28.687a8 8 0 010 15.999z" fill="#f0915a"/><path d="M187.487 321.6h56v-80h-56a8 8 0 00-8 8v64a8 8 0 008 8z" fill="#32283c"/><path d="M171.487 257.6h-24a8 8 0 00-8 8H126.8l-13.656-13.657a8 8 0 00-11.314 11.313l16 16a8.002 8.002 0 005.657 2.343h56v-16a8 8 0 00-8-7.999z" fill="#fab991"/><path d="M222.154 49.6c-27.982 0-50.667 22.684-50.667 50.667V161.6c0 17.673 14.327 32 32 32h136v-96c0-26.51-21.49-48-48-48z" fill="#5a5a6e"/><path d="M267.487 225.6h-48c-8.837 0-16-7.163-16-16v-112h64z" fill="#f06423"/><path d="M435.487 449.6c0-8.189-3.124-16.379-9.373-22.627l-54.627-54.627V321.6h-112c-8.837 0-16-7.163-16-16v18.746l-38.627 38.627a31.997 31.997 0 00-9.373 22.627v64c-17.673 0-32 14.327-32 32 0 8.836 7.164 16 16 16h240c8.837 0 16-7.163 16-16z" fill="#32283c"/><path d="M371.487 321.6h-112c-8.837 0-16-7.163-16-16v-112c0-17.673 14.327-32 32-32h96z" fill="#463c4b"/><path d="M443.487 97.6h-64a8 8 0 00-8 8v56c-17.673 0-32 14.327-32 32s14.327 32 32 32h48c17.673 0 32-14.327 32-32v-88a8 8 0 00-8-8z" fill="#5a5a6e"/><path d="M435.487 449.6c0-8.189-3.124-16.379-9.373-22.627l-54.627-54.627V305.6c0-17.673-14.327-32-32-32s-32 14.327-32 32v80a31.996 31.996 0 009.373 22.627l41.373 41.373h-2.746c-17.673 0-32 14.327-32 32 0 8.836 7.164 16 16 16h80c8.836 0 16-7.164 16-16z" fill="#463c4b"/><path d="M371.487 33.6v16h-12a4 4 0 00-4 4c0 6.627 5.373 12 12 12h4c0 8.836 7.164 16 16 16v16h32v-64z" fill="#f0915a"/><path d="M403.487 17.6h-32a8 8 0 000 16h32v32c0 8.837 7.164 16 16 16v-48c0-8.837-7.163-16-16-16zm-136 160h-32c-17.673 0-32-14.327-32-32v-56c0-13.255 10.745-24 24-24h16c13.255 0 24 10.745 24 24z" fill="#fab991"/><path d="M198.154 97.6h69.333v-2.667c0-25.037-20.296-45.333-45.333-45.333-17.673 0-32 14.327-32 32v8a8 8 0 008 8zm101.333 128h-16c-8.837 0-16-7.163-16-16v-112h48v112c0 8.837-7.163 16-16 16z" fill="#f06423"/><path d="M222.154 49.6c25.037 0 45.333 20.296 45.333 45.333V177.6c0 8.837 7.163 16 16 16h16c8.837 0 16-7.163 16-16s7.163-16 16-16h8v-64c0-26.51-21.49-48-48-48z" fill="#5a5a6e"/><path d="M203.487 97.6h64v32h-64z" fill="#f0915a"/><path d="M163.487 196.267a8 8 0 000-16H99.488a8 8 0 000 16h16v12.686l-10.99 10.991a8 8 0 1011.314 11.313l13.333-13.333c.104-.104.195-.215.292-.323h6.768c.097.108.188.219.292.323l13.333 13.333a7.972 7.972 0 005.657 2.343 8 8 0 005.657-13.656l-13.333-13.333c-.104-.104-.216-.196-.324-.293v-10.05h16z" fill="#d76e28"/><circle cx="131.487" cy="161.6" fill="#faa51e" r="24"/><circle cx="131.487" cy="105.6" fill="#d73228" r="16"/><circle cx="131.487" cy="98.933" fill="#fab991" r="4"/><path d="M124.983 162.934l2.586-2.586a2 2 0 10-2.828-2.828l-2.586 2.586-2.586-2.586a2 2 0 10-2.828 2.828l2.586 2.586-2.586 2.586a2 2 0 102.828 2.828l2.586-2.586 2.586 2.586c.391.391.902.586 1.414.586s1.023-.195 1.414-.586a2 2 0 000-2.828zm18.666 0l2.586-2.586a2 2 0 10-2.828-2.828l-2.586 2.586-2.586-2.586a2 2 0 10-2.828 2.828l2.586 2.586-2.586 2.586a2 2 0 102.828 2.828l2.586-2.586 2.586 2.586c.391.391.902.586 1.414.586s1.023-.195 1.414-.586a2 2 0 000-2.828z" fill="#464646"/><path d="M72.82 141.6H62.154a4 4 0 010-8H72.82a4 4 0 010 8zm26.667 0H88.82a4 4 0 010-8h10.667a4 4 0 010 8zM80.82 160.267a4 4 0 01-4-4V145.6a4 4 0 018 0v10.667a4 4 0 01-4 4zm0-26.667a4 4 0 01-4-4v-10.667a4 4 0 018 0V129.6a4 4 0 01-4 4z" fill="#d76e28"/></svg>