<svg xmlns="http://www.w3.org/2000/svg" viewBox="0 0 980 888.2"><path d="M735 0C628.5 0 535.9 54 490 132.8 444.1 54 351.5 0 245 0 84.2 0 0 138.7 0 275.7c0 319.9 454.9 596.5 474.2 608.1 4.9 2.9 10.3 4.4 15.8 4.4s10.9-1.5 15.8-4.4C525.1 872.2 980 595.6 980 275.7 980 138.7 895.8 0 735 0zM490 821.3c-79.2-51-428.7-291.1-428.7-545.6 0-103.3 57.5-214.4 183.8-214.4 103.1 0 214.4 70.3 214.4 183.8 0 16.9 13.7 30.6 30.6 30.6 16.9 0 30.6-13.7 30.6-30.6 0-113.5 111.3-183.8 214.4-183.8 126.3 0 183.8 111.1 183.8 214.4-.1 254.2-349.8 494.5-428.9 545.6z"/><path d="M492.877 275.474v169.473" fill="none" stroke="#000"/><circle cx="870.401" cy="444.76" r="1.5"/><path d="M868.902 444.76H494.375m0 0c-.512-.112-.85-.093-1.03-.093" fill="none" stroke="#000"/><path d="M493.903 360.03v-84.188l2.809-.525c12.137-2.273 23.103-14.552 23.868-26.728 1.81-28.814 3.395-38.545 9.054-55.586 17.537-52.803 64.557-96.39 127.447-118.14 35.282-12.203 76.23-16.214 109.477-10.725 54.48 8.994 97.967 41.726 124.585 93.774 25.468 49.797 33.476 110.277 22.537 170.197-5.969 32.694-18.704 69.8-35.392 103.13-4.058 8.102-6.404 11.988-7.348 12.168-.763.146-85.908.388-189.212.538l-187.825.274z" fill="red"/><path d="M465.587 803.84c-116.014-78.742-220.439-172.385-291.34-261.257-49.526-62.08-87.469-133.421-102.442-192.62-26.537-104.916 5.037-211.478 76.905-259.55 29.155-19.5 57.173-27.409 97.03-27.386 49.1.027 92.046 12.883 132.129 39.553 48.401 32.206 76.303 78.764 80.537 134.391.744 9.77 2.483 19.992 3.865 22.715 3.855 7.595 13.429 14.679 21.606 15.986l7.38 1.18v168.841h189.077c103.991 0 189.076.488 189.076 1.083 0 2.156-16.007 28.554-30.145 49.714-56.886 85.143-146.824 175.353-259.584 260.367-28.014 21.122-66.661 48.521-84.933 60.215-4.967 3.179-5.017 3.156-29.161-13.231z" fill="none"/><path d="M463.662 802.839C377.13 743.513 309.4 687.49 244.555 621.607c-46.417-47.161-75.143-81.692-104.407-125.508-40.417-60.516-63.408-113.73-74.006-171.29-3.432-18.64-4.79-59.636-2.611-78.832 8.714-76.783 46.555-138.251 102.307-166.185 12.773-6.4 34.03-13.068 49.433-15.508 19.028-3.014 54.72-2.037 75.107 2.056 45.502 9.133 86.811 30.334 116.509 59.794 15.724 15.598 21.829 23.417 31.624 40.5 11.262 19.64 20.205 51.983 20.22 73.122.009 13.145 2.317 19.37 10.048 27.101 5.962 5.962 8.012 7.131 15.058 8.586l8.157 1.685v168.418h188.162c103.489 0 188.473.505 188.854 1.121 1.037 1.679-14.966 28.684-31.263 52.757-29.86 44.107-58.534 77.959-108.272 127.827-55.612 55.757-109.426 101.476-176.286 149.766-16.603 11.992-57.517 40.21-62.034 42.783-.827.471-13.198-7.161-27.493-16.961z" fill="none"/><path d="M463.662 802.839C377.13 743.513 309.4 687.49 244.555 621.607c-46.417-47.161-75.143-81.692-104.407-125.508-40.417-60.516-63.408-113.73-74.006-171.29-3.432-18.64-4.79-59.636-2.611-78.832 8.714-76.783 46.555-138.251 102.307-166.185 12.773-6.4 34.03-13.068 49.433-15.508 19.028-3.014 54.72-2.037 75.107 2.056 45.502 9.133 86.811 30.334 116.509 59.794 15.724 15.598 21.829 23.417 31.624 40.5 11.262 19.64 20.205 51.983 20.22 73.122.009 13.145 2.317 19.37 10.048 27.101 5.962 5.962 8.012 7.131 15.058 8.586l8.157 1.685v168.418h188.162c103.489 0 188.473.505 188.854 1.121 1.037 1.679-14.966 28.684-31.263 52.757-29.86 44.107-58.534 77.959-108.272 127.827-55.612 55.757-109.426 101.476-176.286 149.766-16.603 11.992-57.517 40.21-62.034 42.783-.827.471-13.198-7.161-27.493-16.961z" fill="#fff"/></svg>