<svg xmlns="http://www.w3.org/2000/svg" viewBox="0 0 980 888.2"><path d="M465.587 803.84c-116.014-78.742-220.439-172.385-291.34-261.257-49.526-62.08-87.469-133.421-102.442-192.62-26.537-104.916 5.037-211.478 76.905-259.55 29.155-19.5 57.173-27.409 97.03-27.386 49.1.027 92.046 12.883 132.129 39.553 48.401 32.206 76.303 78.764 80.537 134.391.744 9.77 2.483 19.992 3.865 22.715 3.855 7.595 13.429 14.679 21.606 15.986l7.38 1.18v168.841h189.077c103.991 0 189.076.488 189.076 1.083 0 2.156-16.007 28.554-30.145 49.714-56.886 85.143-146.824 175.353-259.584 260.367-28.014 21.122-66.661 48.521-84.933 60.215-4.967 3.179-5.017 3.156-29.161-13.231z" fill="none"/><path d="M463.662 802.839C377.13 743.513 309.4 687.49 244.555 621.607c-46.417-47.161-75.143-81.692-104.407-125.508-40.417-60.516-63.408-113.73-74.006-171.29-3.432-18.64-4.79-59.636-2.611-78.832 8.714-76.783 46.555-138.251 102.307-166.185 12.773-6.4 34.03-13.068 49.433-15.508 19.028-3.014 54.72-2.037 75.107 2.056 45.502 9.133 86.811 30.334 116.509 59.794 15.724 15.598 21.829 23.417 31.624 40.5 11.262 19.64 20.205 51.983 20.22 73.122.009 13.145 2.317 19.37 10.048 27.101 5.962 5.962 8.012 7.131 15.058 8.586l8.157 1.685v168.418h188.162c103.489 0 188.473.505 188.854 1.121 1.037 1.679-14.966 28.684-31.263 52.757-29.86 44.107-58.534 77.959-108.272 127.827-55.612 55.757-109.426 101.476-176.286 149.766-16.603 11.992-57.517 40.21-62.034 42.783-.827.471-13.198-7.161-27.493-16.961z" fill="none"/><path d="M463.662 802.839C377.13 743.513 309.4 687.49 244.555 621.607c-46.417-47.161-75.143-81.692-104.407-125.508-40.417-60.516-63.408-113.73-74.006-171.29-3.432-18.64-4.79-59.636-2.611-78.832 8.714-76.783 46.555-138.251 102.307-166.185 12.773-6.4 34.03-13.068 49.433-15.508 19.028-3.014 54.72-2.037 75.107 2.056 45.502 9.133 86.811 30.334 116.509 59.794 15.724 15.598 21.829 23.417 31.624 40.5 11.262 19.64 20.205 51.983 20.22 73.122.009 13.145 2.317 19.37 10.048 27.101 5.962 5.962 8.012 7.131 15.058 8.586l8.157 1.685v168.418h188.162c103.489 0 188.473.505 188.854 1.121 1.037 1.679-14.966 28.684-31.263 52.757-29.86 44.107-58.534 77.959-108.272 127.827-55.612 55.757-109.426 101.476-176.286 149.766-16.603 11.992-57.517 40.21-62.034 42.783-.827.471-13.198-7.161-27.493-16.961z" fill="#fff"/><path d="M735 0C628.5 0 535.9 54 490 132.8 444.1 54 351.5 0 245 0 84.2 0 0 138.7 0 275.7c0 319.9 454.9 596.5 474.2 608.1 4.9 2.9 10.3 4.4 15.8 4.4s10.9-1.5 15.8-4.4C525.1 872.2 980 595.6 980 275.7 980 138.7 895.8 0 735 0zM490 821.3c-79.2-51-428.7-291.1-428.7-545.6 0-103.3 57.5-214.4 183.8-214.4 103.1 0 214.4 70.3 214.4 183.8 0 16.9 13.7 30.6 30.6 30.6 16.9 0 30.6-13.7 30.6-30.6 0-113.5 111.3-183.8 214.4-183.8 126.3 0 183.8 111.1 183.8 214.4-.1 254.2-349.8 494.5-428.9 545.6z"/><path d="M492.877 275.474v169.473" fill="none" stroke="#000"/><circle cx="870.401" cy="444.76" r="1.5"/><path d="M492.877 444.947H108.178" fill="none" stroke="#000"/><path d="M471.155 808.247c-99.69-67.03-191.83-145.377-260.226-221.272-39.38-43.7-75.677-93.347-97.136-132.868l-4.468-8.229 192.208-.237 192.208-.238.248-84.66.248-84.662 5.867-1.818c4.776-1.48 6.929-2.879 11.584-7.526 7.517-7.502 8.739-11.142 9.813-29.224 2.543-42.807 17.718-77.031 47.904-108.04 32.816-33.71 76.645-55.835 128.058-64.642 14.747-2.527 45.096-3.486 59.293-1.875 59.139 6.71 105.194 39.186 134.02 94.503 33.155 63.627 36.416 142.63 9.16 221.982-9.84 28.645-26.033 63.61-29.46 63.61-1.91 0-2.596 2.265-.987 3.26 1.4.865-14.464 28.037-29.323 50.23-57.73 86.222-151.77 179.917-266.937 265.954-31.388 23.448-80.807 57.768-83.184 57.768-.56 0-9.06-5.407-18.89-12.016z" fill="red"/></svg>