<svg viewBox="0 0 512 512" xmlns="http://www.w3.org/2000/svg"><path d="M468.936 243.397c55.678-55.678 55.678-145.961 0-201.639s-145.961-55.678-201.639 0c-47.433 47.433-54.44 119.975-21.051 174.846L1.234 461.617l47.843 47.843 28.793-28.793 31.261 31.261 44.251-44.251-31.261-31.261 45.828-45.828 31.261 31.261 44.251-44.251-31.261-31.261 81.89-81.89c54.871 33.39 127.413 26.383 174.846-21.05zm-96.132-105.508c-14.347-14.347-14.34-37.604.007-51.951 14.34-14.34 37.597-14.347 51.944 0s14.34 37.604 0 51.944c-14.347 14.347-37.603 14.355-51.951.007z" fill="#fbe200"/><path d="M294.089 264.447l-81.89 81.89 31.261 31.261-44.251 44.251-31.261-31.261-45.828 45.828 31.261 31.261-44.251 44.251-31.26-31.261-28.793 28.793-23.921-23.921L372.805 137.89c14.347 14.347 37.604 14.34 51.951-.007 14.34-14.34 14.347-37.597 0-51.944l44.18-44.18c55.678 55.678 55.678 145.961 0 201.639-47.433 47.432-119.975 54.439-174.847 21.049z" fill="#febf01"/></svg>