<svg height="512" viewBox="0 0 64 64" width="512" xmlns="http://www.w3.org/2000/svg"><path d="M24.414 50.586A2 2 0 0125.828 50h13.1a3.925 3.925 0 002-.54L56.45 40.5a3.006 3.006 0 001.1-4.1 2.932 2.932 0 00-1.25-1.17 3 3 0 00-2.85.07l-11.64 6.72a2.814 2.814 0 01-.69 1.1A2.993 2.993 0 0139 44a2.993 2.993 0 002.12-.88 2.814 2.814 0 00.69-1.1 2.776 2.776 0 00.18-1.32 2.955 2.955 0 00-.99-1.95 3.062 3.062 0 00-2.01-.75h-8.162a2 2 0 01-1.414-.586l-.244-.244A4 4 0 0026.345 36H18.66c-.13 0-.26.01-.4.02a3.989 3.989 0 00-2.43 1.15L12.5 40.5l11 11z" fill="#ffbcab"/><path d="M25 53l-1.5-1.5-11-11-1.64-1.64L3 47v14h14z" fill="#006df0"/><path d="M17 5h44v26H17z" fill="#5eac24"/><path d="M57 11.92v12.16A7.867 7.867 0 0054.08 27H23.92A7.724 7.724 0 0021 24.08V11.92A7.724 7.724 0 0023.92 9h30.16A7.724 7.724 0 0057 11.92z" fill="#91dc5a"/><circle cx="39" cy="18" fill="#f1f2f2" r="9"/><path d="M59 5h2v26h-2z" fill="#559b20"/><path d="M56.751 34.337a4 4 0 00-3.8.1l-10.037 5.79A3.967 3.967 0 0041.656 38a4.056 4.056 0 00-2.666-1h-8.162a1.009 1.009 0 01-.707-.293l-.244-.244A4.961 4.961 0 0026.346 35H18.66c-.149 0-.3.01-.5.025a5 5 0 00-3.038 1.438L12.5 39.086l-.933-.933a1.029 1.029 0 00-.715-.293 1 1 0 00-.711.3L2.28 46.305A1.006 1.006 0 002 47v14a1 1 0 001 1h14a1 1 0 00.707-.293l8-8a1 1 0 000-1.414l-.793-.793.207-.207a1.009 1.009 0 01.707-.293h13.1a4.93 4.93 0 002.5-.674l15.52-8.96a3.962 3.962 0 002-3.466 4.012 4.012 0 00-.534-2 3.921 3.921 0 00-1.663-1.563zM16.586 60H4V47.4l6.873-7.117L23.586 53zM55.95 39.634L40.421 48.6a2.935 2.935 0 01-1.491.4h-13.1a2.978 2.978 0 00-2.121.879l-.207.207-9.588-9.586 2.623-2.623a2.987 2.987 0 011.808-.86c.11-.009.213-.017.315-.017h7.686a2.977 2.977 0 012.117.877l.244.244a2.978 2.978 0 002.121.879h8.162a2.053 2.053 0 011.345.5 1.965 1.965 0 01.659 1.288 1.871 1.871 0 01-.134.92 1.81 1.81 0 01-.447.708A1.986 1.986 0 0139 43h-6.58a1 1 0 000 2H39a3.979 3.979 0 002.828-1.173 3.846 3.846 0 00.78-1.113l11.338-6.546a2.009 2.009 0 011.913-.04 1.926 1.926 0 01.824.77 2.025 2.025 0 01.267 1 1.983 1.983 0 01-1 1.736zM61 4H17a1 1 0 00-1 1v26a1 1 0 001 1h44a1 1 0 001-1V5a1 1 0 00-1-1zm-1 26H18V6h42z"/><path d="M20.508 24.951a6.725 6.725 0 012.541 2.541 1 1 0 00.871.508h30.16a1 1 0 00.869-.5 6.864 6.864 0 012.551-2.553 1 1 0 00.5-.867V11.92a1 1 0 00-.508-.871 6.734 6.734 0 01-2.542-2.541A1 1 0 0054.08 8H23.92a1 1 0 00-.87.508 6.734 6.734 0 01-2.542 2.541 1 1 0 00-.508.871v12.16a1 1 0 00.508.871zM31 18a8 8 0 118 8 8.009 8.009 0 01-8-8zm22.52-8A8.718 8.718 0 0056 12.48v11.043A8.882 8.882 0 0053.522 26h-8.548a9.961 9.961 0 000-16zM22 12.48A8.718 8.718 0 0024.48 10h8.546a9.961 9.961 0 000 16H24.48A8.731 8.731 0 0022 23.52z"/><path d="M39 15a1 1 0 011 1 1 1 0 002 0 3 3 0 00-2-2.816V12a1 1 0 00-2 0v1.184A2.993 2.993 0 0039 19a1 1 0 11-1 1 1 1 0 00-2 0 3 3 0 002 2.816V24a1 1 0 002 0v-1.184A2.993 2.993 0 0039 17a1 1 0 010-2zm12 4h2a1 1 0 000-2h-2a1 1 0 000 2zm-26 0h2a1 1 0 000-2h-2a1 1 0 000 2z"/></svg>