<svg xmlns="http://www.w3.org/2000/svg" viewBox="0 0 511.359 511.359"><path d="M418.133 134.588v307.2a8.533 8.533 0 01-8.533 8.533H264.533a8.533 8.533 0 00-8.533 8.533v17.067a8.533 8.533 0 01-8.533 8.533H179.2a8.533 8.533 0 01-8.533-8.533v-17.067a8.533 8.533 0 00-8.533-8.533H17.067a8.533 8.533 0 01-8.533-8.533v-307.2a8.533 8.533 0 018.533-8.533h25.6l375.466 8.533z" fill="#c52828"/><path d="M213.333 117.521v307.2c-2.816-.683-5.632-1.365-8.533-2.048a75.739 75.739 0 00-4.267-.853c-4.181-.939-8.448-1.707-12.8-2.475A950.63 950.63 0 0051.029 407.74a8.465 8.465 0 01-8.363-8.533V109.073a8.533 8.533 0 015.291-7.936h.256a7.319 7.319 0 013.072-.597 891.065 891.065 0 01149.248 14.165c1.451.256 2.901.512 4.267.853 2.901.598 5.717 1.281 8.533 1.963zM384 109.073v290.133a8.465 8.465 0 01-8.363 8.533c-24.491.427-97.963 2.56-153.771 14.933-2.901.683-5.717 1.365-8.533 2.048v-307.2c2.816-.683 5.632-1.365 8.533-1.963a873.192 873.192 0 01153.515-15.019 8.474 8.474 0 018.619 8.535z" fill="#fff"/><path d="M352.469 179.857l-28.715 28.373a44.186 44.186 0 01-36.181 11.264l-21.163-2.816 67.115-64.299 18.944 27.478z" fill="#35495e"/><path d="M502.869 26.983l-.085.085c-18.432 40.363-30.976 96.427-60.416 125.867-55.125 55.125-97.792 54.869-118.357 49.835h-.085c-1.109-.256-2.048-.597-2.987-.853a62.396 62.396 0 01-7.595-2.816c-.683-.341-1.28-.597-1.707-.853-.768-.427-1.195-.683-1.195-.683s-3.669-22.528 11.947-57.856a229.973 229.973 0 0133.877-53.333c29.867-36.011 72.277-50.261 103.765-55.893 1.536-.256 3.072-.512 4.523-.768a200.3 200.3 0 0138.315-2.732z" fill="#607d8b"/><path d="M17.067 458.855h145.067v17.067c0 9.426 7.641 17.067 17.067 17.067h68.267c9.426 0 17.067-7.641 17.067-17.067v-17.067H409.6c9.426 0 17.067-7.641 17.067-17.067v-263.27a265.54 265.54 0 0021.751-19.558c21.734-21.726 34.295-55.748 46.447-88.653 5.248-14.225 10.24-27.657 15.753-39.723a8.02 8.02 0 00.307-.981c.068-.196.137-.375.188-.58a8.748 8.748 0 00.213-2.825c0-.171-.068-.341-.094-.521a8.534 8.534 0 00-.853-2.688c0-.06 0-.137-.068-.205v-.051l-.06-.128a8.532 8.532 0 00-1.903-2.116 6.631 6.631 0 00-.495-.384 8.505 8.505 0 00-2.56-1.271c-.111 0-.222 0-.333-.06a8.694 8.694 0 00-1.553-.273c-3.959-.247-98.133-4.386-153.643 62.447a336.57 336.57 0 00-9.609 12.22 728.904 728.904 0 00-126.822 15.599C157.372 95.164 81.63 92.553 51.388 92.015a17.332 17.332 0 00-12.186 4.873 16.931 16.931 0 00-5.069 12.194v8.439H17.067C7.641 117.521 0 125.162 0 134.588v307.2c0 9.426 7.641 17.067 17.067 17.067zm419.285-311.962c-55.202 55.194-95.684 52.113-112.589 47.07 52.454-69.35 125.005-121.873 161.084-145.562a1326.274 1326.274 0 00-5.973 16.026c-11.529 31.147-23.433 63.385-42.522 82.466zm-134.647 48.512c.128 2.014.307 3.277.35 3.567a8.52 8.52 0 001.246 3.191c.737.785 1.47 1.573 2.202 2.364.08.048.162.09.247.128.051 0 .085.102.137.137 1.48.876 3.01 1.666 4.582 2.364a35.93 35.93 0 01-21.769 3.883l-3.268-.435 16.273-15.199zm61.098-103.552c30.857-37.163 76.484-49.886 107.11-54.195a697.774 697.774 0 00-148.48 131.678 189.562 189.562 0 0141.37-77.483zm-59.136 78.652c-.295.152-.58.323-.853.512l-42.24 39.424a8.532 8.532 0 004.694 14.695l21.094 2.807c2.428.347 4.878.521 7.33.521a52.712 52.712 0 0035.84-13.978l1.809-1.707c3.582.477 7.19.722 10.803.734a104.338 104.338 0 0033.28-5.717l.06 191.394a900.581 900.581 0 00-153.617 14.797V124.348a691.925 691.925 0 01106.249-13.449 178.075 178.075 0 00-24.449 59.606zM204.8 124.348v289.638a900.375 900.375 0 00-153.6-14.78l-.051-272.879c0-.094.051-.179.051-.273s-.051-.179-.051-.273v-16.7c22.528.368 98.116 2.586 153.651 15.267zm-187.733 10.24h17.067v264.619c.021 9.288 7.448 16.863 16.734 17.067 23.433.375 104.252 2.688 160.427 16.725a8.207 8.207 0 002.022.247h.102a8.298 8.298 0 002.022-.247c56.141-14.037 136.96-16.35 160.427-16.725 9.286-.204 16.713-7.779 16.734-17.067v-198.52a167.94 167.94 0 0017.067-9.719v250.82H264.533c-9.426 0-17.067 7.641-17.067 17.067v17.067H179.2v-17.067c0-9.426-7.641-17.067-17.067-17.067H17.067v-307.2z"/></svg>