<svg xmlns="http://www.w3.org/2000/svg" viewBox="0 0 480 480"><path d="M424 472H56c-26.51 0-48-21.49-48-48V8h400v40h64v376c0 26.51-21.49 48-48 48z" fill="#ffd782"/><path d="M408 416a8 8 0 01-8-8V8a8 8 0 0116 0v400a8 8 0 01-8 8zm32 0a8 8 0 01-8-8V48a8 8 0 0116 0v360a8 8 0 01-8 8zM56 56h96v160H56V56zm192 224h112v128H248V280zM360 64H200a8 8 0 010-16h160a8 8 0 010 16zm0 32H200a8 8 0 010-16h160a8 8 0 010 16zm0 32H200a8 8 0 010-16h160a8 8 0 010 16zm0 32H200a8 8 0 010-16h160a8 8 0 010 16zm0 32H200a8 8 0 010-16h160a8 8 0 010 16zm0 32H200a8 8 0 010-16h160a8 8 0 010 16zm-240 64H56a8 8 0 010-16h64a8 8 0 010 16zm96 0h-64a8 8 0 010-16h64a8 8 0 010 16zm-96 32H56a8 8 0 010-16h64a8 8 0 010 16zm96 0h-64a8 8 0 010-16h64a8 8 0 010 16zm-96 32H56a8 8 0 010-16h64a8 8 0 010 16zm96 0h-64a8 8 0 010-16h64a8 8 0 010 16zm-96 32H56a8 8 0 010-16h64a8 8 0 010 16zm96 0h-64a8 8 0 010-16h64a8 8 0 010 16z" fill="#d3843d"/></svg>