<svg xmlns="http://www.w3.org/2000/svg" viewBox="0 0 472 472"><path d="M100 216h-8a16 16 0 00-16 16v8c0 22 18 40 40 40h8a16 16 0 0016-16v-8c0-22-18-40-40-40z" fill="#33bc00"/><path d="M148 216h-8a16 16 0 00-16 16v8c0 22 18 40 40 40h8a16 16 0 0016-16v-8c0-22-18-40-40-40z" fill="#79d60d"/><path d="M84 264h-8a16 16 0 00-16 16v8c0 22 18 40 40 40h8a16 16 0 0016-16v-8c0-22-18-40-40-40z" fill="#025902"/><path d="M132 264h-8a16 16 0 00-16 16v8c0 22 18 40 40 40h8a16 16 0 0016-16v-8c0-22-18-40-40-40z" fill="#008100"/><path d="M180 264h-8a16 16 0 00-16 16v8c0 22 18 40 40 40h8a16 16 0 0016-16v-8c0-22-18-40-40-40z" fill="#33bc00"/><path fill="#008100" d="M292.4 205.5l8-24 15.2 5-8 24-15.2-5zm32 0l8-24 15.2 5-8 24-15.2-5zm32 0l8-24 15.2 5-8 24-15.2-5z"/><path d="M300 200a24 24 0 00-24 24v40h48v-40a24 24 0 00-24-24z" fill="#f80"/><path d="M332 200a24 24 0 00-24 24v40h48v-40a24 24 0 00-24-24z" fill="#ff6536"/><path d="M364 200a24 24 0 00-24 24v40h48v-40a24 24 0 00-24-24z" fill="#ff421d"/><path d="M260 256h144v64H260v-64z" fill="#ffa900"/><path d="M444 328H28V136h16v176h384V136h16v192z" fill="#763a02"/><path fill="#de0418" d="M212 0h48v112h-48V0zm-48 112V0h-35.6L116 112h48z"/><path fill="#fbbf00" d="M164 0h48v112h-48V0zm-48 112L128.4 0H93L68 112h48zm288 0L379.1 0h-35.5L356 112h48z"/><path fill="#de0418" d="M92.9 0H68L20 96v16h48L92.9 0zM356 112L343.6 0H308v112h48z"/><path d="M260 0h48v112h-48V0z" fill="#fbbf00"/><path d="M404 0h-24.9L404 112h48V96L404 0z" fill="#de0418"/><path d="M20 112v24a24 24 0 1048 0v-24H20z" fill="#ff421d"/><path d="M68 112v24a24 24 0 1048 0v-24H68z" fill="#ffdb0c"/><path d="M116 112v24a24 24 0 1048 0v-24h-48z" fill="#ff421d"/><path d="M164 112v24a24 24 0 1048 0v-24h-48z" fill="#ffdb0c"/><path d="M212 112v24a24 24 0 1048 0v-24h-48z" fill="#ff421d"/><path d="M260 112v24a24 24 0 1048 0v-24h-48z" fill="#ffdb0c"/><path d="M308 112v24a24 24 0 1048 0v-24h-48z" fill="#ff421d"/><path d="M356 112v24a24 24 0 1048 0v-24h-48z" fill="#ffdb0c"/><path d="M404 136a24 24 0 1048 0v-24h-48v24z" fill="#ff421d"/><path d="M12 312h448v160H12V312z" fill="#fc0"/><path d="M284 280h96v16h-96v-16z" fill="#e47700"/><g fill="#33bc00"><path d="M294.3 362.4l24-24 11.4 11.3-24 24-11.4-11.3z"/><path d="M308 368h24v16h-24v-16z"/></g><path d="M283.3 352h-2.6a32.8 32.8 0 00-26.6 13.7l-30.4 42.5c-6.4 9-4.3 21.6 4.7 28a20.1 20.1 0 0011.7 3.8h1a20.3 20.3 0 009-2.1l47.8-24a32.7 32.7 0 0014.6-43.8 32.7 32.7 0 00-29.2-18.1z" fill="#ff6536"/><path d="M196 360h-8a16 16 0 00-16 16v8c0 31 25 56 56 56h8a16 16 0 0016-16v-8c0-31-25-56-56-56z" fill="#79d60d"/></svg>