<svg height="512" viewBox="0 0 511.977 511.977" width="512" xmlns="http://www.w3.org/2000/svg"><path d="M109.942 78.564h225.884v92.105H109.942z" fill="#e8ded8"/><path d="M342.123 134.618a1336.38 1336.38 0 00-238.479 0c-24.596 2.199-44.094 21.763-45.974 46.386a1782.15 1782.15 0 000 271.763c1.88 24.623 21.378 44.187 45.974 46.386a1336.38 1336.38 0 00238.479 0c24.596-2.199 44.094-21.763 45.974-46.386a1782.163 1782.163 0 000-271.764c-1.88-24.622-21.377-44.186-45.974-46.385z" fill="#f5f0f0"/><path d="M334.024 408.295c-1.264 16.558-14.381 29.725-30.929 31.2a899.689 899.689 0 01-160.423 0 34.13 34.13 0 01-12.996-3.854c-10.015-5.319-17.03-15.464-17.933-27.346a1200.631 1200.631 0 010-182.812c.903-11.892 7.918-22.027 17.933-27.346a34 34 0 0112.996-3.864 899.689 899.689 0 01160.423 0c16.548 1.485 29.664 14.641 30.929 31.21a1200.374 1200.374 0 010 182.812zM121.976 12.096c-20.487 1.873-36.698 18.184-38.25 38.697-.512 6.77-.977 13.54-1.398 20.309-1.015 16.334 11.921 30.153 28.286 30.153h224.54c16.365 0 29.301-13.82 28.286-30.153-.421-6.77-.886-13.54-1.398-20.31-1.552-20.514-17.763-36.824-38.25-38.697a1106.182 1106.182 0 00-201.816.001z" fill="#dd636e"/><path d="M280.639 288.763a1317.19 1317.19 0 00-21.115-.737 7.994 7.994 0 01-7.781-7.781c-.191-7.038-.434-14.076-.737-21.115-.157-3.641-2.765-6.755-6.34-7.461-14.521-2.865-29.043-2.865-43.564 0-3.575.705-6.184 3.82-6.34 7.461-.303 7.038-.547 14.076-.737 21.114a7.994 7.994 0 01-7.781 7.781c-7.038.191-14.076.435-21.114.737-3.641.157-6.755 2.765-7.461 6.34-2.865 14.522-2.865 29.043 0 43.564.705 3.575 3.82 6.184 7.461 6.34 7.038.303 14.076.547 21.114.737a7.994 7.994 0 017.781 7.781c.191 7.038.434 14.076.737 21.114.157 3.641 2.765 6.755 6.34 7.461 14.522 2.865 29.043 2.865 43.564 0 3.575-.705 6.184-3.82 6.34-7.461.303-7.038.547-14.076.737-21.114a7.994 7.994 0 017.781-7.781c7.038-.191 14.076-.434 21.115-.737 3.641-.157 6.755-2.765 7.461-6.34 2.865-14.521 2.865-29.043 0-43.564-.706-3.574-3.82-6.182-7.461-6.339z" fill="#f5f0f0"/><path d="M451.667 419.636c-9.813-10.015-22.928-15.765-36.925-16.19-5.34-.162-10.697-.284-16.06-.387 3.558-73.97 2.521-148.824-3.116-222.625-2.157-28.146-24.091-50.442-52.248-53.229v-19.387c6.81-1.574 13.002-5.111 17.931-10.357 6.756-7.192 10.278-16.969 9.663-26.821a1373.25 1373.25 0 00-1.407-20.411c-1.328-17.585-12.067-33.26-28.027-40.908a7.5 7.5 0 00-6.483 13.527c11.135 5.336 18.627 16.261 19.554 28.521.486 6.332.942 12.939 1.393 20.202.363 5.824-1.634 11.371-5.625 15.619-3.977 4.233-9.364 6.564-15.17 6.564h-224.54c-5.812 0-11.203-2.332-15.182-6.567-3.99-4.247-5.987-9.793-5.623-15.619.4-6.45.869-13.25 1.393-20.209C92.47 34.49 105.7 21.117 122.649 19.562c61.638-5.631 124.083-6.052 185.605-1.252a7.5 7.5 0 101.166-14.955c-62.36-4.866-125.659-4.439-188.138 1.269C97.01 6.852 78.066 26.031 76.238 50.23a1559.138 1559.138 0 00-1.407 20.406c-.616 9.854 2.906 19.631 9.662 26.822 4.929 5.246 11.121 8.783 17.933 10.359v19.388c-28.166 2.783-50.102 25.083-52.246 53.232-6.911 90.544-6.911 182.363 0 272.905 2.16 28.335 24.358 50.744 52.783 53.284a1350.305 1350.305 0 00120.03 5.338c29.974 0 59.919-1.002 89.676-2.996a54.107 54.107 0 0014.178 2.346c14.581.443 29.265.664 43.948.664s29.367-.221 43.948-.664c13.998-.425 27.111-6.175 36.925-16.19 9.847-10.048 15.285-23.288 15.314-37.272v-.933c-.03-13.994-5.468-27.234-15.315-37.283zM117.425 125.933v-17.179h210.893v17.18a1351.163 1351.163 0 00-210.893-.001zm-13.129 365.752c-21.091-1.884-37.561-18.49-39.161-39.484-6.853-89.786-6.853-180.836 0-270.624 1.599-20.99 18.07-37.599 39.161-39.492 78.683-7.032 158.47-7.032 237.139 0 21.091 1.893 37.566 18.503 39.174 39.494 5.603 73.351 6.623 147.75 3.067 221.267a1457.457 1457.457 0 00-41.776.233c4.234-59.159 4.105-119.067-.415-178.164-1.541-20.253-17.412-36.281-37.741-38.111a910.618 910.618 0 00-161.75 0c-20.313 1.829-36.184 17.854-37.736 38.107a1209.36 1209.36 0 00-1.057 168.901 7.5 7.5 0 0014.97-.958 1194.298 1194.298 0 011.043-166.798c.99-12.919 11.136-23.144 24.12-24.313a895.436 895.436 0 01159.07 0c12.995 1.17 23.142 11.394 24.124 24.312 4.5 58.836 4.594 118.484.306 177.392-13.993.428-27.103 6.177-36.914 16.189a53.74 53.74 0 00-9.949 14.098 895.84 895.84 0 01-136.641-1.711c-8.627-.767-16.35-5.682-20.658-13.147a7.501 7.501 0 00-12.993 7.497c6.749 11.695 18.832 19.393 32.318 20.591a910.698 910.698 0 0080.965 3.601c17.447 0 34.883-.508 52.24-1.509a53.787 53.787 0 00-.597 7.878v.909c.029 13.993 5.468 27.233 15.314 37.281.047.048.097.093.145.141-61.742 3.116-124.122 1.926-185.768-3.58zm185.31-33.859v-.877c.043-20.604 16.952-37.879 37.694-38.509a1428.57 1428.57 0 0135.992-.629v79.139a1433.143 1433.143 0 01-35.992-.629c-20.741-.632-37.651-17.907-37.694-38.495zm162.375-.015c-.043 20.604-16.952 37.879-37.694 38.509-11.947.363-23.965.567-35.994.629V417.81c12.029.062 24.047.266 35.994.629 20.742.63 37.651 17.905 37.694 38.518z"/></svg>