<svg xmlns="http://www.w3.org/2000/svg" viewBox="0 0 512.002 512.002"><path d="M480.001 53.334a20.857 20.857 0 0115.04 6.293L490.668 64l-180.48 139.52-54.187 41.813-54.187-41.813L21.334 64.001l-7.04-1.28a21.387 21.387 0 0117.707-9.387h448z" fill="#ffe451"/><path d="M495.041 59.628a20.853 20.853 0 016.293 15.04v298.667a20.853 20.853 0 01-6.293 15.04l-47.04-47.04-137.813-137.814 180.48-139.52 4.373-4.373z" fill="#ffce51"/><path d="M17.494 387.841l46.507-46.507 137.813-137.813 54.187 41.813 54.187-41.813 137.813 137.813 47.04 47.04a20.853 20.853 0 01-15.04 6.293h-224l-64 64v-64h-160a20.857 20.857 0 01-15.04-6.293l.533-.533z" fill="#ffe451"/><path d="M64.001 341.334l-46.507 46.507-.533.533a20.853 20.853 0 01-6.293-15.04V74.668a21.054 21.054 0 013.627-11.947l7.04 1.28 180.48 139.52L64.001 341.334z" fill="#ffce51"/><path d="M502.582 52.076a31.396 31.396 0 00-22.581-9.408h-448A32.001 32.001 0 005.505 56.684 31.585 31.585 0 00.001 74.668v298.667a31.15 31.15 0 009.312 22.475 31.327 31.327 0 0022.688 9.525h149.333v53.333A10.666 10.666 0 00192 469.335a10.67 10.67 0 007.541-3.125l60.875-60.875H480c17.637-.088 31.912-14.363 32-32V74.668a31.372 31.372 0 00-9.418-22.592zM256.001 231.862L38.774 64.001h434.453L256.001 231.862zM487.393 380.94a10.226 10.226 0 01-7.392 3.061h-224a10.67 10.67 0 00-7.541 3.125l-45.792 45.792v-38.251c0-5.891-4.776-10.667-10.667-10.667h-160a10.42 10.42 0 01-7.605-3.275 10.226 10.226 0 01-3.061-7.392V77.473l164.405 127.04-129.28 129.28 15.083 15.083 131.2-131.2 46.731 36.117a10.669 10.669 0 0013.035 0l46.731-36.117 131.2 131.2 15.083-15.083-129.28-129.28L490.67 77.473v295.861a10.435 10.435 0 01-3.277 7.606z" fill="#4c5b66"/></svg>