<svg xmlns="http://www.w3.org/2000/svg" viewBox="0 0 512 512"><circle cx="256" cy="256" r="256" fill="#ffd93b"/><path d="M407.68 352.848c-24.528 59.712-83.168 101.68-151.664 101.68S128.88 412.56 104.192 352.848c-2.32-5.552 1.536-12.032 7.552-13.264 96.128-17.904 192.4-17.904 288.368 0 6.016 1.232 9.872 7.712 7.568 13.264z" fill="#3e4347"/><path d="M512 256c0 141.44-114.64 256-256 256-80.48 0-152.32-37.12-199.28-95.28 43.92 35.52 99.84 56.72 160.72 56.72 141.36 0 256-114.56 256-256 0-60.88-21.2-116.8-56.72-160.72C474.8 103.68 512 175.52 512 256z" fill="#f4c534"/><g fill="#fff"><path d="M115.264 339.008c18.208 29.632 75.184 32.816 143.168 32.816 67.088 0 124.192-3.184 143.168-31.584-.512-.192-.928-.544-1.472-.656-94.816-17.696-189.904-17.824-284.864-.576z"/><ellipse cx="356.432" cy="205.264" rx="81.056" ry="81.008"/></g><ellipse cx="356.4" cy="205.264" rx="44.192" ry="44.224" fill="#3e4347"/><g fill="#fff"><ellipse transform="scale(-1) rotate(45.004 454.003 -905.989)" cx="375.333" cy="188.084" rx="11.953" ry="8.064"/><ellipse cx="155.616" cy="205.264" rx="81.056" ry="81.008"/></g><ellipse cx="155.584" cy="205.264" rx="44.192" ry="44.224" fill="#3e4347"/><ellipse transform="scale(-1) rotate(45.004 453.918 -421.252)" cx="174.516" cy="188.049" rx="11.953" ry="8.064" fill="#fff"/></svg>