<svg xmlns="http://www.w3.org/2000/svg" viewBox="0 0 512 512"><circle cx="256" cy="256" r="256" fill="#ffd93b"/><path d="M512 256c0 141.44-114.64 256-256 256-80.48 0-152.32-37.12-199.28-95.28 43.92 35.52 99.84 56.72 160.72 56.72 141.36 0 256-114.56 256-256 0-60.88-21.2-116.8-56.72-160.72C474.8 103.68 512 175.52 512 256z" fill="#f4c534"/><path d="M378.128 343.712c-14.704 58.736-62.64 106.144-122.144 105.952-59.44.208-107.456-47.216-122.08-105.952-2.576-9.968 4.432-19.52 12.336-17.408 72.448 19.152 147.12 19.152 219.568 0 7.824-2.096 14.896 7.44 12.32 17.408z" fill="#5a5f63"/><path d="M255.984 429.088c-44.832.208-84.976-32.896-101.136-79.696 66.896 15.776 135.424 15.776 202.304 0-16.208 46.816-56.384 79.92-101.168 79.696z" fill="#3e4347"/><path d="M255.984 429.088c21.024.112 40.976-7.2 57.968-19.744-.752-2.592-1.584-5.136-2.592-7.568-8.352-19.92-28.608-25.408-45.488-16.416a21.482 21.482 0 01-9.344 2.656c-3.536.208-6.96-.496-10.096-1.872-18-8.144-38.224 4.288-44.544 26.016 16.096 10.832 34.656 17.024 54.096 16.928z" fill="#e24b4b"/><g fill="#3e4347"><path d="M216.288 258.656c-5.536 0-10.4-4.048-11.248-9.68-1.84-12.096-12.672-21.216-25.168-21.216-12.512 0-23.328 9.12-25.168 21.216-.944 6.224-6.784 10.496-12.992 9.552-6.224-.944-10.496-6.768-9.552-12.992 3.52-23.136 24.032-40.592 47.712-40.592s44.192 17.44 47.712 40.592c.944 6.224-3.328 12.032-9.552 12.992a12.98 12.98 0 01-1.744.128zM368.576 258.656c-5.536 0-10.4-4.048-11.248-9.68-1.84-12.096-12.672-21.216-25.168-21.216-12.512 0-23.328 9.12-25.168 21.216-.944 6.224-6.768 10.496-12.992 9.552s-10.496-6.768-9.552-12.992c3.52-23.136 24.032-40.592 47.712-40.592s44.192 17.44 47.712 40.576c.944 6.224-3.328 12.032-9.552 12.992-.592.096-1.168.144-1.744.144zM110.352 199.904h-.736c-6.304-.032-11.36-5.168-11.328-11.472.032-6.272 5.136-11.328 11.392-11.328h.672a96.486 96.486 0 0084.688-50.144c3.024-5.52 9.952-7.552 15.472-4.512 5.52 3.024 7.536 9.952 4.512 15.472a119.287 119.287 0 01-104.672 61.984zM401.648 199.904a119.236 119.236 0 01-104.672-61.984c-3.024-5.52-1.008-12.448 4.512-15.472s12.448-1.008 15.472 4.512c17.072 31.152 49.648 50.272 85.28 50.144h.064c6.272 0 11.36 5.056 11.392 11.328.032 6.304-5.024 11.44-11.328 11.472h-.72z"/></g><path d="M120.224 325.504c-5.776 14.768-22.432 22.048-37.2 16.272s-22.048-22.432-16.272-37.2 47.424-42.4 47.424-42.4 11.824 48.56 6.048 63.328z" fill="#45cbea"/><path d="M73.664 320.112c-1.168-6.4 1.2-12.112 5.072-12.784 3.792-.576 7.904 4.048 8.896 10.448 1.088 6.304-1.28 12.032-5.152 12.688-3.776.592-7.808-3.952-8.816-10.352z" fill="#fff" opacity=".3"/><path d="M391.776 325.504c5.776 14.768 22.432 22.048 37.2 16.272s22.048-22.432 16.272-37.2-47.424-42.4-47.424-42.4-11.824 48.56-6.048 63.328z" fill="#45cbea"/><path d="M438.336 320.112c1.168-6.4-1.2-12.112-5.072-12.784-3.792-.576-7.904 4.048-8.896 10.448-1.088 6.304 1.28 12.032 5.152 12.688 3.776.592 7.808-3.952 8.816-10.352z" fill="#fff" opacity=".3"/><ellipse transform="scale(-1) rotate(27.008 1642.874 -1201.747)" cx="288.594" cy="394.528" rx="8.912" ry="4.832" fill="#fff" opacity=".2"/></svg>