<svg xmlns="http://www.w3.org/2000/svg" viewBox="0 0 512 512"><circle cx="256" cy="256" r="256" fill="#ffd93b"/><path d="M512 256c0 141.44-114.64 256-256 256-80.48 0-152.32-37.12-199.28-95.28 43.92 35.52 99.84 56.72 160.72 56.72 141.36 0 256-114.56 256-256 0-60.88-21.2-116.8-56.72-160.72C474.8 103.68 512 175.52 512 256z" fill="#f4c534"/><path d="M402.352 359.696c-26.784 53.712-82.24 90.72-146.32 90.72-63.936 0-119.248-36.752-146.048-90.176-5.392-10.496 6.736-21.408 16.688-14.944 86.544 56.256 172.832 54.912 258.976-.544 9.968-6.448 21.952 4.448 16.704 14.944z" fill="#3e4347"/><path d="M277.696 192.816c-8.688 59.04 22.592 112.48 69.92 119.456s92.672-35.2 101.36-94.256c8.656-58.88-22.592-112.48-69.92-119.456-47.328-6.96-92.704 35.36-101.36 94.256z" fill="#fff"/><circle cx="352.32" cy="236.192" r="42.832" fill="#3e4347"/><g fill="#fff"><ellipse transform="rotate(-134.999 366.997 221.511)" cx="366.996" cy="221.509" rx="14.016" ry="8.544"/><path d="M234.304 192.816c8.688 59.04-22.592 112.48-69.92 119.456s-92.672-35.2-101.36-94.256c-8.656-58.88 22.592-112.48 69.92-119.456 47.328-6.96 92.704 35.36 101.36 94.256z"/></g><circle cx="159.664" cy="236.192" r="42.832" fill="#3e4347"/><ellipse transform="rotate(-134.999 174.326 221.51)" cx="174.326" cy="221.508" rx="14.016" ry="8.544" fill="#fff"/><path d="M256.032 450.416c29.232 0 56.496-8 80.224-21.488-4.64-6.8-10.048-13.024-16.304-18.368-13.808-11.92-33.28-12.864-50.064-5.648-9.888 4.4-21.504 6.912-34.528 6.912-15.696 0-37.312-4.656-52.416 18.512-.4.608-.656 1.312-1.04 1.936 22.304 11.408 47.376 18.144 74.128 18.144z" fill="#e24b4b"/></svg>