<svg xmlns="http://www.w3.org/2000/svg" viewBox="0 0 512 512"><circle cx="256" cy="256" r="256" fill="#ffd93b"/><path d="M512 256c0 141.44-114.64 256-256 256-80.48 0-152.32-37.12-199.28-95.28 43.92 35.52 99.84 56.72 160.72 56.72 141.36 0 256-114.56 256-256 0-60.88-21.2-116.8-56.72-160.72C474.8 103.68 512 175.52 512 256z" fill="#f4c534"/><ellipse cx="170.528" cy="173.152" rx="86.88" ry="92.336" fill="#fff"/><path d="M190.864 249.328c-24.688-.304-44.736-20.784-44.784-45.744-.048-24.944 19.92-44.928 44.608-44.608 24.688.304 44.736 20.784 44.784 45.744.048 24.944-19.92 44.928-44.608 44.608z" fill="#3e4347"/><path d="M213.472 218.56c-4.544-.464-7.664-7.152-6.992-14.928.688-7.776 4.912-13.712 9.456-13.232 4.544.464 7.68 7.152 6.992 14.928-.672 7.776-4.912 13.696-9.456 13.232z" fill="#5a5f63"/><ellipse transform="rotate(-168.125 352.434 157.387)" cx="352.435" cy="157.388" rx="73.36" ry="77.968" fill="#fff"/><path d="M322.368 216.864c20.448 4.032 40.576-9.408 44.96-30.016s-8.656-40.592-29.104-44.624-40.576 9.408-44.96 30.016c-4.384 20.624 8.656 40.592 29.104 44.624z" fill="#3e4347"/><path d="M307.952 180.144c3.504 1.632 8.656-1.872 11.52-7.808 2.864-5.936 2.352-12.064-1.136-13.696-3.504-1.632-8.656 1.872-11.52 7.808-2.864 5.936-2.368 12.064 1.136 13.696z" fill="#5a5f63"/><path d="M356.416 273.328c-24.368 22.576-57.936 37.008-100.8 37.008-34.16 0-62.288-9.264-84.688-24.352-27.632 16.528-46.688 52.496-46.688 94.24 0 48.848 26.048 89.696 61.472 100.768 24.784-30.944 62.88-51.968 114.56-51.968 24.816 0 46.528 4.816 65.136 13.232 19.248-16.912 32.208-46.88 32.208-81.104 0-39.328-17.072-73.136-41.2-87.824z" fill="#3e4347"/><path d="M293.424 426.752c22.448 0 41.536 5.168 57.456 13.824.88-3.584 1.536-7.248 1.536-11.12 0-27.856-22.592-50.448-50.448-50.448-16.56 0-31.328 7.984-40.512 20.336-6.32-2.864-13.408-4.512-20.784-4.512-27.872 0-50.464 22.736-50.464 50.608 0 10.592 3.472 20.272 9.088 28.368 18.96-27.712 50.32-47.056 94.128-47.056z" fill="#e24b4b"/><g fill="#fff"><path d="M269.52 422.832c-46.368 7.872-85.28 20.24-98.992 51.296 10.432 6.32 22.064 9.952 34.432 9.952 16.24 0 31.2-6.16 43.904-16.784 17.856-14.912 42.608-19.936 65.776-12.768 4.832 1.584 9.808 2.288 14.96 2.288 16.976 0 32.544-8.944 44.512-23.584-23.856-19.184-61.872-17.648-104.592-10.4zM281.712 312.48c34.816-5.904 65.824-14.08 86.848-29.52-11.072-10.96-24.512-17.456-38.976-17.456-10.928 0-21.232 3.584-30.24 10.048-20.416 14.208-48.08 13.92-71.888 4.88-7.072-2.72-14.8-4.16-22.512-4.16-16.944 0-32.592 6.672-45.52 18.016 25.408 28.128 70.736 26.912 122.288 18.192zM323.408 397.424c-.72 3.616-7.408 5.168-15.072 3.728-7.52-1.584-13.136-5.664-12.416-9.28.72-3.616 7.552-5.312 15.072-3.728 7.52 1.424 13.136 5.664 12.416 9.28z"/></g><g fill="#3e4347"><path d="M279.264 91.856c-4.816-17.344 24.192-33.552 40.24-39.616 15.696-6.096 34.368-8.496 56.256-4.896-18.08 5.296-29.92 7.808-50.224 18.4-22.288 11.696-31.92 25.328-46.272 26.112zM247.584 83.856c-16.08-.752-25.936-10.96-40.368-18.16-13.712-7.088-28.768-13.184-46.608-17.504-18.768-4.4-25.024-4.64-43.888-6.976 18.896-4.352 29.408-5.392 45.632-4.288 20.672 1.968 39.376 7.328 52.256 13.968 14.192 6.88 33.088 17.12 32.976 32.96z"/></g></svg>