<svg xmlns="http://www.w3.org/2000/svg" viewBox="0 0 512 512"><circle cx="256" cy="256" r="256" fill="#ffd93b"/><g fill="#f4c534"><path d="M510.784 256c0 141.44-114.64 256-256 256-80.48 0-152.32-37.12-199.28-95.28 43.92 35.52 99.84 56.72 160.72 56.72 141.36 0 256-114.56 256-256 0-60.88-21.2-116.8-56.72-160.72 58.08 46.96 95.28 118.8 95.28 199.28z"/><path d="M211.632 196.336H71.664c-4.336 9.568-7.04 20.016-7.04 31.216 0 42.4 34.4 76.96 76.96 76.96s77.12-34.56 77.12-76.96c0-11.2-2.72-21.648-7.072-31.216z"/></g><path d="M92.544 196.336c-5.952 9.184-9.504 20.112-9.504 31.888 0 32.24 26.16 58.544 58.544 58.544s58.704-26.32 58.704-58.544c0-11.776-3.568-22.688-9.552-31.888H92.544z" fill="#fff"/><path d="M140.048 196.336c-4.112 5.008-6.688 11.328-6.688 18.304 0 16.016 12.992 28.992 28.992 28.992s28.992-12.992 28.992-28.992c0-6.992-2.576-13.312-6.688-18.304h-44.608z" fill="#3e4347"/><path d="M243.504 192.832c0 5.6-4.48 10.24-10.24 10.24h-183.2c-5.76 0-10.24-4.64-10.24-10.24s4.48-10.24 10.24-10.24h183.2c5.76 0 10.24 4.64 10.24 10.24zm196.8 3.504H300.336c-4.336 9.568-7.04 20.016-7.04 31.216 0 42.4 34.4 76.96 76.96 76.96s77.12-34.56 77.12-76.96c0-11.2-2.72-21.648-7.072-31.216z" fill="#f4c534"/><path d="M321.216 196.336c-5.952 9.184-9.504 20.112-9.504 31.888 0 32.24 26.16 58.544 58.544 58.544s58.704-26.32 58.704-58.544c0-11.776-3.568-22.688-9.552-31.888h-98.192z" fill="#fff"/><path d="M368.72 196.336c-4.112 5.008-6.688 11.328-6.688 18.304 0 16.016 12.976 28.992 28.992 28.992s28.992-12.992 28.992-28.992c0-6.992-2.576-13.312-6.688-18.304H368.72z" fill="#3e4347"/><path d="M472.176 192.832c0 5.6-4.48 10.24-10.24 10.24h-183.2c-5.76 0-10.24-4.64-10.24-10.24s4.48-10.24 10.24-10.24h183.2c5.76 0 10.24 4.64 10.24 10.24z" fill="#f4c534"/><path d="M362.88 416.192c-4.576-10-14.144-21.456-25.92-28.64-26.016-16.272-47.776-6.576-75.52 6.56-36.72 15.728-70.352 11.264-95.04-5.44-12.048-7.744-21.808-18.08-28.48-31.52 9.584 7.68 21.808 14.624 34.56 19.2 25.728 9.088 52.688 8.496 79.2-4.16 19.808-8.496 60.608-28.688 93.92 4.64 12.368 12.368 18.048 29.312 17.28 39.36zm-81.136-275.84c-1.36-6.48 2.8-12.864 9.28-14.224.752-.16 76.576-16.16 115.216-33.488 6.032-2.752 13.136 0 15.856 6.048 2.704 6.048 0 13.136-6.048 15.856-41.008 18.384-116.896 34.4-120.112 35.072-6.416 1.36-12.832-2.72-14.192-9.264zm-65.68 9.28c-3.216-.656-79.104-16.688-120.112-35.072-6.048-2.72-8.768-9.808-6.048-15.856 2.72-6.048 9.808-8.784 15.856-6.048 38.672 17.328 114.464 33.328 115.216 33.488 6.48 1.36 10.64 7.712 9.28 14.224-1.36 6.528-7.776 10.608-14.192 9.264z" fill="#3e4347"/></svg>