<svg xmlns="http://www.w3.org/2000/svg" viewBox="0 0 512 512"><path d="M288.114 512h31.929c7.667 0 13.883-6.215 13.883-13.883 0-7.667-6.215-13.883-13.883-13.883h-18.047v-39.849c0-7.667-6.215-13.883-13.883-13.883-7.667 0-13.883 6.215-13.883 13.883v53.732c.002 7.668 6.217 13.883 13.884 13.883zm-64.228 0h-31.929c-7.667 0-13.883-6.215-13.883-13.883 0-7.667 6.215-13.883 13.883-13.883h18.047v-39.849c0-7.667 6.215-13.883 13.883-13.883s13.883 6.215 13.883 13.883v53.732c-.002 7.668-6.217 13.883-13.884 13.883z" fill="#fadc60"/><path d="M371.603 331.185c62.629-52.1 89.209 95.974-49.147 120.42l49.147-120.42zm-231.206 0c-62.629-52.1-89.209 95.974 49.147 120.42l-49.147-120.42z" fill="#7cb777"/><path d="M288.114 430.503c-7.667 0-13.883 6.215-13.883 13.883v44.616a151.673 151.673 0 0027.764-5.939v-38.677c.001-7.668-6.214-13.883-13.881-13.883zm-64.228 0c-7.667 0-13.883 6.215-13.883 13.883v38.677a151.69 151.69 0 0027.764 5.939v-44.616c.001-7.668-6.214-13.883-13.881-13.883z" fill="#f2c42c"/><ellipse cx="256" cy="361.697" rx="120.511" ry="107.767" fill="#34925d"/><circle cx="256" cy="205.253" r="156.443" fill="#7cb777"/><path d="M342.044 249.595a7.726 7.726 0 01-7.726-7.726v-18.987a7.726 7.726 0 1115.452 0v18.987a7.726 7.726 0 01-7.726 7.726z" fill="#3a484a"/><path d="M111.935 274.086a7.73 7.73 0 01-1.932-15.209c.201-.053 20.37-5.407 43.955-20.532 31.296-20.069 53.516-46.943 66.041-79.878a7.726 7.726 0 019.968-4.475 7.726 7.726 0 014.475 9.968c-17.188 45.191-48.989 72.641-72.642 87.712-25.585 16.302-47.034 21.935-47.934 22.167a7.651 7.651 0 01-1.931.247z" fill="#506366"/><path d="M80.554 118.655c-12.952-24.182-15.17-38.897 11.584-38.897C161.477 79.759 151.289 0 256 0s94.523 79.759 163.862 79.759c26.755 0 24.537 14.714 11.585 38.897H80.554z" fill="#fadc60"/><path d="M431.446 118.655c-6.451 12.051-15.555 26.461-25.074 42.563H105.627c-9.519-16.102-18.624-30.512-25.074-42.563 24.922-3.059 37.114-6.349 37.114-6.349 30.482-7.292 48.912-26.887 63.15-42.026 19.028-20.223 32.77-34.837 75.182-34.837s56.153 14.613 75.182 34.837c14.238 15.14 32.669 34.735 63.15 42.026.001 0 12.194 3.292 37.115 6.349zm-249.878 161.22c32.766 0 42.538-35.834 45.44-58.634 1.61-12.654-6.041-24.541-17.678-27.372-6.833-1.662-15.895-2.888-27.762-2.888s-20.929 1.226-27.762 2.888c-11.637 2.831-19.289 14.718-17.678 27.372 2.902 22.8 12.674 58.634 45.44 58.634z" fill="#3a484a"/><path d="M307.747 263.157c-3.085 27.903-25.08 49.537-51.747 49.537s-48.662-21.634-51.747-49.537h103.494z" fill="#f2c42c"/><path d="M308.116 256.42c0 2.284-.123 4.527-.369 6.736-13.751 9.684-31.874 15.568-51.747 15.568s-37.996-5.885-51.747-15.568a61.046 61.046 0 01-.369-6.736c0-31.08 23.337-56.274 52.116-56.274s52.116 25.195 52.116 56.274z" fill="#fadc60"/><path d="M100.637 186.862h310.725a155.61 155.61 0 00-5.212-25.644H105.849a155.777 155.777 0 00-5.212 25.644z" fill="#34925d"/><path d="M218.891 161.218c-3.616 9.015-7.956 17.575-13.039 25.644h17.908a172.831 172.831 0 0010.685-22.901 7.702 7.702 0 00.498-2.743h-16.052z" fill="#3a484a"/></svg>