<svg height="512pt" viewBox="-61 0 512 512" width="512pt" xmlns="http://www.w3.org/2000/svg"><path d="M248.7 363.824c-5.419-1.804-8.247-7.824-8.641-12.98-.645-8.246-7.618-14.473-16.114-13.797-8.261.644-14.441 7.851-13.8 16.11L171.973 435c0 8.29 6.71 15 15 15H285c8.29 0 15-6.71 15-15a74.917 74.917 0 00-51.3-71.176zm0 0" fill="#ff9100"/><path d="M210 369.898V405c0 20.7-8.402 39.602-21.898 53.098C174.602 471.598 155.699 480 135 480c-7.8 10.2-18 18.602-30 23.7-9.3 4.198-19.2 8.3-30 8.3-8.402 0-15-8.602-15-17v-90c0-8.402 6.598-15 15-15l60-22.8 60-12.302c8.402 0 15 6.602 15 15zm0 0" fill="#f03800"/><path d="M210 369.898V405c0 20.7-8.402 39.602-21.898 53.098C174.602 471.598 155.699 480 135 480c-7.8 10.2-18 18.602-30 23.7V378.601l30-11.403 60-12.3c8.402 0 15 6.601 15 15zm0 0" fill="#cd0000"/><path d="M255 0c-8.402 0-15 6.598-15 15v135h135c8.402 0 15-6.602 15-15C390 60.598 329.398 0 255 0zm0 0" fill="#ffb64c"/><path d="M328.5 150c-6.902 34.2-37.2 60-73.5 60-8.402 0-15-6.602-15-15v-45zm0 0" fill="#ff9100"/><path d="M180 15l-75 71.398-30 28.5c-1.5 0-3.3-.296-4.8-.898C28.2 99.3 0 59.398 0 15 0 6.598 6.598 0 15 0h150c8.402 0 15 6.598 15 15zm0 0" fill="#f03800"/><path d="M180 15l-75 71.398V0h60c8.402 0 15 6.598 15 15zm0 0" fill="#cd0000"/><path d="M270 135v150c0 57.898-47.102 105-105 105h-22.8c-8.4 0-15-6.602-15-15-.302-1.5-1.802-6-3.598-12.602L120.3 350.7c-2.703-9.898-5.7-21-8.403-30.898L105 327l-75-80.102V225c0-24.3 12-45.902 30-59.7V105c0-35.398 17.7-66.902 45-85.8C121.8 6.897 142.8 0 165 0h30v15c-16.8 0-33 7.2-44.398 19.8-11.7 12.9-17.102 29.4-15.301 46.5 3 30 31.199 53.7 64.199 53.7zm0 0" fill="#ff641a"/><path d="M270 135v150c0 57.898-47.102 105-105 105h-22.8c-8.4 0-15-6.602-15-15-.302-1.5-1.802-6-3.598-12.602L120.3 350.7c-2.703-9.898-5.7-21-8.403-30.898-3.597-12.903-6.597-23.403-6.898-24.301V19.2C121.8 6.897 142.8 0 165 0h30v15c-16.8 0-33 7.2-44.398 19.8-11.7 12.9-17.102 29.4-15.301 46.5 3 30 31.199 53.7 64.199 53.7zm0 0" fill="#f03800"/><path d="M180 282.898V315c0 47.398-31.8 87.598-75 100.5-9.602 3-19.5 4.5-30 4.5H45c-8.402 0-15-6.602-15-15V283.2l75 29.698zm0 0" fill="#4bb9ec"/><path d="M180 282.898V315c0 47.398-31.8 87.598-75 100.5V312.898zm0 0" fill="#0095ff"/><path d="M270 150h-70.563c-39.226 0-75.05-28.137-79.035-67.16C115.82 37.988 151.062 0 195 0h60c8.285 0 15 6.715 15 15zm0 0" fill="#deecf1"/><path d="M210 75c0 8.285-6.715 15-15 15s-15-6.715-15-15 6.715-15 15-15 15 6.715 15 15zm0 0" fill="#714c2f"/><path d="M180 246.898v36l-66.598 44.7C110.7 329.098 108 330 105 330s-5.7-.902-8.402-2.402L30 283.199v-36.3l75 50.097zm0 0" fill="#ffd396"/><path d="M180 246.898v36l-66.598 44.7C110.7 329.098 108 330 105 330v-33zm0 0" fill="#ffb64c"/></svg>