<svg viewBox="0 0 512 512" xmlns="http://www.w3.org/2000/svg"><path d="M448.362 63.64L384.722 0l-74.246 74.247 53.034 137.886z" fill="#ff3e3a"/><path d="M448.362 63.64L331.69 180.313l106.066 21.213 74.246-74.246z" fill="#cc3245"/><path d="M34.216 406.504L0 512.001l112.284-69.856z" fill="#373e9f"/><path d="M.002 512.001l105.497-34.215-14.428-56.854z" fill="#340d66"/><path d="M188.374 366.055L61.095 323.629l-26.879 82.875 35.641 35.641z" fill="#ffe7b5"/><path d="M69.857 442.145l35.642 35.641 82.874-26.878-21.213-106.066z" fill="#ffd06a"/><path d="M124.734 387.269l63.639 63.639 249.383-249.382-63.64-63.639-166.169 81.316z" fill="#ff9a27"/><path d="M61.071 323.614L310.415 74.27l63.63 63.63-249.344 249.344z" fill="#ffb820"/></svg>