<svg xmlns="http://www.w3.org/2000/svg" viewBox="0 0 512 512"><path fill="#fecd57" d="M348 355.297L244 422l-27 78.156h180L406 451z"/><path fill="#f5ba45" d="M492 500.156L458 422l-96.672-59.328 49.344 90.656L402 506z"/><path fill="#a9b1bc" d="M466.672 264.016l-44-81.5L341.344 102l-68-43.984-98.719-32.672 243.859 228 70.86 70z"/><path fill="#cbd0d8" d="M380.672 102l-84 86 36.609 20.672 85.203-85.813z"/><path fill="#965353" d="M293.328 182.516L15.984 462.297V493.5l22.672 6.656 294.625-278.703z"/><path d="M512 392.203s-.297-120.078-106.328-240.641l20.766-20.75-45.25-45.25-20.766 20.75C239.859.281 119.781 0 119.781 0s106.906 81.094 188.672 158.281L9.375 457.375c-12.5 12.5-12.5 32.75 0 45.25C15.609 508.875 23.813 512 32 512s16.375-3.125 22.625-9.375l299.078-299.094C430.906 285.313 512 392.203 512 392.203zm-73.281-159.094c14.484 24.547 26.281 50.234 35.109 76.391-1.484-1.813-2.969-3.656-4.484-5.5-42.859-52.438-76.328-89.875-100.563-115.531l21.766-21.781c18.344 20.984 34.484 43.218 48.172 66.421zm-42.453-102.296l-30.156 30.156c4.156-4.156 4.141-10.906-.016-15.063-4.156-4.172-10.922-4.172-15.078 0-4.172 4.156-4.172 10.906 0 15.078 4.156 4.156 10.906 4.172 15.063.016l-37.688 37.688-15.094-15.078 67.891-67.891 15.078 15.094zM207.984 42.656a989.496 989.496 0 00-5.484-4.484c26.141 8.828 51.828 20.609 76.375 35.109 23.203 13.688 45.438 29.828 66.422 48.156l-21.766 21.766c-38.922-36.765-82.984-73.922-115.547-100.547zM39.531 487.531c-2.719 2.719-5.891 3.125-7.531 3.125-1.656 0-4.828-.406-7.547-3.125-4.156-4.156-4.156-10.922 0-15.078l273.766-273.766 15.078 15.094-273.766 273.75z"/><path d="M350.938 341.328l-113.234 73.141L192 512h320l-45.719-97.531-115.343-73.141zm-96.516 87.735l89.609-57.875 53.031 84.188-7.344 35.281H225.563l28.859-61.594zm157.094 61.593l8.203-39.375-43.125-68.422 73.016 46.297 28.828 61.5h-66.922z"/></svg>