<svg viewBox="0 0 512 512" xmlns="http://www.w3.org/2000/svg"><path d="M411.424 383.611c-12.077-18.954-4.017-30.892 0-45.602s2.436-27.715-4.821-45.602c-10.444-25.743-3.661-41.264.803-62.519 8.034-38.247-14.461-64.726-14.461-64.726L256 133.646v294.429l163.213.159c4.44-15.023 1.061-30.734-7.789-44.623z" fill="#c38c66"/><path d="M100.576 383.611c12.077-18.954 4.017-30.892 0-45.602s-2.436-27.715 4.821-45.602c10.444-25.743 3.661-41.264-.803-62.519-8.034-38.247 14.461-64.726 14.461-64.726L256 133.646v294.429l-163.213.159c-4.44-15.023-1.061-30.734 7.789-44.623z" fill="#b57f5f"/><path d="M363.355 412.903l-78.668 21.455a16.515 16.515 0 00-12.17 15.934v45.192c0 9.122-7.395 16.516-16.516 16.516-9.122 0-16.516-7.395-16.516-16.516v-45.192a16.516 16.516 0 00-12.17-15.934l-78.668-21.455v74.323L198.194 512h115.613l49.548-16.516z" fill="#966a5b"/><path d="M256 355.097c-59.29 0-92-48.064-92-107.355V132.129l120.5 3.371 78.855 44.905v67.337c0 59.29-48.065 107.355-107.355 107.355z" fill="#ffe09f"/><path d="M338.581 272.516h-74.325l-8.254-8.258-8.26 8.258h-65.686L173 296.333c14.244 42.587 35.621 74.333 83 74.333 5.67 0 11.238.507 16.67-.34 51.374-8.009 90.685-52.448 90.685-106.068v-16.516c0 13.682-11.092 24.774-24.774 24.774z" fill="#966a5b"/><path d="M148.653 264.258a8.239 8.239 0 01-6.726-3.46c-2.653-3.71-1.79-8.867 1.919-11.52l173.419-123.871c3.702-2.649 8.871-1.79 11.516 1.923 2.653 3.71 1.79 8.867-1.919 11.52L153.444 262.722a8.226 8.226 0 01-4.791 1.536z" fill="#4b3f4e"/><path d="M393 95C351.71 61.968 355.097 9 256 9s-97.71 51.968-139 85c-29.881 23.905-75.98 47.874-76 103l14.054 11.455c46.877-36.368 119.454-59.81 200.946-59.81 81.486 0 154.068 23.446 200.946 59.81l17.054-9.51c-.02-55.127-51.119-80.04-81-103.945z" fill="#5d5360"/><path d="M404.645 90.839C363.355 57.806 355.097 0 256 0S148.645 57.806 107.355 90.839c-29.881 23.905-82.838 52.979-82.858 108.105-.005 13.682 16.277 20.968 26.887 12.329 1.18-.961 2.455-1.875 3.67-2.819v-6.648c.012-28.297 22.78-47.381 54.947-71.256 5.858-4.344 11.419-8.482 16.392-12.481 14.505-11.657 25.401-25.27 35.012-37.283C183.588 53.064 199.616 33.032 256 33.032s72.412 20.032 94.596 47.754c9.61 12.014 20.507 25.627 35.012 37.283 4.973 3.999 10.533 8.137 16.392 12.481 32.166 23.875 54.934 42.959 54.947 71.256v6.648c1.215.944 2.489 1.857 3.67 2.819 10.61 8.639 26.892 1.353 26.887-12.329-.021-55.126-52.978-84.201-82.859-108.105z" fill="#ffe07d"/><circle cx="210.581" cy="210.581" fill="#5d5360" r="28.903"/><path d="M155.294 411.901c-3.649-8.513-13.583-12.362-22.015-8.53l-46.428 21.103a49.547 49.547 0 00-29.045 45.107v25.902c0 9.122 7.395 16.516 16.516 16.516h123.871z" fill="#5d5360"/><circle cx="256" cy="90.839" fill="#ffe07d" r="24.774"/><path d="M256 264.258h-24.774c-13.682 0-24.774 11.092-24.774 24.774h24.774c13.682 0 24.774-11.092 24.774-24.774zm0 0h24.774c13.682 0 24.774 11.092 24.774 24.774h-24.774c-13.682 0-24.774-11.092-24.774-24.774zm16.516 49.548h-33.032c-4.565 0-8.258-3.698-8.258-8.258s3.694-8.258 8.258-8.258h33.032a8.256 8.256 0 018.258 8.258 8.255 8.255 0 01-8.258 8.258z" fill="#785353"/><path d="M305.548 239.484a8.256 8.256 0 01-8.258-8.258v-8.258a8.256 8.256 0 018.258-8.258 8.256 8.256 0 018.258 8.258v8.258a8.256 8.256 0 01-8.258 8.258z" fill="#6e4848"/><path d="M313.806 206.452H297.29c-4.565 0-8.258-3.698-8.258-8.258s3.694-8.258 8.258-8.258h16.516a8.256 8.256 0 018.258 8.258 8.255 8.255 0 01-8.258 8.258z" fill="#966a5b"/><path d="M356.706 411.901c3.648-8.513 13.583-12.362 22.015-8.53l46.427 21.103a49.547 49.547 0 0129.045 45.108v25.902c0 9.122-7.395 16.516-16.516 16.516H313.806z" fill="#5d5360"/></svg>