<svg viewBox="-42 0 512 512" xmlns="http://www.w3.org/2000/svg"><path d="M333.672 123.309c0 33.886-12.152 63.218-36.125 87.195-23.973 23.973-53.309 36.125-87.195 36.125h-.059c-33.844-.012-63.16-12.164-87.133-36.125-23.976-23.977-36.125-53.309-36.125-87.195 0-33.875 12.149-63.211 36.125-87.184C147.121 12.16 176.438.012 210.293 0h.059c33.875 0 63.21 12.152 87.195 36.125 23.973 23.973 36.125 53.309 36.125 87.184zm0 0" fill="#ffbb85"/><path d="M427.168 423.945c0 26.735-8.504 48.38-25.254 64.32C385.36 504.02 363.464 512 336.844 512H90.313c-26.622 0-48.516-7.98-65.06-23.734C8.494 472.312 0 450.672 0 423.946c0-10.282.34-20.454 1.02-30.235.69-10 2.09-20.883 4.152-32.363 2.078-11.575 4.75-22.516 7.95-32.516 3.32-10.352 7.812-20.562 13.37-30.344 5.774-10.152 12.555-18.996 20.156-26.277 7.97-7.621 17.711-13.742 28.973-18.203 11.223-4.438 23.664-6.688 36.977-6.688 5.222 0 10.28 2.137 20.03 8.489a2715.05 2715.05 0 0020.895 13.472c6.704 4.274 15.782 8.282 27.004 11.903 9.864 3.191 19.875 4.972 29.766 5.28 1.09.04 2.18.06 3.27.06 10.984 0 22.093-1.801 33.046-5.34 11.223-3.621 20.313-7.63 27.012-11.903a2683.96 2683.96 0 0020.887-13.46c9.758-6.364 14.808-8.5 20.043-8.5 13.3 0 25.742 2.25 36.972 6.687 11.262 4.46 21.004 10.594 28.965 18.203 7.614 7.281 14.395 16.125 20.164 26.277 5.563 9.79 10.063 19.992 13.371 30.332 3.204 10.012 5.883 20.953 7.961 32.535 2.051 11.493 3.453 22.375 4.141 32.348.691 9.75 1.031 19.922 1.043 30.242zm0 0" fill="#ffbe47"/><path d="M210.352 246.629h-.059V0h.059c33.875 0 63.21 12.152 87.195 36.125 23.973 23.973 36.125 53.309 36.125 87.184 0 33.886-12.152 63.218-36.125 87.195-23.973 23.973-53.309 36.125-87.195 36.125zm0 0" fill="#f5a86c"/><path d="M427.168 423.945c0 26.735-8.504 48.38-25.254 64.32C385.36 504.02 363.464 512 336.844 512H210.293V286.465c1.09.039 2.18.058 3.27.058 10.984 0 22.093-1.8 33.046-5.34 11.223-3.62 20.313-7.628 27.012-11.902a2683.96 2683.96 0 0020.887-13.46c9.758-6.364 14.808-8.5 20.043-8.5 13.3 0 25.742 2.25 36.972 6.687 11.262 4.46 21.004 10.594 28.965 18.203 7.614 7.281 14.395 16.125 20.164 26.277 5.563 9.79 10.063 19.992 13.371 30.332 3.204 10.012 5.883 20.953 7.961 32.535 2.051 11.493 3.453 22.375 4.141 32.348.691 9.75 1.031 19.922 1.043 30.242zm0 0" fill="#ff6b26"/></svg>