<svg xmlns="http://www.w3.org/2000/svg" viewBox="0 0 511.963 511.963" width="512" height="512"><path d="M255.969 469.036c-55.781 0-101-9.625-101-21.499 0 12.327.277 27.005.777 38.106 6.184 10.612 48.696 18.825 100.223 18.825s94.039-8.213 100.223-18.825c.5-11.101.777-25.779.777-38.106 0 11.874-45.219 21.499-101 21.499z" fill="#6d5248"/><path d="M179.969 461.696c-15.563-3.782-25-8.735-25-14.158 0 12.328.277 27.005.777 38.106 2.547 4.37 11.264 8.331 24.223 11.481v-35.429z" fill="#60433a"/><path d="M411.452 314.902c-18.109-124.859-139.487-99.524-75.792-239.211-42.382 9.648-116.916 9.654-159.327 0 63.695 139.687-57.683 114.352-75.792 239.211-11.371 78.403 48.99 135.636 48.99 135.636l7.012 7.685c34.837 18.372 164.052 18.381 198.907 0l7.012-7.685c-.001 0 60.361-57.233 48.99-135.636z" fill="#e83d3d"/><path d="M412.867 335.619c.172-24.591-6.676-54.372-21.828-79.25-69.399 17.25-199.283 17.531-270.384.492-15.097 25.01-21.865 54.97-21.525 79.692 66.662 25.859 250.943 25.294 313.737-.934z" fill="#f2d59f"/><path d="M121.985 414.23c13.333 22.831 27.545 36.308 27.545 36.308l7.012 7.685c34.837 18.372 164.052 18.381 198.907 0l7.012-7.685s13.686-12.985 26.797-35.046c-71.923 16.289-198.977 15.735-267.273-1.262z" fill="#f6b138"/><ellipse cx="255.996" cy="28.999" rx="106.465" ry="21.499" fill="#5e423a"/><path d="M255.996 50.497c-58.799 0-106.465-9.625-106.465-21.499 0 12.327.292 24.005.819 35.106 6.519 10.611 51.331 18.825 105.647 18.825 54.315 0 99.128-8.213 105.647-18.825.527-11.101.819-22.779.819-35.106-.002 11.874-47.668 21.499-106.467 21.499z" fill="#fc5959"/></svg>