<svg xmlns="http://www.w3.org/2000/svg" viewBox="0 0 664.885 664.885"><path d="M664.885 187.012c0-49.988-40.668-90.658-90.656-90.658-49.988 0-90.656 40.67-90.656 90.658 0 44.218 31.831 81.121 73.777 89.056l.031 25.337c-18.787 6.886-32.232 24.954-32.232 46.101v63.822c0 21.136 13.431 39.195 32.208 46.09l.015 12.961h-63.68c-20.911 0-38.799 13.151-45.856 31.612l-27.068.033a42.72 42.72 0 00-9.104-13.466l-31.288-31.293c33.392-38.177 53.657-88.115 53.657-142.7 0-119.664-97.354-217.02-217.018-217.02C97.354 97.547 0 194.901 0 314.565s97.354 217.018 217.016 217.018c33.992 0 66.177-7.863 94.85-21.854l39.313 39.311c8.077 8.079 18.82 12.527 30.244 12.527s22.165-4.45 30.24-12.527c3.537-3.537 6.333-7.604 8.41-11.995l27.801-.035c7.079 18.413 24.943 31.523 45.821 31.523h72.578c27.062 0 49.078-22.016 49.078-49.078 0-17.461-9.172-32.81-22.944-41.513l-.026-21.033c18.1-7.234 30.927-24.934 30.927-45.584v-63.822c0-20.641-12.816-38.334-30.903-45.575l-.033-26.087c41.326-8.428 72.513-45.053 72.513-88.829zM170.816 200.27c-34.594 15.073-59.742 46.072-67.265 82.923a116.711 116.711 0 00-2.344 23.316c0 9.671-7.841 17.511-17.511 17.511-9.673 0-17.511-7.841-17.511-17.511 0-10.207 1.027-20.409 3.054-30.325 9.806-48.014 42.55-88.395 87.589-108.021 8.867-3.863 19.186.193 23.049 9.058 3.861 8.868-.195 19.188-9.061 23.049zm196.11 314.99l-24.021-24.021a218.627 218.627 0 0012.38-9.533l21.749 21.749a17.536 17.536 0 00-10.108 11.805zm129.192 18.249c4.306-3.194 7.107-8.303 7.101-14.079-.007-5.757-2.804-10.848-7.096-14.033h61.292l.018 14.707c.007 5.387 2.449 10.198 6.278 13.405h-67.593zm92.166-126.447c-3.213-3.859-8.051-6.317-13.462-6.317h-.022c-6.125.007-11.503 3.163-14.626 7.928v-55.062c3.106 4.886 8.554 8.134 14.771 8.134h.022c5.341-.007 10.111-2.41 13.32-6.184v51.501h-.003zm3.815-167.378c-1.311-8.377-8.537-14.788-17.277-14.788h-.022c-8.867.011-16.169 6.617-17.314 15.169-22.52-7.123-38.89-28.211-38.89-53.053 0-30.678 24.958-55.636 55.633-55.636s55.634 24.958 55.634 55.636c0 24.426-15.831 45.21-37.764 52.672z"/></svg>