<svg xmlns="http://www.w3.org/2000/svg" viewBox="0 0 58 58"><path fill="#fff" stroke="#6c4127" stroke-width="2" stroke-linecap="round" stroke-linejoin="round" stroke-miterlimit="10" d="M29 11V1l-9 3 9 3"/><circle cx="8.5" cy="54.5" r="3.5" fill="#6c4127"/><circle cx="15.5" cy="54.5" r="3.5" fill="#be6e41"/><circle cx="22.5" cy="54.5" r="3.5" fill="#6c4127"/><circle cx="29.5" cy="54.5" r="3.5" fill="#be6e41"/><circle cx="36.5" cy="54.5" r="3.5" fill="#6c4127"/><circle cx="43.5" cy="54.5" r="3.5" fill="#be6e41"/><circle cx="50.5" cy="54.5" r="3.5" fill="#6c4127"/><path fill="#be6e41" d="M27 43h4v5h-4zm0-32.967h4v3.984h-4z"/><path d="M40.277 41.12c-.873-2.269-.958-3.335-1.277-6.12l-1-.6-.5-1.5-3.5-.5 2.5-1.5-1-2 2.719-.777c.037-4.394.719-8.763 2.057-12.243l.006-.015A1.372 1.372 0 0039.001 14H18.999c-.963 0-1.627.966-1.281 1.866l.003.007c2.755 7.162 2.755 18.092 0 25.254l-.003.007c-.346.9.317 1.866 1.281 1.866h20.002c.963 0 1.627-.966 1.281-1.866l-.005-.014z" fill="#f2ecbf" stroke="#6c4127"/><path fill="none" stroke="#6b5b4b" stroke-width="2" stroke-linecap="round" stroke-miterlimit="10" d="M5 48h48"/></svg>