<svg height="512" viewBox="0 0 36 58" width="512" xmlns="http://www.w3.org/2000/svg"><g fill="none"><path d="M36 27.35V52a6 6 0 01-6 6H6a6 6 0 01-6-6V27.35a5.994 5.994 0 012.86-5.11l8.71-5.36A3 3 0 0013 14.32V10h10v4.32a3 3 0 001.43 2.56l8.71 5.36A5.994 5.994 0 0136 27.35z" fill="#a46a43"/><rect fill="#805333" height="6" rx="1" width="14" x="11" y="5"/><path d="M15.961 19a1 1 0 01-.85-1.525 5.937 5.937 0 00.862-2.57 1 1 0 111.99.19 8.013 8.013 0 01-1.15 3.43 1 1 0 01-.852.475z" fill="#fff"/><path d="M21.93 1.37L20.48 5h-4.96l-1.45-3.63A1 1 0 0115 0h6a1 1 0 01.93 1.37z" fill="#e3bf5c"/><path d="M0 30h36v20H0z" fill="#f4eec9"/><path d="M13 36a3 3 0 00-3-3H9a2 2 0 00-2 2v6a1 1 0 002 0v-2h.465l1.7 2.555a1 1 0 101.664-1.11l-1.266-1.9A2.991 2.991 0 0013 36zm-4-1h1a1 1 0 010 2H9zm11-2a1 1 0 00-1 1v5a1 1 0 01-2 0v-5a1 1 0 00-2 0v5a3 3 0 006 0v-5a1 1 0 00-1-1zm8.034.059a1.353 1.353 0 00-1.527.547l-.507.761-.507-.761a1.361 1.361 0 00-2.493.755V41a1 1 0 002 0v-4.527l.168.252a1.039 1.039 0 001.664 0l.168-.252V41a1 1 0 002 0v-6.639c.002-.6-.39-1.13-.966-1.302z" fill="#e54c3c"/><path d="M28 46H17a1 1 0 010-2h11a1 1 0 010 2zm-15 0H8a1 1 0 010-2h5a1 1 0 010 2z" fill="#603e26"/><path d="M6 55a3 3 0 01-3-3V27.35a3.006 3.006 0 011.428-2.55l8.048-4.953a1 1 0 111.048 1.7L5.474 26.5a1 1 0 00-.474.85V52a1 1 0 001 1 1 1 0 010 2z" fill="#fff"/></g></svg>