<svg xmlns="http://www.w3.org/2000/svg" viewBox="0 0 512 512"><path d="M394.1 242.641H121.635V58.243H385.62a8.48 8.48 0 018.48 8.48v175.918z" fill="#ad755c"/><path d="M488.413 453.755H264.198V242.641h240.248v195.08c.001 8.856-7.178 16.034-16.033 16.034zm-224.215 0H138.774c-8.855 0-16.034-7.179-16.034-16.034v-195.08h141.458v211.114zM122.74 243.501l-22.006.131c-51.157.305-92.876-40.919-93.181-92.076-.305-51.158 40.919-92.876 92.076-93.182l22.006-.131 1.105 185.258z" fill="#ffe92f"/><path d="M87.983 204.036l-.893.005c-24.586.147-44.636-19.666-44.783-44.252l-.1-16.8c-.147-24.586 19.666-44.637 44.252-44.783l.893-.005.631 105.835zm66.576 67.163h80.03v150.75h-80.03zm321.144 131.359V274.442h-66.307c.089.802.143 1.614.143 2.44 0 12.131-9.834 21.964-21.964 21.964-12.131 0-21.964-9.834-21.964-21.964 0-.826.054-1.638.143-2.44h-66.307v128.284a19.573 19.573 0 012.423-.167c10.716 0 19.403 8.683 19.411 19.396h135.011c.008-10.714 8.695-19.397 19.411-19.397z" fill="#cc8b6a"/><g fill="#ff0"><path d="M449.241 242.641H330.948c-5.338 0-9.666-4.328-9.666-9.666v-26.768c0-5.338 4.328-9.666 9.666-9.666h118.294c5.338 0 9.666 4.328 9.666 9.666v26.768c-.001 5.339-4.328 9.666-9.667 9.666z"/><path d="M449.241 196.542H330.948c-5.338 0-9.666-4.328-9.666-9.666v-26.768c0-5.338 4.328-9.666 9.666-9.666h118.294c5.338 0 9.666 4.328 9.666 9.666v26.768c-.001 5.338-4.328 9.666-9.667 9.666z"/></g><path d="M449.241 150.442H330.948c-5.338 0-9.666-4.328-9.666-9.666v-26.768c0-5.338 4.328-9.666 9.666-9.666h118.294c5.338 0 9.666 4.328 9.666 9.666v26.768c-.001 5.339-4.328 9.666-9.667 9.666z" fill="#ff0"/><g fill="#ff0"><path d="M364.425 242.641H246.132c-5.338 0-9.666-4.328-9.666-9.666v-26.768c0-5.338 4.328-9.666 9.666-9.666h118.294c5.338 0 9.666 4.328 9.666 9.666v26.768c-.001 5.339-4.328 9.666-9.667 9.666z"/><path d="M364.425 196.542H246.132c-5.338 0-9.666-4.328-9.666-9.666v-26.768c0-5.338 4.328-9.666 9.666-9.666h118.294c5.338 0 9.666 4.328 9.666 9.666v26.768c-.001 5.338-4.328 9.666-9.667 9.666z"/></g><path d="M504.447 235.089h-38.131a17.13 17.13 0 00.144-2.113v-26.768c0-3.581-1.101-6.908-2.979-9.666a17.118 17.118 0 002.979-9.666v-26.768c0-3.581-1.101-6.908-2.979-9.666a17.118 17.118 0 002.979-9.666v-26.767c0-9.495-7.724-17.219-17.218-17.219h-47.589V66.724c0-8.841-7.192-16.033-16.033-16.033H181.424a7.552 7.552 0 100 15.104h204.195c.512 0 .928.416.928.928v30.066h-55.6c-9.495 0-17.218 7.724-17.218 17.219v26.768c0 .717.058 1.419.144 2.113h-67.741c-9.494 0-17.218 7.724-17.218 17.219v26.768c0 3.581 1.101 6.908 2.979 9.666a17.118 17.118 0 00-2.979 9.666v26.768c0 .717.058 1.419.144 2.113h-98.814l-1.01-169.293h19.296a7.552 7.552 0 100-15.104h-26.939l-22.006.131c-26.759.16-51.855 10.731-70.664 29.765C10.112 99.623-.159 124.843.002 151.602c.159 26.759 10.731 51.855 29.765 70.663 18.89 18.666 43.868 28.921 70.399 28.921l.615-.001 14.409-.086v186.623c0 13.005 10.58 23.586 23.585 23.586h349.639c13.005 0 23.586-10.581 23.586-23.586v-195.08a7.554 7.554 0 00-7.553-7.553zm-110.347 0h-12.6a17.13 17.13 0 00.144-2.113v-26.768c0-.717-.058-1.42-.144-2.114h13.705a7.552 7.552 0 100-15.104H381.5a17.13 17.13 0 00.144-2.113v-26.768c0-.717-.058-1.42-.144-2.114h67.741c1.165 0 2.113.948 2.113 2.114v26.768a2.116 2.116 0 01-2.113 2.113h-24.127a7.552 7.552 0 100 15.104h24.127c1.165 0 2.113.948 2.113 2.114v26.768a2.116 2.116 0 01-2.113 2.113H394.1zm-65.266-94.313v-26.767c0-1.166.948-2.114 2.113-2.114h118.294c1.165 0 2.113.948 2.113 2.114v26.768a2.116 2.116 0 01-2.113 2.113H330.947a2.116 2.116 0 01-2.113-2.114zm-84.816 19.332c0-1.165.948-2.114 2.113-2.114h118.294c1.165 0 2.113.948 2.113 2.114v26.768a2.116 2.116 0 01-2.113 2.113H246.131a2.116 2.116 0 01-2.113-2.113v-26.768zm0 72.867v-26.768c0-1.166.948-2.114 2.113-2.114h118.294c1.165 0 2.113.948 2.113 2.114v26.768a2.116 2.116 0 01-2.113 2.113H246.131a2.114 2.114 0 01-2.113-2.113zm-143.329 3.105c-22.722.13-44.141-8.586-60.307-24.559-16.165-15.973-25.141-37.285-25.277-60.01-.136-22.724 8.586-44.142 24.559-60.306 15.973-16.165 37.285-25.142 60.01-25.277l14.409-.086v170.16l-13.394.078zm396.205 201.641c0 4.676-3.805 8.481-8.482 8.481H271.751V301.86a7.552 7.552 0 10-15.104 0v144.343H138.774c-4.676 0-8.481-3.805-8.481-8.481V250.193h126.353v16.696a7.552 7.552 0 1015.104 0v-16.696h225.144v187.528z"/><path d="M92.659 92.829a7.554 7.554 0 00-5.308-2.18h-.046l-.891.005c-28.711.171-51.93 23.669-51.759 52.381l.1 16.8c.083 13.908 5.577 26.952 15.471 36.728 9.818 9.701 22.8 15.032 36.591 15.032l.321-.001.892-.005a7.553 7.553 0 007.506-7.598l-.633-105.835a7.548 7.548 0 00-2.244-5.327zm-31.817 92.989c-7.023-6.94-10.923-16.2-10.982-26.074l-.1-16.8c-.059-9.874 3.731-19.179 10.671-26.203 5.354-5.417 12.087-8.976 19.418-10.348l.534 89.541c-7.348-1.284-14.124-4.763-19.541-10.116zm173.742 77.833h-80.03a7.551 7.551 0 00-7.552 7.552v150.751a7.552 7.552 0 007.552 7.552h80.03a7.551 7.551 0 007.552-7.552v-150.75a7.553 7.553 0 00-7.552-7.553zm-7.553 150.752h-64.925V278.756h64.925v135.647z"/><path d="M178.739 316.125h32.895a7.551 7.551 0 007.552-7.552v-13.426a7.552 7.552 0 10-15.104 0v5.874h-17.79v-5.874a7.552 7.552 0 10-15.104 0v13.426a7.549 7.549 0 007.551 7.552zm225.032-46.722a7.552 7.552 0 00-1.881 5.867c.066.591.097 1.119.097 1.612 0 7.947-6.465 14.412-14.411 14.412s-14.412-6.465-14.412-14.412c0-.494.031-1.018.097-1.603a7.554 7.554 0 00-7.506-8.39h-66.308a7.551 7.551 0 00-7.552 7.552v128.284a7.55 7.55 0 008.488 7.494 11.905 11.905 0 011.488-.109c6.534 0 11.855 5.316 11.86 11.851a7.552 7.552 0 007.552 7.546h135.011a7.552 7.552 0 007.552-7.547c.005-6.534 5.325-11.85 11.859-11.85a7.551 7.551 0 007.552-7.552V274.442a7.552 7.552 0 00-7.552-7.552h-66.307a7.547 7.547 0 00-5.627 2.513zm-96.772 126.093V281.994h51.503c1.992 11.36 10.504 20.5 21.52 23.419v108.989h-52.27c-2.81-9.59-10.821-16.984-20.753-18.906zm161.152-113.502v114.089c-8.799 2.573-15.753 9.522-18.33 18.32h-54.694V305.414c11.017-2.919 19.529-12.06 21.521-23.42h51.503z"/></svg>