<svg height="512" viewBox="0 0 300 300" width="512" xmlns="http://www.w3.org/2000/svg"><circle cx="57.946" cy="66" fill="#4c241d" r="4"/><circle cx="127.946" cy="136" fill="#e7d1c4" r="74"/><g fill="#4c241d"><circle cx="81.946" cy="106" r="4"/><circle cx="37.946" cy="134" r="4"/><circle cx="249.946" cy="58" r="4"/><circle cx="85.946" cy="70" r="4"/><path d="M186.307 186a4 4 0 01-4-4V42a4 4 0 018 0v140a4 4 0 01-4 4z"/></g><path d="M194.104 54H177.37c24.679 0 44.685 22.458 44.685 50.162 0 27.703-20.006 50.162-44.685 50.162h16.734c24.213 0 43.842-22.459 43.842-50.162S218.317 54 194.104 54z" fill="#6b4f5b"/><path d="M194.104 158.324H177.37a4 4 0 010-8c22.434 0 40.686-20.709 40.686-46.162S199.804 58 177.37 58a4 4 0 010-8h16.734c26.381 0 47.842 24.297 47.842 54.162s-21.461 54.162-47.842 54.162zm11.272-98.443c12.502 9.812 20.68 26.004 20.68 44.281s-8.178 34.469-20.68 44.281c16.498-5.646 28.57-23.361 28.57-44.281s-12.072-38.635-28.57-44.281z" fill="#4c241d"/><path d="M222.055 104.162C222.055 76.458 202.049 54 177.37 54h-17.874c24.679 0 44.685 22.458 44.685 50.162 0 27.703-20.006 50.162-44.685 50.162h17.874c24.679 0 44.685-22.458 44.685-50.162z" fill="#e66353"/><path d="M177.37 158.324h-17.875a4 4 0 010-8c22.434 0 40.686-20.709 40.686-46.162S181.929 58 159.495 58a4 4 0 010-8h17.875c26.846 0 48.686 24.297 48.686 54.162s-21.84 54.162-48.686 54.162zm9.246-99.121c12.998 9.734 21.564 26.256 21.564 44.959s-8.566 35.225-21.564 44.959c17.994-4.762 31.439-23.113 31.439-44.959s-13.445-40.197-31.439-44.959z" fill="#4c241d"/><path d="M37.946 185.869v36.417C37.946 242.01 53.882 258 73.541 258h139.198c21.119 0 37.621-18.296 35.519-39.38l-4.378-67.925a7.872 7.872 0 015.324-8.25c4.11-1.375 8.552.854 9.922 4.978l1.983 5.968s8.724-47.321-26.78-40.305l-1.286 3.87a13.967 13.967 0 01-8.187 8.62c-2.723 1.06-4.413 3.779-3.781 6.64 0 0 5.599 25.612 4.476 31.205-1.854 9.232-6.752 13.582-16.129 14.03L173.946 182l-20 36h-84c-14.323.684-25.858-10.562-29.797-24.396z" fill="#bf7e68"/><path d="M212.739 262H73.54c-21.832 0-39.594-17.816-39.594-39.715v-36.416a3.999 3.999 0 013.447-3.961c1.969-.285 3.852.947 4.4 2.865l2.203 7.734c3.074 10.801 12.469 22.109 25.758 21.496l81.839-.003 18.857-33.943a3.994 3.994 0 012.988-2.023l35.477-4.549c7.844-.389 11.203-3.322 12.715-10.85.592-2.945-1.855-17.639-4.463-29.564-1.033-4.688 1.59-9.41 6.238-11.221a9.96 9.96 0 005.844-6.154l1.283-3.869a4 4 0 013.021-2.664c10.154-2.018 18.184-.184 23.865 5.426 12.471 12.312 7.826 38.422 7.623 39.527a4 4 0 01-3.656 3.266c-1.834.104-3.5-.998-4.074-2.729l-1.982-5.969a3.833 3.833 0 00-1.934-2.238 3.782 3.782 0 00-2.922-.207 3.846 3.846 0 00-2.613 4.061l4.389 68.062c1.104 11.059-2.582 22.258-10.123 30.59-7.508 8.292-18.219 13.048-29.387 13.048zM41.946 206.861v15.424C41.946 239.773 56.12 254 73.54 254h139.199a31.701 31.701 0 0023.455-10.418 31.94 31.94 0 008.082-24.566l-4.389-68.062c-.543-5.42 2.762-10.535 8.049-12.301a11.747 11.747 0 019.035.637c.363.182.715.381 1.053.594-.219-7.172-1.701-15.143-6.234-19.611-3.346-3.297-8.084-4.494-14.424-3.639l-.525 1.584a17.922 17.922 0 01-10.533 11.086c-.789.309-1.541 1.082-1.326 2.053 1.357 6.207 5.688 26.9 4.492 32.854-2.223 11.066-8.719 16.703-19.859 17.238l-33.152 4.262-19.02 34.234a3.997 3.997 0 01-3.496 2.057h-84c-10.972.512-21.345-5.359-28.001-15.141z" fill="#4c241d"/><circle cx="219.946" cy="204" fill="#ffce56" r="10"/><path d="M219.946 218c-7.719 0-14-6.281-14-14s6.281-14 14-14 14 6.281 14 14-6.281 14-14 14zm0-20c-3.309 0-6 2.691-6 6s2.691 6 6 6 6-2.691 6-6-2.691-6-6-6z" fill="#4c241d"/><circle cx="187.946" cy="204" fill="#ffce56" r="10"/><path d="M187.946 218c-7.719 0-14-6.281-14-14s6.281-14 14-14 14 6.281 14 14-6.281 14-14 14zm0-20c-3.309 0-6 2.691-6 6s2.691 6 6 6 6-2.691 6-6-2.691-6-6-6z" fill="#4c241d"/><path d="M97.946 218h-32l8-48h16z" fill="#6b4f5b"/><path d="M97.946 222h-32a4.005 4.005 0 01-3.053-1.414 4.003 4.003 0 01-.893-3.244l8-48A3.999 3.999 0 0173.945 166h16a3.999 3.999 0 013.945 3.342l8 48A3.998 3.998 0 0197.946 222zm-27.277-8h22.555l-6.666-40h-9.223zm59.277 8a4 4 0 01-4-4v-80a4 4 0 018 0v80a4 4 0 01-4 4z" fill="#4c241d"/><path d="M141.946 138h-24l-4-32h32z" fill="#bf7e68"/><path d="M141.946 142h-24a4 4 0 01-3.969-3.504l-4-32a3.994 3.994 0 01.971-3.143 3.997 3.997 0 012.998-1.354h32c1.146 0 2.24.492 2.998 1.354a3.996 3.996 0 01.971 3.143l-4 32a4 4 0 01-3.969 3.504zm-20.469-8h16.938l3-24h-22.938z" fill="#4c241d"/><path d="M129.946 110a4 4 0 01-4-4V54a4 4 0 018 0v52a4 4 0 01-4 4z" fill="#4c241d"/><path d="M142.101 76.162c0-10.031-7.244-18.162-16.179-18.162h-6.472c8.935 0 8.935 36.324 0 36.324h6.472c8.935 0 16.179-8.131 16.179-18.162z" fill="#e66353"/><path d="M125.921 98.324h-6.471a4 4 0 010-8c.68-.58 2.701-5.592 2.701-14.162 0-8.295-1.895-13.258-2.951-14.17a3.975 3.975 0 01-.863-.148c-1.809-.352-3.062-1.939-3.062-3.887 0-2.209 1.967-3.957 4.176-3.957h6.471c11.127 0 20.18 9.941 20.18 22.162s-9.054 22.162-20.181 22.162zm2.277-36.076c1.373 4.029 1.953 9.047 1.953 13.914s-.58 9.885-1.953 13.914c5.631-1.244 9.902-7.01 9.902-13.914s-4.271-12.67-9.902-13.914z" fill="#4c241d"/><path d="M91.946 170h-20a6 6 0 110-12h20a6 6 0 110 12z" fill="#6b4f5b"/><path d="M91.946 174h-20c-5.514 0-10-4.486-10-10s4.486-10 10-10h20c5.514 0 10 4.486 10 10s-4.486 10-10 10zm-20-12a2 2 0 000 4h20a2 2 0 000-4zm26 32h68v8h-68z" fill="#4c241d"/><path d="M109.946 198h8v20h-8zm32 0h8v20h-8z" fill="#4c241d"/></svg>