<svg height="469pt" viewBox="0 -21 469.3 469" width="469pt" xmlns="http://www.w3.org/2000/svg"><path d="M85.3 106.8L0 213.5h469.3L384 106.8zm0 0" fill="#553038"/><path d="M42.7 213.5L128 106.8h213.3l85.4 106.7v170.7h-384zm0 0" fill="#f6b55e"/><path d="M106.7 277.5h42.6v21.3h-42.6zm0-42.7h42.6v21.4h-42.6zm64-21.3h42.6v21.3h-42.6zm-64-21.3h42.6v21.3h-42.6zm0 0" fill="#f8c47e"/><path d="M64 384.2v-21.4h21.3v-21.3H64v-21.3h42.7v-42.7H64v-21.3h21.3v-21.4h21.4v-21.3H85.3v-21.3H128v-85.4L42.7 213.5v170.7zm0 0" fill="#f8c47e"/><path d="M213.3 106.8h128l85.4 106.7v170.7H213.3zm0 0" fill="#f18500"/><path d="M213.3 341.5H256v21.3h-42.7zm21.4-42.7h42.6v21.4h-42.6zm0 0" fill="#f4a234"/><path d="M213.3 192.2h213.4v64H213.3zm0 0" fill="#e66100"/><path d="M256 256.2c11.8 0 21.3 9.5 21.3 21.3v21.3h-42.6v-21.3c0-11.8 9.5-21.3 21.3-21.3zm0 0" fill="#011f48"/><path d="M85.3 106.8l85.4 106.7h298.6L384 106.8zm0 0" fill="#ae403f"/><path d="M384 106.8H149.3v21.4h21.4v42.6h42.6v21.4h21.4v21.3h234.6zm0 0" fill="#840504"/><path d="M128 128.2h21.3v21.3H128zm0 0" fill="#a01f1e"/><path d="M106.7 106.8H128v21.4h-21.3zm0 0" fill="#c16c6c"/><path d="M170.7 170.8h42.6v21.4h-42.6zm0 0" fill="#a01f1e"/><path d="M170.7 106.8h42.6v21.4h-42.6zm-21.4 42.7H192v21.3h-42.7zm0 0" fill="#c16c6c"/><path d="M256 128.2h170.7v298.6H256zm0 0" fill="#f6b55e"/><path d="M384 362.8h21.3v21.4H384zm-42.7-21.3h21.4v21.3h-21.4zm42.7-21.3h42.7v21.3H384zm0-64h42.7v21.3H384zm0 0" fill="#f8c47e"/><path d="M341.3 426.8v-85.3H320v-21.3h42.7v-21.4h-64v-21.3H320v-21.3h42.7v-21.4H320v-42.6h21.3v-64H256v106.6h21.3v21.4H256v85.3h42.7v21.3H256v64zm0 0" fill="#f8c47e"/><path d="M256 213.5h21.3v213.3H256zm0 0" fill="#fad7a8"/><path d="M277.3 128.2h149.4v42.6H277.3zm0 0" fill="#f4a234"/><path d="M213.3 149.5L341.3.2l128 149.3zm0 0" fill="#ae403f"/><path d="M341.3 64.2h21.4v21.3h-21.4zm-42.6 21.3H320v21.3h-21.3zm0 0" fill="#ae403f"/><path d="M341.3 106.8h21.4v21.4h-21.4zm0 0" fill="#a01f1e"/><path d="M320 42.8h42.7v21.4H320zm0 42.7h42.7v21.3H320zm-42.7 21.3H320v21.4h-42.7zm0 0" fill="#c16c6c"/><path d="M234.7 128.2H384v21.3H234.7zm0 0" fill="#a01f1e"/><path d="M362.7 106.8h42.6v21.4h-42.6zM320 64.2h-33.5l-9.2 10.6v10.7H320zm0 0" fill="#c16c6c"/><path d="M298.7 192.2c11.7 0 21.3 9.5 21.3 21.3v21.3h-42.7v-21.3c0-11.8 9.6-21.3 21.4-21.3zm85.3 0c11.8 0 21.3 9.5 21.3 21.3v21.3h-42.6v-21.3c0-11.8 9.5-21.3 21.3-21.3zm-85.3 85.3c11.7 0 21.3 9.6 21.3 21.3v21.4h-42.7v-21.4c0-11.7 9.6-21.3 21.4-21.3zm85.3 0c11.8 0 21.3 9.6 21.3 21.3v21.4h-42.6v-21.4c0-11.7 9.5-21.3 21.3-21.3zm-42.7 85.3a42.7 42.7 0 0142.7 42.7v21.3h-85.3v-21.3a42.7 42.7 0 0142.6-42.7zm-256-106.6c11.8 0 21.4 9.5 21.4 21.3v21.3H64v-21.3c0-11.8 9.6-21.3 21.3-21.3zm0 0" fill="#153156"/><path d="M64 277.5h21.3v21.3H64zm0 0" fill="#011f48"/><path d="M170.7 256.2c11.7 0 21.3 9.5 21.3 21.3v21.3h-42.7v-21.3c0-11.8 9.6-21.3 21.4-21.3zm0 0" fill="#153156"/><path d="M149.3 277.5h21.4v21.3h-21.4zm0 0" fill="#011f48"/><path d="M234.7 277.5H256v21.3h-21.3zm0 0" fill="#001037"/><path d="M64 298.8H42.7v-21.3a42.7 42.7 0 0142.6-42.7v21.4A21.4 21.4 0 0064 277.5zm85.3 0H128v-21.3a42.7 42.7 0 0142.7-42.7v21.4a21.4 21.4 0 00-21.4 21.3zm0 0" fill="#fad7a8"/><path d="M234.7 298.8h-21.4v-21.3a42.7 42.7 0 0142.7-42.7v21.4a21.4 21.4 0 00-21.3 21.3zm0 0" fill="#f4a234"/><path d="M277.3 320.2H256v-21.4a42.7 42.7 0 0142.7-42.6v21.3a21.4 21.4 0 00-21.4 21.3zm85.4 0h-21.4v-21.4a42.7 42.7 0 0142.7-42.6v21.3a21.4 21.4 0 00-21.3 21.3zm-85.4-85.4H256v-21.3a42.7 42.7 0 0142.7-42.7v21.4a21.4 21.4 0 00-21.4 21.3zm85.4 0h-21.4v-21.3a42.7 42.7 0 0142.7-42.7v21.4a21.4 21.4 0 00-21.3 21.3zm0 0" fill="#fad7a8"/><path d="M277.3 213.5h21.4v21.3h-21.4zm85.4 0H384v21.3h-21.3zm-85.4 85.3h21.4v21.4h-21.4zm85.4 0H384v21.4h-21.3zm-42.7 128h-21.3v-21.3a42.7 42.7 0 0142.6-42.7v21.4a21.4 21.4 0 00-21.3 21.3zm0 0" fill="#011f48"/><path d="M298.7 426.8h-21.4v-21.3a64 64 0 0164-64v21.3a42.7 42.7 0 00-42.6 42.7zm0 0" fill="#fad7a8"/><path d="M170.7 298.8h42.6v21.4h-42.6zm-64 21.4h42.6v21.3h-42.6zm64 21.3h42.6v21.3h-42.6zm-64 21.3h42.6v21.4h-42.6zm0 0" fill="#f8c47e"/><path d="M341.3.2v42.6h21.4v21.4H384v21.3h-21.3v21.3h42.6v21.4H384v21.3h85.3zm0 0" fill="#a01f1e"/><path d="M362.7 64.2H384v21.3h-21.3zm0 0" fill="#c16c6c"/><path d="M405.3 405.5h21.4v21.3h-21.4zm0 0" fill="#f8c47e"/></svg>