<svg xmlns="http://www.w3.org/2000/svg" id="Layer_1" x="0" y="0" version="1.1" viewBox="0 0 512 512" xml:space="preserve"><style>.st2{fill:#ecf0f1}.st4{fill:#bdc3c7}.st5{fill:#c0392b}.st6{fill:#e74c3c}.st7{fill:#3498db}.st8{fill:#2980b9}.st9{fill:#7f8c8d}</style><path fill="#95a5a6" d="M0 469.1h511.2l-84.9-128.2H84.9L0 469.1"/><path fill="#f1c40f" d="M42.5 85.3h426.3v361.8H42.5z"/><path d="M84.9 234.8h191.9v191.9H84.9zM298.1 256h128.2v191.9H298.1z" class="st2"/><path fill="#f39c12" d="M42.5 192.3h426.3v84.9H42.5z"/><path d="M298.1 234.8h128.2V256H298.1zm-213.2 0h191.9v42.5H84.9z" class="st4"/><path d="M0 171.1v32.2a32.4 32.4 0 0032.2 32.2 32.8 32.8 0 0032.2-32.2v-32.2H0z" class="st5"/><path d="M63.7 171.1v32.2c0 17.3 14.2 32.2 32.2 32.2s32.2-14.9 32.2-32.2v-32.2H63.7z" class="st4"/><path d="M128.2 171.1v32.2c0 17.3 14.2 32.2 32.2 32.2s32.2-14.9 32.2-32.2v-32.2h-64.4z" class="st5"/><path d="M191.9 171.1v32.2a32.4 32.4 0 0032.2 32.2 32.8 32.8 0 0032.2-32.2v-32.2h-64.4z" class="st4"/><path d="M255.6 171.1v32.2a32.4 32.4 0 0032.2 32.2 32.3 32.3 0 0032.2-32.2v-32.2h-64.4z" class="st5"/><path d="M319.3 171.1v32.2c0 17.3 14.2 32.2 32.2 32.2s32.2-14.9 32.2-32.2v-32.2h-64.4z" class="st4"/><path d="M383.8 171.1v32.2a32.4 32.4 0 0032.2 32.2 32.3 32.3 0 0032.2-32.2v-32.2h-64.4z" class="st5"/><path d="M447.5 171.1v32.2c0 17.3 14.2 32.2 32.2 32.2s32.2-14.9 32.2-32.2v-32.2h-64.4z" class="st4"/><path d="M213.1 85.3h42.5v85.8h-63.7z" class="st2"/><path d="M255.6 85.3h42.5l21.2 85.8h-63.7z" class="st6"/><path d="M106.2 85.3h64.5l-42.5 85.8H63.7z" class="st2"/><path d="M170.7 85.3h42.4l-21.2 85.8h-63.7z" class="st6"/><path d="M340.5 85.3h-42.4l21.2 85.8h64.5z" class="st2"/><path d="M405 85.3h-64.5l43.3 85.8h63.7zm-362.5 0h63.7l-42.5 85.8H0z" class="st6"/><path d="M468.7 85.3H405l42.5 85.8h63.7z" class="st2"/><path d="M319.3 277.2h84.9v170.7h-84.9z" class="st7"/><path d="M298.1 340.9h106.2v21.2H298.1z" class="st2"/><path d="M405 256h21.2v21.2H405z" class="st4"/><path d="M319.3 256h84.9v21.2h-84.9z" class="st8"/><path d="M298.1 256h21.2v21.2h-21.2z" class="st4"/><path d="M106.2 256h149.4v149.4H106.2z" class="st7"/><path d="M84.9 319.7h191.9v21.2H84.9z" class="st2"/><path d="M170.7 256h21.2v149.4h-21.2zM21.2 85.3H490l-77.9-42.4h-313L21.2 85.3" class="st2"/><path d="M170.7 256h21.2v21.2h-21.2zM21.2 64.1H490l-77.9-42.5h-313L21.2 64.1" class="st4"/><path d="M21.2 64.1h468.7v21.2H21.2z" class="st9"/><path d="M319.3 384.2h84.9v63.7h-84.9z" class="st8"/><path d="M0 469.1h511.2v21.2H0z" class="st9"/><path d="M106.2 256v21.2h63.7V256h-63.7zm85.7 0v21.2h63.7V256h-63.7zm-85.7 128.2v21.2h63.7v-21.2h-63.7zm85.7 0v21.2h63.7v-21.2h-63.7z" class="st8"/><path d="M42.5 85.3l-10.2 21.2H96l11-21.2H42.5zm106.9 0l-5.5 21.2h63.7l5.5-21.2h-63.7zm106.2 0v21.2h48l-5.5-21.2h-42.5zm84.9 0l11 21.2h63.7L405 85.3h-64.5z" class="st5"/><path d="M106.2 85.3L96 106.6h63.7l11-21.2h-64.5zm106.9 0l-5.5 21.2h48V85.3h-42.5zm85 0l5.5 21.2h48l-11-21.2h-42.5zm106.9 0l11 21.2h63.7l-11-21.2H405z" class="st4"/></svg>