<svg xmlns="http://www.w3.org/2000/svg" width="512pt" viewBox="0 -37 512.001 512" height="512pt"><path stroke="#444" stroke-width="4" fill="#fea" d="M438.46 80H70.56c-18.801 0-34.184-15.379-34.184-34.18V34.184C36.375 15.383 51.758 0 70.559 0H438.46c18.8 0 34.184 15.383 34.184 34.184V45.82c0 18.801-15.383 34.18-34.184 34.18zm0 0"/><path stroke="#444" stroke-width="4" fill="#ececec" d="M438.46 151.707H70.56c-18.801 0-34.184-15.379-34.184-34.18v-11.636c0-18.801 15.383-34.184 34.184-34.184h367.9c18.8 0 34.184 15.383 34.184 34.184v11.636c0 18.801-15.383 34.18-34.184 34.18zm0 0"/><path stroke="#444" stroke-width="4" fill="#ffe680" d="M36.594 196.2a33.954 33.954 0 01-.219-3.856v-11.637c0-18.8 15.383-34.184 34.184-34.184H438.46c18.8 0 34.184 15.383 34.184 34.184v11.637c0 1.293-.075 2.574-.215 3.832"/><path fill="#ac5a28" d="M495.176 272.727H16.824C7.531 272.727 0 265.19 0 255.898v-42.875c0-9.289 7.531-16.824 16.824-16.824h478.352c9.293 0 16.824 7.535 16.824 16.824v42.875c0 9.293-7.531 16.829-16.824 16.829zm0 0"/><path fill="#f8c091" d="M30.934 273v80.34c0 46.035 37.257 83.7 82.796 83.7h279.692c45.539 0 82.797-37.665 82.797-83.7V273zm0 0"/></svg>