<svg viewBox="0 0 512 512" xmlns="http://www.w3.org/2000/svg"><path d="M506.033 125.025a15.004 15.004 0 00-13.154-2.448l-210 60A15 15 0 00272 197v206.815C259.876 396.506 244.581 392 227 392c-44.461 0-75 28.991-75 60 0 30.692 30.097 60 75 60 44.461 0 75-28.991 75-60V268.315l180-51.429v126.929C469.876 336.506 454.581 332 437 332c-44.461 0-75 28.991-75 60 0 30.692 30.097 60 75 60 44.461 0 75-28.991 75-60V137c0-4.707-2.209-9.141-5.967-11.975zm-246.095-12.531C265.714 102.529 258.533 90 246.961 90h-51.533c-8.074 0-15.024-6.201-15.41-14.265C179.606 67.121 186.476 60 195 60h90c24.853 0 45-20.147 45-45 0-8.284-6.716-15-15-15h-90c-57.99 0-105 47.01-105 105v118.815C107.876 216.506 92.581 212 75 212c-44.461 0-75 28.991-75 60 0 30.692 30.097 60 75 60 44.461 0 75-28.991 75-60V150h45c27.706 0 51.955-15.103 64.938-37.506z"/></svg>