<svg xmlns="http://www.w3.org/2000/svg" viewBox="0 0 512 512"><path d="M512 256c0 141.385-114.615 256-256 256S0 397.385 0 256 114.615 0 256 0s256 114.615 256 256z" fill="#b4ebff"/><path d="M416.554 403.134a27.824 27.824 0 00-11.923 3.644C398.047 399.542 388.554 395 378 395c-4.173 0-8.176.718-11.903 2.024-3.212-27.972-10.449-54.716-21.135-79.636a35.921 35.921 0 0011.382-4.211c9.14-5.277 15.09-13.957 17.175-23.515a27.826 27.826 0 0012.147-2.806l59.08-28.707c14.583-7.085 20.091-25.055 11.985-39.096l-4.68-8.106c-8.106-14.041-26.423-18.255-39.851-9.169l-54.4 36.812a27.841 27.841 0 00-8.504 9.116c-9.32-2.974-19.812-2.161-28.953 3.116a35.933 35.933 0 00-9.37 7.787 287.659 287.659 0 00-57.584-57.584 35.933 35.933 0 007.787-9.37c5.277-9.14 6.09-19.632 3.116-28.953a27.823 27.823 0 009.117-8.504l36.812-54.4c9.086-13.428 4.872-31.744-9.169-39.851l-8.106-4.68c-14.041-8.106-32.011-2.598-39.096 11.985l-28.706 59.081a27.826 27.826 0 00-2.806 12.147c-9.559 2.085-18.239 8.035-23.516 17.175a35.897 35.897 0 00-4.211 11.382c-24.92-10.686-51.664-17.923-79.636-21.135a35.919 35.919 0 002.024-11.903c0-10.554-4.542-20.047-11.778-26.632a27.818 27.818 0 003.643-11.923l3.679-51.5a257.415 257.415 0 00-58.881 55.227 27.829 27.829 0 003.114 8.196C49.542 113.953 45 123.446 45 134c0 4.255.743 8.335 2.098 12.124a285.241 285.241 0 00-24.251 4.023 254.154 254.154 0 00-14.936 42.481 247.417 247.417 0 0147.288-9.801 26.165 26.165 0 00-.2 3.173c0 8.771 4.347 16.521 11 21.23v107.54c-5.7 4.034-9.703 10.302-10.734 17.531-4.502-5.615-11.026-8.958-17.891-9.594L.024 258.015C.436 311.161 17.052 360.44 45.158 401.18 53.59 390.708 66.508 384 81 384c25.405 0 46 20.595 46 46 0 14.585-6.796 27.576-17.386 36.003 40.972 28.613 90.699 45.556 144.37 45.971l-64.692-37.35c-.636-6.865-3.979-13.389-9.594-17.891 7.23-1.03 13.497-5.034 17.531-10.734h107.54c4.709 6.653 12.46 11 21.23 11 1.075 0 2.132-.073 3.173-.2a247.417 247.417 0 01-9.801 47.288 254.122 254.122 0 0042.481-14.936 285.241 285.241 0 004.023-24.251c3.79 1.357 7.87 2.1 12.125 2.1 10.554 0 20.047-4.542 26.632-11.778a27.84 27.84 0 008.196 3.114 257.435 257.435 0 0055.227-58.881l-51.501 3.679zm-289.929-80.426c-7.827.725-15.206 4.977-19.655 12.091-.377-8.275-4.623-15.536-10.97-20.029V207.23c6.653-4.709 11-12.459 11-21.23 0-1.149-.082-2.278-.227-3.388a246.992 246.992 0 0176.563 20.308 26.183 26.183 0 00-1.852 2.77c-4.385 7.596-4.496 16.482-1.089 23.886l-53.77 93.132zm26.062 36.605c3.202-7.053 2.99-14.93-.081-21.605l53.77-93.132c8.116-.752 15.756-5.29 20.141-12.886a26.21 26.21 0 001.453-2.941 250.013 250.013 0 0155.282 55.282c-.997.42-1.98.898-2.941 1.453-7.596 4.385-12.134 12.025-12.886 20.141l-93.132 53.77c-6.676-3.072-14.553-3.283-21.606-.082zM326 405c-8.771 0-16.521 4.347-21.23 11H197.23c-4.493-6.347-11.754-10.593-20.029-10.97 7.115-4.449 11.366-11.828 12.091-19.655l93.132-53.77c7.404 3.407 16.29 3.297 23.886-1.089a26.337 26.337 0 002.77-1.852 247.02 247.02 0 0120.308 76.563A26.3 26.3 0 00326 405z" fill="#1e4550"/><path d="M202 431c0 14.359-11.641 26-26 26s-26-11.641-26-26c0-9.288 4.874-17.434 12.201-22.032-8.546-.405-16.715-5.008-21.311-12.968-4.354-7.542-4.494-16.356-1.16-23.729-7.373 3.333-16.187 3.194-23.729-1.16-7.96-4.596-12.563-12.765-12.968-21.311C98.434 357.126 90.288 362 81 362c-14.359 0-26-11.641-26-26s11.641-26 26-26c13.956 0 25.341 10.997 25.97 24.798 7.389-11.815 22.865-15.745 35.03-8.721 11.687 6.748 16.152 21.198 10.687 33.236 12.038-5.465 26.488-1 33.236 10.687 7.023 12.165 3.094 27.641-8.721 35.03C191.003 405.659 202 417.043 202 431zM81 212c14.359 0 26-11.641 26-26s-11.641-26-26-26-26 11.641-26 26 11.641 26 26 26zm245 193c-14.359 0-26 11.641-26 26s11.641 26 26 26 26-11.641 26-26-11.641-26-26-26zM217 196.173c-12.436-7.18-28.337-2.919-35.517 9.517s-2.919 28.337 9.517 35.517 28.337 2.919 35.517-9.517c7.179-12.436 2.919-28.337-9.517-35.517zM315.827 295c-7.18-12.436-23.081-16.696-35.517-9.517-12.436 7.18-16.696 23.081-9.517 35.517s23.081 16.696 35.517 9.517c12.436-7.18 16.697-23.081 9.517-35.517z" fill="#1e4550"/><path d="M310.222 99.8l-36.812 54.4a27.841 27.841 0 01-9.116 8.504c2.974 9.32 2.161 19.813-3.116 28.953-9.941 17.219-31.958 23.118-49.177 13.177s-23.118-31.958-13.177-49.177c5.277-9.14 13.957-15.09 23.516-17.175a27.826 27.826 0 012.806-12.147l28.706-59.081c7.086-14.583 25.055-20.091 39.096-11.985l8.106 4.68c14.04 8.106 18.254 26.423 9.168 39.851zm-205 7.568a27.837 27.837 0 003.644-11.923l4.68-65.518C114.701 13.756 101.893 0 85.68 0h-9.36C60.107 0 47.299 13.756 48.454 29.927l4.68 65.518a27.824 27.824 0 003.644 11.923C49.542 113.953 45 123.446 45 134c0 19.882 16.118 36 36 36s36-16.118 36-36c0-10.554-4.542-20.047-11.778-26.632zm376.851 291.086l-65.518 4.68a27.824 27.824 0 00-11.923 3.644C398.047 399.542 388.554 395 378 395c-19.882 0-36 16.118-36 36s16.118 36 36 36c10.554 0 20.047-4.542 26.632-11.778a27.818 27.818 0 0011.923 3.643l65.518 4.68C498.244 464.701 512 451.893 512 435.68v-9.36c0-16.213-13.756-29.021-29.927-27.866zM373.519 289.661a27.826 27.826 0 0012.147-2.806l59.081-28.706c14.583-7.085 20.091-25.055 11.985-39.096l-4.68-8.106c-8.106-14.041-26.423-18.255-39.851-9.169l-54.4 36.812a27.844 27.844 0 00-8.504 9.117c-9.321-2.974-19.813-2.161-28.953 3.116-17.219 9.941-23.118 31.958-13.177 49.177s31.958 23.118 49.177 13.177c9.14-5.277 15.09-13.957 17.175-23.516z" fill="#dc550a"/><path d="M310.222 99.8l-36.812 54.4a27.841 27.841 0 01-9.116 8.504c2.974 9.32 2.161 19.813-3.116 28.953-8.987 15.566-27.842 21.878-44.1 15.603-3.765-9.795-3.243-21.141 2.413-30.936 5.277-9.14 13.957-15.09 23.516-17.175a27.826 27.826 0 012.806-12.147l28.706-59.081c7.086-14.583 25.055-20.091 39.096-11.985l.203.117c2.339 7.749 1.331 16.465-3.596 23.747zm-205 7.568a27.837 27.837 0 003.644-11.923l4.68-65.518c.904-12.654-6.743-23.828-17.879-28.09-11.137 4.262-18.783 15.436-17.88 28.09l4.68 65.518a27.824 27.824 0 003.644 11.923c-7.236 6.585-11.778 16.078-11.778 26.632 0 14.657 8.764 27.259 21.333 32.875C108.236 161.259 117 148.657 117 134c0-10.554-4.542-20.047-11.778-26.632zm260.407 163.339a27.823 27.823 0 018.504-9.117l54.4-36.812c9.516-6.439 21.484-6.192 30.537-.507a28.08 28.08 0 00-2.339-5.218l-4.68-8.106c-8.106-14.041-26.423-18.255-39.851-9.169l-54.4 36.812a27.844 27.844 0 00-8.504 9.117c-9.321-2.974-19.813-2.161-28.953 3.116-17.219 9.941-23.118 31.958-13.177 49.177a35.832 35.832 0 0012.335 12.683c-3.259-14.903 3.259-30.826 17.175-38.86 9.141-5.277 19.633-6.09 28.953-3.116zm116.444 127.747l-65.518 4.68a27.824 27.824 0 00-11.923 3.644C398.047 399.542 388.554 395 378 395c-14.917 0-27.714 9.072-33.176 22 5.462 12.928 18.26 22 33.176 22 10.554 0 20.047-4.542 26.632-11.778a27.818 27.818 0 0011.923 3.643l65.518 4.68c12.904.922 24.261-7.051 28.328-18.546-4.067-11.494-15.424-19.467-28.328-18.545z" fill="#ff640a"/></svg>