<svg xmlns="http://www.w3.org/2000/svg" viewBox="0 0 512 512"><path fill="#f4fbff" d="M117.2 7.5h254.5a29.6 29.6 0 0129.6 29.6V475a29.6 29.6 0 01-29.6 29.6H39.9A29.6 29.6 0 0110.3 475V114.4c0-7.8 3.1-15.4 8.7-21l77.3-77.2c5.5-5.6 13-8.7 21-8.7z"/><path fill="#e4f6ff" d="M371.7 7.5H308a29.6 29.6 0 0129.6 29.6V475a29.6 29.6 0 01-29.6 29.6h63.6a29.6 29.6 0 0029.6-29.6V37a29.6 29.6 0 00-29.6-29.6z"/><path fill="#e28086" d="M19 93.5l77.3-77.3c2.5-2.6 5.5-4.6 8.7-6v73.6c0 10.1-8.3 18.4-18.4 18.4H13c1.4-3.2 3.4-6.2 6-8.7z"/><path fill="#cbe2ff" d="M328.4 102.2h-154a9.3 9.3 0 01-9.3-9.3V68.5c0-5.1 4.2-9.3 9.3-9.3h154c5.1 0 9.3 4.2 9.3 9.3V93c0 5.1-4.2 9.3-9.3 9.3z"/><path fill="#e8ae4d" d="M433.2 447.9l-27.5-17a8.4 8.4 0 00-8.8 0l-27.5 17a8.4 8.4 0 01-12.9-7.2v-109H446v109a8.4 8.4 0 01-12.8 7.2z"/><path fill="#ffe07d" d="M419 180.7a22.5 22.5 0 0024.1 7.9 22.5 22.5 0 0128.8 20.9c.3 9.2 6.2 17.3 14.9 20.4a22.5 22.5 0 0111 33.9 22.5 22.5 0 000 25.3 22.5 22.5 0 01-11 33.8 22.5 22.5 0 00-14.9 20.5 22.5 22.5 0 01-28.8 21c-8.8-2.7-18.4.4-24 7.7a22.5 22.5 0 01-35.6 0 22.5 22.5 0 00-24.1-7.8 22.5 22.5 0 01-28.8-20.9 22.5 22.5 0 00-14.9-20.5 22.5 22.5 0 01-11-33.8 22.5 22.5 0 000-25.3 22.5 22.5 0 0111-33.9 22.5 22.5 0 0015-20.4c.4-14.7 14.6-25 28.7-21 8.9 2.6 18.4-.5 24-7.8a22.5 22.5 0 0135.7 0z"/><circle cx="401.3" cy="276.4" r="55.4" fill="#e8ae4d"/><path d="M258.8 181.5h-192a7.5 7.5 0 000 15h192a7.5 7.5 0 100-15zm0 52.7h-192a7.5 7.5 0 000 15h192a7.5 7.5 0 100-15zm0 52.7h-192a7.5 7.5 0 000 15h192a7.5 7.5 0 100-15zm7.5 60.1c0-4-3.4-7.4-7.5-7.4h-192a7.5 7.5 0 000 15h192c4.1 0 7.5-3.4 7.5-7.5zM66.8 416.8a7.5 7.5 0 000 15H163a7.5 7.5 0 000-15zM345.2 92.9V68.5c0-9.3-7.5-16.8-16.8-16.8h-154c-9.3 0-16.8 7.5-16.8 16.8V93c0 9.2 7.5 16.8 16.8 16.8h13a7.5 7.5 0 000-15h-13c-1 0-1.8-.8-1.8-1.8V68.5c0-1 .8-1.8 1.8-1.8h154c1 0 1.8.8 1.8 1.8V93c0 1-.8 1.8-1.8 1.8h-106a7.5 7.5 0 000 15h106c9.3 0 16.8-7.6 16.8-16.8z"/><path d="M401.3 457.3a7.5 7.5 0 00-7.5 7.5v10c0 12.3-10 22.2-22.1 22.2H39.9c-12.2 0-22.1-10-22.1-22.1V114.4c0-1.6.2-3.2.5-4.7h68.3a25.9 25.9 0 0025.9-25.9V15.5c1.5-.3 3.1-.5 4.7-.5h254.5c12.1 0 22 10 22 22.1V137a7.5 7.5 0 1015 0V37.1a37.1 37.1 0 00-37-37.1H117.2C107.3 0 98 3.9 91 10.9L13.7 88.2c-7 7-11 16.3-11 26.2V475A37.1 37.1 0 0040 512h331.8a37.1 37.1 0 0037-37.1v-10.1c0-4.1-3.3-7.5-7.4-7.5zM97.5 25.6v58.2c0 6-5 10.9-10.9 10.9H28.4z"/><path d="M504 268c5.2-7.7 6.6-17.3 3.7-26.2s-9.6-15.8-18.4-19c-5.8-2-9.7-7.4-9.9-13.6a29.8 29.8 0 00-12.3-23.3c-7.6-5.5-17-7.2-26-4.5-6 1.7-12.3-.4-16.1-5.3a29.8 29.8 0 00-23.7-11.6c-9.4 0-18 4.2-23.7 11.6-3.8 5-10.1 7-16.1 5.3a29.8 29.8 0 00-38.4 27.9c-.2 6.1-4 11.5-9.9 13.6a29.8 29.8 0 00-18.4 19 29.8 29.8 0 003.8 26.1 14.9 14.9 0 010 16.9 29.8 29.8 0 00-3.8 26.1 29.8 29.8 0 0018.4 19c5.8 2 9.7 7.4 10 13.6a30 30 0 0025.8 28.8v68.3a16 16 0 0024.3 13.6l27.5-17c.4-.2.7-.1 1 0l27.5 17a16 16 0 0024.2-13.6v-68.3a30 30 0 0026-28.8c.1-6.2 4-11.5 9.8-13.6 8.8-3.2 15.5-10 18.4-19a29.8 29.8 0 00-3.7-26 14.9 14.9 0 010-16.9zm-67 173.5l-27.5-17a16 16 0 00-16.7 0l-27.5 17a1 1 0 01-1.4-.8V371c5.2-.6 10.3 1.5 13.6 5.7a29.8 29.8 0 0023.7 11.7c9.3 0 18-4.3 23.7-11.7 3.2-4.2 8.4-6.3 13.5-5.7v69.7a1 1 0 01-1.4.8zm54.5-148.2a14.9 14.9 0 01-7.3 22.5 29.8 29.8 0 00-19.9 27.4c-.1 4.3-2 8.3-5.4 11a15 15 0 01-13.8 3c-11.9-3.6-24.5.5-32 10.4a14.9 14.9 0 01-12 5.8c-4.6 0-9-2.1-11.8-5.8a29.8 29.8 0 00-32.1-10.5 15 15 0 01-19.2-14 29.8 29.8 0 00-19.8-27.2c-4.4-1.6-7.8-5-9.2-9.5-1.5-4.5-.8-9.2 1.8-13 7-10.3 7-23.6 0-33.8a14.9 14.9 0 01-1.8-13.1c1.4-4.5 4.8-8 9.2-9.5a29.8 29.8 0 0019.8-27.3c.2-4.7 2.4-9 6.2-11.7 3.8-2.7 8.5-3.6 13-2.2 12 3.4 24.5-.7 32.1-10.5 2.9-3.7 7.2-5.8 11.9-5.8 4.6 0 9 2.1 11.8 5.8 7.6 9.8 20.2 14 32.1 10.5a14.9 14.9 0 0119.2 14 29.8 29.8 0 0019.9 27.2c4.4 1.6 7.7 5 9.2 9.5 1.4 4.4.7 9.2-2 13-6.9 10.3-6.9 23.6 0 33.8z"/><path d="M401.3 213.6a63 63 0 10.1 125.8 63 63 0 00-.1-125.8zm0 110.7a48 48 0 110-95.8 48 48 0 010 95.8z"/></svg>