<svg xmlns="http://www.w3.org/2000/svg" viewBox="0 0 390.135 390.135"><path d="M118.827 219.243l179.04-179.12 52.08-16.08-16.08 52.08-179.04 179.04-36-35.92z" fill="#ffcf70"/><path d="M102.427 250.763l-1.28-.72-.48-.96-14.24-14.24 24-24 52.72 52.72-23.92 24-36.8-36.8z" fill="#cc9640"/><path d="M56.107 76.123l-16.08-52.08 52.08 16.08 102.88 102.88-36 36-102.88-102.88z" fill="#ffcf70"/><path d="M32.027 365.803c-13.255-.055-23.955-10.846-23.899-24.1a24.002 24.002 0 016.939-16.78 23.998 23.998 0 0116.96-6.96h1.28l68.32-68.08 22.4 22.4-68.08 68.08a24 24 0 01-6.88 18.48 23.997 23.997 0 01-17.04 6.96z" fill="#cc9640"/><path d="M195.016 215.036l35.978-35.978 40.22 40.22-35.978 35.978-40.22-40.22z" fill="#ffcf70"/><path d="M226.742 263.498l52.779-52.779 23.985 23.985-52.779 52.779-23.985-23.985zm131.205 102.305a23.999 23.999 0 01-16.96-6.88 24 24 0 01-6.88-18.48l-68.08-68.08 22.4-22.4 68.08 68.08h1.36c13.255-.077 24.062 10.605 24.139 23.86a24.001 24.001 0 01-6.939 17.02 23.997 23.997 0 01-17.12 6.88z" fill="#cc9640"/><path d="M359.787 310.123l-60.08-60.08 9.52-9.52a8 8 0 000-11.28l-18.24-18.24 3.92-3.92a8 8 0 00-11.28-11.28l-12.32 12.32-29.04-29.12 97.2-97.2a7.997 7.997 0 002-3.28l16-52.08a8 8 0 00-10-10l-52.08 16a7.997 7.997 0 00-3.28 2l-97.12 97.28-97.2-97.2a7.997 7.997 0 00-3.28-2l-52.08-16a8 8 0 00-10 10l16 52.08a7.997 7.997 0 002 3.28l97.28 97.12-28.88 28.88-12.32-12.32a8 8 0 00-11.28 11.28l3.76 4.16-18.32 18.32a8 8 0 000 11.28l9.52 9.52-60 60a32 32 0 00-20.8 9.28c-12.505 12.489-12.518 32.75-.029 45.255s32.75 12.518 45.255.029a31.998 31.998 0 009.334-20.804l60.08-60.08 9.52 9.52a8 8 0 0011.28 0l18.16-18.32 3.92 3.92a8 8 0 0011.28-11.28l-9.6-9.6-2.72-2.72 29.12-29.04 28.88 28.88-2.72 2.72-9.6 9.6a8 8 0 1011.28 11.28l4.16-3.76 18.32 18.32a8 8 0 0011.28 0l9.52-9.52 60.08 60.08c1.015 17.644 16.141 31.124 33.785 30.109 17.644-1.015 31.124-16.141 30.109-33.785a31.998 31.998 0 00-9.334-20.804 32.002 32.002 0 00-20.96-9.28zM63.147 71.883l-11.04-35.68 35.68 11.04 96 96-24.8 24.48-95.84-95.84zm-12.88 262.96a8.002 8.002 0 00-2.32 6.16 16 16 0 01-4.96 12.32c-6.336 6.044-16.304 6.044-22.64 0-6.252-6.245-6.257-16.376-.013-22.627l.013-.013c3-2.975 7.055-4.643 11.28-4.64h1.04a8.002 8.002 0 006.16-2.32l62.4-62.4 11.04 11.04-62 62.48zm88.72-58.56l-9.36-9.28-22.64-22.64-9.28-9.36 12.64-12.64 20.64 20.64 20.72 20.72-12.72 12.56zm15.6-32l-24.48-25.28 172-172 35.68-11.04-11.04 35.68-172.16 172.64zm51.52-28.88l24.64-24.64 29.12 28.24-24.88 24.88-28.88-28.48zm54.24 51.6l-9.36 9.28-12.64-12.72 20.64-20.56 20.72-20.72 12.56 12.72-9.28 9.28-22.64 22.72zm108.96 86.32c-6.336 6.044-16.304 6.044-22.64 0a15.998 15.998 0 01-4.56-12.32 8.002 8.002 0 00-2.32-6.16l-62.4-62.4 11.04-11.04 62.4 62.4a8.002 8.002 0 006.16 2.32h1.04a16.004 16.004 0 0111.28 4.64c6.204 6.241 6.204 16.32 0 22.56z" fill="#35231a"/></svg>