<svg xmlns="http://www.w3.org/2000/svg" viewBox="0 0 297.877 297.877"><path fill="#a05200" d="M140.301 80.093l-18.073 16.894 18.073 16.221zm45.617 26.824l-14.754 13.889h29.612zm-75.092 1.039l-13.746 12.85h28.064zm-86.525 153.85h17v19h-17zM228.424 146.65l-10.531-9.845h-61.592v61h25.333c4.418 0 7.667 3.582 7.667 8v40h83v-96.486l-.343-.514h-38.071a7.995 7.995 0 01-5.463-2.155zm25.877 67.156a8 8 0 01-8 8h-32a8 8 0 01-8-8v-32a8 8 0 018-8h32a8 8 0 018 8v32zm1 48h17v19h-17zm-148-16v-40c0-4.418 3.915-8 8.333-8h24.667v-61H79.963l-10.531 9.845a8 8 0 01-5.463 2.155H25.342l-1.041.533v96.467h83zm-17-32a8 8 0 01-8 8h-32a8 8 0 01-8-8v-32a8 8 0 018-8h32a8 8 0 018 8v32zm66-134.263v32.967l17.571-16.541zm-66 182.263h17v19h-17zm-33 0h17v19h-17zm165 0h17v19h-17zm-33 0h17v19h-17z"/><path fill="#ffc3aa" d="M156.301 57.641l80.743 75.165h32.54L156.301 27.225zm-95.489 75.165l79.489-74.616V27.775L28.274 132.806z"/><path d="M294.987 134.649L154.391 3.226a8.003 8.003 0 00-10.926 0L2.537 134.961A8.001 8.001 0 008 148.805h.301v148h280v-148h1.557a8 8 0 005.129-14.156zm-22.686 14.67v96.486h-83v-40c0-4.418-3.249-8-7.667-8h-25.333v-61h61.592l10.531 9.845a8 8 0 005.463 2.155h38.071l.343.514zm0 131.487h-17v-19h17v19zm-248-19h17v19h-17v-19zm245.283-129h-32.54l-80.743-75.165V27.225l113.283 105.581zm-241.31 0l112.027-105.03V58.19l-79.489 74.615H28.274zm112.027-52.713v33.115l-18.073-16.221 18.073-16.894zm16-.55l17.571 16.426-17.571 16.541V79.543zm-45.475 28.413l14.317 12.85H97.08l13.746-12.85zm75.092-1.039l14.857 13.889h-29.611l14.754-13.889zM25.342 148.806h38.627c2.028 0 3.981-.77 5.463-2.155l10.531-9.845h60.338v61h-24.667c-4.418 0-8.333 3.582-8.333 8v40h-83v-96.467l1.041-.533zm97.959 97v-32h50v32h-50zm-66 16h17v19h-17v-19zm33 0h17v19h-17v-19zm33 0h17v19h-17v-19zm33 0h17v19h-17v-19zm33 0h17v19h-17v-19zm33 0h17v19h-17v-19z"/><path fill="#ffc3aa" d="M123.301 213.806h50v32h-50zm0 48h17v19h-17zm33 0h17v19h-17z"/><path fill="#ffb929" d="M58.301 189.806h16v16h-16z"/><path d="M90.301 181.806a8 8 0 00-8-8h-32a8 8 0 00-8 8v32a8 8 0 008 8h32a8 8 0 008-8v-32zm-32 8h16v16h-16v-16z"/><path fill="#ffb929" d="M222.301 189.806h16v16h-16z"/><path d="M254.301 181.806a8 8 0 00-8-8h-32a8 8 0 00-8 8v32a8 8 0 008 8h32a8 8 0 008-8v-32zm-16 24h-16v-16h16v16z"/></svg>