<svg viewBox="0 0 24 24" xmlns="http://www.w3.org/2000/svg"><path d="M18.25 23.25H5.75a2 2 0 01-2-2V7.75h16.5v13.5a2 2 0 01-2 2z" fill="#ffae89"/><path d="M22.25 7.75H1.75v-2a2 2 0 012-2h16.5a2 2 0 012 2z" fill="#be6a6a"/><path d="M18.25 24H5.75A2.752 2.752 0 013 21.25V7.75A.75.75 0 013.75 7h16.5a.75.75 0 01.75.75v13.5A2.752 2.752 0 0118.25 24zM4.5 8.5v12.75c0 .689.561 1.25 1.25 1.25h12.5c.689 0 1.25-.561 1.25-1.25V8.5z"/><path d="M22.25 8.5H1.75A.75.75 0 011 7.75v-2A2.752 2.752 0 013.75 3h16.5A2.752 2.752 0 0123 5.75v2a.75.75 0 01-.75.75zM2.5 7h19V5.75c0-.689-.561-1.25-1.25-1.25H3.75c-.689 0-1.25.561-1.25 1.25z"/><path d="M15.25 4.5h-6.5A.75.75 0 018 3.75v-2C8 .785 8.785 0 9.75 0h4.5C15.215 0 16 .785 16 1.75v2a.75.75 0 01-.75.75zM9.5 3h5V1.75a.25.25 0 00-.25-.25h-4.5a.25.25 0 00-.25.25zM7.75 20a.75.75 0 01-.75-.75v-7.5a.75.75 0 011.5 0v7.5a.75.75 0 01-.75.75zM12 20a.75.75 0 01-.75-.75v-7.5a.75.75 0 011.5 0v7.5A.75.75 0 0112 20zm4.25 0a.75.75 0 01-.75-.75v-7.5a.75.75 0 011.5 0v7.5a.75.75 0 01-.75.75z"/></svg>