<svg xmlns="http://www.w3.org/2000/svg" viewBox="0 0 512.003 512.003"><path d="M182.859 484.439l40.28-40.29c15.62-15.62 15.62-40.95 0-56.57 15.606 15.606 40.949 15.62 56.57 0 15.62-15.62 15.62-40.94 0-56.57 15.594 15.613 40.949 15.64 56.57 0 15.62-15.62 15.62-40.94 0-56.56 15.62 15.62 40.95 15.62 56.57 0l17.52-17.53a80.01 80.01 0 0022.22-42.66l16.83-95.38-7.57-7.57-95.38 16.83a80.01 80.01 0 00-42.66 22.22l-17.53 17.52c-15.62 15.62-15.62 40.95 0 56.57-7.81-7.81-18.04-11.72-28.28-11.72-10.24 0-20.47 3.91-28.28 11.72-15.63 15.62-15.63 40.95 0 56.57-15.617-15.597-40.941-15.629-56.57 0-15.62 15.62-15.62 40.95 0 56.57-15.62-15.62-40.95-15.62-56.57 0l-40.29 40.28c-23.43 23.43-23.43 61.42 0 84.86l21.71 21.71c23.44 23.43 61.429 23.43 84.86 0z" fill="#4dbbeb"/><path d="M496.258 383.329l-26.06-51.056-26.06 51.056c-3.48 6.81-5.44 14.53-5.44 22.7 0 21.072 13.049 39.091 31.5 46.449 18.451-7.358 31.5-25.376 31.5-46.449 0-8.17-1.96-15.89-5.44-22.7z" fill="#ade6ff"/><path d="M477.698 118.879l18.14-18.14c7.81-7.81 7.81-20.47 0-28.28l-22.07-22.07c-7.81-7.81-20.47-7.81-28.28 0l-18.14 18.14c-7.81 7.81-7.81 20.47 0 28.28l22.07 22.07c7.81 7.81 20.47 7.81 28.28 0z" fill="#ed5151"/><path d="M378.958 232.019c3.9-3.91 3.9-10.24 0-14.14a10 10 0 00-14.15 0c-3.9 3.9-3.9 10.23 0 14.14a10 10 0 0014.15 0z"/><path fill="#5da3ff" d="M20.466 420.801l70.712 70.711c27.297 27.284 71.706 27.291 99.002-.002l40.279-40.29c11.548-11.548 16.253-27.387 14.119-42.433 15.591 2.199 31.173-2.859 42.45-14.136 11.544-11.544 16.248-27.379 14.117-42.425 15.508 2.19 31.114-2.794 42.454-14.145 11.545-11.545 16.249-27.378 14.119-42.42 15.655 2.21 31.214-2.903 42.454-14.143l17.515-17.524c13.118-13.106 21.762-29.702 24.999-47.997l14.47-82.005c9.933 2.239 20.41-.587 27.864-8.041l18.14-18.14c11.724-11.724 11.726-30.697 0-42.422L446.589 8.818c-11.724-11.722-30.697-11.726-42.423 0l-18.14 18.14c-7.438 7.438-10.285 17.911-8.041 27.863l-82.012 14.471c-18.29 3.237-34.885 11.882-47.985 24.994l-17.532 17.522c-11.546 11.546-16.251 27.381-14.121 42.424-15.155-2.14-30.858 2.565-42.438 14.144-11.563 11.556-16.291 27.246-14.152 42.433-15.149-2.131-30.848 2.568-42.419 14.139-11.234 11.234-16.351 26.789-14.141 42.449-15.045-2.132-30.881 2.573-42.429 14.12l-40.291 40.281c-27.286 27.289-27.287 71.701.001 99.003zM400.171 41.1l18.14-18.14a9.99 9.99 0 0114.138 0l56.569 56.571a9.99 9.99 0 010 14.138l-18.14 18.14a9.99 9.99 0 01-14.138 0l-56.57-56.571a9.988 9.988 0 01.001-14.138zm-155.573 84.852l17.535-17.525c10.19-10.2 23.099-16.922 37.322-19.44l90.254-15.925 49.207 49.208-15.924 90.248c-2.518 14.229-9.24 27.137-19.446 37.333l-17.518 17.527c-11.697 11.698-30.73 11.698-42.428 0l-99-99c-11.698-11.698-11.698-30.73-.002-42.426zM188.04 182.52c11.729-11.729 30.687-11.731 42.418 0l99 99c11.695 11.694 11.695 30.723-.004 42.422-11.711 11.725-30.707 11.727-42.424-.004l-98.993-98.992c-11.728-11.72-11.734-30.698.003-42.426zm-56.571 56.57c11.713-11.714 30.681-11.718 42.419-.007l.008.008 98.986 98.985.001.001v.001c11.695 11.703 11.696 30.736.002 42.43-11.692 11.692-30.686 11.741-42.427 0l-98.99-98.99c-11.72-11.722-11.723-30.703.001-42.428zM74.9 295.66c11.697-11.698 30.73-11.698 42.428 0l98.99 98.989c11.697 11.698 11.697 30.731-.001 42.429l-40.279 40.289c-19.492 19.493-51.218 19.492-70.718 0L34.611 406.66c-19.493-19.502-19.493-51.227-.002-70.719L74.9 295.66zm385.955-4.177a10.001 10.001 0 00-17.814 0l-44.557 87.295c-20.252 39.621 8.607 87.251 53.464 87.251 44.849 0 73.718-47.622 53.467-87.247l-44.56-87.299zm-8.907 154.546c-29.934 0-49.128-31.79-35.652-58.154l35.652-69.85 35.655 69.854c13.458 26.335-5.692 58.15-35.655 58.15z"/><path d="M350.671 189.588l-48.28-48.28c-3.906-3.905-10.236-3.905-14.143 0-3.905 3.905-3.905 10.237 0 14.142l48.28 48.28c3.906 3.905 10.236 3.905 14.143 0 3.905-3.906 3.905-10.237 0-14.142z"/></svg>