<svg viewBox="0 0 512 512" xmlns="http://www.w3.org/2000/svg"><path d="M439.828 238.198c36.077-36.077 45.912-88.45 29.523-133.422l-64.669 64.669-59.761-16.013-16.013-59.761 64.669-64.669c-44.972-16.389-97.345-6.553-133.422 29.524-31.436 31.436-42.949 75.246-34.548 115.751 3.97 19.138-2.398 38.946-17.043 51.89L28.352 385.456C1.893 408.199.368 448.644 25.039 473.315c24.671 24.671 65.115 23.146 87.859-3.313l159.29-180.214c12.944-14.644 32.753-21.012 51.89-17.043 40.504 8.402 84.314-3.111 115.75-34.547z" fill="#e7ecf6"/><path d="M500.091 315.6l-44.807-25.869a8.774 8.774 0 00-8.773 0L401.704 315.6a8.773 8.773 0 00-4.386 7.598v51.739a8.774 8.774 0 004.386 7.598l44.807 25.869a8.774 8.774 0 008.773 0l44.807-25.869a8.775 8.775 0 004.387-7.598v-51.739a8.774 8.774 0 00-4.387-7.598zm-49.194 53.65c-11.147 0-20.183-9.037-20.183-20.183 0-11.147 9.037-20.183 20.183-20.183 11.147 0 20.183 9.036 20.183 20.183.001 11.147-9.036 20.183-20.183 20.183zm-105.867 6.862l-44.807-25.869a8.774 8.774 0 00-8.773 0l-44.807 25.869a8.773 8.773 0 00-4.386 7.598v51.739a8.774 8.774 0 004.386 7.598l44.807 25.869a8.774 8.774 0 008.773 0l44.807-25.869a8.775 8.775 0 004.387-7.598V383.71a8.776 8.776 0 00-4.387-7.598zm-49.194 53.65c-11.147 0-20.183-9.037-20.183-20.183 0-11.147 9.037-20.183 20.183-20.183 11.147 0 20.183 9.036 20.183 20.183s-9.036 20.183-20.183 20.183z" fill="#365e7d"/><path d="M283.929 153.071a7.5 7.5 0 00-10.606-.001l-8.242 8.241a7.498 7.498 0 00-.001 10.606 7.476 7.476 0 005.304 2.197 7.477 7.477 0 005.303-2.196l8.242-8.241a7.5 7.5 0 000-10.606zm6.906 41.496a7.478 7.478 0 005.304-2.197l8.241-8.242a7.498 7.498 0 00-.001-10.606 7.5 7.5 0 00-10.606.001l-8.241 8.242a7.498 7.498 0 005.303 12.802zm23.39-.593l-8.241 8.242a7.498 7.498 0 005.304 12.802 7.478 7.478 0 005.304-2.197l8.241-8.242a7.5 7.5 0 00-10.608-10.605zm12.21 39.301c1.465 1.464 3.385 2.196 5.304 2.196s3.839-.732 5.304-2.196l8.242-8.242a7.5 7.5 0 00-10.607-10.607l-8.242 8.242a7.5 7.5 0 00-.001 10.607zM61.89 425.858l-13.838 13.837a7.498 7.498 0 00-.001 10.606 7.5 7.5 0 0010.606.001l13.838-13.837a7.5 7.5 0 00-10.605-10.607zm286.89-56.242l-44.807-25.869a16.316 16.316 0 00-16.273 0l-44.809 25.869a16.32 16.32 0 00-8.135 14.093v51.739a16.32 16.32 0 008.136 14.093L287.7 475.41c2.51 1.449 5.323 2.173 8.137 2.173s5.627-.724 8.137-2.173l44.807-25.869a16.318 16.318 0 008.137-14.093v-51.739a16.327 16.327 0 00-8.138-14.093zm-6.864 65.833c0 .453-.244.876-.637 1.103l-44.807 25.869a1.275 1.275 0 01-1.273 0l-44.807-25.869a1.277 1.277 0 01-.637-1.103V383.71c0-.453.244-.876.636-1.103l44.808-25.869a1.277 1.277 0 011.274 0l44.807 25.869c.393.227.637.649.637 1.103v51.739z"/><path d="M295.836 381.896c-15.265 0-27.684 12.419-27.684 27.684s12.419 27.683 27.684 27.683 27.683-12.418 27.683-27.683-12.418-27.684-27.683-27.684zm0 40.366c-6.994 0-12.684-5.689-12.684-12.683s5.689-12.684 12.684-12.684c6.993 0 12.683 5.689 12.683 12.684 0 6.994-5.69 12.683-12.683 12.683zm127.378-73.195c0 15.265 12.419 27.684 27.684 27.684s27.683-12.419 27.683-27.684-12.418-27.683-27.683-27.683-27.684 12.418-27.684 27.683zm40.366 0c0 6.994-5.689 12.684-12.683 12.684s-12.684-5.689-12.684-12.684c0-6.993 5.689-12.683 12.684-12.683 6.994 0 12.683 5.69 12.683 12.683z"/><path d="M503.841 309.105l-44.807-25.869a16.319 16.319 0 00-16.273 0l-44.809 25.869a16.32 16.32 0 00-8.136 14.093v51.739a16.32 16.32 0 008.137 14.093l44.807 25.869a16.272 16.272 0 008.138 2.174c2.813 0 5.627-.725 8.136-2.174l16.074-9.28a7.5 7.5 0 00-7.5-12.99l-16.075 9.28a1.271 1.271 0 01-1.271 0l-44.807-25.869a1.275 1.275 0 01-.638-1.103v-51.739c0-.453.244-.876.637-1.103l44.809-25.869a1.271 1.271 0 011.271 0l44.807 25.869c.394.227.638.649.638 1.103v51.739c0 .453-.244.876-.636 1.103l-2.693 1.555a7.498 7.498 0 00-2.746 10.244 7.5 7.5 0 0010.244 2.746l2.695-1.556a16.317 16.317 0 008.136-14.092v-51.739a16.321 16.321 0 00-8.138-14.093zm-181.287-29.016c44.431 9.216 90.304-4.315 122.577-36.588 37.988-37.986 48.732-93.366 31.268-141.294a7.501 7.501 0 00-12.351-2.735l-61.606 61.607-51.396-13.771-13.772-51.396 7.386-7.385a7.5 7.5 0 00-10.607-10.607l-10.447 10.447a7.5 7.5 0 00-1.94 7.245l16.014 59.761a7.5 7.5 0 005.303 5.303l59.761 16.013a7.504 7.504 0 007.245-1.94l55.869-55.87c10.241 40.488-1.453 84.139-31.331 114.016-28.575 28.576-69.293 40.73-108.924 32.508-21.826-4.527-44.445 2.914-59.032 19.42l-159.29 180.214a2.53 2.53 0 00-.068.078c-4.959 5.769-10.955 10.296-17.821 13.454a7.498 7.498 0 00-3.68 9.947 7.499 7.499 0 009.947 3.68c8.823-4.058 16.526-9.866 22.895-17.264L277.81 294.756c11.031-12.483 28.174-18.107 44.744-14.667z"/><path d="M63.143 483.185a52.433 52.433 0 01-32.801-15.174c-21.48-21.478-20.41-56.832 2.898-76.867a2.53 2.53 0 00.078-.068l180.214-159.29c16.505-14.588 23.946-37.208 19.42-59.033-8.221-39.629 3.931-80.348 32.507-108.923 29.877-29.878 73.525-41.574 114.016-31.331l-24.219 24.218a7.5 7.5 0 0010.607 10.607l33.018-33.018a7.501 7.501 0 00-2.735-12.351C348.213 4.49 292.839 15.237 254.852 53.222c-32.16 32.161-45.838 77.983-36.587 122.576 3.436 16.569-2.184 33.716-14.666 44.749L23.421 379.805c-29.688 25.56-31.413 71.085-3.686 98.812a67.45 67.45 0 0042.194 19.519c4.118.332 7.746-2.73 8.082-6.869a7.498 7.498 0 00-6.868-8.082z"/></svg>